<svg width="314" height="305" viewBox="0 0 314 305" fill="none" xmlns="http://www.w3.org/2000/svg">
<path d="M194.058 13.3765C195.508 9.00452 196.727 4.55566 197.695 0.0452881C196.414 4.46852 195.205 8.91226 194.058 13.3765Z" fill="#FFDA00"/>
<path d="M248.571 129.242C262.303 121.103 276.742 114.158 291.673 108.509C274.181 112.671 256.137 114.486 238.169 113.891C222.757 113.379 206.095 110.442 195.641 99.0941C182.303 84.6148 183.86 62.1654 187.497 42.8119C189.356 32.9301 191.548 23.1098 194.053 13.3715C187.548 32.9762 176.321 50.9972 161.687 65.5533C154.06 73.139 143.745 85.2606 133.055 81.2986C121.659 77.0702 111.661 64.9742 105.084 55.2564C96.5046 42.5915 90.686 28.2864 84.934 14.1044C95.68 42.9656 103.706 73.918 99.1885 104.384C98.9529 105.972 98.6405 107.643 97.5802 108.843C96.3253 110.257 94.3175 110.698 92.4429 110.918C65.9468 114.096 43.784 91.5392 18.1535 84.0971C40.6288 97.2489 63.6778 110.893 79.6174 131.492C85.8406 139.539 90.9985 150.282 86.906 159.6C84.2528 165.642 78.3472 169.487 72.7283 172.941C54.2021 184.33 35.4044 195.278 16.6118 206.226C47.2208 203.196 75.9603 186.247 106.672 187.964C111.65 188.24 116.88 189.137 120.686 192.356C127.836 198.394 127.016 209.455 125.572 218.706C123.011 235.077 120.455 251.452 117.894 267.823C131.252 246.916 149.102 228.9 169.877 215.354C173.596 212.93 175.906 203.817 180.336 203.54C185.791 203.196 194.294 207.937 198.96 210.782C210.387 217.753 219.904 230.443 227.95 241.145C237.242 253.502 244.228 262.841 255.163 278.253C242.225 256.198 231.254 232.98 222.424 208.978C216.595 193.12 211.724 175.376 217.911 159.656C223.289 146.002 235.956 136.725 248.571 129.242Z" fill="#FFDA00"/>
<path d="M90.3892 131.748C91.3931 132.307 92.4123 132.84 93.4521 133.321C93.7389 131.902 91.9667 131.492 90.3892 131.748Z" fill="#FF2703"/>
<path d="M249.104 117.228C251.619 107.525 247.972 96.5107 240.166 90.227C232.366 83.9483 220.826 82.7439 211.898 87.2799C212.216 84.1636 210.044 81.1857 207.252 79.7609C204.466 78.336 201.198 78.2079 198.079 78.4693C182.303 79.7916 168.96 90.0168 155.003 97.4897C152.724 98.7095 150.281 99.8935 147.699 99.7961C143.596 99.6424 140.385 96.4031 137.353 93.6302C129.516 86.47 120.215 82.2262 110.718 77.7671C101.033 73.2157 90.8296 70.0123 81.1542 76.7933C71.5966 83.4922 67.8166 96.7465 70.8488 108.028C73.5839 118.196 81.1542 126.597 90.384 131.743C91.9565 131.487 93.7338 131.902 93.447 133.316C92.4072 132.835 91.3879 132.302 90.384 131.743C89.9794 131.809 89.585 131.917 89.247 132.066C80.7905 135.766 72.7183 140.333 65.189 145.674C60.2923 149.149 55.3394 153.382 53.936 159.225C52.5325 165.068 56.7274 172.428 62.7099 171.936C58.1053 184.678 62.9916 200.213 74.0551 208.019C85.1237 215.825 101.386 215.205 111.83 206.579C109.679 216.256 108.588 226.783 112.803 235.753C116.552 243.733 124.205 249.474 132.61 252.108C141.015 254.748 150.112 254.522 158.757 252.815C165.816 251.426 172.812 248.992 178.482 244.558C184.147 240.125 188.352 233.472 188.665 226.281C201.301 227.352 214.162 225.661 226.096 221.366C234.732 218.255 243.567 213.011 246.513 204.309C247.936 200.095 247.808 195.534 247.537 191.095C247.04 182.843 246.123 174.612 244.792 166.452C244.52 164.786 244.254 162.987 245.032 161.491C245.632 160.343 246.753 159.579 247.798 158.81C254.549 153.823 259.722 146.268 260.455 137.904C261.177 129.544 256.797 120.59 249.104 117.228Z" fill="#FF2703"/>
<path d="M239.961 117.817C245.216 113.368 245.452 104.696 241.513 99.0427C237.574 93.3894 230.465 90.5858 223.581 90.3756C216.697 90.1655 209.951 92.2105 203.493 94.5938C207.267 91.6621 207.237 85.5424 204.435 81.6675C201.633 77.7978 196.88 75.8348 192.204 74.8661C188.895 74.1793 185.432 73.9025 182.144 74.6816C176.402 76.0449 171.921 80.3759 168.069 84.6095C180.674 68.2184 141.219 58.68 131.283 59.5667C122.135 60.3817 112.956 65.6198 109.55 74.1537C108.096 72.8826 105.857 73.4054 104.029 74.0255C93.4108 77.6287 82.0553 83.3435 78.4546 93.9737C76.2112 100.606 77.5326 108.033 80.5392 114.352C83.5458 120.677 88.1095 126.105 92.622 131.456C83.0593 132.184 73.6963 135.428 65.7316 140.764C60.0615 144.562 54.709 150.312 55.0112 157.134C55.3288 164.346 62.4791 170.03 69.6857 170.245C64.3845 180.829 66.7918 194.739 75.3353 202.925C83.8839 211.11 97.8772 212.904 108.213 207.143C105.447 211.792 105.919 217.855 108.3 222.719C110.677 227.578 114.718 231.422 118.959 234.774C127.477 241.514 137.532 246.86 148.365 247.644C159.198 248.433 170.819 243.938 176.505 234.677C181.022 227.317 181.304 218.209 181.401 209.567C188.352 215.62 197.971 217.963 207.175 217.522C216.38 217.081 225.271 214.083 233.764 210.5C240.048 207.85 246.492 204.611 250.267 198.927C252.991 194.821 254.042 189.834 254.59 184.94C255.394 177.795 255.004 169.866 250.272 164.453C260.767 161.87 266.324 148.857 263.189 138.508C260.055 128.165 250.333 120.867 239.961 117.817Z" fill="#F3920F"/>
<path d="M222.577 140.948C218.531 136.515 212.087 135.116 206.09 135.218C200.092 135.321 194.16 136.679 188.163 136.715C193.746 133.942 198.104 128.786 199.902 122.815C200.404 121.154 200.717 119.37 200.286 117.684C199.272 113.691 194.627 111.815 190.519 111.554C184.715 111.185 178.82 112.917 174.082 116.28C173.662 117.315 172.848 118.109 171.68 118.212C172.438 117.515 173.242 116.874 174.082 116.28C174.763 114.604 174.395 112.297 172.766 111.313C171.04 110.268 169.006 110.672 167.449 111.774C166.886 112.63 166.205 113.445 165.406 114.194C165.831 113.25 166.563 112.4 167.449 111.774C171.321 105.87 169.57 97.8537 163.008 94.1071C158.957 91.7955 154.03 91.57 149.404 92.1543C146.531 92.5182 143.611 93.205 141.25 94.881C139.007 96.475 137.363 99.1146 137.501 101.841C137.542 101.975 137.562 102.118 137.537 102.277C137.521 102.133 137.511 101.985 137.501 101.841C137.286 101.098 136.21 100.688 135.339 100.637C128.061 100.222 121.377 106.239 119.712 113.343C118.048 120.447 120.711 128.078 125.382 133.68C124.317 132.43 122.345 132.727 120.762 133.173C114.954 134.808 109.11 137.109 104.879 141.415C98.159 148.252 96.9963 159.871 102.231 167.908C107.466 175.945 118.555 179.573 127.523 176.18C125.244 181.972 125.587 188.768 128.548 194.242C131.508 199.721 137.05 203.75 143.192 204.765C146.808 205.365 150.634 204.929 153.912 203.273C161.4 199.491 164.489 190.521 166.235 182.305C168.289 188.251 174.128 192.254 180.229 193.781C185.13 195.006 190.549 194.832 194.949 192.346C199.349 189.86 202.432 184.781 201.695 179.784C208.82 183.561 218.285 180.399 223.156 173.971C228.032 167.544 228.872 158.744 227.161 150.856C226.383 147.258 225.061 143.67 222.577 140.948Z" fill="#FFD506"/>
<path d="M174.087 116.285C173.247 116.879 172.443 117.52 171.685 118.217C172.858 118.114 173.667 117.315 174.087 116.285Z" fill="#FFD506"/>
<path d="M165.416 114.199C166.22 113.45 166.901 112.635 167.46 111.78C166.574 112.405 165.841 113.256 165.416 114.199Z" fill="#FFD506"/>
<path d="M137.516 101.841C137.521 101.985 137.531 102.133 137.552 102.277C137.572 102.123 137.552 101.98 137.516 101.841Z" fill="#FFD506"/>
<path d="M210.561 108.54C209.373 108.817 208.215 109.212 207.125 109.735C208.313 109.468 209.46 109.053 210.561 108.54Z" fill="#F2790A"/>
<path d="M239.946 117.827C245.201 113.379 245.437 104.706 241.498 99.053C237.559 93.3997 230.45 90.5961 223.566 90.3859C222.844 90.3654 222.122 90.3706 221.399 90.3962C221.466 91.1804 221.497 91.9748 221.456 92.7641C221.092 99.4836 216.621 105.716 210.561 108.54C216.057 107.254 222.245 108.612 225.722 112.984C229.958 118.304 227.925 127.822 221.394 129.713C228.657 129.032 236.176 132.081 240.909 137.637C245.258 142.742 247.178 149.979 245.37 156.437C243.562 162.895 237.846 168.231 231.198 169.046C234.107 178.528 232.371 189.701 225.471 196.825C218.572 203.95 206.341 205.8 198.427 199.819C189.986 206.41 176.562 205.329 169.278 197.476C172.659 208.435 168.848 221.258 160.033 228.588C157.605 230.607 154.675 232.278 151.52 232.283C148.365 232.288 145.056 230.166 144.595 227.04C136.994 230.453 127.355 227.568 122.166 221.048C116.977 214.529 116.143 205.098 119.257 197.364C109.433 207.609 91.0192 207.707 81.0928 197.558C71.1612 187.41 71.6427 168.994 82.0865 159.379C75.6993 161.014 68.8666 162.639 62.6434 160.471C59.5395 159.389 56.8043 156.945 55.2472 154.059C55.0423 155.058 54.9399 156.084 54.986 157.139C55.3036 164.351 62.4539 170.035 69.6605 170.25C64.3592 180.834 66.7666 194.745 75.3101 202.93C83.8587 211.115 97.8519 212.909 108.188 207.148C105.422 211.797 105.893 217.86 108.275 222.724C110.652 227.583 114.693 231.427 118.934 234.779C127.452 241.519 137.506 246.865 148.339 247.649C159.172 248.438 170.794 243.943 176.48 234.682C180.997 227.322 181.279 218.214 181.376 209.572C188.327 215.626 197.946 217.968 207.15 217.527C216.354 217.086 225.246 214.088 233.738 210.505C240.023 207.855 246.466 204.616 250.241 198.932C252.966 194.827 254.016 189.84 254.564 184.945C255.363 177.8 254.974 169.871 250.246 164.458C260.741 161.875 266.299 148.862 263.164 138.514C260.04 128.176 250.313 120.877 239.946 117.827Z" fill="#F2790A"/>
<path d="M191.538 144.367C187.625 140.917 182.206 139.247 177.038 139.892C178.503 138.673 179.978 137.391 180.905 135.72C181.832 134.055 182.108 131.897 181.13 130.262C180.101 128.534 177.985 127.796 175.998 127.463C172.044 126.797 167.91 127.233 164.181 128.698C165.79 127.289 166.865 124.993 166.107 122.994C165.354 120.995 162.245 120.129 160.996 121.861C165.216 115.998 160.596 107.023 153.144 106.546C148.631 106.259 143.924 108.161 141.245 111.805C138.561 115.449 138.223 120.8 140.794 124.521C139.954 123.793 138.7 124.757 138.167 125.731C136.031 129.626 137.061 134.977 140.492 137.796C134.633 139.334 128.476 141.035 124.179 145.31C119.876 149.585 118.381 157.319 122.673 161.599C126.796 165.709 133.644 164.694 139.171 162.88C136.39 166.355 136.451 171.875 139.483 175.13C142.515 178.389 148.221 178.753 151.494 175.74C154.972 172.546 155.049 167.165 156.99 162.859C157.528 165.294 158.138 167.857 159.859 169.656C161.58 171.455 164.812 172.06 166.497 170.225C166.092 173.751 169.831 176.349 173.288 177.159C179.353 178.574 186.283 176.872 190.329 172.136C194.376 167.401 194.75 159.62 190.514 155.048C192.895 155.381 194.97 152.896 194.934 150.487C194.898 148.088 193.341 145.956 191.538 144.367Z" fill="#FFF87B"/>
<path d="M146.936 161.798C146.388 161.624 145.85 161.363 145.481 160.922C145.071 160.425 144.923 159.764 144.846 159.123C144.549 156.642 145.133 154.059 146.47 151.947C143.683 152.603 140.533 153.095 138.136 151.522C137.122 150.856 136.297 149.523 136.881 148.457C137.214 147.847 137.911 147.524 138.587 147.36C140.672 146.853 143.002 147.504 144.518 149.026C143.135 147.642 142.454 145.705 140.523 144.628C138.638 143.583 136.344 143.736 134.505 144.915C132.738 146.048 131.58 148.042 131.334 150.128C131.14 151.773 131.539 153.562 132.702 154.741C134.766 156.832 138.234 156.314 141.02 155.392C139.535 157.601 139.365 160.661 140.702 162.962C142.039 165.263 144.851 166.647 147.474 166.191C150.096 165.735 152.309 163.413 152.534 160.758C150.992 161.988 148.826 162.393 146.936 161.798Z" fill="white"/>
<path d="M149.968 114.819C148.068 115.337 146.521 116.905 145.886 118.771C145.251 120.636 145.486 122.748 146.372 124.511C144.692 124.173 143.243 126.1 143.412 127.807C143.811 131.753 147.166 132.066 149.937 133.532C148.764 132.891 147.566 132.23 146.659 131.246C145.753 130.262 145.164 128.878 145.466 127.576C145.712 126.515 146.562 125.618 147.602 125.305C148.467 125.049 149.43 125.213 150.183 125.705C149.312 124.89 148.928 123.578 149.2 122.404C149.512 121.046 150.629 119.939 151.95 119.509C154.086 118.812 156.652 119.99 157.523 122.056C157.779 120.011 157.103 117.843 155.648 116.392C154.194 114.942 151.955 114.281 149.968 114.819Z" fill="white"/>
<path d="M150.634 126.054C150.501 125.921 150.347 125.813 150.188 125.71C150.327 125.839 150.47 125.956 150.634 126.054Z" fill="white"/>
<path d="M177.181 149.497C178.452 151.009 179.563 152.742 179.865 154.694C180.173 156.647 179.517 158.846 177.868 159.933C176.223 161.024 173.606 160.543 172.807 158.738C171.737 160.076 170.108 160.912 168.412 161.163C166.927 161.383 165.314 161.142 164.156 160.189C162.999 159.236 162.456 157.472 163.173 156.155C162.159 157.375 161.723 159.015 161.959 160.578C161.882 160.379 161.785 159.974 161.733 159.784C160.97 161.373 163.096 163.192 164.545 163.587C166.415 164.1 168.412 163.52 170.164 162.7C170.277 165.33 172.602 167.575 175.209 167.954C177.811 168.333 180.495 167.062 182.18 165.038C184.239 162.562 184.89 158.995 183.881 155.935C182.882 152.86 180.275 150.389 177.181 149.497Z" fill="white"/>
<path d="M152.145 143.916C152.166 144.295 152.212 144.674 152.314 145.043C152.263 144.669 152.201 144.295 152.145 143.916Z" fill="white"/>
<path d="M167.931 138.857C165.744 137.929 163.167 138.257 161.037 139.313C161.769 137.586 160.391 135.474 158.573 134.997C156.755 134.521 154.803 135.346 153.431 136.627C151.341 138.575 151.74 141.297 152.145 143.911C152.063 142.194 152.801 140.43 154.153 139.359C154.829 138.826 155.73 138.447 156.55 138.708C157.431 138.99 157.958 139.949 158.025 140.876C158.092 141.804 157.789 142.711 157.487 143.588C159.024 142.916 160.668 142.229 162.327 142.475C163.987 142.721 165.57 144.305 165.155 145.935C164.976 146.642 164.468 147.216 163.91 147.683C161.795 149.446 158.824 149.933 156.099 149.518C158.189 151.009 160.857 151.67 163.403 151.322C165.949 150.973 168.341 149.625 169.954 147.626C170.687 146.719 171.276 145.653 171.429 144.495C171.747 142.142 170.118 139.785 167.931 138.857Z" fill="white"/>
<path d="M118.596 168.031C118.023 168.139 117.449 168.18 116.87 168.19C117.449 168.236 118.028 168.19 118.596 168.031Z" fill="#FFF87B"/>
<path d="M114.068 142.993C116.706 141.041 119.902 139.641 123.18 139.826C118.166 139.539 112.076 139.949 108.439 143.972C104.936 147.852 103.543 154.238 105.069 159.195C106.631 164.274 111.656 168.241 116.87 168.185C114.821 168.016 112.849 166.637 111.692 164.863C110.211 162.593 109.771 159.815 109.397 157.129C108.956 153.977 108.593 150.625 109.909 147.729C110.795 145.802 112.363 144.254 114.068 142.993Z" fill="#FFF87B"/>
<path d="M143.043 100.473C141.209 101.482 140.005 103.548 140.041 105.644C135.759 105.275 131.216 106.551 128.23 109.642C123.067 114.988 125.331 121.948 129.398 127.017C126.991 124.019 126.156 119.821 127.231 116.131C128.307 112.435 131.267 109.35 134.909 108.115C136.968 107.418 139.473 107.382 141.076 108.853C140.538 106.654 141.204 104.194 142.787 102.574C144.369 100.954 146.807 100.227 149.02 100.713C147.268 99.5603 144.876 99.468 143.043 100.473Z" fill="#FFF87B"/>
<path d="M216.912 143.998C214.367 140.825 210.3 139.144 206.248 138.821C202.197 138.498 198.145 139.416 194.289 140.697C199.339 139.021 204.676 140.133 208.891 143.234C211.422 145.094 213.409 147.872 213.752 150.994C214.095 154.115 212.513 157.518 209.639 158.784C211.514 160.65 211.386 163.997 209.67 166.011C207.954 168.026 205.019 168.748 202.427 168.21C203.518 171.034 200.64 174.509 197.669 173.961C199.59 175.857 202.975 175.991 205.045 174.258C205.378 173.976 205.685 173.658 206.054 173.423C206.633 173.059 207.324 172.936 207.995 172.803C211.201 172.162 214.505 170.988 216.559 168.446C218.618 165.904 218.854 161.68 216.318 159.61C220.196 155.463 220.462 148.421 216.912 143.998Z" fill="#FFF87B"/>
<path d="M138.008 71.9139C132.594 70.4172 126.694 71.2578 121.572 73.5642C116.695 75.7631 112.132 79.7558 111.343 85.0503C108.065 84.1175 104.459 84.0047 101.314 85.322C98.4663 86.5111 96.1922 88.7765 94.3431 91.2469C90.4658 96.4185 88.1199 102.892 88.5911 109.345C88.9241 113.886 90.7424 118.371 93.8053 121.753C96.9195 125.193 101.391 125.556 104.818 128.258C98.4561 123.245 94.5326 114.885 95.89 106.895C97.2422 98.9094 104.459 91.9901 112.557 92.0158C115.564 92.026 118.965 93.3074 119.912 96.1673C118.575 90.8728 121.116 85.0503 125.418 81.688C129.721 78.3258 135.483 77.2135 140.912 77.7671C144.523 78.131 148.442 79.4892 150.076 82.7285C148.242 77.4186 143.422 73.4105 138.008 71.9139Z" fill="#FFAD08"/>
<path d="M82.2603 142.542C83.4691 141.532 85.0057 140.999 86.5218 140.579C89.9791 139.626 93.5645 139.149 97.1448 139.159C94.4762 139.149 91.7564 138.006 88.9752 138.047C86.3015 138.088 83.3052 138.386 80.8261 139.446C77.4712 140.876 72.4261 143.383 72.1392 147.524C71.8985 151.025 75.9193 154.064 79.2127 152.88C78.7261 153.9 80.3037 154.602 81.4305 154.638C83.4025 154.705 85.3744 154.771 87.3464 154.843C84.473 158.093 82.46 162.101 81.5739 166.35C81.0822 168.713 80.9439 171.245 81.8352 173.489C82.9364 176.262 85.4974 178.251 88.2684 179.343C91.0394 180.44 94.0511 180.757 97.0167 181.065C91.065 179.85 87.3054 173.295 87.6128 167.226C87.9201 161.153 91.403 155.679 95.5314 151.214C93.1138 151.696 90.6296 151.855 88.171 151.681C87.4284 151.63 86.6396 151.527 86.0608 151.061C85.482 150.594 85.2413 149.631 85.7637 149.098C83.8225 150.297 80.8568 148.949 80.4727 146.699C80.2166 145.141 81.0515 143.557 82.2603 142.542Z" fill="#FFAD08"/>
<path d="M205.762 49.9157C206.95 55.0616 212.682 54.4414 214.956 51.0381C222.49 39.793 224.278 23.4582 233.999 13.6584C227.925 19.7782 221.84 25.9082 216.334 32.5559C213.347 36.1539 204.594 44.8466 205.762 49.9157Z" fill="#FFDA00"/>
<path d="M213.363 40.2337C211.934 41.8995 208.343 45.0772 208.492 47.5016C208.61 49.4595 210.966 49.7158 212.185 48.5779C214.126 46.7686 215.14 42.9399 216.211 40.5618C217.419 37.8812 218.674 35.1954 220.359 32.7762C218.49 35.4568 215.514 37.7274 213.363 40.2337Z" fill="#FF6903"/>
<path d="M30.6512 207.476C20.3458 214.841 11.6948 228.762 0.539062 234.067C7.50497 230.751 14.4914 227.435 21.3036 223.457C24.9966 221.299 34.9844 216.64 36.4801 211.715C38.0013 206.707 33.7654 205.247 30.6512 207.476Z" fill="#FFDA00"/>
<path d="M31.4451 210.644C29.2836 211.571 26.8456 214.626 25.0272 216.364C22.9733 218.327 20.8938 220.274 18.6299 221.838C21.1397 220.11 24.2231 219.136 26.8456 217.66C28.587 216.681 32.5054 215.113 33.5041 212.904C34.3083 211.115 32.8024 210.059 31.4451 210.644Z" fill="#FF6903"/>
<path d="M249.637 231.089C246.784 231.381 246.123 235.784 247.48 237.906C251.972 244.917 260.07 248.177 263.441 256.67C261.335 251.365 259.225 246.05 256.756 241.109C255.409 238.434 252.444 230.802 249.637 231.089Z" fill="#FFDA00"/>
<path d="M250.41 233.436C249.381 233.298 248.848 235.046 249.222 236.101C249.821 237.777 251.614 238.997 252.654 240.084C253.827 241.314 254.989 242.57 255.947 244.133C254.887 242.406 254.231 239.889 253.315 237.972C252.7 236.691 251.681 233.605 250.41 233.436Z" fill="#FF6903"/>
<path d="M257.771 104.389C257.591 107.254 261.817 108.632 264.132 107.643C271.784 104.368 276.333 96.9157 285.26 94.9885C279.688 96.193 274.1 97.3975 268.824 99.0222C265.966 99.8987 257.95 101.57 257.771 104.389Z" fill="#FFDA00"/>
<path d="M260.209 104.014C259.901 105.003 261.54 105.824 262.636 105.624C264.388 105.311 265.884 103.738 267.128 102.892C268.532 101.938 269.966 100.995 271.661 100.309C269.787 101.067 267.195 101.303 265.151 101.892C263.799 102.292 260.588 102.789 260.209 104.014Z" fill="#FF6903"/>
<path d="M36.3829 64.769C29.2582 60.4637 20.5559 61.1095 13.7847 54.9795C18.0154 58.8082 22.2513 62.6471 26.646 65.9889C29.0277 67.7982 35.0614 73.3387 37.4534 71.837C39.8812 70.3147 38.5392 66.0709 36.3829 64.769Z" fill="#FFDA00"/>
<path d="M30.7793 65.1023C29.1864 64.518 27.5832 63.9029 26.0415 62.924C27.7522 64.0054 29.4527 65.9736 31.1225 67.2908C32.234 68.1621 34.5082 70.4839 35.7272 70.0739C36.7106 69.7459 36.4187 67.9366 35.6196 67.1575C34.3391 65.9172 32.193 65.6199 30.7793 65.1023Z" fill="#FF6903"/>
<path d="M286.151 125.582C285.691 127.95 289.619 130.287 291.944 130.093C299.633 129.447 304.755 124.414 313.534 125.259C308.053 124.731 302.557 124.198 297.323 124.106C294.48 124.065 286.602 123.25 286.151 125.582Z" fill="#FFDA00"/>
<path d="M293.501 125.526C292.159 125.48 289.02 125.013 288.533 125.941C288.139 126.694 289.629 127.837 290.71 127.976C292.426 128.196 294.024 127.284 295.304 126.915C296.749 126.5 298.224 126.1 299.924 125.992C298.034 126.11 295.525 125.592 293.501 125.526Z" fill="#FF6903"/>
</svg>
