<svg width="294" height="298" viewBox="0 0 294 298" fill="none" xmlns="http://www.w3.org/2000/svg">
<g opacity="0.78">
<path d="M84.9217 28.2026C81.0961 25.4008 75.5143 25.6212 71.5664 28.2418C67.6185 30.8623 65.2899 35.5549 64.9572 40.2866C64.0229 38.0236 60.8724 37.039 58.8177 38.3616C56.4696 39.8751 56.5576 43.1815 58.2454 45.1114C52.5853 41.7267 44.577 44.5873 40.1399 48.8341C35.8789 52.9094 33.7362 59.0959 34.5581 64.9395C23.8983 70.9987 19.3194 85.8502 24.7104 96.8762C26.4422 100.423 29.7052 103.832 33.6335 103.528C37.4786 103.229 40.091 99.6241 42.1603 96.3668C44.3813 99.0902 48.5934 99.0118 51.9248 97.9097C58.5829 95.7055 64.0816 90.2488 66.3417 83.597C68.5969 76.9452 67.5598 69.2647 63.6168 63.4554C65.8231 64.582 68.6361 63.5288 70.2847 61.6773C71.9333 59.8307 72.6867 57.3717 73.396 54.9961C74.3059 51.9493 75.2159 48.9026 76.1258 45.8559C80.4601 45.7628 85.2005 44.4697 87.5683 40.8352C90.1611 36.8627 88.7473 31.0044 84.9217 28.2026Z" fill="#67696D"/>
<path d="M210.153 31.3277C213.226 27.1005 211.42 20.5417 207.101 17.6076C202.776 14.6736 196.823 14.9822 192.17 17.3627C193.809 11.7983 188.907 5.73915 183.164 4.97992C177.421 4.22069 171.731 7.77683 168.576 12.6408C164.829 6.86575 155.793 5.51383 150.524 9.93696C150.187 6.27796 145.94 3.93169 142.325 4.56357C132.756 6.23877 128.579 20.4486 141.205 19.8119C143.778 19.6845 146.312 18.9155 148.528 17.6027C147.447 20.5368 150.48 23.6619 153.592 23.9215C156.703 24.1811 159.624 22.5451 162.314 20.9629C159.095 29.2018 164.589 39.3706 172.984 42.1283C181.378 44.886 191.192 40.7029 195.967 33.2576C194.949 36.6178 195.037 40.4433 196.862 43.4411C199.763 48.2071 207.194 49.4316 211.337 45.7041C215.496 41.9716 214.913 34.2323 210.153 31.3277Z" fill="#67696D"/>
<path d="M276.357 84.0086C274.9 79.2328 270.027 75.7403 265.042 75.8921C268.643 71.5915 267.713 64.2833 263.154 61.0161C258.594 57.7539 251.388 59.243 248.487 64.0433C251.369 59.2675 241.052 55.7505 238.982 61.0357C237.94 63.7004 239.721 66.9332 242.387 67.9619C240.313 68.3586 238.694 70.411 238.777 72.5221C238.86 74.6333 240.645 76.5485 242.739 76.7787C238.009 79.1054 238.175 86.5557 241.878 90.3028C245.586 94.0549 251.242 94.9611 256.501 95.2844C248.272 101.383 244.76 113.134 248.287 122.754C249.515 126.109 251.907 129.46 255.424 130.067C258.58 130.616 261.774 128.7 263.599 126.065C265.424 123.43 266.128 120.187 266.622 117.018C266.867 119.408 270.453 120.065 272.292 118.522C274.132 116.979 274.591 114.368 274.856 111.983C275.443 106.722 275.394 100.663 271.509 97.0771C275.736 94.4076 277.82 88.7795 276.357 84.0086Z" fill="#67696D"/>
<path d="M37.743 182.591C42.7573 180.2 43.7504 172.672 40.3407 168.278C36.9358 163.884 30.5517 162.616 25.1949 164.08C27.3327 162.013 29.5097 159.892 30.8403 157.233C32.1709 154.573 32.5232 151.227 30.9773 148.685C28.8101 145.129 24.0355 144.438 19.887 144.11C26.638 144.639 23.5316 129.489 20.7285 126.932C15.6358 122.283 6.35564 125.208 3.52803 131.061C0.896115 136.508 3.62587 143.89 9.16856 146.309C2.21697 151.276 -1.29063 160.632 0.690649 168.954C1.81582 173.671 5.63161 178.52 10.4405 177.942C7.82325 181.425 7.77433 186.622 10.3182 190.154C12.8621 193.69 17.7981 195.287 21.927 193.906C21.2274 196.982 22.5972 200.293 24.9063 202.443C27.2153 204.594 30.3266 205.706 33.4478 206.161C36.2313 206.568 39.2595 206.436 41.5735 204.839C44.2543 202.987 45.4039 199.558 45.6436 196.311C46.0692 190.58 43.315 183.957 37.743 182.591Z" fill="#67696D"/>
<path d="M108.222 246.783C106.143 245.215 103.301 244.862 100.806 245.612C100.361 245.95 99.8473 246.18 99.2603 246.244C99.7543 245.979 100.273 245.773 100.806 245.612C102.396 244.407 102.983 241.772 101.936 239.935C100.596 237.584 97.548 236.658 94.8721 237.04C92.1961 237.422 89.799 238.847 87.49 240.258C89.3343 238.524 90.8313 236.197 90.8264 233.665C90.8068 225.343 75.6708 225.759 75.2648 234.13C75.2403 234.659 75.3773 235.257 75.6317 235.732C76.1796 235.923 76.6981 236.197 77.1678 236.575C76.5122 236.78 75.9692 236.359 75.6317 235.732C73.5526 235.002 71.0283 235.512 69.1448 236.766C66.7624 238.353 65.1872 240.875 63.7636 243.359C62.5259 245.529 61.3176 247.845 61.3029 250.344C61.2833 253.474 63.1374 256.3 65.2116 258.646C68.0784 261.894 71.7621 264.754 76.0671 265.239C79.5257 265.631 83.3269 263.985 85.0538 261.105C85.2348 260.297 85.5185 259.518 85.9148 258.783C85.7778 259.626 85.4745 260.4 85.0538 261.105C84.2661 264.622 85.5038 268.609 88.3265 270.892C91.795 273.698 97.2741 273.61 100.654 270.696C104.035 267.781 104.935 262.374 102.68 258.519C105.586 259.763 109.299 258.137 110.58 255.247C111.862 252.362 110.747 248.683 108.222 246.783Z" fill="#67696D"/>
<path d="M100.806 245.612C100.273 245.773 99.7495 245.984 99.2603 246.244C99.8424 246.18 100.361 245.95 100.806 245.612Z" fill="#67696D"/>
<path d="M77.1631 236.575C76.6983 236.202 76.1749 235.928 75.627 235.732C75.9645 236.359 76.5075 236.78 77.1631 236.575Z" fill="#67696D"/>
<path d="M85.0488 261.105C85.4695 260.4 85.7729 259.626 85.9098 258.783C85.5136 259.518 85.2298 260.302 85.0488 261.105Z" fill="#67696D"/>
<path d="M242.039 204.354C241.986 204.834 241.951 205.314 241.961 205.799C242.284 205.299 242.264 204.805 242.039 204.354Z" fill="#67696D"/>
<path d="M270.061 180.73C280.462 169.39 260.756 161.416 259.044 174.582C258.584 178.129 259.861 181.685 261.549 184.839C256.794 183.502 251.76 189.233 253.692 193.783C247.939 193.764 242.695 198.687 242.04 204.349C242.265 204.8 242.279 205.294 241.961 205.794C241.947 205.309 241.981 204.829 242.04 204.349C241.521 203.311 239.867 202.502 238.507 202.419C232.769 202.062 226.762 204.06 222.917 208.346C219.076 212.632 217.79 219.274 220.407 224.403C217.481 222.546 213.142 225.382 213.123 228.845C213.103 232.313 216.62 235.144 220.079 235.017C223.538 234.895 226.6 232.352 228.078 229.217C227.251 232.857 230.763 235.987 234.134 237.574C241.619 241.096 251.016 241.444 257.807 236.722C264.602 232 267.375 221.576 262.395 214.964C267.097 216.497 272.747 214.082 274.894 209.624C277.042 205.167 275.408 199.235 271.284 196.507C275.33 196.056 278.627 192.015 278.25 187.955C277.879 183.781 274.038 180.916 270.061 180.73Z" fill="#67696D"/>
<path d="M186.735 246.508C183.027 247.934 180.591 251.759 180.062 255.702C179.333 251.078 173.223 249.305 168.771 250.74C163.248 252.523 159.031 257.809 158.518 263.598C158.552 263.187 154.242 256.858 147.701 256.491C143.484 256.256 138.318 257.432 137.648 261.811C133.436 260.238 128.27 261.781 125.604 265.406C124.865 266.415 124.293 267.605 124.312 268.854C124.347 271.49 126.881 273.385 129.346 274.306C133.187 275.741 137.501 275.859 141.41 274.634C140.119 278.234 143.299 281.977 146.767 283.578C155.685 287.698 167.636 282.447 170.65 273.086C175.278 272.856 180.018 272.156 184.039 269.844C188.061 267.532 191.25 263.329 191.265 258.69C195.228 258.979 198.27 254.057 196.773 250.373C195.276 246.69 190.443 245.083 186.735 246.508Z" fill="#67696D"/>
<path d="M106.437 9.08467C106.623 8.86914 106.779 8.63893 106.926 8.40381C106.677 8.54586 106.491 8.76138 106.437 9.08467Z" fill="#67696D"/>
<path d="M109.377 8.69776C108.673 8.22263 107.567 8.03649 106.926 8.40386C106.779 8.64388 106.618 8.87409 106.437 9.08472C106.496 8.76144 106.682 8.54101 106.926 8.40386C108.076 6.53763 108.086 3.98563 106.863 2.15368C106.413 1.48262 105.811 0.899728 105.072 0.576443C102.905 -0.368921 100.356 1.23771 99.2359 3.31947C97.8515 5.87636 98.4239 8.38427 98.9082 11.0244C97.0394 10.3583 95.6305 8.3108 93.6345 7.65933C88.7083 6.0576 87.3091 12.925 90.9244 12.5184C89.3589 13.1846 88.7425 15.3055 89.4518 16.8534C90.1612 18.4012 91.9028 19.3074 93.6052 19.3368C95.3076 19.3662 96.9465 18.6412 98.3211 17.642C96.7165 19.4103 97.4063 22.506 99.3289 23.9264C101.251 25.3469 103.937 25.3274 106.183 24.5093C109.299 23.3778 111.897 20.7132 112.65 17.4754C113.398 14.2426 112.131 10.5542 109.377 8.69776Z" fill="#67696D"/>
<path d="M283.025 150.15C283.558 149.895 284.042 149.557 284.473 149.155C284.37 149.155 284.272 149.146 284.174 149.146C283.533 149.141 282.628 149.65 283.025 150.15Z" fill="#67696D"/>
<path d="M291.459 150.541C290.608 149.875 289.502 149.635 288.431 149.474C287.12 149.278 285.799 149.18 284.473 149.155C284.042 149.557 283.558 149.895 283.025 150.15C282.629 149.65 283.534 149.141 284.17 149.145C284.267 149.145 284.37 149.155 284.468 149.155C286.268 147.47 287.051 144.678 286.18 142.352C284.585 138.085 274.244 135.719 271.362 139.613C269.86 141.646 270.599 144.938 272.82 146.133C270.99 147.71 269.474 150.003 269.802 152.398C270.125 154.793 273.065 156.743 275.075 155.405C272.781 158.075 273.045 162.087 273.999 165.481C274.576 167.538 275.398 169.606 276.925 171.099C279.757 173.882 284.859 173.838 287.643 171.006C290.427 168.175 290.387 163.066 287.565 160.274C288.48 161.244 290.06 160.201 290.862 159.138C291.826 157.859 292.672 156.444 292.921 154.862C293.176 153.289 292.716 151.521 291.459 150.541Z" fill="#67696D"/>
<path d="M47.2288 226.651C47.1065 226.543 46.9744 226.44 46.8374 226.347C46.9597 226.46 47.0918 226.562 47.2288 226.651Z" fill="#67696D"/>
<path d="M50.3009 218.255C47.7913 217.393 44.8267 218.623 43.3933 220.851C47.351 214.694 32.1563 210.139 31.1779 217.996C30.8501 220.655 33.5652 223.31 36.1727 222.688C32.2492 227.532 32.7971 235.389 37.3516 239.646C39.3818 241.541 42.3904 242.737 44.9637 241.693C48.0212 240.454 49.1757 236.712 49.3274 233.41C49.4399 230.971 49.0387 228.208 47.2336 226.651C47.0966 226.563 46.9645 226.46 46.8422 226.347C46.9792 226.44 47.1113 226.543 47.2336 226.651C49.254 227.993 52.4827 226.959 53.4171 224.657C54.4053 222.193 52.8056 219.117 50.3009 218.255Z" fill="#67696D"/>
<path d="M84.9219 28.2026C83.6988 27.3062 82.2899 26.7234 80.8174 26.4246C82.3535 28.6778 83.2292 31.1857 82.5639 33.7768C81.9328 36.226 79.976 38.1608 77.7354 39.3315C75.4949 40.5022 72.9804 41.0067 70.4952 41.4524C70.9942 45.5082 70.0696 49.7256 67.9122 53.1984C66.3859 55.6574 63.2354 57.9008 60.7943 56.3382C60.3247 60.0756 55.6283 62.559 52.2821 60.8446C57.6976 65.5959 60.6231 73.0462 59.8942 80.2172C59.5321 83.7832 58.133 87.4863 55.1489 89.4652C52.1647 91.4441 47.4097 90.8514 45.8491 87.6234C42.8258 90.0285 37.5326 88.1328 36.7157 84.3514C36.7744 86.4821 36.4368 88.6227 35.7226 90.6358C34.7539 93.3789 32.6944 96.117 29.7983 96.3766C28.316 96.5089 26.8484 95.9603 25.5863 95.1716C24.9552 94.7749 24.0697 93.6189 23.0864 92.316C23.4582 93.8834 23.9915 95.4117 24.7106 96.8762C26.4473 100.423 29.7054 103.832 33.6337 103.528C37.4788 103.229 40.0912 99.6242 42.1605 96.3668C44.3815 99.0902 48.5935 99.0119 51.925 97.9098C58.5831 95.7056 64.0817 90.2489 66.3419 83.597C68.5971 76.9452 67.56 69.2647 63.617 63.4554C65.8233 64.582 68.6362 63.5289 70.2849 61.6773C71.9335 59.8307 72.6869 57.3718 73.3962 54.9961C74.3061 51.9494 75.216 48.9027 76.126 45.856C80.4603 45.7629 85.2007 44.4697 87.5684 40.8352C90.1612 36.8628 88.7474 31.0044 84.9219 28.2026Z" fill="#57595B"/>
<path d="M205.08 43.3775C204.019 43.3481 202.942 43.1375 202.042 42.5791C200.173 41.4182 199.464 38.9544 199.753 36.7747C200.041 34.5949 201.142 32.616 202.223 30.7008C201.054 31.9842 198.853 32.1311 197.527 31.0143C196.201 29.8975 195.961 27.7031 197.023 26.3267C196.397 26.7332 195.423 26.0866 195.55 25.3519C194.89 28.4966 192.566 31.4062 189.44 32.1213C186.309 32.8365 182.631 30.8086 182.102 27.6394C180.419 30.7939 176.158 31.9352 172.768 30.8135C169.378 29.6918 166.829 26.7871 165.2 23.6032C163.914 21.0904 163.15 17.9017 164.721 15.5554C162.231 16.9612 159.457 17.8527 156.62 18.1613C154.942 18.3425 153.092 18.2739 151.791 17.1963C150.495 16.1187 150.255 13.7283 151.713 12.876C149.619 13.5667 147.52 14.2573 145.427 14.9431C144.698 15.1831 143.895 15.4231 143.181 15.1537C142.555 14.9186 142.144 14.1006 142.418 13.5471C140.989 15.4329 138.358 16.4616 136.161 15.5897C134.835 15.0656 133.886 13.7675 133.607 12.3911C132.556 16.3195 134.527 20.15 141.219 19.812C143.793 19.6846 146.327 18.9156 148.543 17.6029C147.462 20.5369 150.495 23.662 153.606 23.9216C156.717 24.1812 159.638 22.5452 162.329 20.9631C159.11 29.2019 164.603 39.3707 172.998 42.1284C181.393 44.8862 191.206 40.7031 195.981 33.2577C194.963 36.6179 195.051 40.4434 196.876 43.4412C199.777 48.2072 207.208 49.4318 211.352 45.7042C213.475 43.789 214.351 40.8255 214.067 37.9943C212.281 41.1929 208.769 43.4755 205.08 43.3775Z" fill="#57595B"/>
<path d="M142.413 13.5471C142.472 13.4736 142.53 13.4001 142.579 13.3218C142.506 13.3904 142.452 13.4687 142.413 13.5471Z" fill="#57595B"/>
<path d="M276.357 84.0085C274.9 79.2327 270.027 75.7402 265.042 75.8921C267.85 72.5417 267.894 67.3691 265.624 63.7003C265.8 64.6261 265.893 65.5715 265.884 66.5217C265.83 70.8322 263.452 75.2063 259.534 76.9893C264.225 76.3133 269.215 78.5616 271.813 82.5341C272.894 84.1848 273.584 86.1882 273.236 88.1279C272.884 90.0677 271.284 91.8506 269.318 91.9584C269.939 94.3291 267.806 96.9889 265.36 96.8958C267.728 98.9139 269.23 101.917 269.43 105.022C269.518 106.374 269.318 107.853 268.374 108.818C267.429 109.788 265.561 109.881 264.856 108.72C265.331 111.434 263.374 114.015 261.089 115.548C259.641 116.523 257.895 117.253 256.178 116.94C252.993 116.357 251.447 112.257 252.567 109.215C253.683 106.173 256.608 104.17 259.592 102.921C257.787 102.446 257.665 99.8936 258.272 98.1204C259.152 95.5488 260.732 93.227 262.802 91.4637C261.006 92.0612 259.059 89.7297 259.969 88.0643C254.094 93.3887 246.805 92.2376 240.641 88.6912C240.998 89.279 241.414 89.8227 241.893 90.3077C245.601 94.0597 251.256 94.9659 256.515 95.2892C248.287 101.388 244.774 113.138 248.302 122.759C249.529 126.114 251.922 129.464 255.439 130.072C258.594 130.62 261.789 128.705 263.614 126.07C265.438 123.435 266.143 120.192 266.637 117.023C266.882 119.413 270.467 120.069 272.307 118.527C274.146 116.984 274.606 114.373 274.875 111.987C275.462 106.727 275.413 100.667 271.529 97.082C275.736 94.4075 277.82 88.7794 276.357 84.0085Z" fill="#57595B"/>
<path d="M234.496 219.313C234.442 219.656 234.417 220.004 234.408 220.347C234.471 220.014 234.501 219.666 234.496 219.313Z" fill="#57595B"/>
<path d="M270.061 180.73C277.375 172.755 269.807 166.451 264.068 167.979C264.147 167.989 264.22 168.004 264.289 168.019C265.512 168.362 266.637 169.121 267.287 170.228C268.731 172.667 267.625 176.248 265.057 177.448C266.818 177.678 267.703 180.245 266.461 181.513C270.056 183.179 272.228 187.465 271.446 191.354C270.663 195.243 267.004 198.354 263.041 198.496C266.192 198.78 268.701 201.836 268.784 205.001C268.867 208.165 266.803 211.167 264.01 212.647C261.211 214.126 257.821 214.209 254.778 213.337C255.605 215.615 256.442 218.059 255.879 220.415C255.317 222.771 252.724 224.799 250.503 223.839C248.962 227.606 244.393 229.835 240.479 228.728C236.898 227.714 234.32 224.04 234.403 220.347C233.938 222.933 231.624 225.074 229.027 225.75C227.358 226.181 225.426 226.068 224.135 224.922C222.843 223.78 222.633 221.429 224.022 220.41C222.364 220.646 220.749 219.465 220.006 217.961C219.629 217.192 219.433 216.36 219.345 215.507C218.729 218.515 219.008 221.669 220.402 224.403C217.477 222.546 213.137 225.382 213.118 228.845C213.098 232.313 216.616 235.144 220.074 235.017C223.533 234.895 226.595 232.352 228.073 229.218C227.246 232.857 230.758 235.987 234.129 237.574C241.614 241.096 251.012 241.444 257.802 236.722C264.597 232 267.371 221.576 262.39 214.964C267.092 216.497 272.742 214.082 274.89 209.624C277.037 205.167 275.403 199.235 271.279 196.507C275.325 196.056 278.622 192.015 278.246 187.955C277.879 183.781 274.038 180.916 270.061 180.73Z" fill="#57595B"/>
<path d="M165.087 262.57C165.371 263.133 165.699 263.681 166.076 264.196C165.983 263.486 165.728 262.8 165.087 262.57Z" fill="#57595B"/>
<path d="M182.836 260.522C182.806 260.39 182.777 260.258 182.733 260.13C182.743 260.277 182.777 260.41 182.836 260.522Z" fill="#57595B"/>
<path d="M186.735 246.508C186.666 246.533 186.598 246.567 186.529 246.596C188.418 247.845 189.827 249.844 190.198 252.087C190.79 255.624 188.76 259.43 185.497 260.904C184.602 261.311 183.222 261.281 182.836 260.522C183.188 261.992 182.63 263.657 181.427 264.573C180.116 265.572 178.149 265.607 176.804 264.651C175.889 266.988 172.944 268.09 170.518 267.453C168.698 266.978 167.186 265.734 166.071 264.196C166.1 264.446 166.115 264.7 166.115 264.94C166.13 267.772 166.027 270.691 164.892 273.282C163.757 275.873 161.345 278.097 158.518 278.2C155.69 278.303 152.853 275.619 153.459 272.851C151.488 274.948 148.093 275.535 145.529 274.223C142.966 272.91 141.459 269.809 142.002 266.978C141.209 267.997 140.319 269.074 139.062 269.363C137.805 269.648 136.234 268.585 136.562 267.336C135.3 269.927 131.973 271.293 129.253 270.338C127.38 269.677 126.064 268.031 125.511 266.16C125.467 266.003 125.428 265.842 125.398 265.68C124.758 266.625 124.288 267.713 124.303 268.849C124.337 271.484 126.871 273.38 129.336 274.301C133.177 275.736 137.492 275.854 141.4 274.629C140.109 278.229 143.289 281.972 146.757 283.573C155.675 287.693 167.627 282.442 170.64 273.081C175.268 272.851 180.008 272.151 184.03 269.839C188.051 267.527 191.24 263.324 191.255 258.685C195.213 258.974 198.26 254.052 196.764 250.368C195.276 246.689 190.443 245.083 186.735 246.508Z" fill="#57595B"/>
<path d="M108.222 246.783C106.143 245.215 103.301 244.862 100.806 245.612C102.396 244.407 102.983 241.772 101.936 239.935C100.596 237.584 97.548 236.658 94.8721 237.04C94.4856 237.094 94.104 237.177 93.7274 237.275C95.464 238.289 97.1665 239.411 98.3503 241.022C99.7397 242.908 100.234 245.666 98.8836 247.581C100.151 247.865 101.393 248.517 102.117 249.599C102.841 250.682 102.92 252.244 102.083 253.243C101.246 254.243 99.4608 254.341 98.6928 253.292C100.121 256.202 99.7544 259.91 97.778 262.477C96.736 263.833 95.1412 264.916 93.4338 264.793C91.5846 264.666 90.0877 263.172 89.2658 261.507C88.1749 259.293 87.9988 256.643 88.7962 254.301C87.8716 254.855 86.6241 254.811 85.7338 254.199C85.0048 253.694 84.5548 252.822 84.5205 251.94C84.3689 254.096 83.3954 256.217 81.6636 257.5C79.785 258.891 77.0161 259.107 75.0985 257.764C73.1857 256.417 72.4861 253.488 73.8167 251.563C71.8942 254.674 66.9679 254.914 64.2479 252.474C62.6091 251.005 61.978 249.3 61.8019 247.488C61.4986 248.414 61.3029 249.369 61.298 250.348C61.2784 253.478 63.1325 256.305 65.2067 258.651C68.0735 261.899 71.7572 264.759 76.0622 265.244C79.5209 265.636 83.322 263.99 85.0489 261.11C84.2613 264.627 85.4989 268.614 88.3216 270.897C91.7901 273.703 97.2692 273.615 100.65 270.701C104.03 267.786 104.93 262.379 102.675 258.524C105.581 259.768 109.294 258.142 110.576 255.252C111.862 252.362 110.747 248.683 108.222 246.783Z" fill="#57595B"/>
<path d="M84.5548 251.367C84.5206 251.553 84.5157 251.744 84.5254 251.935C84.5352 251.744 84.5548 251.558 84.5548 251.367Z" fill="#57595B"/>
<path d="M37.7381 182.591C42.7573 180.201 43.7455 172.672 40.3358 168.278C39.6655 167.411 38.8779 166.677 38.0071 166.05C38.7116 168.19 39.0198 170.385 38.555 172.594C38.149 174.509 36.4759 176.596 34.6218 175.973C35.5905 178.692 33.0613 181.998 30.1848 181.763C33.7657 182.821 35.4877 186.852 36.3292 190.497C36.7303 192.245 37.0434 194.068 36.701 195.831C36.3585 197.594 35.2382 199.299 33.5456 199.887C31.3735 200.641 28.859 199.26 27.8219 197.207C26.7897 195.15 27 192.652 27.8219 190.497C25.459 191.236 22.9347 188.229 24.0697 186.025C23.1255 188.185 21.0171 189.894 18.664 189.992C14.7504 190.154 11.82 185.887 11.9032 181.964C11.9864 178.04 14.1584 174.509 16.262 171.193C14.8629 171.433 13.3366 171.648 12.1087 170.938C10.8808 170.228 10.4209 168.175 11.6292 167.441C8.82121 169.145 5.82238 169.258 3.18068 166.931C1.15048 165.143 0.8325 162.924 0.446029 160.637C-0.00893094 163.395 0.0399895 166.231 0.685739 168.959C1.80602 173.676 5.6267 178.525 10.4356 177.947C7.81834 181.43 7.76942 186.627 10.3133 190.159C12.8571 193.695 17.7932 195.292 21.9221 193.911C21.2225 196.987 22.5923 200.298 24.9014 202.449C27.2104 204.599 30.3217 205.711 33.4429 206.166C36.2264 206.573 39.2546 206.441 41.5685 204.844C44.2494 202.992 45.399 199.563 45.6387 196.316C46.0643 190.58 43.3101 183.958 37.7381 182.591Z" fill="#57595B"/>
</g>
</svg>
