<svg width="412" height="107" viewBox="0 0 412 107" fill="none" xmlns="http://www.w3.org/2000/svg">
<g filter="url(#filter0_d_175_3210)">
<mask id="path-1-inside-1_175_3210" fill="white">
<path d="M0 33.2802C0 22.2345 8.95431 13.2802 20 13.2802H392C403.046 13.2802 412 22.2345 412 33.2802V116.28H0V33.2802Z"/>
</mask>
<path d="M0 33.2802C0 22.2345 8.95431 13.2802 20 13.2802H392C403.046 13.2802 412 22.2345 412 33.2802V116.28H0V33.2802Z" fill="black" shape-rendering="crispEdges"/>
<path d="M0 33.2802C0 21.6822 9.40202 12.2802 21 12.2802H391C402.598 12.2802 412 21.6822 412 33.2802C412 22.7867 403.046 14.2802 392 14.2802H20C8.9543 14.2802 0 22.7867 0 33.2802ZM412 116.28H0H412ZM0 116.28V13.2802V116.28ZM412 13.2802V116.28V13.2802Z" fill="#00FFFF" mask="url(#path-1-inside-1_175_3210)"/>
</g>
<defs>
<filter id="filter0_d_175_3210" x="-8" y="0.280151" width="428" height="119" filterUnits="userSpaceOnUse" color-interpolation-filters="sRGB">
<feFlood flood-opacity="0" result="BackgroundImageFix"/>
<feColorMatrix in="SourceAlpha" type="matrix" values="0 0 0 0 0 0 0 0 0 0 0 0 0 0 0 0 0 0 127 0" result="hardAlpha"/>
<feOffset dy="-5"/>
<feGaussianBlur stdDeviation="4"/>
<feComposite in2="hardAlpha" operator="out"/>
<feColorMatrix type="matrix" values="0 0 0 0 0 0 0 0 0 0 0 0 0 0 0 0 0 0 0.25 0"/>
<feBlend mode="normal" in2="BackgroundImageFix" result="effect1_dropShadow_175_3210"/>
<feBlend mode="normal" in="SourceGraphic" in2="effect1_dropShadow_175_3210" result="shape"/>
</filter>
</defs>
</svg>
