<svg width="340" height="176" viewBox="0 0 340 176" fill="none" xmlns="http://www.w3.org/2000/svg">
<g opacity="0.75">
<path d="M9.21191 162.582L296.434 162.582L330.804 135.506L330.804 11.1862L43.567 11.1862L9.21192 38.2472L9.21191 162.582Z" fill="black"/>
</g>
<path d="M230.221 10.8643L317.672 10.8643L310.148 -4.26194e-05L237.745 -4.89491e-05L230.221 10.8643Z" fill="#F4B92E"/>
<path d="M9.21161 162.278L9.21177 38.5538L43.5669 11.4927L330.804 11.4927L330.804 135.217L296.433 162.278L9.21161 162.278ZM6.89777 164.592L9.21161 164.592L296.433 164.592L297.23 164.592L297.859 164.101L332.229 137.025L333.118 136.335L333.118 135.217L333.118 11.4927L333.118 9.17888L330.804 9.17888L43.5669 9.17885L42.7701 9.17885L42.1418 9.66921L7.78669 36.7457L6.89796 37.4352L6.89796 38.5691L6.89777 162.278L6.89777 164.592Z" fill="#F4B92E"/>
<path d="M22.7269 164.625L110.193 164.625L102.654 175.505L30.266 175.505L22.7269 164.625Z" fill="#F4B92E"/>
<path d="M0.844971 94.7754L8.92041 94.7754L8.92041 59.3017L0.844974 59.3017L0.844971 94.7754Z" fill="#F4B92E"/>
<path d="M331.08 53.1108L339.155 53.1108L339.155 17.6372L331.08 17.6372L331.08 53.1108Z" fill="#F4B92E"/>
<path d="M335.815 137.671L298.181 167.338L192.955 167.338L192.955 169.651L298.978 169.651L338.129 138.805L338.129 127.389L335.815 127.389L335.815 137.671Z" fill="#F4B92E"/>
<path d="M4.18562 45.7866L4.18562 36.1329L41.8199 6.46676L147.061 6.46677L147.061 4.15293L41.0231 4.15292L1.8718 34.9989L1.8718 45.7866L4.18562 45.7866Z" fill="#F4B92E"/>
<path d="M80.8174 150.832L281.968 150.832C282.611 150.832 283.132 151.353 283.132 151.997C283.132 152.641 282.611 153.162 281.968 153.162L80.8327 153.162C80.1891 153.162 79.6682 152.641 79.6682 151.997C79.6682 151.338 80.1892 150.832 80.8174 150.832Z" fill="#F4B92E"/>
<path d="M69.8148 148.12C67.6821 148.12 65.9533 149.849 65.9533 151.982C65.9533 154.114 67.6821 155.843 69.8148 155.843C71.9474 155.843 73.6763 154.114 73.6763 151.982C73.6763 149.849 71.9474 148.12 69.8148 148.12Z" fill="#F4B92E"/>
<path opacity="0.8" d="M58.077 148.12C55.9443 148.12 54.2155 149.849 54.2155 151.982C54.2155 154.114 55.9443 155.843 58.077 155.843C60.2096 155.843 61.9385 154.114 61.9385 151.982C61.9385 149.849 60.2096 148.12 58.077 148.12Z" fill="#F4B92E"/>
<path opacity="0.6" d="M46.3392 148.12C44.2066 148.12 42.4777 149.849 42.4777 151.982C42.4777 154.114 44.2066 155.843 46.3392 155.843C48.4718 155.843 50.2007 154.114 50.2007 151.982C50.2007 149.849 48.4718 148.12 46.3392 148.12Z" fill="#F4B92E"/>
<path opacity="0.4" d="M34.6024 148.12C32.4697 148.12 30.7409 149.849 30.7409 151.982C30.7409 154.114 32.4697 155.843 34.6024 155.843C36.735 155.843 38.4639 154.114 38.4639 151.982C38.4639 149.849 36.735 148.12 34.6024 148.12Z" fill="#F4B92E"/>
</svg>
