<svg width="994" height="496" viewBox="0 0 994 496" fill="none" xmlns="http://www.w3.org/2000/svg">
<g opacity="0.75">
<path d="M24.8719 459.475L868.102 459.475L969.007 382.953L969.007 31.6111L125.732 31.611L24.8719 108.089L24.8719 459.475Z" fill="black"/>
</g>
<path d="M673.713 30.7036L930.452 30.7036L908.364 -0.00024914L695.802 -0.000260536L673.713 30.7036Z" fill="#00FFFF"/>
<path d="M24.8719 458.617L24.8725 108.957L125.733 32.4791L969.007 32.4792L969.007 382.139L868.102 458.617L24.8719 458.617ZM18.079 465.156L24.8719 465.156L868.102 465.156L870.441 465.156L872.286 463.77L973.191 387.249L975.8 385.3L975.8 382.139L975.8 32.4792L975.8 25.94L969.007 25.94L125.733 25.94L123.393 25.94L121.549 27.3258L20.6887 103.847L18.0795 105.796L18.0795 109.001L18.079 458.617L18.079 465.156Z" fill="#00FFFF"/>
<path d="M64.5492 465.251L321.333 465.251L299.2 495.998L86.6827 495.998L64.5492 465.251Z" fill="#00FFFF"/>
<path d="M0.306665 267.848L24.0146 267.848L24.0147 167.595L0.306679 167.595L0.306665 267.848Z" fill="#00FFFF"/>
<path d="M969.815 150.098L993.523 150.098L993.523 49.8451L969.815 49.8451L969.815 150.098Z" fill="#00FFFF"/>
<path d="M983.717 389.076L873.23 472.916L564.306 472.916L564.306 479.455L875.569 479.455L990.51 392.28L990.51 360.018L983.717 360.018L983.717 389.076Z" fill="#00FFFF"/>
<path d="M10.1158 129.397L10.1158 102.114L120.603 18.2742L429.571 18.2742L429.571 11.735L118.264 11.735L3.32279 98.9096L3.32278 129.397L10.1158 129.397Z" fill="#00FFFF"/>
</svg>
