<svg width="165" height="157" viewBox="0 0 165 157" fill="none" xmlns="http://www.w3.org/2000/svg">
<path fill-rule="evenodd" clip-rule="evenodd" d="M106.615 129.75L129.212 131.035C129.212 131.035 147.92 125.394 157.25 113.512L161.639 88.7621L154.379 66.1318L114.976 91.3322C114.993 91.3488 106.065 121.589 106.615 129.75Z" fill="url(#paint0_linear_1_6268)"/>
<path fill-rule="evenodd" clip-rule="evenodd" d="M156.165 82.8207C156.165 89.8634 155.18 96.6892 153.294 103.131C149.572 116.082 142.38 127.564 132.767 136.509C125.891 142.918 117.78 148.008 108.851 151.396C100.757 154.483 91.9956 156.152 82.8167 156.152C81.5149 156.152 80.1965 156.119 78.9114 156.052H78.8947C76.9755 155.952 75.073 155.768 73.2038 155.534C59.0349 153.682 46.1844 147.791 35.7538 139.029C31.8319 135.758 28.2772 132.086 25.1396 128.048C22.7531 125.027 20.6002 121.823 18.7143 118.435C18.2637 117.634 17.8299 116.816 17.396 115.982C17.396 115.948 17.3792 115.932 17.3625 115.898C16.9119 115.014 16.4947 114.129 16.0942 113.228C16.0775 113.228 16.0775 113.228 16.0775 113.228C14.8091 110.424 13.691 107.537 12.7898 104.566C12.1055 102.43 11.5381 100.227 11.0708 98.0076C11.0541 97.991 11.0541 97.9576 11.0541 97.9409C10.737 96.3721 10.4533 94.8034 10.2364 93.2012C9.73571 89.7967 9.48535 86.3254 9.48535 82.804C9.48535 80.7846 9.5688 78.7486 9.75238 76.7626C9.85251 75.4942 9.98606 74.2426 10.153 72.9909C11.1042 65.7813 13.1069 58.9054 16.0274 52.5136C17.446 49.376 19.0982 46.3553 20.934 43.4515C24.0048 38.6283 27.6263 34.1891 31.7151 30.2171C44.9161 17.3666 62.9568 9.45605 82.8167 9.45605C83.5844 9.45605 84.3688 9.47274 85.1198 9.48943C85.9375 9.52281 86.7552 9.55619 87.573 9.60625C91.7786 9.88996 95.9008 10.5075 99.8727 11.4587C102.192 12.0095 104.462 12.6603 106.699 13.4447C108.217 13.9621 109.703 14.5295 111.171 15.147C112.273 15.6143 113.341 16.0983 114.409 16.5989C114.592 16.6991 114.776 16.7658 114.96 16.8659C122.086 20.3539 128.528 24.9267 134.135 30.4174C134.936 31.1851 135.721 32.0028 136.488 32.8206C137.006 33.3713 137.506 33.9554 138.007 34.5229C138.858 35.4908 139.676 36.4922 140.477 37.4935C143.398 41.2151 145.968 45.2038 148.121 49.4428C150.641 54.366 152.626 59.6064 153.978 65.1137C155.414 70.8046 156.165 76.7292 156.165 82.8207Z" fill="url(#paint1_radial_1_6268)"/>
<path opacity="0.71" fill-rule="evenodd" clip-rule="evenodd" d="M40.3765 77.1466C40.3765 77.1466 53.3437 88.7454 56.5647 93.5185C59.7856 98.2915 70.6502 130.902 70.9339 137.761C71.2343 144.62 64.7256 153.899 64.7256 153.899C64.7256 153.899 53.7109 150.795 47.5694 147.123L51.291 121.506L40.3765 77.1466Z" fill="url(#paint2_linear_1_6268)"/>
<path opacity="0.71" fill-rule="evenodd" clip-rule="evenodd" d="M116.929 98.6919L137.222 108.739C137.222 108.739 141.245 111.442 146.034 106.369C146.034 106.369 146.518 99.2927 143.581 92.4669L116.929 98.6919Z" fill="url(#paint3_linear_1_6268)"/>
<g opacity="0.3">
<path fill-rule="evenodd" clip-rule="evenodd" d="M42.4963 80.985C40.8441 88.0445 41.8955 95.4377 44.4489 102.163C44.9997 103.615 45.5837 105.484 46.4849 106.786C47.2026 107.821 48.4041 108.438 49.3721 109.173C50.6572 110.157 51.8421 111.275 53.1104 112.277C54.5457 113.412 56.0143 114.113 57.75 114.73C61.0544 115.898 64.3588 116.783 67.8468 115.748C70.9342 114.83 73.955 112.594 75.7407 109.94C76.5752 108.705 77.5431 107.604 78.4276 106.419C79.2955 105.234 79.8462 103.749 80.3802 102.397C81.4483 99.7101 81.782 96.3222 81.5985 93.4684C81.515 92.0999 81.3482 90.7147 81.0144 89.3796C80.6639 87.9944 80.0297 86.6927 79.7627 85.2908C79.3288 82.971 78.2941 80.9183 77.3595 78.732C75.0564 73.3415 69.0651 70.1205 63.541 69.3195C60.9542 68.9356 58.3841 69.5364 55.8307 69.937C53.1438 70.3542 51.1746 71.6058 48.788 72.7741C47.3695 73.4583 45.9842 74.2427 44.9829 75.461C42.5463 78.3649 42.2126 82.4537 42.4963 80.985Z" fill="#7D72B3"/>
<path fill-rule="evenodd" clip-rule="evenodd" d="M64.6089 120.02C65.8606 118.902 67.5462 117.617 69.1483 117.066C70.2498 116.683 71.2678 117.1 72.169 117.734C73.9714 119.019 73.6376 122.04 72.2023 123.558C69.5989 126.346 64.6923 124.126 64.6923 120.571L64.6089 120.02Z" fill="#7D72B3"/>
<path fill-rule="evenodd" clip-rule="evenodd" d="M89.9097 96.6224C89.192 95.6544 88.6913 95.3206 88.7247 94.3527C88.7581 93.6184 89.5758 92.2332 89.9597 91.5322C91.1112 89.4127 92.9471 87.9107 95.2335 87.1931C96.8356 86.6924 98.3209 86.4588 100.006 86.4421C101.508 86.4254 102.76 86.876 104.162 87.3266C106.732 88.1611 109.553 89.5129 111.438 91.5322C113.207 93.4181 112.957 96.8226 111.405 98.7419C110.22 100.21 108.484 101.095 106.916 102.113C105.197 103.214 103.311 104.616 101.325 105.167C100.04 105.518 99.1053 105.701 97.8369 105.334C96.6019 104.967 95.6173 104.616 94.4991 104.049C93.4811 103.532 92.6967 103.315 91.8623 102.497C91.1279 101.779 90.5105 101.028 89.9931 100.127C89.2755 98.842 89.5258 97.2732 89.9097 96.6224Z" fill="#7D72B3"/>
<path fill-rule="evenodd" clip-rule="evenodd" d="M84.3355 83.3213C84.0351 84.2725 83.3842 86.1918 85.1032 86.0916C85.8876 86.0416 87.0558 85.374 87.473 84.89C89.192 82.8874 85.0864 81.5356 84.7193 83.3213H84.3355Z" fill="#7D72B3"/>
<path fill-rule="evenodd" clip-rule="evenodd" d="M109.919 131.269C109.101 129.55 108.918 128.882 109.469 127.046C110.303 124.309 111.688 121.289 113.123 118.802C114.041 117.233 115.176 115.08 116.912 114.329C118.314 113.729 119.933 113.362 121.451 113.261C124.756 113.061 127.309 114.613 129.662 116.799C131.114 118.151 132.316 119.269 133.167 121.105C133.901 122.691 134.335 124.793 134.152 126.546C133.668 131.519 129.345 135.04 126.141 138.428C123.621 141.099 119.399 144.47 115.46 143.034C112.74 142.05 111.104 139.163 110.003 136.643C109.252 134.99 109.519 133.054 109.919 131.269Z" fill="#7D72B3"/>
<path fill-rule="evenodd" clip-rule="evenodd" d="M105.614 118.251C104.646 119.036 104.329 120.004 104.095 121.239C103.928 122.14 103.561 124.126 104.429 124.86C105.197 125.494 106.615 124.426 107.233 124.026C107.767 123.675 108.151 123.325 108.551 122.824C108.768 122.574 109.052 122.357 109.169 122.04C109.369 121.539 109.302 120.838 109.269 120.321C109.235 119.67 108.868 119.136 108.418 118.685C108.034 118.318 107.7 118.218 107.183 118.118C106.632 118.001 105.931 117.751 105.614 118.251Z" fill="#7D72B3"/>
<path fill-rule="evenodd" clip-rule="evenodd" d="M77.6934 150.494C77.5932 150.778 77.493 150.962 77.6265 151.245C77.7767 151.529 78.2774 151.93 78.4777 152.113C79.2287 152.797 80.0298 153.014 80.9977 153.215C81.949 153.415 82.9504 153.548 83.9183 153.348C84.5358 153.231 85.3202 153.081 85.7375 152.564C86.4885 151.579 85.8709 150.11 85.3702 149.176C84.9864 148.458 84.4523 147.824 84.0017 147.14C83.5344 146.406 82.8503 145.788 82.1827 145.237C81.3483 144.553 80.0799 143.602 79.0118 144.369C78.0104 145.087 77.443 146.406 77.176 147.574C77.0258 148.225 77.0592 149.009 77.2928 149.643C77.443 150.06 77.7768 150.378 77.6934 150.494Z" fill="#7D72B3"/>
<path fill-rule="evenodd" clip-rule="evenodd" d="M137.173 122.04C136.589 121.556 136.372 121.522 136.438 120.871C136.505 120.17 136.555 119.486 136.822 118.819C137.39 117.383 138.591 116.182 139.726 115.18C140.377 114.596 141.178 114.246 141.996 113.979C142.43 113.829 142.78 113.662 143.214 113.729C143.965 113.829 144.482 114.313 144.716 115.014C145.083 116.148 144.533 117.4 143.915 118.318C143.131 119.503 142.513 120.838 141.278 121.606C140.711 121.973 140.11 122.323 139.492 122.624C139.125 122.807 138.725 122.991 138.291 122.941C138.007 122.891 137.089 122.657 137.173 122.04Z" fill="#7D72B3"/>
<path fill-rule="evenodd" clip-rule="evenodd" d="M17.4627 71.2052C17.6129 71.856 17.6463 72.5236 17.8632 73.1578C18.2972 74.4595 19.2317 75.561 20.183 76.5123C22.0021 78.298 24.6056 79.0323 27.0588 79.533C28.3272 79.7833 29.6957 80.0002 30.9808 80.0169C32.0322 80.0336 33.1503 80.2506 34.2017 80.1671C35.9541 80.0336 37.6396 79.533 39.1416 78.6318C41.3779 77.3133 43.2137 75.2439 42.4794 72.5236C42.0789 71.0383 41.0943 69.7532 40.0095 68.7018C38.8412 67.5503 37.89 66.3487 36.3546 65.6311C35.687 65.3307 34.9861 65.0136 34.3019 64.7299C33.4674 64.3961 32.683 63.9455 31.7985 63.7953C31.0642 63.6618 30.3132 63.3781 29.5622 63.3447C28.8279 63.3113 28.0602 63.3113 27.3259 63.3614C24.6891 63.5783 21.952 65.1137 20.1329 66.9996C19.4153 67.7506 18.7811 68.585 18.0635 69.3193C17.3793 70.0369 17.4627 70.8547 17.4627 71.2052Z" fill="#7D72B3"/>
<path fill-rule="evenodd" clip-rule="evenodd" d="M71.7853 52.7639C71.051 53.9154 70.784 54.1658 70.6838 55.5009C70.5503 57.2032 70.6671 58.8053 71.0844 60.4742C72.0523 64.2626 75.023 67.3167 77.5597 70.1872C81.7152 74.8768 86.4048 79.1491 92.1291 81.836C94.3821 82.8875 96.7686 84.0891 99.3387 83.7553C101.842 83.4215 104.112 82.4869 106.482 81.7359C108.568 81.0684 110.821 80.4509 112.99 80.1505C114.008 80.017 115.026 79.8667 116.044 79.7666C117.53 79.5997 118.781 79.0156 120.2 78.5984C122.253 77.9976 124.389 77.6304 126.408 76.9796C127.343 76.6792 128.227 76.2953 129.095 75.8447C130.514 75.1104 132.032 74.6765 133.451 73.8921C138.675 71.0049 142.246 65.2472 142.53 59.2392C142.68 56.1684 141.545 52.9642 140.01 50.3774C139.142 48.9087 138.024 47.5736 137.073 46.1551C135.821 44.3193 134.335 42.6838 132.733 41.1484C129.763 38.3113 126.425 36.4755 122.503 35.2572C120.35 34.5896 118.364 34.3059 116.095 34.3226C112.64 34.3393 109.118 34.8066 105.714 35.4908C102.326 36.1751 98.8882 36.8927 95.5504 37.844C92.0291 38.8286 88.491 40.3306 85.2032 41.8827C81.7987 43.4681 78.8281 45.5876 76.6418 48.6751C76.1578 49.376 75.5903 50.0436 75.1231 50.7445C74.7559 51.2953 74.5557 51.7292 74.0216 52.1297C73.0704 52.814 72.1524 52.9642 71.7853 52.7639Z" fill="#7D72B3"/>
</g>
<path opacity="0.71" fill-rule="evenodd" clip-rule="evenodd" d="M145.45 66.0651L156.148 82.8208C156.148 82.8208 156.482 71.6058 154.913 69.3528C153.344 67.0998 145.45 66.0651 145.45 66.0651Z" fill="url(#paint4_linear_1_6268)"/>
<path opacity="0.71" fill-rule="evenodd" clip-rule="evenodd" d="M17.8633 53.4149C17.8633 53.4149 38.8079 66.9329 96.0843 64.3795L119.148 66.1485C119.148 66.1485 141.061 58.6886 146.034 45.5877C146.034 45.5877 139.559 36.2586 138.04 34.5564C136.522 32.8541 109.552 38.6785 109.552 38.6785L17.8633 53.4149Z" fill="url(#paint5_linear_1_6268)"/>
<path fill-rule="evenodd" clip-rule="evenodd" d="M20.9507 39.2458V34.9901C20.9507 34.9901 32.5329 20.0201 51.5916 3.58152C51.5916 3.58152 101.158 -0.790986 115.227 3.58152L120.801 16.3319L137.223 22.5569L138.04 34.5562C138.04 34.5562 127.259 51.6958 107.6 57.6871L97.6531 55.334C97.6531 55.334 86.7719 59.84 58.0336 59.84C28.661 59.84 17.8633 53.4147 17.8633 53.4147V43.5682L20.9507 39.2458Z" fill="url(#paint6_linear_1_6268)"/>
<path fill-rule="evenodd" clip-rule="evenodd" d="M62.4394 132.17L57.6329 144.737L42.7964 148.258L27.7764 147.574C27.7764 147.574 11.8552 137.46 4.21162 121.489L5.86381 106.953L0.222937 101.746C0.222937 101.746 -1.14554 88.178 10.1529 75.7781C10.1529 75.7781 22.6195 72.3068 40.3599 77.1299L51.3078 89.2628C51.3245 89.2795 60.2865 106.369 62.4394 132.17Z" fill="url(#paint7_linear_1_6268)"/>
<path opacity="0.71" fill-rule="evenodd" clip-rule="evenodd" d="M81.9487 140.765C81.9487 140.765 85.3199 145.221 87.3726 146.105C89.4254 146.99 100.857 149.627 102.176 149.476C103.494 149.326 103.494 137.26 102.76 135.308C102.025 133.355 100.707 131.803 100.707 131.803L81.9487 140.765Z" fill="url(#paint8_linear_1_6268)"/>
<path fill-rule="evenodd" clip-rule="evenodd" d="M164.626 49.8099L164.058 54.5996L155.714 70.137C151.041 70.2538 146.051 66.5322 145.467 66.0649C145.45 66.0482 145.417 66.0315 145.4 66.0148C142.062 60.5742 140.877 48.5916 140.877 48.5916L144.783 43.7852L151.174 42.6169L152.777 43.5682L158.434 41.9661L162.873 44.8032L164.192 45.6543L164.626 49.8099Z" fill="url(#paint9_linear_1_6268)"/>
<path fill-rule="evenodd" clip-rule="evenodd" d="M147.169 73.1412C147.169 73.1412 137.857 68.0344 133.301 68.218L121.668 76.1786C121.668 76.1786 116.945 88.9957 116.929 98.7087C116.929 98.7087 128.144 102.747 136.021 101.646C136.021 101.646 145.033 97.6406 148.137 91.0651C148.154 91.0485 149.372 79.75 147.169 73.1412Z" fill="url(#paint10_linear_1_6268)"/>
<path fill-rule="evenodd" clip-rule="evenodd" d="M20.9507 34.9902C20.9507 34.9902 42.4961 35.6912 66.2611 29.5997C66.2611 29.5997 90.31 21.1551 94.9996 17.9341C99.6892 14.7132 115.243 3.58162 115.243 3.58162C115.243 3.58162 90.6104 -2.55991 51.6083 3.58162C51.5916 3.58162 31.0642 18.9021 20.9507 34.9902Z" fill="url(#paint11_linear_1_6268)"/>
<path fill-rule="evenodd" clip-rule="evenodd" d="M120.801 16.3152C120.801 16.3152 105.848 33.5549 104.079 34.9734C102.326 36.392 77.9436 46.2051 77.9436 46.2051L64.1919 49.7432C64.1919 49.7432 81.3982 49.593 84.3355 49.7432L89.8095 44.4027L108.768 45.1871C108.768 45.1871 126.175 34.6897 137.223 22.5402L120.801 16.3152Z" fill="url(#paint12_linear_1_6268)"/>
<path fill-rule="evenodd" clip-rule="evenodd" d="M17.8633 43.5517L33.117 45.0037C33.117 45.0037 43.2805 45.4376 49.155 43.4683C49.155 43.4683 28.7445 42.4669 20.9674 39.246L17.8633 43.5517Z" fill="url(#paint13_linear_1_6268)"/>
<path fill-rule="evenodd" clip-rule="evenodd" d="M121.668 76.1786C121.668 76.1786 128.327 78.682 132.7 78.3816C137.072 78.0812 147.153 73.1413 147.153 73.1413C147.153 73.1413 142.53 69.1025 133.284 68.218L121.668 76.1786Z" fill="url(#paint14_linear_1_6268)"/>
<path fill-rule="evenodd" clip-rule="evenodd" d="M0.222996 101.78C0.222996 101.78 20.3498 97.3736 25.8906 95.154C31.4146 92.9344 40.3767 77.1466 40.3767 77.1466C40.3767 77.1466 29.3118 72.0231 10.1696 75.7948C10.1696 75.7948 -1.76299 86.893 0.222996 101.78Z" fill="url(#paint15_linear_1_6268)"/>
<path fill-rule="evenodd" clip-rule="evenodd" d="M5.86364 106.97C5.86364 106.97 19.9658 105.117 24.9392 103.749C29.9125 102.38 37.7061 97.5571 37.7061 97.5571C37.7061 97.5571 31.7315 111.159 29.5786 114.229C29.5786 114.229 12.8229 120.538 4.19475 121.489C4.19475 121.506 3.76083 113.929 5.86364 106.97Z" fill="url(#paint16_linear_1_6268)"/>
<path fill-rule="evenodd" clip-rule="evenodd" d="M81.1978 137.41C81.1978 137.41 84.4188 130.351 88.2405 128.832C88.2405 128.832 97.336 128.916 100.707 131.786L98.5042 145.171L85.8873 144.303C85.904 144.303 81.1978 141.916 81.1978 137.41Z" fill="url(#paint17_linear_1_6268)"/>
<path fill-rule="evenodd" clip-rule="evenodd" d="M81.1978 137.41C81.1978 137.41 85.153 138.545 88.8246 137.41C92.4962 136.275 97.0356 130.351 97.0356 130.351C97.0356 130.351 94.0984 128.432 88.2405 128.832C88.2405 128.832 82.2325 131.352 81.1978 137.41Z" fill="url(#paint18_linear_1_6268)"/>
<path opacity="0.5" fill-rule="evenodd" clip-rule="evenodd" d="M62.4393 132.17L57.6328 144.737L42.7963 148.258L27.7763 147.574C27.7763 147.574 42.6461 146.656 43.0967 144.47C43.5306 142.267 44.5488 135.975 44.5488 135.975C40.8939 124.994 29.5954 114.246 29.5954 114.246C34.3184 107.587 37.7229 97.5572 37.7229 97.5572L31.3143 101.129L27.1421 94.453C34.0847 88.2781 40.3931 77.1299 40.3931 77.1299L51.3411 89.2628C51.3244 89.2794 60.2864 106.369 62.4393 132.17Z" fill="url(#paint19_linear_1_6268)"/>
<path opacity="0.5" fill-rule="evenodd" clip-rule="evenodd" d="M91.4448 135.975L98.5042 145.171L100.707 131.786L97.0356 130.351L91.4448 135.975Z" fill="url(#paint20_linear_1_6268)"/>
<path opacity="0.71" fill-rule="evenodd" clip-rule="evenodd" d="M132.716 78.3815C132.716 78.3815 135.17 86.8595 135.47 90.3809C135.77 93.9023 136.037 101.646 136.037 101.646C136.037 101.646 142.796 99.3595 148.154 91.0651C148.154 91.0651 149.572 81.4022 147.169 73.1579C147.169 73.1412 138.324 77.6806 132.716 78.3815Z" fill="url(#paint21_linear_1_6268)"/>
<path opacity="0.5" fill-rule="evenodd" clip-rule="evenodd" d="M146.702 49.9602L148.487 51.3621C148.487 51.3621 152.376 49.7766 152.509 47.774C152.643 45.7713 152.776 43.5683 152.776 43.5683L151.174 42.6171L146.702 49.9602Z" fill="url(#paint22_linear_1_6268)"/>
<path opacity="0.71" fill-rule="evenodd" clip-rule="evenodd" d="M164.626 49.81L164.058 54.5997L155.714 70.1371C151.041 70.254 146.051 66.5323 145.467 66.065C149.656 68.802 154.095 68.5851 154.095 68.5851C154.095 68.5851 154.395 63.6785 154.095 60.5911C153.795 57.5036 151.592 51.3454 151.592 51.3454L162.907 44.7866L164.225 45.6378L164.626 49.81Z" fill="url(#paint23_linear_1_6268)"/>
<path fill-rule="evenodd" clip-rule="evenodd" d="M151.174 42.6003L146.702 49.9435C146.702 49.9435 144.015 50.6444 140.877 48.575L144.783 43.7519L151.174 42.6003Z" fill="url(#paint24_linear_1_6268)"/>
<path fill-rule="evenodd" clip-rule="evenodd" d="M152.777 43.5517L152.51 47.7573C152.51 47.7573 150.223 50.728 147.203 52.0297C147.203 52.0297 153.01 51.3955 155.697 50.2273C155.697 50.2273 162.673 47.4403 164.225 45.6378L158.468 41.9496L152.777 43.5517Z" fill="url(#paint25_linear_1_6268)"/>
<path opacity="0.5" fill-rule="evenodd" clip-rule="evenodd" d="M68.0801 28.7151L82.8332 44.2358L104.078 34.9902C104.078 34.9902 119.616 17.9507 120.801 16.3319L115.226 3.58154C115.226 3.58154 99.9727 14.129 94.9827 17.934C90.0094 21.7391 68.0801 28.7151 68.0801 28.7151Z" fill="url(#paint26_linear_1_6268)"/>
<path opacity="0.5" fill-rule="evenodd" clip-rule="evenodd" d="M89.8095 44.4196L97.6699 55.3341C97.6699 55.3341 91.6786 57.3535 85.3201 58.1212L84.3354 49.7433L89.8095 44.4196Z" fill="url(#paint27_linear_1_6268)"/>
<path opacity="0.5" fill-rule="evenodd" clip-rule="evenodd" d="M108.768 45.2039L107.6 57.6873C107.6 57.6873 128.194 50.3107 138.04 34.5564L137.222 22.557C137.222 22.557 121.518 37.3434 108.768 45.2039Z" fill="url(#paint28_linear_1_6268)"/>
<path opacity="0.2" fill-rule="evenodd" clip-rule="evenodd" d="M23.5039 44.0857L37.7229 59.039H44.7823L46.0674 44.2359C46.0674 44.2359 30.1294 45.7212 23.5039 44.0857Z" fill="url(#paint29_linear_1_6268)"/>
<path fill-rule="evenodd" clip-rule="evenodd" d="M26.658 30.1505C26.3576 29.3328 26.5579 29.0324 27.0085 28.2814C27.7094 27.0965 28.6773 26.0951 29.5452 25.027C31.2141 22.9409 32.9831 20.9883 35.2194 19.4863C37.5392 17.9342 39.7923 16.2486 42.2455 14.8968C43.9144 13.9789 45.5999 13.0444 47.4024 12.3768C48.6707 11.9095 49.9725 11.559 51.2575 11.1585C53.7775 10.3908 57.2155 10.057 59.6521 11.3421C61.1374 12.1265 61.7048 13.5784 62.2723 15.0804C62.5393 15.8147 62.7896 16.4489 62.6394 17.2667C62.5059 17.9676 62.1554 18.7019 61.855 19.3361C60.837 21.4055 58.9511 23.3248 57.1821 24.7767C53.5772 27.7473 49.4718 29.8835 45.066 31.3688C43.881 31.7694 42.6961 32.22 41.4945 32.5037C40.7101 32.6873 39.8924 32.7707 39.108 32.971C37.2889 33.4216 35.4197 33.8388 33.5505 34.0391C33.0332 34.0891 32.4657 34.2727 31.9484 34.2727C31.4811 34.2727 31.0472 33.989 30.5799 33.9055C29.8289 33.772 28.7441 33.8054 28.0765 33.4383C26.2574 32.4369 26.0405 30.4843 26.658 30.1505Z" fill="#FFA989"/>
<path fill-rule="evenodd" clip-rule="evenodd" d="M56.7648 27.9976C56.9317 27.2299 56.8817 27.1965 57.3657 26.7793C57.6327 26.3955 57.9498 26.0283 58.3003 25.7112C58.7342 25.3274 59.2181 25.0103 59.7355 24.7266C61.2208 23.9088 63.0232 22.9909 64.7589 23.4916C65.9271 23.8421 66.578 24.3928 66.3109 25.6778C66.1607 26.3955 65.56 27.1298 64.9926 27.5637C63.9912 28.3648 62.823 28.8487 61.6548 29.3327C60.7536 29.7166 59.4518 29.9335 58.4838 29.7166C57.5826 29.5163 56.648 28.565 56.7648 27.9976Z" fill="#FFA989"/>
<path fill-rule="evenodd" clip-rule="evenodd" d="M82.3826 6.88608C81.0308 7.30331 80.3131 7.57033 79.1949 8.33802C77.526 9.47287 75.7403 10.6244 74.2049 11.9428C73.237 12.7773 72.2857 13.7953 71.6349 14.8968C71.1175 15.7646 70.9506 16.7993 70.8672 17.8007C70.7837 18.8354 71.1175 20.6712 72.2357 21.1385C72.6696 21.322 73.4372 21.1551 73.8711 21.1551C74.8725 21.1718 75.6903 21.0049 76.6583 20.7546C77.6095 20.521 78.5608 20.4542 79.4954 20.1872C80.4467 19.9035 81.3979 19.6364 82.3659 19.4028C84.452 18.8854 86.4714 18.3848 88.424 17.4502C90.2597 16.5657 92.179 15.8481 93.9814 14.8968C95.2832 14.2125 96.5515 13.5116 97.9033 12.8941C99.7558 12.0597 101.625 11.2252 103.411 10.2573C104.178 9.84003 104.679 9.35605 105.28 8.73856C105.864 8.13776 106.565 7.63709 106.999 6.90277C107.199 6.58568 107.65 5.96819 107.633 5.55097C107.616 5.03361 106.865 4.39943 106.481 4.16579C105.814 3.74856 104.863 3.48154 104.095 3.3814C102.96 3.24789 101.658 3.09769 100.523 3.18114C99.1216 3.26458 97.6196 3.48154 96.2344 3.73187C95.3165 3.89876 94.5154 4.13241 93.5808 4.1491C91.8952 4.18247 90.2931 4.2993 88.6242 4.56632C87.673 4.71652 86.7551 5.0503 85.8372 5.31732C85.0027 5.55097 84.1015 5.73455 83.3171 6.1017C82.9333 6.28528 81.4981 6.61906 82.3826 6.88608Z" fill="#FFA989"/>
<path fill-rule="evenodd" clip-rule="evenodd" d="M78.4604 4.14904C77.5592 4.56626 76.2241 5.03355 75.6901 5.96813C75.3396 6.58562 75.8236 6.70244 76.3743 6.70244C77.3256 6.70244 78.3103 6.25184 79.2448 6.00151C79.9625 5.80124 80.7134 5.45077 81.2976 5.01686C81.5813 4.81659 82.1487 4.59963 81.9484 4.18241C81.8316 3.93208 81.2475 3.66506 81.0139 3.5983C80.096 3.31459 78.9611 3.53154 78.2769 4.14904H78.4604Z" fill="#FFA989"/>
<path fill-rule="evenodd" clip-rule="evenodd" d="M110.537 32.4869C109.719 32.7539 108.918 32.8874 108.117 33.1377C107.299 33.3881 106.565 33.9054 105.881 34.3894C104.696 35.2239 103.411 36.3086 102.693 37.5937C102.092 38.6618 101.441 40.6144 102.71 41.4989C104.445 42.7172 107.149 41.4822 108.885 40.8981C111.605 39.9969 114.592 38.9455 116.895 37.1932C117.863 36.4422 118.815 35.541 119.716 34.6898C120.45 33.9889 121.251 33.1211 121.869 32.3033C122.319 31.7025 122.403 30.8847 122.319 30.1504C122.236 29.4495 121.552 28.8821 120.901 28.6317C119.616 28.1311 118.531 28.7319 117.263 28.9321C115.944 29.1491 114.409 29.5329 113.241 30.2005C111.421 31.2018 109.519 32.0697 110.537 32.4869Z" fill="#FFA989"/>
<path fill-rule="evenodd" clip-rule="evenodd" d="M115.026 25.2605C114.809 24.9768 114.676 24.643 114.626 24.2925C115.026 24.1924 115.243 23.7251 115.51 23.4748C115.744 23.2578 116.028 23.1076 116.311 22.9741C116.779 22.7405 117.63 22.3399 118.147 22.5402C119.165 22.924 119.399 23.9087 118.881 24.86C118.364 25.8112 117.379 26.4454 116.328 26.5789C115.544 26.6791 113.875 25.5776 114.809 24.6597L115.026 25.2605Z" fill="#FFA989"/>
<path fill-rule="evenodd" clip-rule="evenodd" d="M126.558 22.5237C125.891 22.6572 124.973 22.6572 124.339 22.9743C124.205 23.0411 124.038 23.258 123.888 23.3415C123.22 23.7921 122.453 24.1592 121.835 24.6933C121.168 25.2774 120.433 26.3288 120.784 27.2467C121.985 30.4176 126.408 28.6485 128.411 27.5304C129.095 27.1465 129.529 26.6125 130.146 26.1619C130.614 25.8281 130.981 25.5778 131.331 25.0938C131.832 24.3929 131.932 23.9256 131.582 23.1078C131.331 22.507 130.697 22.1398 130.063 21.9896C129.529 21.8728 128.928 21.7226 128.394 21.7393C127.059 21.8061 125.907 22.6739 124.789 23.3081L126.558 22.5237Z" fill="#FFA989"/>
<path fill-rule="evenodd" clip-rule="evenodd" d="M11.2042 79.4162C8.16676 80.8347 5.47986 83.1545 3.76089 86.0584C2.9932 87.3601 2.37574 88.6952 1.85838 90.1138C1.59136 90.8481 1.47449 91.6325 1.19078 92.3668C0.940446 93.001 0.673466 93.6018 0.556643 94.286C0.28962 95.8381 -0.444721 98.9923 2.04193 99.1926C3.16009 99.2927 4.46186 99.009 5.56333 98.7921C7.7162 98.3415 9.95249 97.4736 11.9385 96.539C14.1414 95.5043 16.3778 94.3361 18.2803 92.8174C20.066 91.3822 22.0854 90.1972 23.7042 88.5617C25.6401 86.5924 28.4439 83.3715 26.2576 80.5844C24.1882 77.9476 19.7323 78.5484 16.8284 78.8988C15.4599 79.0657 13.9412 79.0824 12.6061 79.4829C12.3057 79.5831 11.9218 79.7166 11.6381 79.8835C11.4378 79.9669 11.2542 80.2006 11.2042 79.4162Z" fill="#FFA989"/>
<path fill-rule="evenodd" clip-rule="evenodd" d="M21.9688 92.5171C22.169 91.8495 22.2358 91.5491 22.7198 91.0818C23.2204 90.5978 23.671 90.0638 24.155 89.5631C24.9227 88.7787 26.5249 87.8775 27.643 87.8108C28.1437 87.7774 28.8446 87.7941 29.2118 88.2113C29.5956 88.6452 29.4121 89.4797 29.2118 89.9637C29.0115 90.4476 28.7779 90.7981 28.3774 91.1486C27.9268 91.5491 27.3926 92.1165 26.8586 92.4002C26.1577 92.7674 25.3065 93.0344 24.5388 93.2681C23.9213 93.4517 22.9701 93.7687 22.386 93.2681C22.0522 92.9677 21.7184 92.2834 21.9688 92.5171Z" fill="#FFA989"/>
<path fill-rule="evenodd" clip-rule="evenodd" d="M13.5572 108.555C12.9064 108.705 11.9551 108.789 11.371 109.189C10.8536 109.54 10.4364 110.091 10.0692 110.575C9.30155 111.593 8.63398 112.677 7.86629 113.695C7.23211 114.53 6.64803 115.448 6.13068 116.349C5.76352 116.966 5.57993 117.534 5.91371 118.201C6.78154 119.854 9.45179 119.453 10.887 119.103C12.4391 118.735 13.8243 117.984 15.2762 117.35C16.5779 116.783 17.9464 116.282 19.1981 115.615C21.351 114.446 23.9878 113.261 25.156 110.958C25.6066 110.057 25.7902 109.34 25.3897 108.388C25.0225 107.504 24.3717 106.853 23.5205 106.402C22.6527 105.918 21.7015 106.035 20.7335 106.018C19.3984 106.002 17.9297 106.219 16.628 106.603C15.8102 106.853 14.9591 107.253 14.1581 107.571C12.9731 108.071 12.3389 109.056 13.5572 108.555Z" fill="#FFA989"/>
<path fill-rule="evenodd" clip-rule="evenodd" d="M5.9306 109.924C5.88053 109.59 5.8972 109.273 5.96396 108.939C6.53138 108.755 6.7817 108.121 7.51602 108.338C8.05006 108.505 8.13352 109.106 8.00001 109.523C7.73299 110.358 5.71361 112.077 5.74699 110.308L5.9306 109.924Z" fill="#FFA989"/>
<path fill-rule="evenodd" clip-rule="evenodd" d="M134.002 70.8214C133.034 70.8548 132.049 70.9382 131.081 71.0551C130.814 71.272 130.547 71.4389 130.247 71.5891C129.245 72.1232 128.327 72.507 127.46 73.258C126.759 73.8588 125.09 74.9436 125.19 76.0618C125.273 77.0965 126.792 77.2967 127.593 77.2967C128.411 77.2967 129.229 77.1132 130.063 77.0798C131.198 77.013 132.316 76.8795 133.451 76.746C134.886 76.5791 136.438 76.2954 137.707 75.5778C138.474 75.1439 138.992 74.6766 139.526 73.9923C139.776 73.6752 140.16 73.3581 140.076 72.9242C140.026 72.6405 139.492 72.0397 139.275 71.8561C138.958 71.5724 138.524 71.3888 138.141 71.222C136.238 70.3708 134.119 71.0217 134.002 70.8214Z" fill="#FFA989"/>
<path fill-rule="evenodd" clip-rule="evenodd" d="M86.0875 133.388C85.3031 133.739 84.8025 133.822 84.452 134.557C84.3185 134.824 83.9013 135.408 83.918 135.758C83.9347 136.242 84.4353 136.226 84.8358 136.109C85.3699 135.958 85.904 135.475 86.3546 135.191C86.7217 134.957 86.9888 134.707 87.2725 134.356C87.4394 134.156 87.5895 134.056 87.6396 133.772C87.6896 133.522 87.5562 133.288 87.8065 133.138C87.6396 132.003 85.5035 133.555 85.1029 133.589L86.0875 133.388Z" fill="#FFA989"/>
<path fill-rule="evenodd" clip-rule="evenodd" d="M91.5614 131.235C90.3431 131.769 89.5253 132.203 88.9078 133.405C88.7075 133.789 88.524 134.173 88.7242 134.573C89.3584 135.808 90.7102 134.707 91.4111 134.173C91.8951 133.805 92.4125 133.555 92.8298 133.105C93.0133 132.904 93.1468 132.671 93.3137 132.454C93.4639 132.27 93.7643 132.053 93.8645 131.82C94.0647 131.369 93.7476 131.018 93.3137 130.885C92.5126 130.635 91.8952 131.169 91.1442 131.235H91.5614Z" fill="#FFA989"/>
<path fill-rule="evenodd" clip-rule="evenodd" d="M27.6261 104.45C27.2589 105.234 25.9571 108.155 27.6928 108.138C29.1948 108.121 31.6648 106.502 31.7482 104.833C31.7983 103.732 30.9138 103.181 29.879 103.064C28.5606 102.914 27.7929 103.966 27.2422 105.034L27.6261 104.45Z" fill="#FFA989"/>
<path fill-rule="evenodd" clip-rule="evenodd" d="M32.132 79.2159C31.7982 79.6832 31.3142 80.0671 31.7982 80.551C32.0318 80.7847 32.2821 80.9349 32.6159 80.985C33.2835 81.0684 34.2514 80.4843 34.2848 79.8167C34.3015 79.3161 34.0679 78.9155 33.7008 78.6318C33.1667 78.248 32.7995 78.4816 32.3322 78.8321L32.132 79.2159Z" fill="#FFA989"/>
<path fill-rule="evenodd" clip-rule="evenodd" d="M50.2231 33.0375C50.2231 33.0375 58.9515 30.3506 60.8874 29.5829C62.8066 28.8152 72.553 27.2465 72.553 27.2465C72.553 27.2465 80.9141 23.6584 83.2673 22.5569C85.6204 21.4554 91.5784 18.5182 91.5784 18.5182L98.521 15.3306C98.521 15.3306 93.8314 20.1537 89.7259 21.7224C85.6204 23.2912 75.1564 27.4968 75.1564 27.4968C75.1564 27.4968 72.0356 28.3646 67.6297 29.7832C63.2238 31.2185 50.2231 33.0375 50.2231 33.0375Z" fill="#FFBD4A"/>
<path fill-rule="evenodd" clip-rule="evenodd" d="M104.596 45.0538L108.601 46.9897C108.601 46.9897 112.757 44.5197 113.391 42.1499C113.408 42.1499 105.547 44.3028 104.596 45.0538Z" fill="#FFAB4A"/>
<path fill-rule="evenodd" clip-rule="evenodd" d="M82.4492 49.7601L84.4686 50.9116L85.9205 48.208L82.4492 49.7601Z" fill="#FFAB4A"/>
<path opacity="0.71" fill-rule="evenodd" clip-rule="evenodd" d="M50.2231 75.8782C50.2231 75.8782 54.9628 80.6178 65.3767 83.8054C65.3767 83.8054 66.111 83.0377 66.9955 78.5651C67.88 74.0924 66.9955 72.5237 66.9955 72.5237C66.9955 72.5237 54.1951 74.1425 50.2231 75.8782Z" fill="url(#paint30_linear_1_6268)"/>
<path opacity="0.71" fill-rule="evenodd" clip-rule="evenodd" d="M57.2158 90.0305C57.2158 90.0305 57.3493 91.6159 57.9334 92.7007C58.5175 93.7855 65.093 95.421 65.9608 95.0705C67.5796 94.3863 65.7439 90.4644 65.0596 89.2962C64.3754 88.1279 63.2572 86.9597 63.2572 86.9597L57.2158 90.0305Z" fill="url(#paint31_linear_1_6268)"/>
<path fill-rule="evenodd" clip-rule="evenodd" d="M16.3945 118.669C16.3945 118.669 25.2897 114.697 28.0767 112.694C30.8638 110.691 35.0528 103.482 35.0528 103.482L30.5801 114.613L27.5928 115.732L24.422 116.416L16.3945 118.669Z" fill="#FFAB4A"/>
<path fill-rule="evenodd" clip-rule="evenodd" d="M21.8687 96.4725L29.4288 92.2168C29.4288 92.2168 28.7111 94.6534 27.6264 95.3043C26.5583 95.9384 21.8687 96.4725 21.8687 96.4725Z" fill="#FFAB4A"/>
<path fill-rule="evenodd" clip-rule="evenodd" d="M130.08 78.2815L133.434 80.9851C133.434 80.9851 134.252 78.7655 134.419 78.0645C134.586 77.3636 130.08 78.2815 130.08 78.2815Z" fill="#FF864A"/>
<path fill-rule="evenodd" clip-rule="evenodd" d="M149.272 51.7458L154.078 50.1938L158.301 49.0923C158.301 49.0923 153.594 51.5789 152.777 52.0295C151.959 52.4635 149.272 51.7458 149.272 51.7458Z" fill="#FFAB4A"/>
<path fill-rule="evenodd" clip-rule="evenodd" d="M145.45 50.077L147.203 48.7252V50.3441L145.45 50.077Z" fill="#FFAB4A"/>
<path fill-rule="evenodd" clip-rule="evenodd" d="M87.5396 137.711L93.2806 134.44L92.5964 137.477L87.5396 137.711Z" fill="#FF864A"/>
<path fill-rule="evenodd" clip-rule="evenodd" d="M23.0869 44.0857C23.0869 44.0857 27.4761 43.7352 30.0462 43.7352C32.6163 43.7352 37.7064 44.2359 37.7064 44.2359L42.6297 44.7199C42.6297 44.7199 39.8092 44.9535 33.8346 45.0537C27.8766 45.1538 23.0869 44.0857 23.0869 44.0857Z" fill="#FFB14A"/>
<path fill-rule="evenodd" clip-rule="evenodd" d="M47.77 71.7728C47.77 71.7728 52.2593 66.7661 54.2286 66.0485C56.1812 65.3308 65.3602 69.5198 66.979 70.1206C68.5979 70.7214 63.8748 80.0004 62.6732 80.9851C61.4549 81.953 47.9703 77.0298 47.77 71.7728Z" fill="url(#paint32_linear_1_6268)"/>
<path fill-rule="evenodd" clip-rule="evenodd" d="M64.6091 92.7007C64.1919 93.8856 60.0865 93.2681 58.6179 92.7007L58.501 92.6339L58.1839 92.4169C58.1506 92.4003 58.1172 92.3669 58.1005 92.3335C57.0491 91.2487 56.7987 88.2948 57.5163 86.726C57.5163 86.726 61.0878 85.6245 62.4062 86.0918C63.2573 86.3922 64.1085 88.5785 64.4757 90.4143V90.431C64.6927 91.4156 64.7593 92.3001 64.6091 92.7007Z" fill="url(#paint33_linear_1_6268)"/>
<path opacity="0.5" fill-rule="evenodd" clip-rule="evenodd" d="M59.252 74.593L62.6565 80.9848C62.6565 80.9848 67.0289 76.2285 67.2959 70.7545L59.252 74.593Z" fill="url(#paint34_linear_1_6268)"/>
<path fill-rule="evenodd" clip-rule="evenodd" d="M15.1428 54.5664L6.88174 56.5691C6.88174 56.5691 5.52993 61.3421 5.7302 63.3448L10.8537 68.7687C10.8537 68.7687 12.4392 59.0557 15.1428 54.5664Z" fill="url(#paint35_linear_1_6268)"/>
<path fill-rule="evenodd" clip-rule="evenodd" d="M47.77 71.7726C47.77 71.7726 51.8088 73.7586 56.7487 74.5763C61.6886 75.3941 67.296 70.7545 67.296 70.7545C67.296 70.7545 61.9889 66.0149 54.3788 65.1304C54.3621 65.1471 49.3888 67.9842 47.77 71.7726Z" fill="url(#paint36_linear_1_6268)"/>
<path opacity="0.5" fill-rule="evenodd" clip-rule="evenodd" d="M64.6088 92.7007C64.1916 93.8856 60.0862 93.2681 58.6176 92.7007L58.5007 92.634L58.1836 92.417L58.0835 92.3503L58.1002 92.3336L59.2183 90.7815L63.8078 89.6633L64.492 90.4143V90.431C64.6923 91.4157 64.759 92.3002 64.6088 92.7007Z" fill="url(#paint37_linear_1_6268)"/>
<path fill-rule="evenodd" clip-rule="evenodd" d="M57.5327 86.726C57.5327 86.726 57.4493 89.9971 58.8345 90.6646C60.2197 91.3155 63.4072 89.9971 63.8245 89.68C64.2417 89.3629 62.8565 86.3756 61.6549 85.9917C60.4533 85.6079 57.5327 86.726 57.5327 86.726Z" fill="url(#paint38_linear_1_6268)"/>
<path opacity="0.71" fill-rule="evenodd" clip-rule="evenodd" d="M128.744 130.401C128.744 130.401 127.176 130.117 125.974 130.384C124.772 130.651 122.82 136.96 122.82 137.894C122.82 141.616 127.142 140.565 128.461 140.214C129.779 139.864 130.096 137.06 130.096 137.06L128.744 130.401Z" fill="url(#paint39_linear_1_6268)"/>
<path fill-rule="evenodd" clip-rule="evenodd" d="M124.188 136.826C123.154 136.109 124.839 132.32 125.791 131.052L125.874 130.968L126.174 130.718C126.191 130.685 126.241 130.668 126.275 130.668C127.593 129.95 130.514 130.501 131.832 131.603C131.832 131.603 131.932 135.341 131.131 136.492C130.614 137.227 128.277 137.46 126.408 137.344H126.391C125.407 137.243 124.539 137.06 124.188 136.826Z" fill="url(#paint40_linear_1_6268)"/>
<path opacity="0.5" fill-rule="evenodd" clip-rule="evenodd" d="M124.188 136.826C123.154 136.109 124.839 132.32 125.791 131.052L125.874 130.968L126.174 130.718L126.258 130.651L126.275 130.668L127.476 132.153L127.326 136.86L126.425 137.31H126.408C125.407 137.243 124.539 137.06 124.188 136.826Z" fill="url(#paint41_linear_1_6268)"/>
<path fill-rule="evenodd" clip-rule="evenodd" d="M131.832 131.603C131.832 131.603 128.695 130.651 127.693 131.803C126.692 132.971 127.109 136.376 127.31 136.876C127.51 137.36 130.764 136.826 131.448 135.775C132.149 134.707 131.832 131.603 131.832 131.603Z" fill="url(#paint42_linear_1_6268)"/>
<path fill-rule="evenodd" clip-rule="evenodd" d="M31.2979 124.81L38.958 125.344L50.8072 124.81L54.6457 126.145L50.5402 125.561L42.6296 129.283L42.0455 130.351L37.7231 129.183L31.2979 124.81Z" fill="url(#paint43_linear_1_6268)"/>
<path fill-rule="evenodd" clip-rule="evenodd" d="M31.2979 124.81L37.7231 128.782L39.9927 128.415L43.4474 128.131L50.5402 125.561L42.6296 129.283L42.0455 130.351L37.139 129.45L31.2979 124.81Z" fill="url(#paint44_linear_1_6268)"/>
<path fill-rule="evenodd" clip-rule="evenodd" d="M46.0674 33.4381L52.2923 37.1264L59.2517 36.5923L67.6128 29.7999L56.8318 29.0322L50.2229 30.7345L46.0674 33.4381Z" fill="url(#paint45_linear_1_6268)"/>
<path fill-rule="evenodd" clip-rule="evenodd" d="M46.0674 33.4382H48.1368L51.9419 34.2894H56.0473L60.52 32.5203L65.4265 29.8H67.6128C67.6128 29.8 63.1736 34.3561 59.2517 36.5925L52.2923 37.1432L46.0674 33.4382Z" fill="url(#paint46_linear_1_6268)"/>
<path fill-rule="evenodd" clip-rule="evenodd" d="M7.48291 120.972L10.4368 118.201L13.6578 118.669C13.6578 118.669 14.075 120.721 13.6578 122.323C13.2406 123.942 10.4368 122.924 10.4368 122.924L7.48291 120.972Z" fill="url(#paint47_linear_1_6268)"/>
<path fill-rule="evenodd" clip-rule="evenodd" d="M7.48291 120.972C7.48291 120.972 10.4536 121.94 10.9375 121.94C11.4215 121.94 12.6064 121.89 13.0904 121.506C13.5744 121.122 13.6411 118.669 13.6411 118.669C13.6411 118.669 14.0584 120.955 13.6411 122.324C13.6411 122.324 13.5744 123.492 11.4882 123.425L10.1197 123.008L7.48291 120.972Z" fill="url(#paint48_linear_1_6268)"/>
<path fill-rule="evenodd" clip-rule="evenodd" d="M137.707 77.1466C137.707 77.1466 138.474 75.4276 139.492 74.6933C140.527 73.959 143.531 74.0424 143.531 74.0424L143.915 74.6933C143.915 74.6933 142.88 77.3468 142.079 77.8141C141.278 78.2814 139.592 77.8141 139.592 77.8141L137.707 77.1466Z" fill="url(#paint49_linear_1_6268)"/>
<path fill-rule="evenodd" clip-rule="evenodd" d="M143.531 74.0258C143.531 74.0258 142.463 75.8115 141.729 76.2955C140.994 76.7794 140.06 77.1466 140.06 77.1466C140.06 77.1466 138.875 77.3469 137.707 77.1466C137.707 77.1466 139.442 77.981 140.811 78.0144C140.811 78.0144 142.346 78.0311 142.58 77.8142C142.813 77.5805 143.915 74.6933 143.915 74.6933L143.531 74.0258Z" fill="url(#paint50_linear_1_6268)"/>
<defs>
<linearGradient id="paint0_linear_1_6268" x1="140.011" y1="127.596" x2="123.498" y2="76.0534" gradientUnits="userSpaceOnUse">
<stop stop-color="#5B006F"/>
<stop offset="0.0169" stop-color="#5C0270"/>
<stop offset="0.2299" stop-color="#6A1A7C"/>
<stop offset="0.4553" stop-color="#732C84"/>
<stop offset="0.699" stop-color="#793689"/>
<stop offset="0.9944" stop-color="#7B398B"/>
</linearGradient>
<radialGradient id="paint1_radial_1_6268" cx="0" cy="0" r="1" gradientUnits="userSpaceOnUse" gradientTransform="translate(45.2389 53.213) scale(117.793 117.793)">
<stop offset="0.00558659" stop-color="#9D4863"/>
<stop offset="0.2378" stop-color="#9A4563"/>
<stop offset="0.4181" stop-color="#903D61"/>
<stop offset="0.581" stop-color="#802E5F"/>
<stop offset="0.7326" stop-color="#68195B"/>
<stop offset="0.8715" stop-color="#4C0057"/>
<stop offset="0.9804" stop-color="#4C0086"/>
</radialGradient>
<linearGradient id="paint2_linear_1_6268" x1="40.3751" y1="115.519" x2="70.9496" y2="115.519" gradientUnits="userSpaceOnUse">
<stop stop-color="#CA528D"/>
<stop offset="1" stop-color="#8E7090"/>
</linearGradient>
<linearGradient id="paint3_linear_1_6268" x1="116.933" y1="100.986" x2="146.056" y2="100.986" gradientUnits="userSpaceOnUse">
<stop stop-color="#CA528D"/>
<stop offset="1" stop-color="#8E7090"/>
</linearGradient>
<linearGradient id="paint4_linear_1_6268" x1="145.458" y1="74.4402" x2="156.194" y2="74.4402" gradientUnits="userSpaceOnUse">
<stop stop-color="#CA528D"/>
<stop offset="1" stop-color="#8E7090"/>
</linearGradient>
<linearGradient id="paint5_linear_1_6268" x1="17.8574" y1="50.2001" x2="146.027" y2="50.2001" gradientUnits="userSpaceOnUse">
<stop stop-color="#CA528D"/>
<stop offset="1" stop-color="#8E7090"/>
</linearGradient>
<linearGradient id="paint6_linear_1_6268" x1="17.8574" y1="30.7364" x2="138.038" y2="30.7364" gradientUnits="userSpaceOnUse">
<stop offset="0.00558659" stop-color="#DE6863"/>
<stop offset="0.2467" stop-color="#DB6563"/>
<stop offset="0.4339" stop-color="#D35B62"/>
<stop offset="0.6031" stop-color="#C54B60"/>
<stop offset="0.7614" stop-color="#B1335D"/>
<stop offset="0.911" stop-color="#981659"/>
<stop offset="1" stop-color="#860057"/>
</linearGradient>
<linearGradient id="paint7_linear_1_6268" x1="31.3024" y1="148.264" x2="31.3024" y2="74.5867" gradientUnits="userSpaceOnUse">
<stop stop-color="#860057"/>
<stop offset="0.0302" stop-color="#8C0757"/>
<stop offset="0.1896" stop-color="#AA2456"/>
<stop offset="0.3582" stop-color="#C13C55"/>
<stop offset="0.5383" stop-color="#D14C54"/>
<stop offset="0.7377" stop-color="#DB5654"/>
<stop offset="0.9944" stop-color="#DE5954"/>
</linearGradient>
<linearGradient id="paint8_linear_1_6268" x1="81.9417" y1="140.626" x2="103.253" y2="140.626" gradientUnits="userSpaceOnUse">
<stop stop-color="#CA528D"/>
<stop offset="1" stop-color="#8E7090"/>
</linearGradient>
<linearGradient id="paint9_linear_1_6268" x1="152.748" y1="70.1323" x2="152.748" y2="41.9587" gradientUnits="userSpaceOnUse">
<stop stop-color="#860057"/>
<stop offset="0.0324" stop-color="#880457"/>
<stop offset="0.2331" stop-color="#951C56"/>
<stop offset="0.4486" stop-color="#9E2C55"/>
<stop offset="0.6871" stop-color="#A33654"/>
<stop offset="0.9944" stop-color="#A53954"/>
</linearGradient>
<linearGradient id="paint10_linear_1_6268" x1="132.709" y1="101.826" x2="132.709" y2="68.204" gradientUnits="userSpaceOnUse">
<stop stop-color="#860057"/>
<stop offset="0.0324" stop-color="#880457"/>
<stop offset="0.2331" stop-color="#951C56"/>
<stop offset="0.4486" stop-color="#9E2C55"/>
<stop offset="0.6871" stop-color="#A33654"/>
<stop offset="0.9944" stop-color="#A53954"/>
</linearGradient>
<linearGradient id="paint11_linear_1_6268" x1="68.0843" y1="35.0111" x2="68.0843" y2="0.847805" gradientUnits="userSpaceOnUse">
<stop stop-color="#F49F57"/>
<stop offset="0.0988" stop-color="#F79656"/>
<stop offset="0.3517" stop-color="#FB8655"/>
<stop offset="0.6326" stop-color="#FE7C54"/>
<stop offset="0.9944" stop-color="#FF7954"/>
</linearGradient>
<linearGradient id="paint12_linear_1_6268" x1="100.708" y1="49.7538" x2="100.708" y2="16.3219" gradientUnits="userSpaceOnUse">
<stop stop-color="#F47D57"/>
<stop offset="0.3981" stop-color="#FC7A55"/>
<stop offset="0.9944" stop-color="#FF7954"/>
</linearGradient>
<linearGradient id="paint13_linear_1_6268" x1="17.8574" y1="42.1463" x2="49.1402" y2="42.1463" gradientUnits="userSpaceOnUse">
<stop stop-color="#F49F57"/>
<stop offset="0.0988" stop-color="#F79656"/>
<stop offset="0.3517" stop-color="#FB8655"/>
<stop offset="0.6326" stop-color="#FE7C54"/>
<stop offset="0.9944" stop-color="#FF7954"/>
</linearGradient>
<linearGradient id="paint14_linear_1_6268" x1="121.669" y1="73.3046" x2="147.167" y2="73.3046" gradientUnits="userSpaceOnUse">
<stop offset="0.00558659" stop-color="#C75357"/>
<stop offset="0.1307" stop-color="#D35856"/>
<stop offset="0.3746" stop-color="#E35F55"/>
<stop offset="0.6455" stop-color="#ED6454"/>
<stop offset="0.9944" stop-color="#F06554"/>
</linearGradient>
<linearGradient id="paint15_linear_1_6268" x1="-0.00280578" y1="88.0892" x2="40.37" y2="88.0892" gradientUnits="userSpaceOnUse">
<stop stop-color="#F49F57"/>
<stop offset="0.0988" stop-color="#F79656"/>
<stop offset="0.3517" stop-color="#FB8655"/>
<stop offset="0.6326" stop-color="#FE7C54"/>
<stop offset="0.9944" stop-color="#FF7954"/>
</linearGradient>
<linearGradient id="paint16_linear_1_6268" x1="4.16304" y1="109.533" x2="37.7153" y2="109.533" gradientUnits="userSpaceOnUse">
<stop stop-color="#F49F57"/>
<stop offset="0.0988" stop-color="#F79656"/>
<stop offset="0.3517" stop-color="#FB8655"/>
<stop offset="0.6326" stop-color="#FE7C54"/>
<stop offset="0.9944" stop-color="#FF7954"/>
</linearGradient>
<linearGradient id="paint17_linear_1_6268" x1="90.9561" y1="145.168" x2="90.9561" y2="128.829" gradientUnits="userSpaceOnUse">
<stop stop-color="#860057"/>
<stop offset="0.0324" stop-color="#880457"/>
<stop offset="0.2331" stop-color="#951C56"/>
<stop offset="0.4486" stop-color="#9E2C55"/>
<stop offset="0.6871" stop-color="#A33654"/>
<stop offset="0.9944" stop-color="#A53954"/>
</linearGradient>
<linearGradient id="paint18_linear_1_6268" x1="81.2046" y1="133.342" x2="97.0416" y2="133.342" gradientUnits="userSpaceOnUse">
<stop offset="0.00558659" stop-color="#C75357"/>
<stop offset="0.2613" stop-color="#D15149"/>
<stop offset="0.5815" stop-color="#D94F3F"/>
<stop offset="0.9944" stop-color="#DB4F3C"/>
</linearGradient>
<linearGradient id="paint19_linear_1_6268" x1="27.1256" y1="112.703" x2="62.4318" y2="112.703" gradientUnits="userSpaceOnUse">
<stop stop-color="#CA528D"/>
<stop offset="1" stop-color="#8E7090"/>
</linearGradient>
<linearGradient id="paint20_linear_1_6268" x1="91.4418" y1="137.759" x2="100.708" y2="137.759" gradientUnits="userSpaceOnUse">
<stop stop-color="#CA528D"/>
<stop offset="1" stop-color="#8E7090"/>
</linearGradient>
<linearGradient id="paint21_linear_1_6268" x1="132.709" y1="87.384" x2="148.559" y2="87.384" gradientUnits="userSpaceOnUse">
<stop stop-color="#CA528D"/>
<stop offset="1" stop-color="#8E7090"/>
</linearGradient>
<linearGradient id="paint22_linear_1_6268" x1="146.7" y1="46.9824" x2="152.774" y2="46.9824" gradientUnits="userSpaceOnUse">
<stop stop-color="#CA528D"/>
<stop offset="1" stop-color="#8E7090"/>
</linearGradient>
<linearGradient id="paint23_linear_1_6268" x1="145.458" y1="57.4619" x2="164.62" y2="57.4619" gradientUnits="userSpaceOnUse">
<stop stop-color="#CA528D"/>
<stop offset="1" stop-color="#8E7090"/>
</linearGradient>
<linearGradient id="paint24_linear_1_6268" x1="140.729" y1="47.7769" x2="151.752" y2="45.7737" gradientUnits="userSpaceOnUse">
<stop stop-color="#F47D57"/>
<stop offset="0.3981" stop-color="#FC7A55"/>
<stop offset="0.9944" stop-color="#FF7954"/>
</linearGradient>
<linearGradient id="paint25_linear_1_6268" x1="146.5" y1="48.204" x2="164.095" y2="45.0064" gradientUnits="userSpaceOnUse">
<stop stop-color="#F47D57"/>
<stop offset="0.3981" stop-color="#FC7A55"/>
<stop offset="0.9944" stop-color="#FF7954"/>
</linearGradient>
<linearGradient id="paint26_linear_1_6268" x1="68.0841" y1="23.9072" x2="120.797" y2="23.9072" gradientUnits="userSpaceOnUse">
<stop stop-color="#CA528D"/>
<stop offset="1" stop-color="#8E7090"/>
</linearGradient>
<linearGradient id="paint27_linear_1_6268" x1="84.3331" y1="51.2732" x2="97.6604" y2="51.2732" gradientUnits="userSpaceOnUse">
<stop stop-color="#CA528D"/>
<stop offset="1" stop-color="#8E7090"/>
</linearGradient>
<linearGradient id="paint28_linear_1_6268" x1="107.599" y1="40.1231" x2="138.038" y2="40.1231" gradientUnits="userSpaceOnUse">
<stop stop-color="#CA528D"/>
<stop offset="1" stop-color="#8E7090"/>
</linearGradient>
<linearGradient id="paint29_linear_1_6268" x1="23.5027" y1="51.5684" x2="46.0635" y2="51.5684" gradientUnits="userSpaceOnUse">
<stop stop-color="#CA528D"/>
<stop offset="1" stop-color="#8E7090"/>
</linearGradient>
<linearGradient id="paint30_linear_1_6268" x1="50.2156" y1="78.1642" x2="67.372" y2="78.1642" gradientUnits="userSpaceOnUse">
<stop stop-color="#CA528D"/>
<stop offset="1" stop-color="#8E7090"/>
</linearGradient>
<linearGradient id="paint31_linear_1_6268" x1="57.213" y1="91.0393" x2="66.617" y2="91.0393" gradientUnits="userSpaceOnUse">
<stop stop-color="#CA528D"/>
<stop offset="1" stop-color="#8E7090"/>
</linearGradient>
<linearGradient id="paint32_linear_1_6268" x1="57.5359" y1="81.1106" x2="57.5359" y2="65.9765" gradientUnits="userSpaceOnUse">
<stop stop-color="#A20057"/>
<stop offset="0.2826" stop-color="#BA2456"/>
<stop offset="0.568" stop-color="#CE4155"/>
<stop offset="0.8152" stop-color="#DA5354"/>
<stop offset="0.9944" stop-color="#DE5954"/>
</linearGradient>
<linearGradient id="paint33_linear_1_6268" x1="60.9136" y1="93.3779" x2="60.9136" y2="85.9887" gradientUnits="userSpaceOnUse">
<stop stop-color="#A20057"/>
<stop offset="0.2826" stop-color="#BA2456"/>
<stop offset="0.568" stop-color="#CE4155"/>
<stop offset="0.8152" stop-color="#DA5354"/>
<stop offset="0.9944" stop-color="#DE5954"/>
</linearGradient>
<linearGradient id="paint34_linear_1_6268" x1="59.2498" y1="75.8749" x2="67.2954" y2="75.8749" gradientUnits="userSpaceOnUse">
<stop stop-color="#CA528D"/>
<stop offset="1" stop-color="#8E7090"/>
</linearGradient>
<linearGradient id="paint35_linear_1_6268" x1="10.4323" y1="68.7704" x2="10.4323" y2="54.5706" gradientUnits="userSpaceOnUse">
<stop stop-color="#A20057"/>
<stop offset="0.2826" stop-color="#BA2456"/>
<stop offset="0.568" stop-color="#CE4155"/>
<stop offset="0.8152" stop-color="#DA5354"/>
<stop offset="0.9944" stop-color="#DE5954"/>
</linearGradient>
<linearGradient id="paint36_linear_1_6268" x1="57.5335" y1="74.6845" x2="57.5335" y2="65.1462" gradientUnits="userSpaceOnUse">
<stop stop-color="#F49F57"/>
<stop offset="0.0988" stop-color="#F79656"/>
<stop offset="0.3517" stop-color="#FB8655"/>
<stop offset="0.6326" stop-color="#FE7C54"/>
<stop offset="0.9944" stop-color="#FF7954"/>
</linearGradient>
<linearGradient id="paint37_linear_1_6268" x1="58.1134" y1="91.5283" x2="64.6901" y2="91.5283" gradientUnits="userSpaceOnUse">
<stop stop-color="#CA528D"/>
<stop offset="1" stop-color="#8E7090"/>
</linearGradient>
<linearGradient id="paint38_linear_1_6268" x1="60.7195" y1="90.8452" x2="60.7195" y2="85.9079" gradientUnits="userSpaceOnUse">
<stop stop-color="#F47D57"/>
<stop offset="0.3981" stop-color="#FC7A55"/>
<stop offset="0.9944" stop-color="#FF7954"/>
</linearGradient>
<linearGradient id="paint39_linear_1_6268" x1="128.431" y1="130.319" x2="125.539" y2="140.744" gradientUnits="userSpaceOnUse">
<stop stop-color="#CA528D"/>
<stop offset="1" stop-color="#8E7090"/>
</linearGradient>
<linearGradient id="paint40_linear_1_6268" x1="124.529" y1="133.077" x2="131.65" y2="135.052" gradientUnits="userSpaceOnUse">
<stop stop-color="#A20057"/>
<stop offset="0.2826" stop-color="#BA2456"/>
<stop offset="0.568" stop-color="#CE4155"/>
<stop offset="0.8152" stop-color="#DA5354"/>
<stop offset="0.9944" stop-color="#DE5954"/>
</linearGradient>
<linearGradient id="paint41_linear_1_6268" x1="127.06" y1="130.873" x2="125.302" y2="137.211" gradientUnits="userSpaceOnUse">
<stop stop-color="#CA528D"/>
<stop offset="1" stop-color="#8E7090"/>
</linearGradient>
<linearGradient id="paint42_linear_1_6268" x1="127.022" y1="133.567" x2="131.78" y2="134.887" gradientUnits="userSpaceOnUse">
<stop stop-color="#F47D57"/>
<stop offset="0.3981" stop-color="#FC7A55"/>
<stop offset="0.9944" stop-color="#FF7954"/>
</linearGradient>
<linearGradient id="paint43_linear_1_6268" x1="31.3025" y1="127.579" x2="54.6393" y2="127.579" gradientUnits="userSpaceOnUse">
<stop stop-color="#860057"/>
<stop offset="0.2079" stop-color="#8A0A4D"/>
<stop offset="0.5514" stop-color="#8E1343"/>
<stop offset="0.9944" stop-color="#8F1640"/>
</linearGradient>
<linearGradient id="paint44_linear_1_6268" x1="31.3025" y1="127.579" x2="50.5335" y2="127.579" gradientUnits="userSpaceOnUse">
<stop stop-color="#F49F57"/>
<stop offset="0.0988" stop-color="#F79656"/>
<stop offset="0.3517" stop-color="#FB8655"/>
<stop offset="0.6326" stop-color="#FE7C54"/>
<stop offset="0.9944" stop-color="#FF7954"/>
</linearGradient>
<linearGradient id="paint45_linear_1_6268" x1="56.8397" y1="37.133" x2="56.8397" y2="29.0314" gradientUnits="userSpaceOnUse">
<stop stop-color="#860057"/>
<stop offset="0.0324" stop-color="#880457"/>
<stop offset="0.2331" stop-color="#951C56"/>
<stop offset="0.4486" stop-color="#9E2C55"/>
<stop offset="0.6871" stop-color="#A33654"/>
<stop offset="0.9944" stop-color="#A53954"/>
</linearGradient>
<linearGradient id="paint46_linear_1_6268" x1="46.0635" y1="33.4679" x2="67.6161" y2="33.4679" gradientUnits="userSpaceOnUse">
<stop stop-color="#F49F57"/>
<stop offset="0.0988" stop-color="#F79656"/>
<stop offset="0.3517" stop-color="#FB8655"/>
<stop offset="0.6326" stop-color="#FE7C54"/>
<stop offset="0.9944" stop-color="#FF7954"/>
</linearGradient>
<linearGradient id="paint47_linear_1_6268" x1="10.6578" y1="123.251" x2="10.6578" y2="118.209" gradientUnits="userSpaceOnUse">
<stop stop-color="#860057"/>
<stop offset="0.0324" stop-color="#880457"/>
<stop offset="0.2331" stop-color="#951C56"/>
<stop offset="0.4486" stop-color="#9E2C55"/>
<stop offset="0.6871" stop-color="#A33654"/>
<stop offset="0.9944" stop-color="#A53954"/>
</linearGradient>
<linearGradient id="paint48_linear_1_6268" x1="7.48341" y1="121.057" x2="13.8322" y2="121.057" gradientUnits="userSpaceOnUse">
<stop stop-color="#F49F57"/>
<stop offset="0.0988" stop-color="#F79656"/>
<stop offset="0.3517" stop-color="#FB8655"/>
<stop offset="0.6326" stop-color="#FE7C54"/>
<stop offset="0.9944" stop-color="#FF7954"/>
</linearGradient>
<linearGradient id="paint49_linear_1_6268" x1="137.7" y1="76.0185" x2="143.903" y2="76.0185" gradientUnits="userSpaceOnUse">
<stop stop-color="#860057"/>
<stop offset="0.2079" stop-color="#8A0A4D"/>
<stop offset="0.5514" stop-color="#8E1343"/>
<stop offset="0.9944" stop-color="#8F1640"/>
</linearGradient>
<linearGradient id="paint50_linear_1_6268" x1="137.7" y1="76.0204" x2="143.903" y2="76.0204" gradientUnits="userSpaceOnUse">
<stop offset="0.00558659" stop-color="#C75357"/>
<stop offset="0.1307" stop-color="#D35856"/>
<stop offset="0.3746" stop-color="#E35F55"/>
<stop offset="0.6455" stop-color="#ED6454"/>
<stop offset="0.9944" stop-color="#F06554"/>
</linearGradient>
</defs>
</svg>
