<svg width="172" height="140" viewBox="0 0 172 140" fill="none" xmlns="http://www.w3.org/2000/svg">
<path d="M125.449 42.837C128.469 42.147 131.439 40.977 133.789 38.977C137.699 35.657 139.469 30.207 138.649 25.197C137.829 20.187 134.609 15.687 130.319 12.847C134.919 12.827 139.779 13.787 143.129 16.857C145.679 19.197 147.099 22.557 147.519 25.957C147.939 29.357 147.429 32.807 146.589 36.137C145.889 38.937 144.859 41.807 142.659 43.727C140.179 45.887 136.709 46.437 133.579 47.517C130.799 48.477 128.099 49.927 125.149 49.987C122.599 50.037 120.109 49.017 118.129 47.447C117.509 46.957 112.959 42.417 114.169 41.837C114.579 41.637 116.849 42.897 117.459 43.037C118.679 43.327 119.949 43.417 121.209 43.387C122.639 43.357 124.059 43.157 125.449 42.837Z" fill="#29E1C2"/>
<path d="M16.6593 54.147C17.1793 54.347 17.6893 54.537 18.2193 54.727C20.7293 55.647 23.1793 56.637 25.8493 56.987C28.3393 57.317 30.8994 57.147 33.3294 56.487C35.0994 56.007 36.8094 55.277 38.3694 54.297C39.7494 53.427 41.0594 52.367 42.6494 51.997C44.4894 51.567 46.5194 52.187 47.8694 53.507C49.5694 55.177 49.8494 57.397 49.6094 59.657C49.0294 65.197 46.3794 70.737 41.6494 73.687C37.4894 76.287 32.3093 76.587 27.4093 76.357C22.9693 76.157 18.3794 75.517 14.6494 73.107C10.5894 70.487 8.12937 65.737 7.89937 60.947C7.83937 59.727 7.58937 58.187 8.08937 57.027C8.53937 55.977 8.79937 54.847 9.55937 53.957C10.2094 53.197 11.5794 52.067 12.6094 52.507C13.9494 53.087 15.2993 53.627 16.6593 54.147Z" fill="#452E61"/>
<path d="M171.269 28.557C171.079 27.037 170.699 25.687 170.169 24.477C169.619 23.217 168.889 22.107 168.049 21.107C166.359 19.107 164.169 17.527 161.809 16.017C161.159 15.607 160.509 15.197 159.839 14.787C156.189 12.537 153.039 9.76703 149.529 7.41703C147.919 6.34703 146.239 5.35703 144.399 4.54703C138.139 1.79703 131.189 0.497029 124.339 0.827029C119.009 1.08703 113.739 2.33703 108.899 4.65703C104.539 6.75703 100.519 9.61703 95.9294 11.167C96.4894 14.977 94.6293 19.077 91.4393 21.307C87.7893 23.857 82.7493 24.037 78.6893 22.197C74.5993 20.337 72.4494 16.387 73.7794 12.337C69.4794 12.227 65.2294 12.397 61.1494 13.637C53.4394 15.987 47.3493 21.897 42.2193 28.107C41.2193 29.317 40.2494 30.547 39.2794 31.787C41.3894 33.907 42.6194 36.807 43.0494 39.777C44.1294 47.127 40.1394 54.957 33.5494 58.397C33.4794 58.437 33.4094 58.467 33.3394 58.507C26.7794 61.817 18.1994 60.607 12.8294 55.577C12.0194 54.817 11.2794 53.947 10.6494 53.007C9.20936 53.667 7.79934 54.407 6.46934 55.297C1.14934 58.847 0.459348 62.537 0.169348 68.557C0.149348 68.917 0.13936 69.287 0.11936 69.657C-0.37064 81.297 1.15936 93.017 4.58936 104.147C8.37936 103.207 12.2594 102.547 16.1494 102.707C20.5094 102.887 24.9094 104.147 28.3094 106.877C28.3794 106.927 28.4393 106.987 28.5093 107.037C31.5593 109.577 33.5993 113.277 34.1993 117.197C34.2693 117.627 34.3193 118.067 34.3493 118.507C34.4093 119.297 34.3994 120.077 34.3394 120.867C33.9194 126.137 30.7393 131.107 26.1393 133.707C25.1793 134.247 24.1294 134.727 23.1194 135.247C23.5094 135.497 23.9093 135.737 24.3193 135.967C30.2593 139.287 37.3893 139.507 44.1993 139.377C48.8093 139.287 53.4093 139.067 58.0093 138.717C58.1893 138.707 58.3694 138.687 58.5594 138.667C60.9794 138.447 63.1593 137.997 65.2193 136.627C68.0293 134.767 71.1193 133.087 74.4993 132.997C77.4693 132.917 80.1894 133.327 82.9294 134.457C85.3494 135.457 87.2494 135.307 89.7394 134.877C89.8294 134.857 89.9193 134.847 90.0093 134.827C94.5393 134.027 99.4293 132.837 103.009 129.797C107.729 125.787 110.419 117.857 113.519 112.627C117.419 106.047 121.689 98.777 128.439 94.737C134.179 91.307 138.769 92.777 144.909 93.207C153.399 93.797 158.399 88.097 161.519 80.857C161.199 79.647 160.889 78.427 160.579 77.217C158.749 70.157 156.909 62.817 158.299 55.657C159.429 49.807 162.659 44.537 166.659 40.117C167.979 38.657 169.379 37.287 170.829 35.967C171.209 33.517 171.569 31.027 171.269 28.557ZM141.279 32.337C140.829 34.047 140.079 35.637 139.099 37.067C138.159 38.437 137.009 39.667 135.699 40.697C132.719 43.057 128.939 44.407 125.059 44.247C123.029 44.157 120.979 43.767 119.069 43.027C118.759 42.907 118.449 42.777 118.149 42.637C116.519 41.887 115.019 40.867 113.759 39.547C112.759 38.497 111.929 37.387 111.249 36.217C110.869 35.737 110.529 35.227 110.219 34.697C107.799 30.567 107.499 24.677 110.219 20.577C111.929 17.997 113.999 15.717 116.839 14.347C118.189 13.697 119.669 12.987 121.179 12.657C121.849 12.507 122.409 12.397 122.919 12.317C124.679 12.027 125.729 12.097 127.759 12.367C128.579 12.477 129.249 12.567 129.869 12.687C131.139 12.937 132.199 13.327 133.859 14.277C136.199 15.627 138.029 17.457 139.439 19.747C141.729 23.467 142.389 28.117 141.279 32.337Z" fill="#38778A"/>
<path d="M20.1194 105.657C23.3294 106.897 26.1694 109.047 28.2794 111.767C30.4694 114.587 31.5893 118.137 31.4393 121.737C31.3493 123.827 30.8193 125.907 29.8593 127.767C28.3093 130.767 25.7593 133.107 23.2693 135.387C26.7493 135.167 30.1693 133.997 33.0493 132.037C35.4093 130.427 37.4094 128.297 38.8694 125.837C39.5594 124.677 40.3893 123.647 40.9493 122.417C41.6093 120.947 42.0393 119.377 42.1693 117.777C42.6993 111.617 39.4193 105.487 34.5093 101.737C29.5893 97.987 23.2494 96.447 17.0594 96.537C14.2294 96.577 10.8893 96.937 8.40933 98.397C7.31933 99.037 6.38934 99.947 5.69934 101.007C5.36934 101.527 5.08934 102.077 4.88934 102.657C4.83934 102.807 4.49933 104.357 4.49933 104.357C7.24933 103.917 10.0493 103.857 12.8193 104.167C15.3093 104.467 17.7594 104.757 20.1194 105.657Z" fill="#452E61"/>
<path d="M74.2993 12.307C74.1493 14.817 75.3193 17.147 76.8793 19.037C77.9693 20.357 79.4093 21.357 80.9893 21.997C82.6093 22.657 84.2393 22.777 85.9593 22.987C87.2093 23.137 88.4793 23.187 89.7293 23.007C90.4593 22.907 91.2793 22.747 91.8493 23.207C92.2693 23.537 92.4193 24.107 92.4693 24.637C92.5993 25.997 92.2093 27.397 91.4193 28.507C90.5493 29.737 89.0193 30.567 87.7293 31.297C85.1893 32.727 82.3393 33.687 79.4193 33.697C76.5093 33.707 73.5293 32.697 71.4793 30.627C69.2493 28.377 68.2893 25.107 68.2693 21.937C68.2593 19.427 68.7693 16.927 69.4693 14.537C69.7793 13.477 69.7993 13.197 70.7793 12.877C71.1693 12.727 74.2893 12.477 74.2993 12.307Z" fill="#452E61"/>
<path d="M143.139 93.067C139.449 93.557 135.849 94.387 132.579 96.127C127.749 98.687 124.089 102.997 121.039 107.537C117.999 112.077 115.439 116.937 112.139 121.297C109.749 124.447 106.879 127.367 103.499 129.367C107.909 125.247 110.519 117.687 113.509 112.657C117.409 106.077 121.679 98.807 128.429 94.767C133.599 91.657 137.849 92.547 143.139 93.067Z" fill="#38778A"/>
<path d="M39.1494 32.617C39.1894 33.227 39.4893 33.787 39.7593 34.337C43.0193 41.057 42.7193 49.377 38.9993 55.857C41.2493 54.067 43.5394 52.237 45.0894 49.817C46.7394 47.247 47.4493 44.147 47.4193 41.097C47.3893 38.047 46.6493 35.037 45.5793 32.177C45.3693 31.617 45.1193 31.027 44.6093 30.707C43.9493 30.297 43.0893 30.487 42.3593 30.757C41.1293 31.207 39.0094 30.777 39.1494 32.617Z" fill="#29E1C2"/>
<path d="M89.2393 23.187C89.5993 23.187 89.9693 23.177 90.3293 23.167C91.3693 23.117 92.7893 23.137 93.7493 22.697C95.5193 21.887 97.2293 20.607 98.5093 19.127C99.5393 17.927 100.379 16.407 100.179 14.847C100.069 13.967 99.6594 13.057 99.0894 12.367C98.5994 11.767 97.3794 11.587 96.6494 11.377C95.9694 11.177 95.6993 11.217 95.5393 11.937C95.3293 12.867 95.0794 13.797 94.8094 14.707C94.2294 16.677 93.4093 18.577 91.9693 20.097C90.5993 21.547 88.8194 22.607 86.8694 23.047C87.3194 22.947 88.0393 23.157 88.5093 23.177C88.7493 23.177 88.9993 23.187 89.2393 23.187Z" fill="#29E1C2"/>
<path d="M170.799 35.977C169.339 37.297 167.939 38.667 166.629 40.127C162.629 44.547 159.399 49.817 158.269 55.667C156.889 62.827 158.729 70.167 160.549 77.227C160.859 78.437 161.179 79.657 161.489 80.867C158.369 88.107 153.379 93.807 144.879 93.217C144.279 93.177 143.699 93.117 143.119 93.067C137.829 92.547 133.579 91.657 128.409 94.747C121.659 98.787 117.389 106.057 113.489 112.637C110.499 117.677 107.889 125.227 103.479 129.347C103.309 129.507 103.149 129.657 102.979 129.797C99.3993 132.837 94.5093 134.027 89.9793 134.827C89.8894 134.847 89.7994 134.857 89.7094 134.877C87.2094 135.317 85.3194 135.467 82.8994 134.457C80.1594 133.327 77.4393 132.917 74.4693 132.997C71.0893 133.087 67.9993 134.767 65.1893 136.627C63.1293 137.997 60.9494 138.447 58.5294 138.667C58.3494 138.687 58.1693 138.697 57.9793 138.717C53.3793 139.057 48.7794 139.287 44.1693 139.367C37.3694 139.497 30.2293 139.277 24.2893 135.957C23.8793 135.727 23.4794 135.487 23.0894 135.237C24.0994 134.717 25.1494 134.237 26.1094 133.697C30.7094 131.097 33.8794 126.127 34.3094 120.857C34.3694 120.077 34.3793 119.287 34.3193 118.497C34.2893 118.057 34.2393 117.617 34.1693 117.187C33.5694 113.277 31.5393 109.567 28.4793 107.027C28.4093 106.967 28.3494 106.917 28.2794 106.867C24.8794 104.137 20.4694 102.877 16.1194 102.707C12.2294 102.547 8.34936 103.207 4.55936 104.147C1.12936 93.007 -0.400639 81.287 0.0893613 69.657C0.0993613 69.287 0.119349 68.917 0.139349 68.557C1.01935 70.537 1.68936 72.617 2.58936 74.587C3.73936 77.107 5.36934 79.537 7.81934 80.827C11.2893 82.647 15.5193 81.767 19.2593 80.617C23.6593 79.267 28.4694 77.417 32.6194 80.247C36.1294 82.647 38.6193 86.277 42.2293 88.567C47.9393 92.177 55.2493 91.607 61.9693 90.907C70.6093 90.007 79.9194 88.817 86.2694 82.877C90.8294 78.617 93.6093 72.117 99.4093 69.847C105.189 67.587 111.689 70.427 117.859 69.807C121.819 69.407 125.489 67.387 128.179 64.467C130.699 61.737 132.359 58.217 132.589 54.507C132.749 51.987 132.329 49.427 132.759 46.937C133.159 44.637 134.239 42.567 135.669 40.707C136.669 39.397 137.839 38.197 139.069 37.077C139.349 36.817 139.639 36.567 139.919 36.317C143.209 33.467 146.859 30.897 149.289 27.277C152.789 22.037 151.859 14.187 149.509 7.41703C153.019 9.76703 156.159 12.537 159.819 14.787C160.489 15.197 161.139 15.597 161.789 16.017C164.149 17.527 166.339 19.107 168.029 21.107C168.879 22.117 169.599 23.217 170.149 24.477C170.679 25.687 171.059 27.027 171.249 28.557C171.569 31.027 171.209 33.517 170.799 35.977Z" fill="#384769"/>
<path d="M89.9893 134.837C89.8993 134.857 89.8093 134.867 89.7193 134.887C87.2293 135.327 85.3293 135.477 82.9093 134.467C80.1693 133.337 77.4493 132.927 74.4793 133.007C71.0993 133.097 68.0093 134.777 65.1993 136.637C63.1393 137.997 60.9593 138.457 58.5393 138.677C58.8593 138.437 59.1694 138.207 59.4594 137.967C60.9894 136.687 62.4793 135.357 64.0493 134.127C67.2893 131.587 71.0194 129.387 75.1194 129.117C80.5394 128.747 85.4793 131.727 89.9893 134.837Z" fill="#452E61"/>
<path d="M124.329 0.83703C121.819 4.16703 121.959 8.36703 122.909 12.307C122.399 12.387 121.839 12.507 121.169 12.647C119.659 12.977 118.179 13.687 116.829 14.337C113.999 15.707 111.919 17.987 110.209 20.567C107.489 24.667 107.789 30.557 110.209 34.687C110.519 35.217 110.869 35.727 111.239 36.207C111.919 37.377 112.749 38.497 113.749 39.537C115.009 40.857 116.509 41.877 118.139 42.627C118.439 42.767 118.749 42.897 119.059 43.017C110.789 47.007 100.189 43.457 91.5793 47.027C84.5993 49.917 80.0893 57.017 73.2193 60.147C68.5693 62.267 63.2393 62.377 58.1693 61.767C53.7593 61.237 49.4193 60.207 45.0193 59.597C44.3593 59.507 43.6994 59.427 43.0294 59.357C42.6594 59.317 42.2893 59.287 41.9193 59.257C39.0693 59.017 36.1393 58.917 33.3293 58.487C33.3993 58.457 33.4693 58.417 33.5393 58.377C40.1193 54.937 44.1193 47.107 43.0393 39.757C42.5993 36.797 41.3793 33.887 39.2693 31.767C40.2393 30.527 41.2194 29.297 42.2094 28.087C47.3493 21.877 53.4293 15.967 61.1393 13.617C65.2193 12.377 69.4693 12.207 73.7693 12.317C72.4393 16.367 74.5894 20.317 78.6794 22.177C82.7394 24.017 87.7694 23.837 91.4294 21.287C94.6294 19.057 96.4893 14.957 95.9193 11.147C100.499 9.59703 104.519 6.73703 108.889 4.63703C113.729 2.30703 118.999 1.06703 124.329 0.80703C124.339 0.82703 124.339 0.83703 124.329 0.83703Z" fill="#00A89D"/>
<path d="M170.169 24.477C169.379 24.937 168.609 25.387 167.929 25.877C158.799 32.427 152.969 43.427 152.809 54.677C152.709 61.667 154.459 69.397 150.439 75.117C146.299 80.997 138.099 81.817 131.449 84.567C122.239 88.367 115.509 96.317 108.819 103.707C102.129 111.097 94.5494 118.537 84.8094 120.707C75.8594 122.697 66.6493 119.897 57.6093 118.357C49.8893 117.037 42.0194 116.657 34.2094 117.197C33.6094 113.277 31.5693 109.577 28.5193 107.037C32.4893 106.807 36.4594 106.717 40.4294 106.877C45.4094 107.077 50.3794 107.697 55.2094 108.917C59.2894 109.957 63.0793 111.657 67.1593 112.527C75.9493 114.417 84.3993 117.387 93.0793 113.037C103.619 107.757 107.689 94.437 117.389 87.747C122.259 84.397 128.139 82.977 133.709 80.997C139.279 79.017 144.939 76.147 147.919 71.047C152.769 62.747 148.809 51.917 151.689 42.747C153.589 36.697 158.209 32.127 162.509 27.697C163.989 26.167 165.909 23.377 168.039 21.097C168.889 22.107 169.609 23.217 170.169 24.477Z" fill="#38778A"/>
<path d="M51.2794 20.547C47.6194 23.027 44.5393 26.687 43.7493 31.037C43.5393 32.177 43.5694 33.547 44.4794 34.277C45.7094 35.267 47.5194 34.397 48.7694 33.437C52.7494 30.367 56.0394 26.337 60.4794 23.987C61.8594 23.257 63.3393 22.697 64.5993 21.777C65.8593 20.857 66.8994 19.457 66.8994 17.897C66.8994 11.117 53.5894 18.987 51.2794 20.547Z" fill="#29E1C2"/>
<path d="M107.339 7.31703C104.189 8.63703 101.249 10.727 99.5194 13.667C98.5294 15.337 97.9594 17.237 96.8694 18.847C95.7194 20.537 94.0693 21.817 92.5093 23.137C90.9493 24.457 89.3994 25.907 88.5894 27.787C87.7794 29.667 87.8693 32.077 89.3193 33.517C90.9993 35.187 93.9393 34.967 95.8493 33.557C97.7593 32.147 98.7993 29.857 99.4693 27.577C100.139 25.307 100.519 22.927 101.479 20.757C102.879 17.597 105.429 15.057 108.249 13.067C111.079 11.067 114.199 9.54703 117.229 7.87703C119.709 6.50703 118.939 4.78703 116.359 4.94703C113.369 5.13703 110.079 6.15703 107.339 7.31703Z" fill="#29E1C2"/>
<path d="M47.2293 66.187C47.1893 67.117 47.2193 68.217 46.5493 68.787C45.9293 69.307 44.9693 69.057 44.4293 68.417C43.8993 67.787 43.7093 66.887 43.6693 66.017C43.5293 63.297 44.5693 60.587 46.2993 58.647C47.7593 57.007 49.6693 55.897 51.6793 55.337C53.1893 54.917 55.6593 55.047 53.7093 57.017C52.3593 58.377 50.6093 58.897 49.3593 60.477C48.1093 62.057 47.3093 64.087 47.2293 66.187Z" fill="#29E1C2"/>
<path d="M129.859 12.687C129.239 12.567 128.569 12.477 127.749 12.367C125.129 12.017 124.139 12.007 121.169 12.657C119.659 12.987 118.179 13.697 116.829 14.347C113.999 15.717 111.919 17.997 110.209 20.577C107.489 24.677 107.789 30.567 110.209 34.697C110.519 35.227 110.869 35.737 111.239 36.217C111.919 37.387 112.749 38.507 113.749 39.547C115.009 40.867 116.509 41.887 118.139 42.637C118.099 42.627 118.059 42.627 118.019 42.617C113.239 41.797 108.809 38.887 106.359 34.697C103.909 30.517 103.549 25.117 105.629 20.737C106.959 17.927 109.199 15.607 111.829 13.957C117.149 10.627 124.099 10.287 129.859 12.687Z" fill="#452E61"/>
<path d="M29.7893 78.847C29.7493 83.007 26.4093 86.967 21.7093 88.967C19.4893 89.907 16.7193 90.447 14.4593 89.557C13.9693 89.367 13.5293 89.117 13.1393 88.827C12.6093 88.437 12.1693 87.967 11.7893 87.457C11.2693 86.757 10.8893 85.987 10.5893 85.227C8.09934 78.927 7.92932 65.957 21.1893 69.277C23.1493 69.767 24.8893 70.687 26.2693 71.867C27.0393 72.517 27.6893 73.247 28.2193 74.027C29.2493 75.507 29.8093 77.177 29.7893 78.847Z" fill="#384769"/>
<path d="M26.2794 71.867C24.0694 70.987 21.5494 70.357 19.2394 70.727C16.7894 71.117 14.3993 72.887 12.9393 74.827C11.8493 76.277 11.2193 77.887 10.9393 79.577C10.6593 81.267 10.7494 83.037 11.1094 84.777C11.2994 85.687 11.5294 86.587 11.7994 87.477C11.2794 86.777 10.8993 86.007 10.5993 85.247C8.10935 78.947 7.93935 65.977 21.1994 69.297C23.1594 69.767 24.8994 70.687 26.2794 71.867Z" fill="#452E61"/>
<path d="M29.7893 78.847C29.7493 83.007 26.4094 86.967 21.7094 88.967C19.4894 89.907 16.7194 90.447 14.4594 89.557C13.9694 89.367 13.5293 89.117 13.1393 88.827C16.3793 89.677 19.9693 89.127 22.7993 87.317C23.8093 86.677 24.7093 85.877 25.4893 84.967C26.9993 83.187 28.0194 80.987 28.3394 78.667C28.5494 77.117 28.4593 75.567 28.2293 74.017C29.2493 75.507 29.8093 77.177 29.7893 78.847Z" fill="#29E1C2"/>
<path d="M78.0594 43.877C75.3394 45.687 72.0994 46.347 68.7994 46.517C68.0494 46.557 67.2894 46.567 66.5294 46.557C65.7094 46.547 64.8894 46.517 64.0794 46.487C60.8694 46.337 57.3994 45.937 55.0294 43.767C51.6194 40.647 51.5793 34.967 53.9193 31.177C54.3893 30.427 54.9394 29.747 55.5894 29.177C60.3194 25.017 66.5793 22.607 72.8893 22.597C76.6793 22.597 79.5193 24.167 81.3193 26.497C81.8593 27.197 82.3093 27.967 82.6593 28.777C84.7593 33.707 83.3894 40.327 78.0594 43.877Z" fill="#384769"/>
<path d="M81.2993 26.507C78.6293 25.347 75.6793 24.837 72.7793 25.057C66.2693 25.547 58.4393 30.087 57.8193 37.207C57.6793 38.857 57.9693 40.577 58.8293 41.997C59.7193 43.477 61.1593 44.557 62.7193 45.297C63.6593 45.737 64.6393 46.077 65.6393 46.357C65.8993 46.427 66.2493 46.487 66.5393 46.567C65.7193 46.557 64.8993 46.527 64.0893 46.497C60.8793 46.347 57.4093 45.947 55.0393 43.777C51.6293 40.657 51.5893 34.977 53.9293 31.187C54.3993 30.437 54.9493 29.757 55.5993 29.187C60.3293 25.027 66.5893 22.617 72.8993 22.607C76.6693 22.607 79.4993 24.167 81.2993 26.507Z" fill="#452E61"/>
<path d="M78.0594 43.877C75.3394 45.687 72.0993 46.347 68.7993 46.517C72.6293 45.337 76.5593 44.237 79.2593 41.077C79.4093 40.907 79.5494 40.727 79.6794 40.547C82.2294 37.207 82.7393 32.907 82.6393 28.777C84.7593 33.707 83.3894 40.327 78.0594 43.877Z" fill="#29E1C2"/>
<path d="M113.949 64.467C113.679 67.467 111.699 70.127 109.279 71.967C107.109 73.617 104.459 74.727 101.769 74.967C100.679 75.067 99.5893 75.027 98.5093 74.827C97.9393 74.717 97.3793 74.567 96.8293 74.367C93.7993 73.257 91.2694 70.777 90.5294 67.647C88.9094 60.847 94.4293 55.877 100.609 54.717C103.769 54.127 107.179 54.577 109.829 56.347C111.289 57.327 112.479 58.727 113.209 60.317C113.669 61.317 113.939 62.397 113.979 63.497C113.979 63.827 113.979 64.147 113.949 64.467Z" fill="#384769"/>
<path d="M113.199 60.327C110.949 59.397 108.489 58.937 106.119 59.417C103.679 59.917 101.529 61.367 99.6893 63.047C98.3193 64.297 97.0794 65.717 96.3094 67.397C95.5394 69.077 95.2893 71.057 95.9193 72.797C96.1293 73.367 96.4393 73.897 96.8293 74.367C93.7993 73.257 91.2694 70.777 90.5294 67.647C88.9094 60.847 94.4293 55.877 100.609 54.717C103.769 54.127 107.179 54.577 109.829 56.347C111.289 57.327 112.479 58.727 113.199 60.327Z" fill="#452E61"/>
<path d="M113.949 64.467C113.679 67.467 111.699 70.127 109.279 71.967C107.109 73.617 104.459 74.727 101.769 74.967C104.179 74.137 106.569 72.897 108.619 71.217C111.009 69.267 112.949 66.707 113.969 63.517C113.979 63.827 113.979 64.147 113.949 64.467Z" fill="#29E1C2"/>
<path d="M63.9993 68.047C63.2593 69.737 61.5893 70.897 59.8293 71.497C58.4493 71.967 56.9594 72.117 55.5294 71.907C54.9094 71.817 54.2993 71.647 53.7293 71.407C53.4893 71.307 53.2494 71.197 53.0194 71.067C50.9794 69.937 49.5694 67.657 49.7794 65.347C50.1594 61.077 54.3294 59.267 58.1494 59.797C59.7794 60.017 61.3693 60.707 62.5393 61.827C62.7693 62.047 62.9893 62.277 63.1893 62.537C63.2593 62.617 63.3094 62.707 63.3694 62.787C64.4194 64.307 64.7393 66.347 63.9993 68.047Z" fill="#384769"/>
<path d="M62.5393 61.817C60.8193 61.597 59.0694 61.707 57.4594 62.307C55.2894 63.107 53.4293 64.897 52.8893 67.137C52.4893 68.797 52.9894 70.057 53.7394 71.397C53.4994 71.297 53.2594 71.187 53.0294 71.057C50.9894 69.927 49.5793 67.647 49.7893 65.337C50.1693 61.067 54.3393 59.257 58.1593 59.787C59.7693 60.017 61.3593 60.697 62.5393 61.817Z" fill="#452E61"/>
<path d="M63.9993 68.047C63.2593 69.737 61.5893 70.897 59.8293 71.497C58.4493 71.967 56.9594 72.117 55.5294 71.907C57.6494 71.497 59.9493 70.597 61.5193 69.087C62.3293 68.307 62.9493 67.367 63.2593 66.247C63.5693 65.127 63.5493 63.947 63.3593 62.797C64.4193 64.307 64.7393 66.347 63.9993 68.047Z" fill="#29E1C2"/>
<path d="M143.149 74.067C141.819 76.517 139.699 78.607 137.299 79.427C136.769 79.607 136.219 79.717 135.679 79.767C134.799 79.837 133.939 79.717 133.169 79.417C132.269 79.077 131.479 78.487 130.919 77.657C128.449 73.987 130.679 69.087 134.139 66.307C135.909 64.887 138.059 64.027 140.049 64.247C141.359 64.387 142.569 65.027 143.399 66.057C143.749 66.497 144.039 67.007 144.219 67.567C144.259 67.667 144.289 67.777 144.319 67.887C144.799 69.827 144.199 72.127 143.149 74.067Z" fill="#384769"/>
<path d="M143.389 66.047C141.309 66.117 139.259 66.857 137.579 68.097C135.519 69.607 134.019 71.837 133.249 74.287C132.939 75.287 132.769 76.367 132.849 77.417C132.899 78.027 133.229 78.777 133.159 79.417C132.259 79.077 131.469 78.487 130.909 77.657C128.439 73.987 130.669 69.087 134.129 66.307C135.899 64.887 138.049 64.027 140.039 64.247C141.349 64.377 142.559 65.027 143.389 66.047Z" fill="#452E61"/>
<path d="M144.299 67.887C144.799 69.827 144.199 72.127 143.139 74.077C141.809 76.527 139.689 78.617 137.289 79.437C136.759 79.617 136.209 79.727 135.669 79.777C136.679 79.467 137.819 78.717 138.429 78.287C139.639 77.437 140.569 76.357 141.489 75.207C141.719 74.907 141.939 74.587 142.149 74.237C143.249 72.367 143.939 69.827 144.209 67.567C144.239 67.667 144.279 67.777 144.299 67.887Z" fill="#00A89D"/>
<path d="M85.7393 108.977C82.8093 111.537 79.1794 113.077 75.3394 113.867C74.3594 114.077 73.3593 114.227 72.3593 114.337C71.1793 114.467 69.9993 114.537 68.8293 114.547C63.5793 114.617 57.9994 113.557 54.1194 110.007C46.5294 103.057 49.6193 87.547 58.9393 83.357C64.9693 80.647 74.7693 81.357 81.9693 84.927C82.6793 85.277 83.3694 85.657 84.0294 86.067C84.0294 86.067 84.0393 86.067 84.0393 86.077C86.7693 87.787 88.9593 89.967 90.1393 92.587C92.6293 98.107 90.2994 104.987 85.7393 108.977Z" fill="#384769"/>
<path d="M81.9693 84.927C81.6693 84.937 81.4293 84.937 81.2993 84.937C80.0293 84.887 78.7593 84.877 77.4893 84.917C75.0294 84.997 72.3593 85.157 69.9893 85.867C65.9293 87.077 62.0994 88.807 59.4594 92.297C57.0794 95.447 55.9993 99.597 56.7593 103.467C57.4293 106.867 59.5094 109.877 62.4294 111.727C62.5894 111.827 62.7393 111.917 62.9093 112.017C65.7793 113.677 69.0593 114.127 72.3593 114.347C71.1793 114.477 69.9993 114.547 68.8293 114.557C63.5793 114.627 57.9994 113.567 54.1194 110.017C46.5294 103.067 49.6193 87.557 58.9393 83.367C64.9693 80.647 74.7693 81.357 81.9693 84.927Z" fill="#452E61"/>
<path d="M85.7393 108.977C82.8093 111.537 79.1794 113.077 75.3394 113.867C78.5094 112.327 81.5794 110.527 84.0894 108.057C87.5194 104.697 89.7793 99.767 89.2693 94.907C88.9893 92.187 87.8694 89.567 85.8994 87.697C85.3094 87.137 84.6393 86.647 84.0393 86.087C86.7693 87.797 88.9593 89.977 90.1393 92.597C92.6293 98.107 90.2993 104.987 85.7393 108.977Z" fill="#00A89D"/>
<path d="M78.1494 69.177C77.5394 68.147 75.3594 67.557 74.3394 68.567C73.5694 69.067 73.3994 69.937 73.2794 70.837C73.3594 71.447 73.3694 71.947 73.8694 72.487C74.2894 73.207 75.5794 73.727 76.3694 73.517C77.2594 73.477 77.8193 72.917 78.3593 72.217C78.4493 71.997 78.5393 71.787 78.6293 71.567C78.6593 71.327 78.6993 71.087 78.7293 70.847C78.6493 70.217 78.6494 69.727 78.1494 69.177Z" fill="#00A89D"/>
<path d="M118.019 51.057C115.999 51.057 115.989 54.207 118.019 54.207C120.049 54.207 120.049 51.057 118.019 51.057Z" fill="#00A89D"/>
<path d="M32.0693 63.097C28.8193 63.097 28.8193 68.147 32.0693 68.147C35.3193 68.147 35.3193 63.097 32.0693 63.097Z" fill="#00A89D"/>
<path d="M44.1893 74.187C42.1193 74.187 42.1093 77.407 44.1893 77.407C46.2693 77.407 46.2693 74.187 44.1893 74.187Z" fill="#00A89D"/>
<path d="M33.4993 94.287C30.7093 92.137 28.2793 95.657 30.1993 97.587C30.5493 97.857 30.9693 98.267 31.8493 98.267C33.0893 98.317 34.2293 97.177 34.1793 95.937C34.1193 95.467 34.1193 94.907 33.4993 94.287Z" fill="#38778A"/>
<path d="M100.109 92.027C99.2494 92.487 99.1594 94.087 100.579 94.387C101.649 94.617 102.229 93.797 102.229 93.127C102.229 92.357 101.509 91.427 100.109 92.027Z" fill="#38778A"/>
<path d="M112.829 75.707C111.109 75.787 110.679 77.867 111.629 78.727C112.449 79.487 113.469 79.287 114.029 78.727C115.109 77.647 114.259 75.657 112.829 75.707Z" fill="#38778A"/>
<path d="M141.569 51.107C140.699 51.867 140.989 53.557 142.069 53.907C142.929 54.357 144.329 53.717 144.339 52.407C144.499 51.057 142.719 49.977 141.569 51.107Z" fill="#38778A"/>
<path d="M45.7693 129.317C45.3993 128.687 44.7093 128.287 43.9793 128.287C41.8193 128.287 41.1293 131.157 42.9893 132.267C44.8193 133.327 46.7893 131.087 45.7693 129.317Z" fill="#38778A"/>
<path d="M53.4993 126.317C52.1893 126.317 52.1893 128.347 53.4993 128.347C54.8093 128.347 54.8093 126.317 53.4993 126.317Z" fill="#38778A"/>
<path d="M155.449 17.687C154.549 18.277 154.549 19.437 155.449 20.027C156.559 20.757 157.759 19.937 157.759 18.857C157.759 17.777 156.549 16.957 155.449 17.687Z" fill="#38778A"/>
<path d="M85.0494 37.727C84.6694 38.377 84.6493 39.207 85.0993 39.897C86.3693 41.887 89.2393 40.987 89.2493 38.777C89.2493 36.887 86.7194 35.397 85.0494 37.727Z" fill="#29E1C2"/>
<path d="M48.7394 41.677C46.6194 41.677 46.6094 44.977 48.7394 44.977C50.8594 44.967 50.8694 41.677 48.7394 41.677Z" fill="#29E1C2"/>
<path d="M98.7493 37.757C97.4393 37.757 97.4393 39.787 98.7493 39.787C100.059 39.787 100.059 37.757 98.7493 37.757Z" fill="#29E1C2"/>
<path d="M58.7894 53.677C57.8294 54.717 58.3594 56.267 59.3394 56.587C60.1394 57.007 61.7094 56.557 61.7094 54.887C61.7094 53.287 59.7394 52.637 58.7894 53.677Z" fill="#29E1C2"/>
</svg>
