<svg width="294" height="298" viewBox="0 0 294 298" fill="none" xmlns="http://www.w3.org/2000/svg">
<path d="M292.944 128.994C291.944 117.204 289.524 105.874 286.204 93.804C281.624 77.154 267.284 64.044 256.614 50.664C255.864 49.724 255.114 48.784 254.364 47.854C247.844 39.754 240.954 31.784 232.064 26.454C229.054 24.654 225.914 23.194 222.684 21.964C213.054 18.284 202.654 16.594 192.824 13.554C185.944 11.424 180.644 8.204 174.594 4.644C168.214 0.904001 158.914 0.104011 151.584 0.154011C141.814 0.214011 133.244 3.22399 124.354 6.07399C121.734 6.91399 119.094 7.74402 116.384 8.47402C105.244 11.494 94.1337 15.084 83.0737 18.664C59.9137 26.164 37.6637 36.414 28.5937 60.514C25.1237 69.734 22.7237 79.474 17.6237 87.904C13.7537 94.304 8.39365 99.834 5.44365 106.704C3.98365 110.124 3.13364 113.504 2.70364 116.864C2.70364 116.864 2.70364 116.864 2.70364 116.874C0.893642 130.874 6.21364 144.484 3.89364 158.974C2.93364 164.934 1.08365 170.774 0.333647 176.734C0.143647 178.194 0.0236452 179.664 0.00364522 181.134C-0.126355 189.984 3.23365 198.614 8.02365 206.054C13.7136 214.884 21.9637 221.294 26.1837 230.864C27.3637 233.534 28.6137 236.194 29.9837 238.794C33.0337 244.594 36.6436 250.114 41.2036 254.804C46.1036 259.844 53.0236 261.694 58.3936 266.354C77.0236 282.534 102.074 288.714 126.094 294.374C127.654 294.744 129.224 295.114 130.794 295.464C137.404 296.934 144.094 298.094 150.814 297.554C159.854 296.824 168.824 293.964 177.764 291.864C179.144 291.544 180.524 291.234 181.904 290.964C182.764 290.794 183.614 290.634 184.474 290.484C195.654 288.574 207.044 291.024 217.604 285.644C227.194 280.764 232.984 271.234 241.234 264.674C244.944 261.724 249.474 261.104 253.034 258.294C257.804 254.544 261.254 247.644 264.034 242.384C267.704 235.474 271.524 228.624 275.184 221.714C278.044 216.314 282.474 212.244 285.574 206.914C292.454 195.084 292.544 179.874 292.674 165.534C292.714 161.264 292.754 157.074 292.984 153.074C293.064 151.614 293.154 150.144 293.224 148.674C293.284 147.624 293.324 146.584 293.354 145.544C293.064 140.034 292.374 134.414 292.944 128.994ZM192.344 267.314C187.644 269.614 182.894 269.554 181.714 267.164C181.654 267.054 181.614 266.934 181.574 266.814C181.504 266.714 181.434 266.604 181.384 266.494C180.214 264.104 183.064 260.294 187.764 257.994C192.464 255.684 197.224 255.754 198.394 258.144C198.444 258.254 198.494 258.374 198.534 258.494C198.604 258.594 198.664 258.704 198.724 258.814C199.894 261.194 197.044 265.004 192.344 267.314Z" fill="#38778A"/>
<path d="M198.724 258.814C199.894 261.204 197.044 265.014 192.344 267.314C187.644 269.614 182.894 269.554 181.714 267.164C181.654 267.054 181.614 266.934 181.574 266.814C181.504 266.714 181.434 266.604 181.384 266.494C180.214 264.104 183.064 260.294 187.764 257.994C192.464 255.684 197.224 255.754 198.394 258.144C198.444 258.254 198.494 258.374 198.534 258.494C198.604 258.594 198.664 258.694 198.724 258.814Z" fill="#38778A"/>
<path d="M293.384 145.554C293.064 140.034 292.374 134.414 292.944 128.994C293.404 134.384 293.574 139.864 293.384 145.554Z" fill="#38778A"/>
<path d="M177.773 291.864C179.153 291.544 180.533 291.234 181.913 290.964C180.543 291.284 179.163 291.594 177.773 291.864Z" fill="#384769"/>
<path d="M198.724 258.814C199.894 261.204 197.044 265.014 192.344 267.314C187.644 269.614 182.894 269.554 181.714 267.164C181.654 267.054 181.614 266.934 181.574 266.814C181.504 266.714 181.434 266.604 181.384 266.494C180.214 264.104 183.064 260.294 187.764 257.994C192.464 255.684 197.224 255.754 198.394 258.144C198.444 258.254 198.494 258.374 198.534 258.494C198.604 258.594 198.664 258.694 198.724 258.814Z" fill="#384769"/>
<path d="M277.963 134.204C276.983 140.514 272.983 145.144 269.033 144.524C268.843 144.494 268.663 144.454 268.483 144.404C268.293 144.394 268.113 144.384 267.923 144.354C266.453 144.124 265.203 143.204 264.253 141.804C260.763 145.054 256.873 148.014 254.013 151.804C247.933 159.854 245.913 169.234 244.793 178.904C247.813 179.164 250.563 180.144 252.863 181.914C253.333 182.274 253.783 182.664 254.203 183.084C254.713 183.384 255.203 183.704 255.683 184.074C265.703 191.754 263.553 211.374 250.883 227.904C238.213 244.434 219.833 251.604 209.813 243.924C209.343 243.564 208.893 243.174 208.473 242.754C207.963 242.454 207.473 242.124 206.993 241.764C206.143 241.114 205.373 240.374 204.703 239.554C189.963 239.144 174.443 231.964 159.693 234.994C141.903 238.654 130.003 256.024 112.893 262.084C109.373 263.334 105.883 264.154 102.423 264.624C102.653 264.724 102.893 264.814 103.123 264.914C103.523 265.064 103.923 265.214 104.323 265.374C112.843 268.754 118.703 274.104 117.423 277.334C116.143 280.554 108.203 280.434 99.6834 277.044C99.2834 276.884 98.8834 276.724 98.4934 276.554C98.0934 276.404 97.6934 276.254 97.2934 276.094C88.7734 272.714 82.9134 267.354 84.1934 264.134C84.2034 264.114 84.2134 264.094 84.2234 264.064C77.8834 262.924 71.6134 260.894 65.4134 258.404C52.8034 253.334 40.6634 247.154 29.9934 238.764C28.6234 236.164 27.3734 233.504 26.1934 230.834C21.9734 221.274 13.7134 214.864 8.0334 206.024C3.2434 198.574 -0.116589 189.954 0.0134109 181.104C0.0334109 179.624 0.153413 178.154 0.343413 176.704C4.14341 183.654 9.7834 188.014 16.3134 192.784C24.1234 198.484 32.1434 203.464 41.4534 206.574C44.5734 207.614 47.8134 208.404 51.1034 208.914C52.0834 209.064 53.0634 209.194 54.0534 209.304C66.3234 210.574 78.9634 207.924 88.0634 199.944C88.1534 199.874 88.2434 199.794 88.3334 199.714C88.5434 199.534 88.7434 199.344 88.9434 199.154C93.5534 194.824 96.9534 189.294 101.763 185.194C113.253 175.384 129.973 175.604 145.043 176.554C164.623 177.784 186.943 178.394 200.653 164.364C208.763 156.064 211.983 144.304 214.913 133.074C218.723 118.464 222.533 102.954 218.173 88.494C216.353 82.484 213.123 76.5039 214.063 70.2939C214.783 65.5239 217.803 61.614 220.423 57.724C228.153 46.224 226.853 33.904 222.673 21.944C225.903 23.174 229.053 24.634 232.053 26.434C240.943 31.764 247.823 39.724 254.353 47.834C254.393 47.904 254.423 47.964 254.463 48.034C258.133 54.604 261.003 61.464 263.463 68.574C268.693 83.714 272.013 99.514 273.073 115.494C273.213 117.574 273.303 119.684 273.263 121.794C276.813 122.914 278.893 128.254 277.963 134.204Z" fill="#384769"/>
<path d="M293.534 150.054C293.534 155.234 293.254 160.404 292.704 165.544C292.744 161.274 292.784 157.084 293.014 153.084C293.094 151.624 293.184 150.154 293.254 148.684C293.314 147.634 293.354 146.594 293.384 145.554C293.484 147.064 293.534 148.564 293.534 150.054Z" fill="#384769"/>
<path d="M178.944 22.614C178.894 25.174 178.234 27.5841 177.234 29.9141C177.224 29.9541 177.204 29.9941 177.184 30.0341C177.114 30.2041 177.034 30.374 176.954 30.544C175.834 33.004 174.364 35.374 172.874 37.744C166.884 47.284 164.524 58.6241 162.904 69.7741C162.884 69.8641 162.874 69.964 162.864 70.054C162.724 71.004 162.594 71.9541 162.464 72.9041C162.114 75.4841 161.774 78.0741 161.404 80.6541C161.324 81.2041 161.254 81.754 161.164 82.304C160.214 88.844 159.054 95.3341 157.014 101.584C157.004 101.604 157.004 101.634 156.994 101.654C156.794 102.254 156.594 102.844 156.384 103.444C153.154 112.514 147.654 121.144 139.484 126.504C137.814 127.594 136.104 128.494 134.354 129.244C134.074 129.364 133.804 129.474 133.524 129.584C125.644 132.744 117.084 133.064 108.554 134.884C93.2536 138.144 79.9736 146.234 65.4436 150.364C65.4137 150.374 65.3937 150.384 65.3737 150.384C58.2037 151.414 51.0037 152.584 43.8036 152.304C43.2737 152.284 42.7537 152.254 42.2337 152.224C39.9337 152.074 37.6336 151.754 35.3336 151.224C24.6736 148.794 15.8437 149.874 9.54366 139.084C6.33366 133.584 4.95365 127.244 3.61365 121.024C3.32365 119.654 3.02365 118.274 2.74365 116.874V116.864C3.17365 113.504 4.02366 110.124 5.48366 106.704C8.42366 99.8241 13.7837 94.3041 17.6637 87.9041C22.7637 79.4741 25.1537 69.7341 28.6337 60.5141C37.7037 36.4141 59.9536 26.1641 83.1136 18.6641C94.1736 15.0841 105.274 11.4941 116.424 8.47408C119.134 7.74408 121.784 6.91406 124.394 6.07406C131.174 6.02406 137.944 5.33403 144.704 4.86403C152.584 4.30403 161.864 3.13403 169.204 6.79403C173.724 9.05403 177.194 13.334 178.454 18.234C178.764 19.424 178.924 20.5741 178.964 21.6941C178.944 21.9941 178.954 22.304 178.944 22.614Z" fill="#00A89D"/>
<path d="M292.943 128.994C291.943 117.204 289.523 105.874 286.203 93.804C281.623 77.154 267.283 64.0441 256.613 50.6641C255.863 49.7241 255.113 48.784 254.363 47.854C254.403 47.924 254.433 47.984 254.473 48.054C258.143 54.624 261.013 61.4841 263.473 68.5941C268.703 83.7341 272.023 99.534 273.083 115.514C273.223 117.594 273.313 119.704 273.273 121.814C276.823 122.914 278.903 128.254 277.973 134.214C276.993 140.524 272.993 145.154 269.043 144.534C268.853 144.504 268.673 144.464 268.493 144.414C268.303 144.404 268.123 144.394 267.933 144.364C266.463 144.134 265.213 143.214 264.263 141.814C260.773 145.064 256.883 148.024 254.023 151.814C247.943 159.864 245.923 169.244 244.803 178.914C247.823 179.174 250.573 180.154 252.873 181.924C253.343 182.284 253.793 182.674 254.213 183.094C254.723 183.394 255.213 183.714 255.693 184.084C265.713 191.764 263.563 211.384 250.893 227.914C238.223 244.444 219.843 251.614 209.823 243.934C209.353 243.574 208.903 243.184 208.483 242.764C207.973 242.464 207.483 242.134 207.003 241.774C206.153 241.124 205.383 240.384 204.713 239.564C189.973 239.154 174.453 231.974 159.703 235.004C141.913 238.664 130.013 256.034 112.903 262.094C109.383 263.344 105.893 264.164 102.433 264.634C102.663 264.734 102.903 264.824 103.133 264.924C103.533 265.074 103.933 265.224 104.333 265.384C112.853 268.764 118.713 274.114 117.433 277.344C116.153 280.564 108.213 280.444 99.6934 277.054C99.2934 276.894 98.8934 276.734 98.5034 276.564C98.1034 276.414 97.7034 276.264 97.3034 276.104C88.7834 272.724 82.9234 267.364 84.2034 264.144C84.2134 264.124 84.2234 264.104 84.2334 264.074C77.8934 262.934 71.6234 260.904 65.4234 258.414C52.8134 253.344 40.6734 247.164 30.0034 238.774C33.0534 244.574 36.6634 250.094 41.2234 254.784C46.1234 259.824 53.0434 261.674 58.4134 266.334C77.0434 282.514 102.093 288.694 126.113 294.354C127.673 294.724 129.243 295.094 130.813 295.444C137.423 296.914 144.113 298.074 150.833 297.534C159.873 296.804 168.843 293.944 177.783 291.844C179.163 291.524 180.543 291.214 181.923 290.944C182.783 290.774 183.633 290.614 184.493 290.464C195.673 288.554 207.063 291.004 217.623 285.624C227.213 280.744 233.003 271.214 241.253 264.654C244.963 261.704 249.493 261.084 253.053 258.274C257.823 254.524 261.273 247.624 264.053 242.364C267.723 235.454 271.543 228.604 275.203 221.694C278.063 216.294 282.493 212.224 285.593 206.894C292.473 195.064 292.563 179.854 292.693 165.514C292.733 161.244 292.773 157.054 293.003 153.054C293.083 151.594 293.173 150.124 293.243 148.654C293.303 147.604 293.343 146.564 293.373 145.524C293.063 140.034 292.373 134.414 292.943 128.994ZM181.713 267.164C181.653 267.054 181.613 266.934 181.573 266.814C181.503 266.714 181.433 266.604 181.383 266.494C180.213 264.104 183.063 260.294 187.763 257.994C192.463 255.684 197.223 255.754 198.393 258.144C198.443 258.254 198.493 258.374 198.533 258.494C198.603 258.594 198.663 258.704 198.723 258.814C199.893 261.204 197.043 265.014 192.343 267.314C187.643 269.614 182.883 269.554 181.713 267.164Z" fill="#452E61"/>
<path d="M117.424 277.354C116.144 280.574 108.204 280.454 99.6835 277.064C99.2835 276.904 98.8835 276.744 98.4935 276.574C98.0935 276.424 97.6935 276.274 97.2935 276.114C88.7735 272.734 82.9135 267.374 84.1935 264.154C84.2035 264.134 84.2135 264.114 84.2235 264.084C85.1235 264.254 86.0135 264.394 86.9135 264.514C91.9935 265.224 97.1135 265.334 102.314 264.644C102.344 264.644 102.384 264.634 102.414 264.634C102.644 264.734 102.884 264.824 103.114 264.924C103.514 265.074 103.914 265.224 104.314 265.384C112.834 268.774 118.704 274.134 117.424 277.354Z" fill="#452E61"/>
<path d="M177.773 291.864C179.153 291.544 180.533 291.234 181.913 290.964C180.543 291.284 179.163 291.594 177.773 291.864Z" fill="#452E61"/>
<path d="M198.724 258.814C199.894 261.204 197.044 265.014 192.344 267.314C187.644 269.614 182.894 269.554 181.714 267.164C181.654 267.054 181.614 266.934 181.574 266.814C181.504 266.714 181.434 266.604 181.384 266.494C180.214 264.104 183.064 260.294 187.764 257.994C192.464 255.684 197.224 255.754 198.394 258.144C198.444 258.254 198.494 258.374 198.534 258.494C198.604 258.594 198.664 258.694 198.724 258.814Z" fill="#452E61"/>
<path d="M250.884 227.914C238.214 244.444 219.834 251.614 209.814 243.934C209.344 243.574 208.894 243.184 208.474 242.764C207.964 242.464 207.474 242.134 206.994 241.774C206.144 241.124 205.374 240.384 204.704 239.564C205.144 239.574 205.594 239.584 206.034 239.584C210.054 239.584 214.004 239.024 217.874 237.584C227.704 233.894 234.384 225.164 238.414 215.224C238.534 214.934 238.654 214.644 238.754 214.354C238.754 214.354 238.754 214.354 238.754 214.344C240.094 210.894 241.114 207.304 241.844 203.754C241.854 203.714 241.854 203.684 241.864 203.644C241.984 203.054 242.094 202.454 242.204 201.854C243.424 195.054 243.814 187.994 244.544 181.044C244.614 180.334 244.694 179.624 244.784 178.924C247.804 179.184 250.554 180.164 252.854 181.934C253.324 182.294 253.774 182.684 254.194 183.104C254.704 183.404 255.194 183.724 255.674 184.094C265.694 191.754 263.554 211.384 250.884 227.914Z" fill="#452E61"/>
<path d="M277.964 134.204C276.984 140.514 272.984 145.144 269.034 144.524C268.844 144.494 268.664 144.454 268.484 144.404C268.294 144.394 268.114 144.384 267.924 144.354C266.454 144.124 265.204 143.204 264.254 141.804C264.474 141.604 264.684 141.404 264.894 141.204C267.104 139.094 269.104 136.834 270.534 134.134C272.474 130.454 273.144 126.324 273.254 122.134C273.254 122.024 273.254 121.914 273.254 121.804C276.814 122.914 278.894 128.254 277.964 134.204Z" fill="#452E61"/>
<path d="M293.384 145.554C293.064 140.034 292.374 134.414 292.944 128.994C293.404 134.384 293.574 139.864 293.384 145.554Z" fill="#452E61"/>
<path d="M293.254 148.684C293.314 147.634 293.354 146.594 293.384 145.554C293.474 147.064 293.534 148.564 293.534 150.054C293.534 155.234 293.254 160.404 292.704 165.544C292.744 161.274 292.784 157.084 293.014 153.084C293.094 151.614 293.184 150.154 293.254 148.684Z" fill="#452E61"/>
<path d="M179.914 76.414C180.574 76.944 181.204 77.504 181.814 78.074C167.864 68.634 148.014 72.2139 136.364 86.6839C124.714 101.154 125.454 121.304 137.644 132.924C136.954 132.454 136.274 131.954 135.614 131.424C121.624 120.154 120.194 98.714 132.424 83.524C144.664 68.324 165.924 65.144 179.914 76.414Z" fill="#384769"/>
<path d="M181.814 78.074C194.014 89.684 194.754 109.844 183.104 124.314C171.444 138.784 151.604 142.354 137.654 132.924C125.464 121.304 124.714 101.154 136.374 86.684C148.014 72.214 167.864 68.634 181.814 78.074Z" fill="#38778A"/>
<path d="M183.844 79.574C197.834 90.844 199.254 112.284 187.024 127.484C174.794 142.684 153.534 145.854 139.544 134.594C138.884 134.064 138.254 133.504 137.644 132.934C151.594 142.374 171.444 138.804 183.094 124.324C194.754 109.854 194.004 89.694 181.804 78.084C182.504 78.544 183.174 79.044 183.844 79.574Z" fill="#00A89D"/>
<path d="M127.684 142.584C127.854 142.724 128.024 142.864 128.174 143.014C124.574 140.544 119.634 141.234 116.854 144.684C114.074 148.134 114.464 153.114 117.634 156.104C117.454 155.984 117.284 155.854 117.114 155.714C113.494 152.794 112.914 147.494 115.834 143.864C118.754 140.234 124.064 139.664 127.684 142.584Z" fill="#384769"/>
<path d="M128.184 143.014C131.364 146.004 131.754 150.974 128.964 154.434C126.184 157.884 121.234 158.564 117.644 156.104C114.464 153.114 114.084 148.144 116.864 144.684C119.644 141.224 124.584 140.544 128.184 143.014Z" fill="#38778A"/>
<path d="M128.704 143.404C132.324 146.324 132.904 151.624 129.984 155.254C127.064 158.874 121.764 159.454 118.144 156.534C117.974 156.394 117.804 156.254 117.654 156.104C121.244 158.574 126.194 157.884 128.974 154.434C131.754 150.984 131.364 146.004 128.194 143.014C128.354 143.134 128.534 143.264 128.704 143.404Z" fill="#00A89D"/>
<path d="M197.624 52.5039C197.814 52.6539 198.004 52.8139 198.184 52.9739C194.264 50.0539 190.034 49.1639 188.534 51.0239C187.034 52.8839 188.804 56.8239 192.494 60.0339C192.304 59.8939 192.104 59.7339 191.914 59.5839C187.844 56.3039 185.814 52.0639 187.394 50.1039C188.964 48.1539 193.544 49.2239 197.624 52.5039Z" fill="#384769"/>
<path d="M198.184 52.974C201.874 56.174 203.644 60.1239 202.144 61.9839C200.644 63.8439 196.414 62.964 192.494 60.0339C188.804 56.834 187.034 52.8939 188.534 51.0239C190.034 49.1639 194.264 50.054 198.184 52.974Z" fill="#38778A"/>
<path d="M198.764 53.4238C202.834 56.7038 204.864 60.9439 203.284 62.9039C201.714 64.8639 197.134 63.7838 193.054 60.5038C192.864 60.3438 192.674 60.1939 192.494 60.0339C196.414 62.9539 200.644 63.8438 202.144 61.9838C203.644 60.1238 201.874 56.1839 198.184 52.9739C198.374 53.1239 198.574 53.2738 198.764 53.4238Z" fill="#00A89D"/>
<path d="M188.644 25.124C188.974 25.304 189.314 25.494 189.634 25.674C182.894 22.284 176.524 21.584 175.134 24.174C173.744 26.754 177.824 31.694 184.354 35.464C184.024 35.294 183.684 35.124 183.354 34.944C176.254 31.114 171.674 25.804 173.144 23.094C174.594 20.384 181.534 21.294 188.644 25.124Z" fill="#384769"/>
<path d="M189.634 25.6739C196.164 29.4439 200.254 34.384 198.854 36.964C197.464 39.544 191.094 38.844 184.354 35.454C177.824 31.684 173.734 26.744 175.134 24.164C176.524 21.584 182.884 22.2939 189.634 25.6739Z" fill="#38778A"/>
<path d="M190.634 26.194C197.734 30.024 202.314 35.3339 200.844 38.0439C199.384 40.7539 192.434 39.844 185.334 36.014C184.994 35.834 184.664 35.644 184.344 35.464C191.084 38.854 197.454 39.554 198.844 36.974C200.234 34.394 196.154 29.454 189.624 25.684C189.964 25.844 190.304 26.014 190.634 26.194Z" fill="#00A89D"/>
<path d="M181.534 95.3041C181.774 95.4941 182.004 95.6941 182.224 95.9041C177.194 92.4541 170.274 93.4041 166.384 98.2441C162.494 103.074 163.034 110.044 167.484 114.214C167.234 114.044 166.994 113.864 166.754 113.664C161.684 109.584 160.884 102.164 164.964 97.0841C169.044 92.0241 176.464 91.2141 181.534 95.3041Z" fill="#384769"/>
<path d="M182.224 95.9042C186.674 100.084 187.214 107.044 183.324 111.884C179.434 116.714 172.514 117.674 167.484 114.214C163.034 110.034 162.494 103.074 166.384 98.2441C170.274 93.4041 177.194 92.4542 182.224 95.9042Z" fill="#38778A"/>
<path d="M182.964 96.444C188.034 100.524 188.834 107.944 184.754 113.024C180.674 118.104 173.254 118.894 168.184 114.814C167.944 114.624 167.714 114.424 167.494 114.214C172.524 117.664 179.444 116.714 183.334 111.884C187.224 107.054 186.684 100.084 182.234 95.9041C182.474 96.0741 182.724 96.254 182.964 96.444Z" fill="#00A89D"/>
<path d="M84.2335 196.824C84.7635 197.194 85.2735 197.574 85.7735 197.974C74.8935 191.234 62.1135 191.934 56.5835 199.824C51.0535 207.714 54.7735 219.954 64.8235 227.884C64.2835 227.554 63.7435 227.194 63.2235 226.824C52.0235 218.974 47.6335 205.904 53.4435 197.614C59.2435 189.334 73.0335 188.984 84.2335 196.824Z" fill="#452E61"/>
<path d="M85.7834 197.974C95.8334 205.894 99.5534 218.144 94.0234 226.034C88.4934 233.924 75.7234 234.624 64.8334 227.884C54.7834 219.964 51.0634 207.714 56.5934 199.824C62.1234 191.934 74.8934 191.234 85.7834 197.974Z" fill="#384769"/>
<path d="M87.3835 199.034C98.5835 206.884 102.963 219.954 97.1635 228.244C91.3635 236.524 77.5735 236.884 66.3735 229.034C65.8435 228.664 65.3335 228.284 64.8335 227.884C75.7135 234.624 88.4935 233.924 94.0235 226.034C99.5535 218.144 95.8335 205.894 85.7835 197.974C86.3135 198.304 86.8535 198.664 87.3835 199.034Z" fill="#38778A"/>
<path d="M32.0837 167.924C32.1237 168.104 32.1637 168.284 32.2037 168.454C31.1437 164.984 28.4437 162.704 25.9937 163.314C23.5437 163.924 22.2237 167.194 22.9137 170.764C22.8637 170.594 22.8137 170.414 22.7637 170.234C21.8237 166.464 23.1537 162.894 25.7237 162.254C28.3037 161.624 31.1437 164.154 32.0837 167.924Z" fill="#384769"/>
<path d="M32.2038 168.454C32.8938 172.024 31.5738 175.294 29.1238 175.904C26.6738 176.514 23.9738 174.244 22.9138 170.764C22.2238 167.194 23.5438 163.924 25.9938 163.314C28.4438 162.704 31.1438 164.984 32.2038 168.454Z" fill="#38778A"/>
<path d="M32.3536 168.984C33.2936 172.754 31.9636 176.324 29.3936 176.964C26.8236 177.604 23.9736 175.074 23.0336 171.304C22.9936 171.124 22.9536 170.944 22.9136 170.774C23.9736 174.244 26.6736 176.524 29.1236 175.914C31.5736 175.304 32.8936 172.024 32.2036 168.464C32.2536 168.624 32.3036 168.804 32.3536 168.984Z" fill="#00A89D"/>
<path d="M65.1837 149.904C65.3637 150.204 65.5337 150.514 65.6837 150.824C61.7037 145.044 54.3237 143.004 48.7437 146.304C43.1537 149.604 41.3837 157.054 44.5237 163.324C44.3237 163.034 44.1337 162.744 43.9537 162.434C40.1437 155.984 41.8137 147.954 47.6737 144.494C53.5437 141.044 61.3837 143.464 65.1837 149.904Z" fill="#384769"/>
<path d="M65.6937 150.834C68.8337 157.104 67.0537 164.554 61.4737 167.854C55.8837 171.154 48.5037 169.114 44.5337 163.334C41.3937 157.064 43.1737 149.614 48.7537 146.314C54.3337 143.014 61.7137 145.054 65.6937 150.834Z" fill="#38778A"/>
<path d="M66.2539 151.714C70.0639 158.164 68.3939 166.194 62.5339 169.654C56.6739 173.114 48.8339 170.694 45.0239 164.254C44.8439 163.954 44.6739 163.644 44.5239 163.334C48.5039 169.114 55.8839 171.154 61.4639 167.854C67.0539 164.554 68.8239 157.104 65.6839 150.834C65.8839 151.114 66.0739 151.414 66.2539 151.714Z" fill="#00A89D"/>
<path d="M249.904 70.954C250.184 71.194 250.464 71.434 250.724 71.684C244.834 67.334 237.484 67.184 233.904 71.484C230.324 75.784 231.824 82.984 237.164 87.984C236.874 87.764 236.584 87.544 236.304 87.304C230.294 82.304 228.464 74.5941 232.214 70.0841C235.974 65.554 243.894 65.954 249.904 70.954Z" fill="#452E61"/>
<path d="M250.724 71.674C256.074 76.664 257.564 83.874 253.984 88.174C250.404 92.474 243.054 92.3141 237.164 87.9641C231.814 82.9641 230.324 75.7641 233.904 71.4641C237.484 67.1741 244.844 67.334 250.724 71.674Z" fill="#384769"/>
<path d="M251.594 72.3541C257.604 77.3541 259.434 85.0641 255.684 89.5741C251.934 94.0841 244.014 93.6941 238.004 88.6941C237.724 88.4541 237.444 88.2141 237.184 87.9641C243.064 92.3141 250.424 92.4741 254.004 88.1741C257.584 83.8741 256.084 76.6741 250.744 71.6741C251.024 71.8941 251.304 72.1241 251.594 72.3541Z" fill="#38778A"/>
<path d="M268.494 144.414C268.304 144.404 268.124 144.394 267.934 144.364C266.464 144.134 265.214 143.214 264.264 141.814C262.664 139.464 261.954 135.774 262.574 131.814C263.554 125.504 267.554 120.874 271.504 121.494C271.694 121.524 271.874 121.564 272.054 121.614C268.294 121.494 264.624 125.974 263.684 131.994C263.124 135.544 263.644 138.884 264.914 141.224C265.784 142.834 267.014 143.984 268.494 144.414Z" fill="#452E61"/>
<path d="M272.044 121.604C275.664 122.634 277.794 128.014 276.854 134.034C275.914 140.054 272.244 144.534 268.484 144.414C264.864 143.384 262.734 138.004 263.674 131.984C264.614 125.964 268.294 121.484 272.044 121.604Z" fill="#384769"/>
<path d="M277.964 134.204C276.984 140.514 272.984 145.144 269.034 144.524C268.844 144.494 268.664 144.454 268.484 144.404C272.234 144.524 275.914 140.044 276.844 134.024C277.674 128.714 276.114 123.904 273.254 122.134C272.874 121.894 272.464 121.714 272.034 121.594C272.214 121.604 272.404 121.614 272.594 121.644C272.824 121.684 273.044 121.734 273.254 121.794C276.814 122.914 278.894 128.254 277.964 134.204Z" fill="#38778A"/>
<path d="M251.704 134.734C251.794 134.744 251.884 134.764 251.974 134.794C250.094 134.734 248.264 136.974 247.794 139.984C247.324 142.994 248.394 145.684 250.204 146.194C250.114 146.194 250.014 146.184 249.924 146.164C247.954 145.854 246.754 143.044 247.244 139.884C247.734 136.744 249.734 134.434 251.704 134.734Z" fill="#452E61"/>
<path d="M251.984 134.794C253.794 135.304 254.864 138.004 254.394 141.014C253.924 144.024 252.094 146.264 250.214 146.204C248.404 145.694 247.334 142.994 247.804 139.994C248.264 136.974 250.104 134.734 251.984 134.794Z" fill="#384769"/>
<path d="M252.264 134.824C254.234 135.134 255.434 137.944 254.944 141.104C254.454 144.264 252.454 146.574 250.484 146.264C250.394 146.254 250.304 146.234 250.214 146.204C252.094 146.264 253.924 144.024 254.394 141.014C254.864 138.004 253.794 135.314 251.984 134.794C252.074 134.804 252.164 134.814 252.264 134.824Z" fill="#38778A"/>
<path d="M60.7139 64.6139C60.9839 64.7939 61.2339 64.994 61.4739 65.204C55.7939 62.134 47.2239 65.6139 41.8439 73.3739C36.4639 81.1339 36.2139 90.3739 41.0839 94.6239C40.8039 94.4739 40.5239 94.3039 40.2639 94.1139C34.6139 90.2039 34.6139 80.424 40.2639 72.274C45.9139 64.134 55.0739 60.7039 60.7139 64.6139Z" fill="#38778A"/>
<path d="M61.4837 65.204C66.3537 69.444 66.1037 78.694 60.7237 86.454C55.3437 94.214 46.7737 97.694 41.0937 94.624C36.2237 90.384 36.4737 81.144 41.8537 73.374C47.2337 65.614 55.7937 62.134 61.4837 65.204Z" fill="#00A89D"/>
<path d="M62.3037 65.714C67.9537 69.624 67.9537 79.404 62.3037 87.554C56.6537 95.704 47.5037 99.134 41.8537 95.214C41.5837 95.024 41.3337 94.834 41.0938 94.624C46.7737 97.694 55.3437 94.214 60.7237 86.454C66.1037 78.694 66.3638 69.444 61.4837 65.204C61.7638 65.364 62.0337 65.524 62.3037 65.714Z" fill="#29E1C2"/>
<path d="M71.3836 105.234C71.5436 105.314 71.7036 105.404 71.8536 105.504C68.4836 104.144 64.3436 105.994 62.3836 109.834C60.4236 113.674 61.3636 118.104 64.4436 120.044C64.2736 119.974 64.1136 119.904 63.9436 119.814C60.4936 118.054 59.3636 113.364 61.4136 109.334C63.4636 105.304 67.9336 103.474 71.3836 105.234Z" fill="#38778A"/>
<path d="M71.8538 105.504C74.9338 107.434 75.8638 111.874 73.9138 115.714C71.9538 119.554 67.8138 121.394 64.4438 120.044C61.3638 118.114 60.4338 113.674 62.3838 109.834C64.3338 105.994 68.4838 104.144 71.8538 105.504Z" fill="#00A89D"/>
<path d="M72.3539 105.724C75.8039 107.484 76.9339 112.174 74.8839 116.204C72.8338 120.234 68.3738 122.064 64.9138 120.304C64.7538 120.224 64.5938 120.134 64.4438 120.034C67.8138 121.394 71.9538 119.544 73.9138 115.704C75.8738 111.864 74.9339 107.434 71.8539 105.494C72.0239 105.564 72.1839 105.644 72.3539 105.724Z" fill="#29E1C2"/>
<path d="M105.124 47.0539C105.244 47.1939 105.344 47.3439 105.444 47.4939C102.864 44.9639 97.7336 45.504 93.6636 48.834C89.5936 52.164 88.0536 57.0839 90.0236 60.1239C89.8936 59.9939 89.7736 59.864 89.6536 59.724C87.2136 56.744 88.7036 51.4939 92.9736 48.0039C97.2436 44.4939 102.684 44.0739 105.124 47.0539Z" fill="#38778A"/>
<path d="M105.444 47.494C107.414 50.524 105.874 55.4541 101.804 58.7841C97.7337 62.1141 92.6037 62.6541 90.0237 60.1241C88.0537 57.0941 89.5937 52.1641 93.6637 48.8341C97.7337 45.5041 102.864 44.964 105.444 47.494Z" fill="#00A89D"/>
<path d="M105.813 47.8939C108.253 50.8739 106.763 56.1239 102.493 59.6139C98.2234 63.1139 92.7834 63.5339 90.3434 60.5539C90.2234 60.4139 90.1234 60.2639 90.0234 60.1139C92.6034 62.6439 97.7334 62.1039 101.803 58.7739C105.873 55.4439 107.413 50.5239 105.443 47.4839C105.573 47.6139 105.693 47.7539 105.813 47.8939Z" fill="#29E1C2"/>
<path d="M114.524 14.784C114.544 14.834 114.554 14.884 114.554 14.944C114.044 13.994 111.604 13.874 108.934 14.694C106.264 15.514 104.314 16.984 104.424 18.054C104.394 18.004 104.374 17.954 104.364 17.904C104.034 16.824 106.034 15.244 108.844 14.384C111.644 13.524 114.194 13.704 114.524 14.784Z" fill="#38778A"/>
<path d="M114.554 14.944C114.664 16.014 112.714 17.484 110.044 18.304C107.374 19.124 104.934 19.004 104.424 18.054C104.314 16.984 106.264 15.514 108.934 14.694C111.614 13.864 114.044 13.994 114.554 14.944Z" fill="#00A89D"/>
<path d="M114.624 15.0941C114.954 16.1741 112.954 17.7541 110.144 18.6141C107.334 19.4741 104.794 19.2941 104.464 18.2141C104.444 18.1641 104.434 18.1141 104.434 18.0541C104.944 19.0041 107.384 19.1341 110.054 18.3041C112.724 17.4841 114.674 16.0141 114.564 14.9441C114.584 14.9941 114.604 15.0441 114.624 15.0941Z" fill="#29E1C2"/>
<path d="M136.954 10.284C137.384 10.254 137.824 10.224 138.244 10.194C129.654 11.054 123.034 13.454 123.214 15.714C123.394 17.974 130.314 19.284 138.934 18.764C138.504 18.804 138.074 18.844 137.644 18.884C128.434 19.624 120.824 18.294 120.634 15.924C120.444 13.544 127.754 11.024 136.954 10.284Z" fill="#38778A"/>
<path d="M138.254 10.194C146.864 9.67405 153.794 10.984 153.974 13.244C154.154 15.504 147.524 17.9041 138.944 18.7641C130.334 19.2841 123.404 17.9741 123.224 15.7141C123.034 13.4541 129.664 11.054 138.254 10.194Z" fill="#00A89D"/>
<path d="M139.543 10.084C148.753 9.344 156.363 10.674 156.553 13.044C156.743 15.414 149.433 17.934 140.233 18.674C139.793 18.704 139.363 18.744 138.943 18.764C147.533 17.904 154.153 15.514 153.973 13.244C153.793 10.974 146.873 9.67398 138.253 10.194C138.673 10.154 139.103 10.114 139.543 10.084Z" fill="#29E1C2"/>
<path d="M254.204 183.094C251.424 181.474 248.124 180.824 244.554 181.054C234.954 181.664 223.404 188.634 214.604 200.114C203.894 214.094 200.704 230.284 206.034 239.594C206.704 240.774 207.524 241.834 208.464 242.774C207.954 242.474 207.464 242.144 206.984 241.784C206.134 241.134 205.364 240.394 204.694 239.574C197.414 230.794 200.194 213.074 211.784 197.954C221.534 185.234 234.684 178.044 244.784 178.924C247.804 179.184 250.554 180.164 252.854 181.934C253.344 182.284 253.784 182.674 254.204 183.094Z" fill="#452E61"/>
<path d="M254.204 183.094C262.654 191.454 260.134 210.004 248.064 225.754C235.994 241.504 218.734 248.754 208.464 242.764C200.014 234.404 202.534 215.854 214.604 200.104C226.674 184.364 243.934 177.104 254.204 183.094Z" fill="#384769"/>
<path d="M250.884 227.914C238.214 244.444 219.834 251.614 209.814 243.934C209.344 243.574 208.894 243.184 208.474 242.764C218.744 248.754 236.004 241.494 248.074 225.754C260.144 210.004 262.664 191.444 254.214 183.094C254.724 183.394 255.214 183.714 255.694 184.084C265.694 191.754 263.554 211.384 250.884 227.914Z" fill="#38778A"/>
<path d="M103.114 264.944C102.844 264.844 102.584 264.754 102.314 264.664C95.1335 262.214 88.7235 262.144 86.9135 264.534C86.7735 264.714 86.6635 264.914 86.5835 265.124C85.3635 268.194 90.6335 273.204 98.4935 276.594C98.0935 276.444 97.6935 276.294 97.2935 276.134C88.7735 272.754 82.9135 267.394 84.1935 264.174C84.2035 264.154 84.2135 264.134 84.2235 264.104C85.5835 260.954 93.4735 261.094 101.934 264.454C102.094 264.524 102.264 264.584 102.424 264.654C102.654 264.744 102.884 264.844 103.114 264.944Z" fill="#452E61"/>
<path d="M103.114 264.944C110.984 268.334 116.244 273.334 115.024 276.414C113.804 279.484 106.534 279.514 98.4936 276.584C90.6336 273.194 85.3636 268.194 86.5836 265.114C87.8036 262.034 95.0736 262.014 103.114 264.944Z" fill="#384769"/>
<path d="M117.424 277.354C116.144 280.574 108.204 280.454 99.6837 277.064C99.2837 276.904 98.8837 276.744 98.4937 276.574C106.544 279.504 113.804 279.474 115.024 276.394C116.244 273.324 110.974 268.314 103.114 264.924C103.514 265.074 103.914 265.224 104.314 265.384C112.834 268.774 118.704 274.134 117.424 277.354Z" fill="#38778A"/>
<path d="M173.734 212.094C173.874 212.194 174.004 212.304 174.124 212.424C171.274 210.584 167.334 211.344 165.114 214.244C162.894 217.144 163.184 221.144 165.694 223.414C165.554 223.324 165.414 223.224 165.274 223.124C162.404 220.924 161.964 216.674 164.304 213.624C166.634 210.584 170.864 209.894 173.734 212.094Z" fill="#452E61"/>
<path d="M174.124 212.424C176.644 214.694 176.934 218.694 174.704 221.604C172.484 224.504 168.544 225.264 165.694 223.424C163.174 221.144 162.884 217.154 165.114 214.254C167.334 211.344 171.274 210.584 174.124 212.424Z" fill="#384769"/>
<path d="M174.534 212.714C177.404 214.914 177.844 219.174 175.504 222.214C173.174 225.264 168.954 225.944 166.074 223.744C165.934 223.644 165.804 223.534 165.684 223.414C168.534 225.254 172.474 224.494 174.694 221.594C176.914 218.694 176.624 214.694 174.114 212.414C174.264 212.514 174.404 212.614 174.534 212.714Z" fill="#38778A"/>
<path d="M198.534 258.484C197.104 256.414 192.564 256.464 188.094 258.664C183.624 260.864 180.814 264.424 181.574 266.814C181.504 266.714 181.434 266.604 181.384 266.494C180.214 264.104 183.064 260.294 187.764 257.994C192.464 255.684 197.224 255.754 198.394 258.144C198.444 258.254 198.494 258.364 198.534 258.484Z" fill="#452E61"/>
<path d="M198.534 258.484C199.294 260.884 196.494 264.444 192.014 266.644C187.534 268.844 183.004 268.884 181.574 266.814C180.814 264.414 183.614 260.854 188.094 258.664C192.564 256.464 197.094 256.414 198.534 258.484Z" fill="#384769"/>
<path d="M192.344 267.314C187.644 269.614 182.894 269.554 181.714 267.164C181.654 267.054 181.614 266.934 181.574 266.814C183.004 268.884 187.534 268.844 192.014 266.644C196.494 264.444 199.294 260.884 198.534 258.484C198.604 258.584 198.664 258.694 198.724 258.804C199.894 261.194 197.044 265.004 192.344 267.314Z" fill="#38778A"/>
<path d="M149.184 204.654C149.384 204.804 149.574 204.964 149.754 205.124C145.654 202.404 140.344 202.964 137.624 206.524C134.894 210.084 135.734 215.344 139.424 218.604C139.224 218.474 139.024 218.324 138.824 218.174C134.654 214.974 133.584 209.354 136.454 205.624C139.304 201.894 145.004 201.454 149.184 204.654Z" fill="#452E61"/>
<path d="M149.754 205.124C153.444 208.374 154.284 213.644 151.554 217.204C148.824 220.764 143.524 221.324 139.424 218.604C135.734 215.344 134.894 210.084 137.624 206.524C140.344 202.964 145.644 202.404 149.754 205.124Z" fill="#384769"/>
<path d="M150.354 205.554C154.524 208.754 155.584 214.374 152.724 218.104C149.864 221.834 144.164 222.274 139.984 219.074C139.784 218.924 139.594 218.764 139.414 218.604C143.514 221.324 148.824 220.764 151.544 217.204C154.274 213.644 153.434 208.374 149.744 205.124C149.954 205.254 150.154 205.404 150.354 205.554Z" fill="#38778A"/>
<path d="M249.773 199.094C249.903 199.164 250.033 199.244 250.153 199.334C247.353 198.254 243.183 200.964 240.593 205.654C238.003 210.344 237.943 215.314 240.363 217.104C240.223 217.054 240.093 216.984 239.953 216.914C237.163 215.374 237.093 210.144 239.813 205.214C242.513 200.294 246.973 197.554 249.773 199.094Z" fill="#452E61"/>
<path d="M250.144 199.334C252.554 201.124 252.494 206.094 249.914 210.784C247.334 215.474 243.154 218.184 240.354 217.104C237.944 215.314 238.004 210.344 240.584 205.654C243.164 200.964 247.344 198.254 250.144 199.334Z" fill="#384769"/>
<path d="M250.554 199.524C253.344 201.064 253.404 206.294 250.694 211.224C247.984 216.144 243.524 218.884 240.734 217.354C240.604 217.284 240.474 217.204 240.354 217.114C243.154 218.194 247.324 215.484 249.914 210.794C252.494 206.104 252.564 201.134 250.144 199.344C250.284 199.384 250.424 199.454 250.554 199.524Z" fill="#38778A"/>
<path d="M76.3338 53.044C79.7138 50.774 83.0938 48.514 86.4638 46.244C89.0138 44.534 91.5738 42.814 93.9338 40.854C96.2838 38.904 98.6238 36.134 97.9338 33.164C97.5238 31.384 96.0438 29.994 94.3538 29.314C87.3338 26.474 76.4238 31.484 72.4438 37.644C70.3738 40.844 67.7638 45.354 67.2638 49.124C66.4138 55.634 71.9238 56.004 76.3338 53.044Z" fill="#29E1C2"/>
<path d="M123.084 39.324C125.604 39.514 128.134 37.984 129.264 35.754C129.524 35.234 129.714 34.6841 129.804 34.0941C130.684 28.6241 124.854 25.614 121.494 29.994C119.354 32.784 118.064 38.954 123.084 39.324Z" fill="#29E1C2"/>
<path d="M91.7339 95.6539C94.2439 94.4239 96.4539 92.3939 97.4039 89.7739C100.894 80.0439 88.1039 79.1839 82.0939 81.9739C77.8039 83.9639 73.3139 93.7839 78.1939 97.1239C81.5239 99.3939 88.5239 97.2339 91.7339 95.6539Z" fill="#29E1C2"/>
<path d="M28.6139 110.604C28.3639 111.804 28.3639 113.264 29.3539 113.994C29.8839 114.394 30.5939 114.464 31.2439 114.294C31.4239 114.244 31.6039 114.184 31.7739 114.104C32.5439 113.734 33.1339 113.084 33.6339 112.394C38.1239 106.304 29.3839 106.914 28.6139 110.604Z" fill="#29E1C2"/>
<path d="M77.7438 180.964C80.8738 181.824 84.5538 180.104 85.7538 177.094C86.9538 174.074 85.3338 170.194 82.2838 169.074C75.2238 166.494 69.3138 178.654 77.7438 180.964Z" fill="#00A89D"/>
<path d="M214.984 32.244C216.654 30.914 219.384 31.204 220.734 32.864C222.084 34.524 221.814 37.254 220.174 38.614C218.534 39.984 215.794 39.744 214.414 38.114C213.034 36.484 213.244 33.754 214.854 32.344L214.984 32.244Z" fill="#00A89D"/>
<path d="M202.064 91.3139C203.794 96.3339 204.234 101.794 203.314 107.014C205.574 106.544 207.534 105.024 208.774 103.084C210.014 101.144 210.554 98.8039 210.584 96.5039C210.634 92.1139 208.884 87.9239 207.174 83.8739C206.074 81.2839 202.794 76.9439 200.424 80.8639C198.594 83.8739 201.074 88.4639 202.064 91.3139Z" fill="#00A89D"/>
<path d="M222.624 142.994C222.654 144.134 222.954 145.594 224.084 145.794C225.194 145.994 225.984 144.774 226.404 143.734C228.144 139.454 229.204 134.904 229.534 130.294C229.664 128.514 229.624 126.544 228.434 125.214C223.024 119.114 222.574 140.894 222.624 142.994Z" fill="#38778A"/>
<path d="M51.2036 244.354C51.8336 244.524 52.5337 244.624 53.1037 244.274C53.9137 243.774 54.0737 242.574 54.0237 241.554C53.7637 236.714 50.2937 232.294 45.9737 231.304C41.2537 230.224 39.8237 233.214 42.1837 237.144C44.3037 240.674 47.4236 243.364 51.2036 244.354Z" fill="#38778A"/>
<path d="M270.284 175.714C273.044 176.994 276.524 175.854 278.514 173.544C280.504 171.234 281.164 168.024 280.984 164.984C280.594 158.704 272.884 151.124 268.114 158.354C265.164 162.814 264.684 173.114 270.284 175.714Z" fill="#384769"/>
<path d="M152.894 262.304C152.144 258.144 140.814 258.414 141.164 263.634C141.564 269.834 153.694 266.714 152.894 262.304Z" fill="#384769"/>
<path d="M204.884 186.244C208.314 182.174 211.864 178.484 217.274 177.694C222.894 176.874 214.554 183.964 213.704 184.814C210.284 188.254 207.224 192.054 204.624 196.154C203.464 197.974 197.234 208.804 194.924 203.494C193.584 200.424 202.904 188.594 204.884 186.244Z" fill="#38778A"/>
<path d="M147.164 281.784C146.494 281.174 145.674 280.784 144.754 280.784C144.284 280.764 143.844 280.864 143.444 281.074C143.024 281.214 142.654 281.444 142.344 281.774C142.014 282.084 141.774 282.444 141.644 282.874C141.434 283.284 141.334 283.714 141.354 284.184C141.394 285.064 141.684 285.974 142.354 286.594C143.024 287.204 143.844 287.594 144.764 287.594C145.234 287.614 145.674 287.514 146.074 287.304C146.494 287.164 146.864 286.934 147.174 286.604C147.504 286.294 147.744 285.934 147.874 285.504C148.084 285.094 148.184 284.664 148.164 284.194C148.114 283.304 147.834 282.394 147.164 281.784Z" fill="#384769"/>
<path d="M157.904 285.594C157.634 285.434 157.324 285.394 157.024 285.434C156.754 285.474 156.414 285.584 156.234 285.814C156.004 286.104 155.774 286.394 155.794 286.794C155.814 287.194 155.994 287.474 156.234 287.774C156.374 287.944 156.644 288.064 156.844 288.134C157.134 288.224 157.464 288.184 157.744 288.064C158.224 287.864 158.614 287.354 158.594 286.804C158.564 286.304 158.324 285.834 157.904 285.594Z" fill="#384769"/>
<path d="M160.604 274.084C160.544 273.874 160.454 273.664 160.354 273.464C160.084 272.894 159.364 272.544 158.754 272.544C158.144 272.544 157.434 272.884 157.154 273.464C157.054 273.664 156.964 273.874 156.904 274.084C156.544 275.284 157.534 276.504 158.754 276.504C159.974 276.504 160.964 275.284 160.604 274.084Z" fill="#384769"/>
<path d="M172.624 276.444C172.564 276.374 172.494 276.294 172.434 276.224C172.164 275.904 171.614 275.714 171.204 275.714C170.774 275.714 170.274 275.904 169.974 276.224C169.674 276.554 169.444 276.994 169.464 277.454C169.484 277.894 169.624 278.384 169.974 278.684C170.044 278.744 170.124 278.814 170.194 278.874C170.544 279.174 170.924 279.374 171.404 279.374C171.824 279.374 172.324 279.184 172.614 278.874C172.914 278.544 173.134 278.114 173.114 277.664C173.114 277.174 172.934 276.804 172.624 276.444Z" fill="#384769"/>
<path d="M209.934 256.454C209.754 255.904 209.394 255.344 208.864 255.064C208.324 254.784 207.674 254.634 207.074 254.834C206.614 254.984 206.274 255.164 205.934 255.504C205.874 255.564 205.804 255.634 205.744 255.704C205.154 256.334 204.834 257.264 205.104 258.114C205.304 258.724 205.674 259.264 206.244 259.594C206.794 259.914 207.534 260.014 208.154 259.844C208.934 259.624 209.724 258.944 209.884 258.114C209.994 257.564 210.114 257.014 209.934 256.454Z" fill="#384769"/>
<path d="M124.654 209.734C124.044 209.174 123.294 208.814 122.444 208.814C121.644 208.814 120.804 209.164 120.234 209.734C119.934 210.014 119.714 210.354 119.584 210.744C119.384 211.114 119.294 211.514 119.314 211.944C119.354 212.754 119.614 213.594 120.234 214.154C120.844 214.714 121.594 215.074 122.444 215.074C123.244 215.074 124.084 214.724 124.654 214.154C124.954 213.874 125.174 213.534 125.304 213.144C125.504 212.774 125.594 212.374 125.574 211.944C125.534 211.134 125.264 210.304 124.654 209.734Z" fill="#38778A"/>
<path d="M134.894 221.034C133.654 221.034 132.674 222.274 133.024 223.494C133.044 223.554 133.054 223.614 133.074 223.674C133.294 224.444 134.064 225.094 134.894 225.064C135.734 225.024 136.474 224.504 136.714 223.674C136.734 223.614 136.744 223.554 136.764 223.494C137.124 222.274 136.144 221.034 134.894 221.034Z" fill="#38778A"/>
<path d="M124.004 218.894C122.694 218.894 121.604 220.224 122.014 221.514C122.034 221.574 122.054 221.634 122.074 221.694C122.204 222.114 122.444 222.464 122.794 222.734C123.134 222.994 123.574 223.184 124.014 223.164C124.374 223.144 124.714 223.054 125.024 222.894C125.474 222.654 125.804 222.164 125.944 221.694C125.964 221.634 125.984 221.574 126.004 221.514C126.394 220.214 125.304 218.894 124.004 218.894Z" fill="#38778A"/>
<path d="M115.444 228.494C113.874 228.494 113.874 230.924 115.444 230.924C117.004 230.934 117.014 228.494 115.444 228.494Z" fill="#38778A"/>
<path d="M103.274 236.694C103.004 236.424 102.594 236.254 102.214 236.254C101.654 236.254 101.224 236.554 100.914 237.004C100.884 237.044 100.864 237.084 100.834 237.124C100.784 237.244 100.734 237.364 100.684 237.474C100.624 237.674 100.614 237.864 100.654 238.064C100.694 238.374 100.824 238.694 101.064 238.914C101.254 239.084 101.474 239.214 101.714 239.294C102.044 239.404 102.564 239.344 102.854 239.144C102.894 239.114 102.934 239.094 102.974 239.064C103.404 238.764 103.744 238.324 103.724 237.764C103.694 237.354 103.564 236.984 103.274 236.694Z" fill="#38778A"/>
<path d="M127.094 227.704C127.044 227.314 126.874 226.904 126.574 226.624C126.334 226.404 126.054 226.244 125.744 226.144C125.334 226.014 124.654 226.074 124.294 226.334C124.214 226.394 124.144 226.444 124.064 226.504C123.774 226.674 123.544 226.904 123.374 227.194C123.204 227.494 123.114 227.824 123.114 228.164C123.134 228.674 123.314 229.154 123.674 229.524C124.024 229.874 124.544 230.084 125.034 230.084C125.384 230.084 125.704 229.994 126.004 229.824C126.294 229.654 126.524 229.424 126.694 229.134C126.754 229.054 126.804 228.984 126.864 228.904L127.054 228.454C127.134 228.204 127.144 227.954 127.094 227.704Z" fill="#38778A"/>
<path d="M116.214 237.834C115.314 237.834 115.314 239.234 116.214 239.234C117.114 239.234 117.114 237.834 116.214 237.834Z" fill="#38778A"/>
<path d="M156.264 197.654C155.644 197.084 154.884 196.724 154.024 196.724C153.214 196.724 152.364 197.074 151.784 197.654C151.474 197.944 151.254 198.284 151.134 198.674C150.934 199.054 150.844 199.454 150.864 199.894C150.904 200.714 151.174 201.564 151.794 202.134C152.414 202.704 153.174 203.064 154.034 203.064C154.844 203.064 155.694 202.714 156.274 202.134C156.584 201.844 156.804 201.504 156.924 201.114C157.124 200.734 157.214 200.334 157.194 199.894C157.154 199.064 156.884 198.224 156.264 197.654Z" fill="#38778A"/>
<path d="M164.724 195.994C161.714 195.994 161.704 200.674 164.724 200.674C167.734 200.664 167.744 195.994 164.724 195.994Z" fill="#38778A"/>
<path d="M161.354 204.374C159.114 204.374 159.114 207.844 161.354 207.844C163.584 207.844 163.594 204.374 161.354 204.374Z" fill="#38778A"/>
<path d="M175.884 194.724C175.084 194.724 174.314 195.424 174.354 196.254C174.394 197.084 175.024 197.784 175.884 197.784C176.684 197.784 177.454 197.084 177.414 196.254C177.374 195.424 176.734 194.724 175.884 194.724Z" fill="#38778A"/>
<path d="M184.954 184.044C184.934 184.044 184.924 184.084 184.954 184.084C184.984 184.084 184.984 184.044 184.954 184.044Z" fill="#38778A"/>
<path d="M180.874 182.504C180.864 182.464 180.844 182.424 180.834 182.384C180.694 181.984 180.494 181.654 180.144 181.394C179.824 181.144 179.404 180.964 178.984 180.984C178.644 181.004 178.324 181.084 178.014 181.244C177.574 181.474 177.294 181.934 177.134 182.384C177.124 182.424 177.104 182.464 177.094 182.504C176.874 183.124 177.114 183.964 177.594 184.404C177.974 184.754 178.444 184.974 178.974 184.974C179.474 184.974 180.004 184.754 180.354 184.404C180.844 183.944 181.104 183.154 180.874 182.504Z" fill="#38778A"/>
<path d="M15.3138 129.244C12.5338 129.244 12.5238 133.564 15.3138 133.564C18.0938 133.564 18.1038 129.244 15.3138 129.244Z" fill="#38778A"/>
<path d="M22.5738 136.034C20.5138 136.034 20.5138 139.234 22.5738 139.234C24.6338 139.234 24.6438 136.034 22.5738 136.034Z" fill="#38778A"/>
<path d="M29.3139 126.664C29.2639 126.304 29.1139 125.924 28.8339 125.664C28.6139 125.464 28.3539 125.314 28.0639 125.214C27.5939 125.064 27.1439 125.204 26.7239 125.394C26.6839 125.414 26.6339 125.434 26.5939 125.454C26.0539 125.694 25.6839 126.434 25.7039 127.004C25.7239 127.484 25.8839 127.924 26.2239 128.274C26.5439 128.594 27.0339 128.794 27.4939 128.794C27.8139 128.794 28.1139 128.714 28.3939 128.554C28.6639 128.394 28.8739 128.184 29.0339 127.914C29.0539 127.874 29.0739 127.824 29.0939 127.784C29.1539 127.644 29.2139 127.504 29.2739 127.364C29.3539 127.124 29.3639 126.894 29.3139 126.664Z" fill="#38778A"/>
<path d="M42.4438 116.264C42.3638 116.034 42.2138 115.824 42.0538 115.664C41.5238 115.134 40.5638 115.094 40.0438 115.664C39.5238 116.234 39.4838 117.114 40.0438 117.674C40.2038 117.834 40.4038 117.964 40.6138 118.054C40.8538 118.204 41.1638 118.224 41.4338 118.194C41.7138 118.154 42.0038 118.044 42.2038 117.824C42.3638 117.654 42.4738 117.454 42.5438 117.234C42.6338 116.964 42.5938 116.534 42.4438 116.264Z" fill="#38778A"/>
<path d="M110.494 68.6739C110.034 68.2539 109.474 67.9839 108.834 67.9839C108.234 67.9839 107.604 68.2439 107.174 68.6739C106.764 69.0839 106.464 69.7439 106.484 70.3339C106.514 70.9439 106.714 71.5739 107.174 71.9939C107.634 72.4139 108.194 72.6839 108.834 72.6839C109.434 72.6839 110.064 72.4239 110.494 71.9939C110.904 71.5839 111.204 70.9239 111.184 70.3339C111.154 69.7239 110.954 69.0939 110.494 68.6739Z" fill="#38778A"/>
<path d="M124.984 63.764C124.524 63.494 124.004 63.534 123.534 63.764C123.484 63.794 123.434 63.814 123.384 63.844C122.504 64.284 122.504 65.7339 123.384 66.1739C123.434 66.2039 123.484 66.224 123.534 66.254C124.004 66.484 124.524 66.524 124.984 66.254C125.424 65.994 125.694 65.524 125.694 65.014C125.694 64.494 125.424 64.014 124.984 63.764Z" fill="#38778A"/>
<path d="M118.154 54.164C118.014 53.934 117.844 53.744 117.624 53.584C117.264 53.274 116.734 53.084 116.274 53.084C115.744 53.084 115.194 53.314 114.814 53.684C114.454 54.044 114.184 54.624 114.214 55.144C114.234 55.674 114.414 56.2339 114.814 56.6039C115.204 56.9639 115.724 57.234 116.274 57.204C116.684 57.184 117.054 57.074 117.394 56.844L117.454 56.824C117.744 56.654 117.974 56.424 118.154 56.124C118.334 55.824 118.414 55.494 118.424 55.144C118.424 54.794 118.334 54.464 118.154 54.164Z" fill="#38778A"/>
<path d="M118.034 70.4141C115.994 70.4141 115.984 73.584 118.034 73.584C120.074 73.594 120.084 70.4141 118.034 70.4141Z" fill="#38778A"/>
<path d="M108.954 85.4238C108.194 85.4238 108.194 86.6038 108.954 86.6038C109.714 86.6038 109.714 85.4238 108.954 85.4238Z" fill="#38778A"/>
<path d="M129.804 53.4639C129.764 53.2839 129.684 53.1239 129.614 52.9539C129.424 52.5139 128.854 52.2639 128.404 52.2639C127.954 52.2639 127.384 52.5239 127.194 52.9539C127.124 53.1239 127.044 53.2839 127.004 53.4639C126.894 53.9639 126.984 54.5139 127.374 54.8739C127.654 55.1339 128.004 55.2939 128.404 55.2939C128.774 55.2939 129.164 55.1339 129.434 54.8739C129.814 54.4939 129.924 53.9739 129.804 53.4639Z" fill="#38778A"/>
<path d="M133.594 57.204C131.574 57.204 131.564 60.3539 133.594 60.3539C135.624 60.3439 135.624 57.204 133.594 57.204Z" fill="#38778A"/>
<path d="M148.234 46.7539C148.204 46.6739 148.174 46.5939 148.144 46.5139C148.034 46.1139 147.824 45.754 147.534 45.464C147.234 45.164 146.884 44.9639 146.484 44.8539C145.664 44.6239 144.764 44.864 144.164 45.464C143.564 46.064 143.324 46.964 143.554 47.784C143.664 48.184 143.874 48.544 144.164 48.834C144.464 49.134 144.814 49.3339 145.214 49.4439C145.294 49.4739 145.374 49.504 145.454 49.534C145.854 49.644 146.254 49.644 146.664 49.534C147.044 49.424 147.384 49.234 147.664 48.954C147.944 48.674 148.144 48.334 148.244 47.954C148.344 47.564 148.344 47.1639 148.234 46.7539Z" fill="#38778A"/>
<path d="M129.704 71.894C128.894 71.894 128.894 73.1541 129.704 73.1541C130.514 73.1541 130.514 71.894 129.704 71.894Z" fill="#38778A"/>
<path d="M207.524 24.684C204.704 24.684 204.704 29.064 207.524 29.064C210.344 29.054 210.344 24.684 207.524 24.684Z" fill="#384769"/>
<path d="M207.724 32.944C205.524 32.944 205.524 36.364 207.724 36.364C209.924 36.364 209.924 32.944 207.724 32.944Z" fill="#384769"/>
<path d="M200.524 25.844C198.444 25.844 198.444 29.074 200.524 29.074C202.594 29.064 202.604 25.844 200.524 25.844Z" fill="#384769"/>
<path d="M152.854 153.814C150.724 153.814 150.724 157.124 152.854 157.124C154.984 157.124 154.994 153.814 152.854 153.814Z" fill="#384769"/>
<path d="M165.154 148.544C164.744 148.304 164.204 148.234 163.754 148.364C163.284 148.494 162.924 148.804 162.664 149.204C162.124 150.044 162.494 151.164 163.284 151.674C164.064 152.174 165.114 151.934 165.654 151.224C166.324 150.364 166.094 149.094 165.154 148.544Z" fill="#384769"/>
<path d="M164.334 158.174C163.064 158.174 163.064 160.144 164.334 160.144C165.604 160.144 165.604 158.174 164.334 158.174Z" fill="#384769"/>
<path d="M189.834 133.724C189.234 133.174 188.504 132.834 187.674 132.834C186.894 132.834 186.074 133.174 185.514 133.724C184.774 134.464 184.394 135.674 184.734 136.694C184.744 136.734 184.764 136.774 184.774 136.814C184.874 137.054 184.974 137.294 185.074 137.534C185.264 137.884 185.524 138.164 185.854 138.374C186.044 138.564 186.264 138.694 186.514 138.764C186.874 138.954 187.264 139.034 187.674 139.024L188.474 138.914C188.714 138.814 188.954 138.714 189.194 138.614C189.874 138.254 190.344 137.524 190.574 136.814C190.584 136.774 190.604 136.734 190.614 136.694C190.954 135.704 190.604 134.424 189.834 133.724Z" fill="#384769"/>
<path d="M181.184 144.324C180.814 144.174 180.374 144.104 179.984 144.234C179.834 144.294 179.694 144.354 179.544 144.424C179.264 144.584 179.044 144.804 178.884 145.084C178.814 145.184 178.764 145.294 178.714 145.404C178.504 145.864 178.384 146.314 178.524 146.824C178.644 147.254 178.974 147.714 179.374 147.924C179.804 148.154 180.324 148.264 180.794 148.114C181.244 147.964 181.664 147.694 181.894 147.264C182.034 147.014 182.164 146.774 182.244 146.504C182.514 145.614 182.004 144.664 181.184 144.324Z" fill="#384769"/>
<path d="M197.604 124.714C195.334 124.714 195.334 128.244 197.604 128.244C199.874 128.244 199.874 124.714 197.604 124.714Z" fill="#384769"/>
<path d="M197.604 137.334C195.294 137.334 195.294 140.914 197.604 140.914C199.914 140.914 199.914 137.334 197.604 137.334Z" fill="#384769"/>
<path d="M42.2137 198.174C41.1737 197.734 39.9537 198.304 39.6437 199.404C39.5137 199.884 39.5837 200.444 39.8337 200.874C40.0937 201.314 40.4937 201.594 40.9737 201.744C41.3137 201.854 41.7137 201.824 42.0537 201.724C42.6837 201.534 43.0737 201.094 43.2937 200.484C43.6237 199.564 43.0837 198.544 42.2137 198.174Z" fill="#384769"/>
<path d="M40.3736 191.184C40.2136 190.874 39.9036 190.694 39.5936 190.584C39.5436 190.564 39.5036 190.544 39.4536 190.534C39.0236 190.374 38.4236 190.554 38.1236 190.884C37.8736 191.154 37.7236 191.484 37.7236 191.854C37.7236 192.204 37.8736 192.574 38.1236 192.824C38.4436 193.144 39.0136 193.344 39.4536 193.174C39.5036 193.154 39.5436 193.134 39.5936 193.124C39.8736 193.024 40.0936 192.894 40.2736 192.654C40.4436 192.434 40.5636 192.144 40.5536 191.854C40.5436 191.614 40.4836 191.384 40.3736 191.184Z" fill="#384769"/>
<path d="M32.4939 194.484C32.1039 194.124 31.6339 193.904 31.0939 193.904C30.5839 193.904 30.0539 194.124 29.6939 194.484C29.3539 194.824 29.0939 195.394 29.1139 195.884C29.1339 196.394 29.3039 196.924 29.6939 197.284C30.0839 197.644 30.5539 197.864 31.0939 197.864C31.6039 197.864 32.1339 197.644 32.4939 197.284C32.8339 196.944 33.0939 196.374 33.0739 195.884C33.0539 195.374 32.8839 194.844 32.4939 194.484Z" fill="#384769"/>
<path d="M258.854 115.414C258.434 115.024 257.914 114.784 257.324 114.784C256.774 114.784 256.184 115.024 255.794 115.414C255.424 115.784 255.134 116.404 255.164 116.944C255.194 117.504 255.374 118.084 255.794 118.474C256.214 118.864 256.734 119.104 257.324 119.104C257.874 119.104 258.464 118.864 258.854 118.474C259.224 118.104 259.514 117.484 259.484 116.944C259.464 116.384 259.284 115.804 258.854 115.414Z" fill="#452E61"/>
<path d="M264.964 102.764C264.684 101.754 263.854 100.894 262.834 100.634C262.544 100.564 262.174 100.514 261.884 100.504C260.834 100.484 259.704 101.104 259.204 102.044C258.814 102.784 258.664 103.614 258.894 104.434C259.104 105.184 259.644 105.894 260.324 106.294C261.294 106.864 262.484 106.844 263.464 106.294C263.714 106.154 263.984 105.924 264.194 105.734C264.974 105.004 265.244 103.774 264.964 102.764Z" fill="#452E61"/>
<path d="M252.084 108.574C252.034 108.184 251.874 107.794 251.574 107.524C251.344 107.304 251.064 107.154 250.764 107.054C250.304 106.904 249.764 107.024 249.344 107.244C249.014 107.414 248.714 107.724 248.564 108.064L248.384 108.494C248.304 108.734 248.294 108.974 248.354 109.214C248.404 109.594 248.564 109.984 248.854 110.254C249.084 110.464 249.354 110.624 249.654 110.714C249.894 110.794 250.134 110.804 250.374 110.744C250.614 110.734 250.834 110.664 251.044 110.534C251.384 110.394 251.694 110.084 251.864 109.754C252.054 109.374 252.134 108.994 252.084 108.574Z" fill="#452E61"/>
<path d="M250.514 124.924C250.194 124.634 249.794 124.444 249.354 124.444C248.934 124.444 248.494 124.624 248.194 124.924C247.774 125.344 247.634 125.944 247.774 126.524L247.804 126.644C247.964 127.304 248.674 127.854 249.354 127.824C250.044 127.794 250.744 127.344 250.904 126.644C250.914 126.604 250.924 126.564 250.934 126.524C251.064 125.964 250.954 125.324 250.514 124.924Z" fill="#452E61"/>
<path d="M265.334 92.9041C265.194 92.4641 264.914 92.024 264.494 91.804C264.094 91.604 263.714 91.394 263.244 91.424C262.604 91.464 262.034 91.734 261.694 92.314C261.374 92.854 261.354 93.584 261.694 94.124C261.944 94.514 262.244 94.7641 262.644 94.9641C263.084 95.1841 263.574 95.2841 264.054 95.1441C264.484 95.0241 264.944 94.694 265.154 94.304C265.374 93.884 265.484 93.3741 265.334 92.9041Z" fill="#452E61"/>
<path d="M267.834 110.424C265.704 110.424 265.704 113.734 267.834 113.734C269.964 113.734 269.964 110.424 267.834 110.424Z" fill="#452E61"/>
<path d="M273.614 203.764C273.054 203.204 272.304 203.064 271.554 203.214C271.494 203.224 271.434 203.234 271.374 203.254C270.624 203.404 270.014 204.104 269.814 204.814C269.604 205.584 269.824 206.424 270.384 206.984C270.944 207.544 271.784 207.774 272.554 207.554C273.264 207.354 273.964 206.744 274.114 205.994C274.124 205.934 274.134 205.874 274.154 205.814C274.314 205.074 274.174 204.334 273.614 203.764Z" fill="#384769"/>
<path d="M279.624 191.484C279.564 191.454 279.504 191.424 279.444 191.394C279.094 191.224 278.754 191.144 278.364 191.194C278.004 191.244 277.644 191.384 277.384 191.664C277.184 191.884 277.034 192.134 276.944 192.414C276.804 192.854 276.924 193.324 277.114 193.724C277.144 193.784 277.174 193.844 277.204 193.904C277.464 194.434 278.144 194.804 278.724 194.774C279.194 194.754 279.634 194.594 279.974 194.254C280.294 193.934 280.494 193.454 280.494 193.004C280.494 192.424 280.164 191.754 279.624 191.484Z" fill="#384769"/>
<path d="M269.784 182.544C268.074 182.544 268.074 185.194 269.784 185.194C271.484 185.194 271.494 182.544 269.784 182.544Z" fill="#384769"/>
<path d="M284.574 178.334C284.564 178.294 284.554 178.254 284.544 178.214C284.434 177.954 284.324 177.704 284.224 177.444C284.024 177.074 283.744 176.764 283.394 176.544C283.194 176.344 282.954 176.204 282.684 176.134C282.304 175.934 281.884 175.844 281.444 175.854C281.164 175.894 280.874 175.934 280.594 175.964C280.334 176.074 280.084 176.184 279.824 176.284C279.454 176.484 279.144 176.764 278.924 177.114C278.644 177.424 278.444 177.794 278.344 178.204C278.334 178.244 278.324 178.284 278.314 178.324C278.164 178.894 278.164 179.474 278.314 180.044C278.464 180.594 278.744 181.074 279.144 181.474C279.774 182.054 280.554 182.424 281.434 182.424C282.264 182.424 283.134 182.064 283.724 181.474C284.124 181.074 284.404 180.594 284.554 180.044C284.734 179.484 284.734 178.914 284.574 178.334Z" fill="#384769"/>
<path d="M287.824 153.564C287.404 153.184 286.894 152.944 286.314 152.944C285.764 152.944 285.194 153.184 284.804 153.564C284.434 153.934 284.154 154.544 284.184 155.074C284.204 155.624 284.394 156.194 284.804 156.584C285.224 156.964 285.734 157.204 286.314 157.204C286.864 157.204 287.434 156.964 287.824 156.584C288.194 156.214 288.474 155.604 288.444 155.074C288.424 154.524 288.244 153.954 287.824 153.564Z" fill="#384769"/>
<path d="M78.3436 54.9441C77.7436 54.9741 77.1736 55.174 76.7336 55.614C76.1636 56.184 75.9336 57.0441 76.1536 57.8241C76.3736 58.6141 76.9336 59.1541 77.7036 59.4041C78.8936 59.7741 80.2036 59.0041 80.5336 57.8241C80.9136 56.4541 79.8336 54.8841 78.3436 54.9441Z" fill="#29E1C2"/>
<path d="M79.0036 68.964C78.8536 68.594 78.5736 68.204 78.1936 68.024C78.0036 67.934 77.8136 67.864 77.6236 67.784C77.2536 67.684 76.8836 67.684 76.5236 67.784C76.2536 67.844 76.0136 67.974 75.8136 68.154C75.2836 68.564 75.0236 69.114 74.9936 69.784C74.9836 70.114 75.0536 70.314 75.1636 70.584C75.2636 70.814 75.4036 71.0839 75.6036 71.2439C75.8636 71.5039 76.1636 71.684 76.5236 71.774C76.8936 71.874 77.2636 71.874 77.6236 71.774C78.3636 71.574 78.8336 71.024 79.0736 70.324C79.0836 70.294 79.0936 70.2639 79.1036 70.2339C79.1236 70.0639 79.1536 69.884 79.1736 69.714C79.1836 69.454 79.1236 69.204 79.0036 68.964Z" fill="#29E1C2"/>
<path d="M84.844 62.984C84.834 62.944 84.8139 62.904 84.8039 62.864C84.6139 62.274 84.0539 61.774 83.4039 61.804C82.7439 61.834 82.2039 62.234 82.0039 62.864C81.9939 62.904 81.9739 62.944 81.9639 62.984C81.6639 63.914 82.4639 64.874 83.4039 64.874C84.344 64.874 85.144 63.914 84.844 62.984Z" fill="#29E1C2"/>
<path d="M73.2439 62.3039C73.2339 62.2639 73.2139 62.2239 73.2039 62.1839C73.1039 61.9039 72.9739 61.6839 72.7339 61.4939C72.5139 61.3239 72.2239 61.1939 71.9339 61.2139C71.7039 61.2239 71.4739 61.2839 71.2639 61.3939C70.9539 61.5639 70.7739 61.8639 70.6539 62.1839C70.6439 62.2239 70.6239 62.2639 70.6139 62.3039C70.4539 62.7339 70.6339 63.3339 70.9639 63.6339C71.2339 63.8839 71.5639 64.034 71.9339 64.034C72.2839 64.034 72.6539 63.8839 72.9039 63.6339C73.2139 63.3139 73.4139 62.7439 73.2439 62.3039Z" fill="#29E1C2"/>
<path d="M59.7737 55.844C59.3237 55.584 58.8437 55.624 58.3937 55.844L58.2737 55.904C57.4237 56.314 57.4237 57.734 58.2737 58.144L58.3937 58.204C58.8437 58.424 59.3237 58.464 59.7737 58.204C60.1937 57.964 60.4537 57.504 60.4537 57.024C60.4537 56.544 60.1937 56.084 59.7737 55.844Z" fill="#29E1C2"/>
<path d="M43.7137 62.2639C42.6937 62.2639 42.6937 63.8539 43.7137 63.8539C44.7437 63.8439 44.7437 62.2639 43.7137 62.2639Z" fill="#29E1C2"/>
<path d="M61.3338 43.814C61.0238 43.534 60.6138 43.314 60.1838 43.334C60.1638 43.334 60.1438 43.334 60.1238 43.334C59.6938 43.354 59.2838 43.494 58.9738 43.804C58.6938 44.084 58.4838 44.544 58.5038 44.954C58.5438 45.874 59.2138 46.524 60.1238 46.574C60.1438 46.574 60.1638 46.574 60.1838 46.574C60.5838 46.594 61.0538 46.374 61.3338 46.094C61.6138 45.814 61.8238 45.354 61.8138 44.944C61.7938 44.544 61.6538 44.104 61.3338 43.814Z" fill="#29E1C2"/>
<path d="M71.734 76.824C69.674 76.824 69.674 80.024 71.734 80.024C73.794 80.024 73.794 76.824 71.734 76.824Z" fill="#29E1C2"/>
<path d="M107.524 30.374C105.024 30.374 105.024 34.254 107.524 34.254C110.024 34.264 110.034 30.374 107.524 30.374Z" fill="#29E1C2"/>
<path d="M104.624 38.494C104.064 38.164 103.334 38.164 102.774 38.494C102.194 38.844 101.704 39.564 101.784 40.274C101.784 40.604 101.864 40.904 102.034 41.194C102.194 41.464 102.414 41.684 102.684 41.844C103.264 42.184 103.944 42.154 104.524 41.844C105.144 41.514 105.594 40.784 105.544 40.084C105.484 39.414 105.204 38.834 104.624 38.494Z" fill="#29E1C2"/>
<path d="M118.134 30.474C117.624 30.004 116.994 29.704 116.284 29.704C115.614 29.704 114.914 29.994 114.434 30.474C113.984 30.924 113.644 31.674 113.664 32.324C113.694 33.004 113.914 33.704 114.434 34.174C114.944 34.6439 115.574 34.944 116.284 34.944C116.954 34.944 117.654 34.654 118.134 34.174C118.584 33.724 118.924 32.974 118.904 32.324C118.864 31.644 118.644 30.944 118.134 30.474Z" fill="#29E1C2"/>
<path d="M77.3338 54.044C80.7138 51.774 84.0938 49.514 87.4638 47.244C90.0138 45.534 92.5738 43.814 94.9338 41.854C97.2838 39.904 99.6238 37.134 98.9338 34.164C98.5238 32.384 97.0438 30.994 95.3538 30.314C88.3338 27.474 77.4238 32.484 73.4438 38.644C71.3738 41.844 68.7638 46.354 68.2638 50.124C67.4138 56.634 72.9238 57.004 77.3338 54.044Z" fill="#29E1C2"/>
<path d="M124.084 40.324C126.604 40.514 129.134 38.984 130.264 36.754C130.524 36.234 130.714 35.6841 130.804 35.0941C131.684 29.6241 125.854 26.614 122.494 30.994C120.354 33.784 119.064 39.954 124.084 40.324Z" fill="#29E1C2"/>
<path d="M92.7339 96.6539C95.2439 95.4239 97.4539 93.3939 98.4039 90.7739C101.894 81.0439 89.1039 80.1839 83.0939 82.9739C78.8039 84.9639 74.3139 94.7839 79.1939 98.1239C82.5239 100.394 89.5239 98.2339 92.7339 96.6539Z" fill="#29E1C2"/>
<path d="M29.6139 111.604C29.3639 112.804 29.3639 114.264 30.3539 114.994C30.8839 115.394 31.5939 115.464 32.2439 115.294C32.4239 115.244 32.6039 115.184 32.7739 115.104C33.5439 114.734 34.1339 114.084 34.6339 113.394C39.1239 107.304 30.3839 107.914 29.6139 111.604Z" fill="#29E1C2"/>
<path d="M78.7438 181.964C81.8738 182.824 85.5538 181.104 86.7538 178.094C87.9538 175.074 86.3338 171.194 83.2838 170.074C76.2238 167.494 70.3138 179.654 78.7438 181.964Z" fill="#00A89D"/>
<path d="M215.984 33.244C217.654 31.914 220.384 32.204 221.734 33.864C223.084 35.524 222.814 38.254 221.174 39.614C219.534 40.984 216.794 40.744 215.414 39.114C214.034 37.484 214.244 34.754 215.854 33.344L215.984 33.244Z" fill="#00A89D"/>
<path d="M203.064 92.3139C204.794 97.3339 205.234 102.794 204.314 108.014C206.574 107.544 208.534 106.024 209.774 104.084C211.014 102.144 211.554 99.8039 211.584 97.5039C211.634 93.1139 209.884 88.9239 208.174 84.8739C207.074 82.2839 203.794 77.9439 201.424 81.8639C199.594 84.8739 202.074 89.4639 203.064 92.3139Z" fill="#00A89D"/>
<path d="M223.624 143.994C223.654 145.134 223.954 146.594 225.084 146.794C226.194 146.994 226.984 145.774 227.404 144.734C229.144 140.454 230.204 135.904 230.534 131.294C230.664 129.514 230.624 127.544 229.434 126.214C224.024 120.114 223.574 141.894 223.624 143.994Z" fill="#38778A"/>
<path d="M52.2036 245.354C52.8336 245.524 53.5337 245.624 54.1037 245.274C54.9137 244.774 55.0737 243.574 55.0237 242.554C54.7637 237.714 51.2937 233.294 46.9737 232.304C42.2537 231.224 40.8237 234.214 43.1837 238.144C45.3037 241.674 48.4236 244.364 52.2036 245.354Z" fill="#38778A"/>
<path d="M271.284 176.714C274.044 177.994 277.524 176.854 279.514 174.544C281.504 172.234 282.164 169.024 281.984 165.984C281.594 159.704 273.884 152.124 269.114 159.354C266.164 163.814 265.684 174.114 271.284 176.714Z" fill="#384769"/>
<path d="M153.894 263.304C153.144 259.144 141.814 259.414 142.164 264.634C142.564 270.834 154.694 267.714 153.894 263.304Z" fill="#384769"/>
<path d="M205.884 187.244C209.314 183.174 212.864 179.484 218.274 178.694C223.894 177.874 215.554 184.964 214.704 185.814C211.284 189.254 208.224 193.054 205.624 197.154C204.464 198.974 198.234 209.804 195.924 204.494C194.584 201.424 203.904 189.594 205.884 187.244Z" fill="#38778A"/>
<path d="M148.164 282.784C147.494 282.174 146.674 281.784 145.754 281.784C145.284 281.764 144.844 281.864 144.444 282.074C144.024 282.214 143.654 282.444 143.344 282.774C143.014 283.084 142.774 283.444 142.644 283.874C142.434 284.284 142.334 284.714 142.354 285.184C142.394 286.064 142.684 286.974 143.354 287.594C144.024 288.204 144.844 288.594 145.764 288.594C146.234 288.614 146.674 288.514 147.074 288.304C147.494 288.164 147.864 287.934 148.174 287.604C148.504 287.294 148.744 286.934 148.874 286.504C149.084 286.094 149.184 285.664 149.164 285.194C149.114 284.304 148.834 283.394 148.164 282.784Z" fill="#384769"/>
<path d="M158.904 286.594C158.634 286.434 158.324 286.394 158.024 286.434C157.754 286.474 157.414 286.584 157.234 286.814C157.004 287.104 156.774 287.394 156.794 287.794C156.814 288.194 156.994 288.474 157.234 288.774C157.374 288.944 157.644 289.064 157.844 289.134C158.134 289.224 158.464 289.184 158.744 289.064C159.224 288.864 159.614 288.354 159.594 287.804C159.564 287.304 159.324 286.834 158.904 286.594Z" fill="#384769"/>
<path d="M161.604 275.084C161.544 274.874 161.454 274.664 161.354 274.464C161.084 273.894 160.364 273.544 159.754 273.544C159.144 273.544 158.434 273.884 158.154 274.464C158.054 274.664 157.964 274.874 157.904 275.084C157.544 276.284 158.534 277.504 159.754 277.504C160.974 277.504 161.964 276.284 161.604 275.084Z" fill="#384769"/>
<path d="M173.624 277.444C173.564 277.374 173.494 277.294 173.434 277.224C173.164 276.904 172.614 276.714 172.204 276.714C171.774 276.714 171.274 276.904 170.974 277.224C170.674 277.554 170.444 277.994 170.464 278.454C170.484 278.894 170.624 279.384 170.974 279.684C171.044 279.744 171.124 279.814 171.194 279.874C171.544 280.174 171.924 280.374 172.404 280.374C172.824 280.374 173.324 280.184 173.614 279.874C173.914 279.544 174.134 279.114 174.114 278.664C174.114 278.174 173.934 277.804 173.624 277.444Z" fill="#384769"/>
<path d="M210.934 257.454C210.754 256.904 210.394 256.344 209.864 256.064C209.324 255.784 208.674 255.634 208.074 255.834C207.614 255.984 207.274 256.164 206.934 256.504C206.874 256.564 206.804 256.634 206.744 256.704C206.154 257.334 205.834 258.264 206.104 259.114C206.304 259.724 206.674 260.264 207.244 260.594C207.794 260.914 208.534 261.014 209.154 260.844C209.934 260.624 210.724 259.944 210.884 259.114C210.994 258.564 211.114 258.014 210.934 257.454Z" fill="#384769"/>
<path d="M125.654 210.734C125.044 210.174 124.294 209.814 123.444 209.814C122.644 209.814 121.804 210.164 121.234 210.734C120.934 211.014 120.714 211.354 120.584 211.744C120.384 212.114 120.294 212.514 120.314 212.944C120.354 213.754 120.614 214.594 121.234 215.154C121.844 215.714 122.594 216.074 123.444 216.074C124.244 216.074 125.084 215.724 125.654 215.154C125.954 214.874 126.174 214.534 126.304 214.144C126.504 213.774 126.594 213.374 126.574 212.944C126.534 212.134 126.264 211.304 125.654 210.734Z" fill="#38778A"/>
<path d="M135.894 222.034C134.654 222.034 133.674 223.274 134.024 224.494C134.044 224.554 134.054 224.614 134.074 224.674C134.294 225.444 135.064 226.094 135.894 226.064C136.734 226.024 137.474 225.504 137.714 224.674C137.734 224.614 137.744 224.554 137.764 224.494C138.124 223.274 137.144 222.034 135.894 222.034Z" fill="#38778A"/>
<path d="M125.004 219.894C123.694 219.894 122.604 221.224 123.014 222.514C123.034 222.574 123.054 222.634 123.074 222.694C123.204 223.114 123.444 223.464 123.794 223.734C124.134 223.994 124.574 224.184 125.014 224.164C125.374 224.144 125.714 224.054 126.024 223.894C126.474 223.654 126.804 223.164 126.944 222.694C126.964 222.634 126.984 222.574 127.004 222.514C127.394 221.214 126.304 219.894 125.004 219.894Z" fill="#38778A"/>
<path d="M116.444 229.494C114.874 229.494 114.874 231.924 116.444 231.924C118.004 231.934 118.014 229.494 116.444 229.494Z" fill="#38778A"/>
<path d="M104.274 237.694C104.004 237.424 103.594 237.254 103.214 237.254C102.654 237.254 102.224 237.554 101.914 238.004C101.884 238.044 101.864 238.084 101.834 238.124C101.784 238.244 101.734 238.364 101.684 238.474C101.624 238.674 101.614 238.864 101.654 239.064C101.694 239.374 101.824 239.694 102.064 239.914C102.254 240.084 102.474 240.214 102.714 240.294C103.044 240.404 103.564 240.344 103.854 240.144C103.894 240.114 103.934 240.094 103.974 240.064C104.404 239.764 104.744 239.324 104.724 238.764C104.694 238.354 104.564 237.984 104.274 237.694Z" fill="#38778A"/>
<path d="M128.094 228.704C128.044 228.314 127.874 227.904 127.574 227.624C127.334 227.404 127.054 227.244 126.744 227.144C126.334 227.014 125.654 227.074 125.294 227.334C125.214 227.394 125.144 227.444 125.064 227.504C124.774 227.674 124.544 227.904 124.374 228.194C124.204 228.494 124.114 228.824 124.114 229.164C124.134 229.674 124.314 230.154 124.674 230.524C125.024 230.874 125.544 231.084 126.034 231.084C126.384 231.084 126.704 230.994 127.004 230.824C127.294 230.654 127.524 230.424 127.694 230.134C127.754 230.054 127.804 229.984 127.864 229.904L128.054 229.454C128.134 229.204 128.144 228.954 128.094 228.704Z" fill="#38778A"/>
<path d="M117.214 238.834C116.314 238.834 116.314 240.234 117.214 240.234C118.114 240.234 118.114 238.834 117.214 238.834Z" fill="#38778A"/>
<path d="M157.264 198.654C156.644 198.084 155.884 197.724 155.024 197.724C154.214 197.724 153.364 198.074 152.784 198.654C152.474 198.944 152.254 199.284 152.134 199.674C151.934 200.054 151.844 200.454 151.864 200.894C151.904 201.714 152.174 202.564 152.794 203.134C153.414 203.704 154.174 204.064 155.034 204.064C155.844 204.064 156.694 203.714 157.274 203.134C157.584 202.844 157.804 202.504 157.924 202.114C158.124 201.734 158.214 201.334 158.194 200.894C158.154 200.064 157.884 199.224 157.264 198.654Z" fill="#38778A"/>
<path d="M165.724 196.994C162.714 196.994 162.704 201.674 165.724 201.674C168.734 201.664 168.744 196.994 165.724 196.994Z" fill="#38778A"/>
<path d="M162.354 205.374C160.114 205.374 160.114 208.844 162.354 208.844C164.584 208.844 164.594 205.374 162.354 205.374Z" fill="#38778A"/>
<path d="M176.884 195.724C176.084 195.724 175.314 196.424 175.354 197.254C175.394 198.084 176.024 198.784 176.884 198.784C177.684 198.784 178.454 198.084 178.414 197.254C178.374 196.424 177.734 195.724 176.884 195.724Z" fill="#38778A"/>
<path d="M185.954 185.044C185.934 185.044 185.924 185.084 185.954 185.084C185.984 185.084 185.984 185.044 185.954 185.044Z" fill="#38778A"/>
<path d="M181.874 183.504C181.864 183.464 181.844 183.424 181.834 183.384C181.694 182.984 181.494 182.654 181.144 182.394C180.824 182.144 180.404 181.964 179.984 181.984C179.644 182.004 179.324 182.084 179.014 182.244C178.574 182.474 178.294 182.934 178.134 183.384C178.124 183.424 178.104 183.464 178.094 183.504C177.874 184.124 178.114 184.964 178.594 185.404C178.974 185.754 179.444 185.974 179.974 185.974C180.474 185.974 181.004 185.754 181.354 185.404C181.844 184.944 182.104 184.154 181.874 183.504Z" fill="#38778A"/>
<path d="M16.3138 130.244C13.5338 130.244 13.5238 134.564 16.3138 134.564C19.0938 134.564 19.1038 130.244 16.3138 130.244Z" fill="#38778A"/>
<path d="M23.5738 137.034C21.5138 137.034 21.5138 140.234 23.5738 140.234C25.6338 140.234 25.6438 137.034 23.5738 137.034Z" fill="#38778A"/>
<path d="M30.3139 127.664C30.2639 127.304 30.1139 126.924 29.8339 126.664C29.6139 126.464 29.3539 126.314 29.0639 126.214C28.5939 126.064 28.1439 126.204 27.7239 126.394C27.6839 126.414 27.6339 126.434 27.5939 126.454C27.0539 126.694 26.6839 127.434 26.7039 128.004C26.7239 128.484 26.8839 128.924 27.2239 129.274C27.5439 129.594 28.0339 129.794 28.4939 129.794C28.8139 129.794 29.1139 129.714 29.3939 129.554C29.6639 129.394 29.8739 129.184 30.0339 128.914C30.0539 128.874 30.0739 128.824 30.0939 128.784C30.1539 128.644 30.2139 128.504 30.2739 128.364C30.3539 128.124 30.3639 127.894 30.3139 127.664Z" fill="#38778A"/>
<path d="M43.4438 117.264C43.3638 117.034 43.2138 116.824 43.0538 116.664C42.5238 116.134 41.5638 116.094 41.0438 116.664C40.5238 117.234 40.4838 118.114 41.0438 118.674C41.2038 118.834 41.4038 118.964 41.6138 119.054C41.8538 119.204 42.1638 119.224 42.4338 119.194C42.7138 119.154 43.0038 119.044 43.2038 118.824C43.3638 118.654 43.4738 118.454 43.5438 118.234C43.6338 117.964 43.5938 117.534 43.4438 117.264Z" fill="#38778A"/>
<path d="M111.494 69.6739C111.034 69.2539 110.474 68.9839 109.834 68.9839C109.234 68.9839 108.604 69.2439 108.174 69.6739C107.764 70.0839 107.464 70.7439 107.484 71.3339C107.514 71.9439 107.714 72.5739 108.174 72.9939C108.634 73.4139 109.194 73.6839 109.834 73.6839C110.434 73.6839 111.064 73.4239 111.494 72.9939C111.904 72.5839 112.204 71.9239 112.184 71.3339C112.154 70.7239 111.954 70.0939 111.494 69.6739Z" fill="#38778A"/>
<path d="M125.984 64.764C125.524 64.494 125.004 64.534 124.534 64.764C124.484 64.794 124.434 64.814 124.384 64.844C123.504 65.284 123.504 66.7339 124.384 67.1739C124.434 67.2039 124.484 67.224 124.534 67.254C125.004 67.484 125.524 67.524 125.984 67.254C126.424 66.994 126.694 66.524 126.694 66.014C126.694 65.494 126.424 65.014 125.984 64.764Z" fill="#38778A"/>
<path d="M119.154 55.164C119.014 54.934 118.844 54.744 118.624 54.584C118.264 54.274 117.734 54.084 117.274 54.084C116.744 54.084 116.194 54.314 115.814 54.684C115.454 55.044 115.184 55.624 115.214 56.144C115.234 56.674 115.414 57.2339 115.814 57.6039C116.204 57.9639 116.724 58.234 117.274 58.204C117.684 58.184 118.054 58.074 118.394 57.844L118.454 57.824C118.744 57.654 118.974 57.424 119.154 57.124C119.334 56.824 119.414 56.494 119.424 56.144C119.424 55.794 119.334 55.464 119.154 55.164Z" fill="#38778A"/>
<path d="M119.034 71.4141C116.994 71.4141 116.984 74.584 119.034 74.584C121.074 74.594 121.084 71.4141 119.034 71.4141Z" fill="#38778A"/>
<path d="M109.954 86.4238C109.194 86.4238 109.194 87.6038 109.954 87.6038C110.714 87.6038 110.714 86.4238 109.954 86.4238Z" fill="#38778A"/>
<path d="M130.804 54.4639C130.764 54.2839 130.684 54.1239 130.614 53.9539C130.424 53.5139 129.854 53.2639 129.404 53.2639C128.954 53.2639 128.384 53.5239 128.194 53.9539C128.124 54.1239 128.044 54.2839 128.004 54.4639C127.894 54.9639 127.984 55.5139 128.374 55.8739C128.654 56.1339 129.004 56.2939 129.404 56.2939C129.774 56.2939 130.164 56.1339 130.434 55.8739C130.814 55.4939 130.924 54.9739 130.804 54.4639Z" fill="#38778A"/>
<path d="M134.594 58.204C132.574 58.204 132.564 61.3539 134.594 61.3539C136.624 61.3439 136.624 58.204 134.594 58.204Z" fill="#38778A"/>
<path d="M149.234 47.7539C149.204 47.6739 149.174 47.5939 149.144 47.5139C149.034 47.1139 148.824 46.754 148.534 46.464C148.234 46.164 147.884 45.9639 147.484 45.8539C146.664 45.6239 145.764 45.864 145.164 46.464C144.564 47.064 144.324 47.964 144.554 48.784C144.664 49.184 144.874 49.544 145.164 49.834C145.464 50.134 145.814 50.3339 146.214 50.4439C146.294 50.4739 146.374 50.504 146.454 50.534C146.854 50.644 147.254 50.644 147.664 50.534C148.044 50.424 148.384 50.234 148.664 49.954C148.944 49.674 149.144 49.334 149.244 48.954C149.344 48.564 149.344 48.1639 149.234 47.7539Z" fill="#38778A"/>
<path d="M130.704 72.894C129.894 72.894 129.894 74.1541 130.704 74.1541C131.514 74.1541 131.514 72.894 130.704 72.894Z" fill="#38778A"/>
<path d="M208.524 25.684C205.704 25.684 205.704 30.064 208.524 30.064C211.344 30.054 211.344 25.684 208.524 25.684Z" fill="#384769"/>
<path d="M208.724 33.944C206.524 33.944 206.524 37.364 208.724 37.364C210.924 37.364 210.924 33.944 208.724 33.944Z" fill="#384769"/>
<path d="M201.524 26.844C199.444 26.844 199.444 30.074 201.524 30.074C203.594 30.064 203.604 26.844 201.524 26.844Z" fill="#384769"/>
<path d="M153.854 154.814C151.724 154.814 151.724 158.124 153.854 158.124C155.984 158.124 155.994 154.814 153.854 154.814Z" fill="#384769"/>
<path d="M166.154 149.544C165.744 149.304 165.204 149.234 164.754 149.364C164.284 149.494 163.924 149.804 163.664 150.204C163.124 151.044 163.494 152.164 164.284 152.674C165.064 153.174 166.114 152.934 166.654 152.224C167.324 151.364 167.094 150.094 166.154 149.544Z" fill="#384769"/>
<path d="M165.334 159.174C164.064 159.174 164.064 161.144 165.334 161.144C166.604 161.144 166.604 159.174 165.334 159.174Z" fill="#384769"/>
<path d="M190.834 134.724C190.234 134.174 189.504 133.834 188.674 133.834C187.894 133.834 187.074 134.174 186.514 134.724C185.774 135.464 185.394 136.674 185.734 137.694C185.744 137.734 185.764 137.774 185.774 137.814C185.874 138.054 185.974 138.294 186.074 138.534C186.264 138.884 186.524 139.164 186.854 139.374C187.044 139.564 187.264 139.694 187.514 139.764C187.874 139.954 188.264 140.034 188.674 140.024L189.474 139.914C189.714 139.814 189.954 139.714 190.194 139.614C190.874 139.254 191.344 138.524 191.574 137.814C191.584 137.774 191.604 137.734 191.614 137.694C191.954 136.704 191.604 135.424 190.834 134.724Z" fill="#384769"/>
<path d="M182.184 145.324C181.814 145.174 181.374 145.104 180.984 145.234C180.834 145.294 180.694 145.354 180.544 145.424C180.264 145.584 180.044 145.804 179.884 146.084C179.814 146.184 179.764 146.294 179.714 146.404C179.504 146.864 179.384 147.314 179.524 147.824C179.644 148.254 179.974 148.714 180.374 148.924C180.804 149.154 181.324 149.264 181.794 149.114C182.244 148.964 182.664 148.694 182.894 148.264C183.034 148.014 183.164 147.774 183.244 147.504C183.514 146.614 183.004 145.664 182.184 145.324Z" fill="#384769"/>
<path d="M198.604 125.714C196.334 125.714 196.334 129.244 198.604 129.244C200.874 129.244 200.874 125.714 198.604 125.714Z" fill="#384769"/>
<path d="M198.604 138.334C196.294 138.334 196.294 141.914 198.604 141.914C200.914 141.914 200.914 138.334 198.604 138.334Z" fill="#384769"/>
<path d="M43.2137 199.174C42.1737 198.734 40.9537 199.304 40.6437 200.404C40.5137 200.884 40.5837 201.444 40.8337 201.874C41.0937 202.314 41.4937 202.594 41.9737 202.744C42.3137 202.854 42.7137 202.824 43.0537 202.724C43.6837 202.534 44.0737 202.094 44.2937 201.484C44.6237 200.564 44.0837 199.544 43.2137 199.174Z" fill="#384769"/>
<path d="M41.3736 192.184C41.2136 191.874 40.9036 191.694 40.5936 191.584C40.5436 191.564 40.5036 191.544 40.4536 191.534C40.0236 191.374 39.4236 191.554 39.1236 191.884C38.8736 192.154 38.7236 192.484 38.7236 192.854C38.7236 193.204 38.8736 193.574 39.1236 193.824C39.4436 194.144 40.0136 194.344 40.4536 194.174C40.5036 194.154 40.5436 194.134 40.5936 194.124C40.8736 194.024 41.0936 193.894 41.2736 193.654C41.4436 193.434 41.5636 193.144 41.5536 192.854C41.5436 192.614 41.4836 192.384 41.3736 192.184Z" fill="#384769"/>
<path d="M33.4939 195.484C33.1039 195.124 32.6339 194.904 32.0939 194.904C31.5839 194.904 31.0539 195.124 30.6939 195.484C30.3539 195.824 30.0939 196.394 30.1139 196.884C30.1339 197.394 30.3039 197.924 30.6939 198.284C31.0839 198.644 31.5539 198.864 32.0939 198.864C32.6039 198.864 33.1339 198.644 33.4939 198.284C33.8339 197.944 34.0939 197.374 34.0739 196.884C34.0539 196.374 33.8839 195.844 33.4939 195.484Z" fill="#384769"/>
<path d="M259.854 116.414C259.434 116.024 258.914 115.784 258.324 115.784C257.774 115.784 257.184 116.024 256.794 116.414C256.424 116.784 256.134 117.404 256.164 117.944C256.194 118.504 256.374 119.084 256.794 119.474C257.214 119.864 257.734 120.104 258.324 120.104C258.874 120.104 259.464 119.864 259.854 119.474C260.224 119.104 260.514 118.484 260.484 117.944C260.464 117.384 260.284 116.804 259.854 116.414Z" fill="#452E61"/>
<path d="M265.964 103.764C265.684 102.754 264.854 101.894 263.834 101.634C263.544 101.564 263.174 101.514 262.884 101.504C261.834 101.484 260.704 102.104 260.204 103.044C259.814 103.784 259.664 104.614 259.894 105.434C260.104 106.184 260.644 106.894 261.324 107.294C262.294 107.864 263.484 107.844 264.464 107.294C264.714 107.154 264.984 106.924 265.194 106.734C265.974 106.004 266.244 104.774 265.964 103.764Z" fill="#452E61"/>
<path d="M253.084 109.574C253.034 109.184 252.874 108.794 252.574 108.524C252.344 108.304 252.064 108.154 251.764 108.054C251.304 107.904 250.764 108.024 250.344 108.244C250.014 108.414 249.714 108.724 249.564 109.064L249.384 109.494C249.304 109.734 249.294 109.974 249.354 110.214C249.404 110.594 249.564 110.984 249.854 111.254C250.084 111.464 250.354 111.624 250.654 111.714C250.894 111.794 251.134 111.804 251.374 111.744C251.614 111.734 251.834 111.664 252.044 111.534C252.384 111.394 252.694 111.084 252.864 110.754C253.054 110.374 253.134 109.994 253.084 109.574Z" fill="#452E61"/>
<path d="M251.514 125.924C251.194 125.634 250.794 125.444 250.354 125.444C249.934 125.444 249.494 125.624 249.194 125.924C248.774 126.344 248.634 126.944 248.774 127.524L248.804 127.644C248.964 128.304 249.674 128.854 250.354 128.824C251.044 128.794 251.744 128.344 251.904 127.644C251.914 127.604 251.924 127.564 251.934 127.524C252.064 126.964 251.954 126.324 251.514 125.924Z" fill="#452E61"/>
<path d="M266.334 93.9041C266.194 93.4641 265.914 93.024 265.494 92.804C265.094 92.604 264.714 92.394 264.244 92.424C263.604 92.464 263.034 92.734 262.694 93.314C262.374 93.854 262.354 94.584 262.694 95.124C262.944 95.514 263.244 95.7641 263.644 95.9641C264.084 96.1841 264.574 96.2841 265.054 96.1441C265.484 96.0241 265.944 95.694 266.154 95.304C266.374 94.884 266.484 94.3741 266.334 93.9041Z" fill="#452E61"/>
<path d="M268.834 111.424C266.704 111.424 266.704 114.734 268.834 114.734C270.964 114.734 270.964 111.424 268.834 111.424Z" fill="#452E61"/>
<path d="M274.614 204.764C274.054 204.204 273.304 204.064 272.554 204.214C272.494 204.224 272.434 204.234 272.374 204.254C271.624 204.404 271.014 205.104 270.814 205.814C270.604 206.584 270.824 207.424 271.384 207.984C271.944 208.544 272.784 208.774 273.554 208.554C274.264 208.354 274.964 207.744 275.114 206.994C275.124 206.934 275.134 206.874 275.154 206.814C275.314 206.074 275.174 205.334 274.614 204.764Z" fill="#384769"/>
<path d="M280.624 192.484C280.564 192.454 280.504 192.424 280.444 192.394C280.094 192.224 279.754 192.144 279.364 192.194C279.004 192.244 278.644 192.384 278.384 192.664C278.184 192.884 278.034 193.134 277.944 193.414C277.804 193.854 277.924 194.324 278.114 194.724C278.144 194.784 278.174 194.844 278.204 194.904C278.464 195.434 279.144 195.804 279.724 195.774C280.194 195.754 280.634 195.594 280.974 195.254C281.294 194.934 281.494 194.454 281.494 194.004C281.494 193.424 281.164 192.754 280.624 192.484Z" fill="#384769"/>
<path d="M270.784 183.544C269.074 183.544 269.074 186.194 270.784 186.194C272.484 186.194 272.494 183.544 270.784 183.544Z" fill="#384769"/>
<path d="M285.574 179.334C285.564 179.294 285.554 179.254 285.544 179.214C285.434 178.954 285.324 178.704 285.224 178.444C285.024 178.074 284.744 177.764 284.394 177.544C284.194 177.344 283.954 177.204 283.684 177.134C283.304 176.934 282.884 176.844 282.444 176.854C282.164 176.894 281.874 176.934 281.594 176.964C281.334 177.074 281.084 177.184 280.824 177.284C280.454 177.484 280.144 177.764 279.924 178.114C279.644 178.424 279.444 178.794 279.344 179.204C279.334 179.244 279.324 179.284 279.314 179.324C279.164 179.894 279.164 180.474 279.314 181.044C279.464 181.594 279.744 182.074 280.144 182.474C280.774 183.054 281.554 183.424 282.434 183.424C283.264 183.424 284.134 183.064 284.724 182.474C285.124 182.074 285.404 181.594 285.554 181.044C285.734 180.484 285.734 179.914 285.574 179.334Z" fill="#384769"/>
<path d="M288.824 154.564C288.404 154.184 287.894 153.944 287.314 153.944C286.764 153.944 286.194 154.184 285.804 154.564C285.434 154.934 285.154 155.544 285.184 156.074C285.204 156.624 285.394 157.194 285.804 157.584C286.224 157.964 286.734 158.204 287.314 158.204C287.864 158.204 288.434 157.964 288.824 157.584C289.194 157.214 289.474 156.604 289.444 156.074C289.424 155.524 289.244 154.954 288.824 154.564Z" fill="#384769"/>
<path d="M79.3436 55.9441C78.7436 55.9741 78.1736 56.174 77.7336 56.614C77.1636 57.184 76.9336 58.0441 77.1536 58.8241C77.3736 59.6141 77.9336 60.1541 78.7036 60.4041C79.8936 60.7741 81.2036 60.0041 81.5336 58.8241C81.9136 57.4541 80.8336 55.8841 79.3436 55.9441Z" fill="#29E1C2"/>
<path d="M80.0036 69.964C79.8536 69.594 79.5736 69.204 79.1936 69.024C79.0036 68.934 78.8136 68.864 78.6236 68.784C78.2536 68.684 77.8836 68.684 77.5236 68.784C77.2536 68.844 77.0136 68.974 76.8136 69.154C76.2836 69.564 76.0236 70.114 75.9936 70.784C75.9836 71.114 76.0536 71.314 76.1636 71.584C76.2636 71.814 76.4036 72.0839 76.6036 72.2439C76.8636 72.5039 77.1636 72.684 77.5236 72.774C77.8936 72.874 78.2636 72.874 78.6236 72.774C79.3636 72.574 79.8336 72.024 80.0736 71.324C80.0836 71.294 80.0936 71.2639 80.1036 71.2339C80.1236 71.0639 80.1536 70.884 80.1736 70.714C80.1836 70.454 80.1236 70.204 80.0036 69.964Z" fill="#29E1C2"/>
<path d="M85.844 63.984C85.834 63.944 85.8139 63.904 85.8039 63.864C85.6139 63.274 85.0539 62.774 84.4039 62.804C83.7439 62.834 83.2039 63.234 83.0039 63.864C82.9939 63.904 82.9739 63.944 82.9639 63.984C82.6639 64.914 83.4639 65.874 84.4039 65.874C85.344 65.874 86.144 64.914 85.844 63.984Z" fill="#29E1C2"/>
<path d="M74.2439 63.3039C74.2339 63.2639 74.2139 63.2239 74.2039 63.1839C74.1039 62.9039 73.9739 62.6839 73.7339 62.4939C73.5139 62.3239 73.2239 62.1939 72.9339 62.2139C72.7039 62.2239 72.4739 62.2839 72.2639 62.3939C71.9539 62.5639 71.7739 62.8639 71.6539 63.1839C71.6439 63.2239 71.6239 63.2639 71.6139 63.3039C71.4539 63.7339 71.6339 64.3339 71.9639 64.6339C72.2339 64.8839 72.5639 65.034 72.9339 65.034C73.2839 65.034 73.6539 64.8839 73.9039 64.6339C74.2139 64.3139 74.4139 63.7439 74.2439 63.3039Z" fill="#29E1C2"/>
<path d="M60.7737 56.844C60.3237 56.584 59.8437 56.624 59.3937 56.844L59.2737 56.904C58.4237 57.314 58.4237 58.734 59.2737 59.144L59.3937 59.204C59.8437 59.424 60.3237 59.464 60.7737 59.204C61.1937 58.964 61.4537 58.504 61.4537 58.024C61.4537 57.544 61.1937 57.084 60.7737 56.844Z" fill="#29E1C2"/>
<path d="M44.7137 63.2639C43.6937 63.2639 43.6937 64.8539 44.7137 64.8539C45.7437 64.8439 45.7437 63.2639 44.7137 63.2639Z" fill="#29E1C2"/>
<path d="M62.3338 44.814C62.0238 44.534 61.6138 44.314 61.1838 44.334C61.1638 44.334 61.1438 44.334 61.1238 44.334C60.6938 44.354 60.2838 44.494 59.9738 44.804C59.6938 45.084 59.4838 45.544 59.5038 45.954C59.5438 46.874 60.2138 47.524 61.1238 47.574C61.1438 47.574 61.1638 47.574 61.1838 47.574C61.5838 47.594 62.0538 47.374 62.3338 47.094C62.6138 46.814 62.8238 46.354 62.8138 45.944C62.7938 45.544 62.6538 45.104 62.3338 44.814Z" fill="#29E1C2"/>
<path d="M72.734 77.824C70.674 77.824 70.674 81.024 72.734 81.024C74.794 81.024 74.794 77.824 72.734 77.824Z" fill="#29E1C2"/>
<path d="M108.524 31.374C106.024 31.374 106.024 35.254 108.524 35.254C111.024 35.264 111.034 31.374 108.524 31.374Z" fill="#29E1C2"/>
<path d="M105.624 39.494C105.064 39.164 104.334 39.164 103.774 39.494C103.194 39.844 102.704 40.564 102.784 41.274C102.784 41.604 102.864 41.904 103.034 42.194C103.194 42.464 103.414 42.684 103.684 42.844C104.264 43.184 104.944 43.154 105.524 42.844C106.144 42.514 106.594 41.784 106.544 41.084C106.484 40.414 106.204 39.834 105.624 39.494Z" fill="#29E1C2"/>
<path d="M119.134 31.474C118.624 31.004 117.994 30.704 117.284 30.704C116.614 30.704 115.914 30.994 115.434 31.474C114.984 31.924 114.644 32.674 114.664 33.324C114.694 34.004 114.914 34.704 115.434 35.174C115.944 35.6439 116.574 35.944 117.284 35.944C117.954 35.944 118.654 35.654 119.134 35.174C119.584 34.724 119.924 33.974 119.904 33.324C119.864 32.644 119.644 31.944 119.134 31.474Z" fill="#29E1C2"/>
</svg>
