<svg width="65" height="65" viewBox="0 0 65 65" fill="none" xmlns="http://www.w3.org/2000/svg">
<rect y="0.854858" width="65" height="64" rx="8" fill="#212429" fill-opacity="0.5"/>
<path d="M26.35 27.9549C27.2 27.3049 28.15 26.7924 29.2 26.4174C30.25 26.0424 31.35 25.8549 32.5 25.8549C33.65 25.8549 34.75 26.0424 35.8 26.4174C36.85 26.7924 37.8 27.3049 38.65 27.9549C39.2333 27.2715 39.6875 26.4965 40.0125 25.6299C40.3375 24.7632 40.5 23.8382 40.5 22.8549C40.5 20.6382 39.7208 18.7507 38.1625 17.1924C36.6042 15.634 34.7167 14.8549 32.5 14.8549C30.2833 14.8549 28.3958 15.634 26.8375 17.1924C25.2792 18.7507 24.5 20.6382 24.5 22.8549C24.5 23.8382 24.6625 24.7632 24.9875 25.6299C25.3125 26.4965 25.7667 27.2715 26.35 27.9549ZM32.5 23.8549C31.5167 23.8549 30.6875 23.5174 30.0125 22.8424C29.3375 22.1674 29 21.3382 29 20.3549C29 19.3715 29.3375 18.5424 30.0125 17.8674C30.6875 17.1924 31.5167 16.8549 32.5 16.8549C33.4833 16.8549 34.3125 17.1924 34.9875 17.8674C35.6625 18.5424 36 19.3715 36 20.3549C36 21.3382 35.6625 22.1674 34.9875 22.8424C34.3125 23.5174 33.4833 23.8549 32.5 23.8549ZM32.5 32.8549C31.1167 32.8549 29.8167 32.5924 28.6 32.0674C27.3833 31.5424 26.325 30.8299 25.425 29.9299C24.525 29.0299 23.8125 27.9715 23.2875 26.7549C22.7625 25.5382 22.5 24.2382 22.5 22.8549C22.5 21.4715 22.7625 20.1715 23.2875 18.9549C23.8125 17.7382 24.525 16.6799 25.425 15.7799C26.325 14.8799 27.3833 14.1674 28.6 13.6424C29.8167 13.1174 31.1167 12.8549 32.5 12.8549C33.8833 12.8549 35.1833 13.1174 36.4 13.6424C37.6167 14.1674 38.675 14.8799 39.575 15.7799C40.475 16.6799 41.1875 17.7382 41.7125 18.9549C42.2375 20.1715 42.5 21.4715 42.5 22.8549C42.5 24.2382 42.2375 25.5382 41.7125 26.7549C41.1875 27.9715 40.475 29.0299 39.575 29.9299C38.675 30.8299 37.6167 31.5424 36.4 32.0674C35.1833 32.5924 33.8833 32.8549 32.5 32.8549Z" fill="#F4B92E"/>
<path d="M19.4345 47.309L17.5229 52.8549H16.3671L18.7754 46.4564H19.5136L19.4345 47.309ZM21.0341 52.8549L19.1181 47.309L19.0346 46.4564H19.7773L22.1943 52.8549H21.0341ZM20.9419 50.4818V51.3563H17.4614V50.4818H20.9419ZM24.5675 52.099C24.7404 52.099 24.8956 52.0653 25.0333 51.9979C25.174 51.9276 25.2868 51.8309 25.3717 51.7079C25.4596 51.5848 25.5079 51.4427 25.5167 51.2816H26.5143C26.5084 51.5892 26.4176 51.869 26.2418 52.121C26.0661 52.3729 25.8331 52.5736 25.5431 52.723C25.2531 52.8695 24.9323 52.9427 24.5807 52.9427C24.2174 52.9427 23.901 52.8812 23.6315 52.7582C23.362 52.6322 23.1378 52.4594 22.9591 52.2396C22.7804 52.0199 22.6456 51.7665 22.5548 51.4794C22.4669 51.1923 22.423 50.8846 22.423 50.5565V50.4027C22.423 50.0746 22.4669 49.767 22.5548 49.4799C22.6456 49.1898 22.7804 48.9349 22.9591 48.7152C23.1378 48.4955 23.362 48.3241 23.6315 48.201C23.901 48.0751 24.216 48.0121 24.5763 48.0121C24.9572 48.0121 25.2912 48.0883 25.5783 48.2406C25.8654 48.39 26.091 48.5995 26.255 48.869C26.422 49.1356 26.5084 49.4462 26.5143 49.8007H25.5167C25.5079 49.6249 25.464 49.4667 25.3849 49.326C25.3087 49.1825 25.2003 49.0682 25.0597 48.9833C24.922 48.8983 24.7565 48.8558 24.5631 48.8558C24.3493 48.8558 24.172 48.8998 24.0314 48.9877C23.8908 49.0726 23.7809 49.1898 23.7018 49.3392C23.6227 49.4857 23.5656 49.6512 23.5304 49.8358C23.4982 50.0175 23.4821 50.2064 23.4821 50.4027V50.5565C23.4821 50.7528 23.4982 50.9432 23.5304 51.1278C23.5626 51.3124 23.6183 51.4779 23.6974 51.6244C23.7794 51.7679 23.8908 51.8837 24.0314 51.9716C24.172 52.0565 24.3507 52.099 24.5675 52.099ZM29.0897 52.099C29.2625 52.099 29.4178 52.0653 29.5555 51.9979C29.6961 51.9276 29.8089 51.8309 29.8939 51.7079C29.9818 51.5848 30.0301 51.4427 30.0389 51.2816H31.0364C31.0306 51.5892 30.9398 51.869 30.764 52.121C30.5882 52.3729 30.3553 52.5736 30.0653 52.723C29.7752 52.8695 29.4544 52.9427 29.1029 52.9427C28.7396 52.9427 28.4232 52.8812 28.1536 52.7582C27.8841 52.6322 27.66 52.4594 27.4813 52.2396C27.3026 52.0199 27.1678 51.7665 27.077 51.4794C26.9891 51.1923 26.9451 50.8846 26.9451 50.5565V50.4027C26.9451 50.0746 26.9891 49.767 27.077 49.4799C27.1678 49.1898 27.3026 48.9349 27.4813 48.7152C27.66 48.4955 27.8841 48.3241 28.1536 48.201C28.4232 48.0751 28.7381 48.0121 29.0985 48.0121C29.4793 48.0121 29.8133 48.0883 30.1004 48.2406C30.3875 48.39 30.6131 48.5995 30.7772 48.869C30.9442 49.1356 31.0306 49.4462 31.0364 49.8007H30.0389C30.0301 49.6249 29.9862 49.4667 29.9071 49.326C29.8309 49.1825 29.7225 49.0682 29.5819 48.9833C29.4442 48.8983 29.2786 48.8558 29.0853 48.8558C28.8714 48.8558 28.6942 48.8998 28.5535 48.9877C28.4129 49.0726 28.303 49.1898 28.2239 49.3392C28.1448 49.4857 28.0877 49.6512 28.0526 49.8358C28.0203 50.0175 28.0042 50.2064 28.0042 50.4027V50.5565C28.0042 50.7528 28.0203 50.9432 28.0526 51.1278C28.0848 51.3124 28.1404 51.4779 28.2196 51.6244C28.3016 51.7679 28.4129 51.8837 28.5535 51.9716C28.6942 52.0565 28.8729 52.099 29.0897 52.099ZM31.4673 50.5302V50.4291C31.4673 50.0863 31.5171 49.7684 31.6167 49.4755C31.7163 49.1796 31.8599 48.9232 32.0474 48.7064C32.2378 48.4867 32.4692 48.3168 32.7417 48.1967C33.0171 48.0736 33.3276 48.0121 33.6733 48.0121C34.022 48.0121 34.3325 48.0736 34.605 48.1967C34.8804 48.3168 35.1133 48.4867 35.3037 48.7064C35.4941 48.9232 35.6392 49.1796 35.7388 49.4755C35.8384 49.7684 35.8882 50.0863 35.8882 50.4291V50.5302C35.8882 50.8729 35.8384 51.1908 35.7388 51.4838C35.6392 51.7767 35.4941 52.0331 35.3037 52.2528C35.1133 52.4696 34.8818 52.6395 34.6094 52.7626C34.3369 52.8827 34.0278 52.9427 33.6821 52.9427C33.3335 52.9427 33.0215 52.8827 32.7461 52.7626C32.4736 52.6395 32.2422 52.4696 32.0518 52.2528C31.8613 52.0331 31.7163 51.7767 31.6167 51.4838C31.5171 51.1908 31.4673 50.8729 31.4673 50.5302ZM32.5264 50.4291V50.5302C32.5264 50.744 32.5483 50.9462 32.5923 51.1366C32.6362 51.327 32.7051 51.494 32.7988 51.6376C32.8926 51.7811 33.0127 51.8939 33.1592 51.976C33.3057 52.058 33.48 52.099 33.6821 52.099C33.8784 52.099 34.0483 52.058 34.1919 51.976C34.3384 51.8939 34.4585 51.7811 34.5522 51.6376C34.646 51.494 34.7148 51.327 34.7588 51.1366C34.8057 50.9462 34.8291 50.744 34.8291 50.5302V50.4291C34.8291 50.2181 34.8057 50.0189 34.7588 49.8314C34.7148 49.641 34.6445 49.4725 34.5479 49.326C34.4541 49.1796 34.334 49.0653 34.1875 48.9833C34.0439 48.8983 33.8726 48.8558 33.6733 48.8558C33.4741 48.8558 33.3013 48.8983 33.1548 48.9833C33.0112 49.0653 32.8926 49.1796 32.7988 49.326C32.7051 49.4725 32.6362 49.641 32.5923 49.8314C32.5483 50.0189 32.5264 50.2181 32.5264 50.4291ZM39.4567 51.7343V48.1H40.5202V52.8549H39.5182L39.4567 51.7343ZM39.6061 50.7455L39.9621 50.7367C39.9621 51.056 39.9269 51.3505 39.8566 51.62C39.7863 51.8866 39.6779 52.1195 39.5314 52.3187C39.3849 52.515 39.1974 52.6688 38.9689 52.7802C38.7404 52.8885 38.4665 52.9427 38.1472 52.9427C37.9157 52.9427 37.7033 52.9091 37.5099 52.8417C37.3166 52.7743 37.1496 52.6703 37.009 52.5297C36.8713 52.389 36.7643 52.2059 36.6882 51.9803C36.612 51.7548 36.5739 51.4852 36.5739 51.1718V48.1H37.633V51.1805C37.633 51.3534 37.6535 51.4984 37.6945 51.6156C37.7355 51.7299 37.7912 51.8221 37.8615 51.8925C37.9318 51.9628 38.0138 52.0126 38.1076 52.0419C38.2013 52.0712 38.301 52.0858 38.4064 52.0858C38.7082 52.0858 38.9455 52.0272 39.1183 51.91C39.2941 51.7899 39.4186 51.6288 39.4919 51.4266C39.568 51.2245 39.6061 50.9974 39.6061 50.7455ZM42.4759 49.1151V52.8549H41.4169V48.1H42.4144L42.4759 49.1151ZM42.287 50.3016L41.9442 50.2972C41.9471 49.9603 41.994 49.6512 42.0848 49.37C42.1786 49.0887 42.3075 48.847 42.4715 48.6449C42.6385 48.4427 42.8378 48.2875 43.0692 48.1791C43.3006 48.0677 43.5585 48.0121 43.8426 48.0121C44.0712 48.0121 44.2777 48.0443 44.4623 48.1088C44.6498 48.1703 44.8094 48.2714 44.9413 48.412C45.076 48.5526 45.1786 48.7357 45.2489 48.9613C45.3192 49.184 45.3544 49.4579 45.3544 49.7831V52.8549H44.2909V49.7787C44.2909 49.5502 44.2572 49.37 44.1898 49.2382C44.1254 49.1034 44.0301 49.0082 43.9042 48.9525C43.7811 48.8939 43.6273 48.8646 43.4427 48.8646C43.2611 48.8646 43.0985 48.9027 42.9549 48.9789C42.8114 49.0551 42.6898 49.1591 42.5902 49.2909C42.4935 49.4227 42.4188 49.5751 42.3661 49.7479C42.3133 49.9208 42.287 50.1053 42.287 50.3016ZM48.4351 48.1V48.8734H45.7544V48.1H48.4351ZM46.5279 46.9354H47.587V51.5409C47.587 51.6874 47.6075 51.8002 47.6485 51.8793C47.6924 51.9554 47.7525 52.0067 47.8287 52.0331C47.9048 52.0594 47.9942 52.0726 48.0967 52.0726C48.17 52.0726 48.2403 52.0682 48.3077 52.0594C48.375 52.0507 48.4292 52.0419 48.4703 52.0331L48.4746 52.8417C48.3868 52.868 48.2842 52.8915 48.167 52.912C48.0528 52.9325 47.9209 52.9427 47.7715 52.9427C47.5284 52.9427 47.313 52.9003 47.1255 52.8153C46.938 52.7274 46.7915 52.5853 46.6861 52.389C46.5806 52.1927 46.5279 51.932 46.5279 51.6068V46.9354Z" fill="white"/>
</svg>
