<svg width="314" height="305" viewBox="0 0 314 305" fill="none" xmlns="http://www.w3.org/2000/svg">
<path d="M194.058 13.3766C195.508 9.00464 196.727 4.55578 197.695 0.0454102C196.414 4.46865 195.205 8.91238 194.058 13.3766Z" fill="#FFDA00"/>
<path d="M248.571 129.242C262.303 121.103 276.742 114.158 291.673 108.51C274.181 112.671 256.137 114.486 238.169 113.891C222.757 113.379 206.095 110.442 195.641 99.0942C182.303 84.6149 183.86 62.1656 187.497 42.812C189.356 32.9302 191.548 23.1099 194.053 13.3716C187.548 32.9763 176.321 50.9973 161.687 65.5535C154.06 73.1391 143.745 85.2607 133.055 81.2987C121.659 77.0703 111.661 64.9743 105.084 55.2565C96.5046 42.5916 90.686 28.2865 84.934 14.1045C95.68 42.9657 103.706 73.9181 99.1885 104.384C98.9529 105.973 98.6405 107.643 97.5802 108.843C96.3253 110.257 94.3175 110.698 92.4429 110.919C65.9468 114.096 43.784 91.5393 18.1535 84.0972C40.6288 97.249 63.6778 110.893 79.6174 131.492C85.8406 139.539 90.9985 150.282 86.906 159.6C84.2528 165.643 78.3472 169.487 72.7283 172.941C54.2021 184.33 35.4044 195.278 16.6118 206.226C47.2208 203.197 75.9603 186.247 106.672 187.964C111.65 188.241 116.88 189.138 120.686 192.356C127.836 198.394 127.016 209.455 125.572 218.706C123.011 235.077 120.455 251.452 117.894 267.823C131.252 246.916 149.102 228.901 169.877 215.354C173.596 212.93 175.906 203.817 180.336 203.54C185.791 203.197 194.294 207.938 198.96 210.782C210.387 217.753 219.904 230.443 227.95 241.145C237.242 253.503 244.228 262.841 255.163 278.253C242.225 256.198 231.254 232.98 222.424 208.978C216.595 193.12 211.724 175.376 217.911 159.656C223.289 146.002 235.956 136.725 248.571 129.242Z" fill="#FFDA00"/>
<path d="M90.3892 131.748C91.3931 132.307 92.4123 132.84 93.4521 133.322C93.7389 131.902 91.9667 131.492 90.3892 131.748Z" fill="#FF2703"/>
<path d="M249.104 117.228C251.619 107.525 247.972 96.5109 240.166 90.2271C232.366 83.9485 220.826 82.744 211.898 87.28C212.216 84.1637 210.044 81.1859 207.252 79.761C204.466 78.3361 201.198 78.208 198.079 78.4694C182.303 79.7917 168.96 90.0169 155.003 97.4898C152.724 98.7097 150.281 99.8936 147.699 99.7962C143.596 99.6425 140.385 96.4032 137.353 93.6304C129.516 86.4702 120.215 82.2263 110.718 77.7672C101.033 73.2158 90.8296 70.0124 81.1542 76.7934C71.5966 83.4923 67.8166 96.7466 70.8488 108.028C73.5839 118.196 81.1542 126.597 90.384 131.743C91.9565 131.487 93.7338 131.902 93.447 133.316C92.4072 132.835 91.3879 132.302 90.384 131.743C89.9794 131.81 89.585 131.917 89.247 132.066C80.7905 135.766 72.7183 140.333 65.189 145.674C60.2923 149.149 55.3394 153.382 53.936 159.225C52.5325 165.068 56.7274 172.429 62.7099 171.937C58.1053 184.678 62.9916 200.213 74.0551 208.019C85.1237 215.825 101.386 215.205 111.83 206.579C109.679 216.256 108.588 226.784 112.803 235.753C116.552 243.733 124.205 249.474 132.61 252.108C141.015 254.748 150.112 254.522 158.757 252.816C165.816 251.427 172.812 248.992 178.482 244.559C184.147 240.125 188.352 233.472 188.665 226.281C201.301 227.353 214.162 225.661 226.096 221.366C234.732 218.255 243.567 213.012 246.513 204.309C247.936 200.096 247.808 195.534 247.537 191.095C247.04 182.843 246.123 174.612 244.792 166.452C244.52 164.787 244.254 162.988 245.032 161.491C245.632 160.343 246.753 159.579 247.798 158.81C254.549 153.823 259.722 146.268 260.455 137.904C261.177 129.544 256.797 120.59 249.104 117.228Z" fill="#FF2703"/>
<path d="M239.961 117.817C245.216 113.368 245.452 104.696 241.513 99.0428C237.574 93.3895 230.465 90.5859 223.581 90.3757C216.697 90.1656 209.951 92.2106 203.493 94.594C207.267 91.6622 207.237 85.5425 204.435 81.6677C201.633 77.798 196.88 75.8349 192.204 74.8662C188.895 74.1794 185.432 73.9026 182.144 74.6817C176.402 76.0451 171.921 80.3761 168.069 84.6096C180.674 68.2186 141.219 58.6802 131.283 59.5669C122.135 60.3818 112.956 65.62 109.55 74.1538C108.096 72.8827 105.857 73.4055 104.029 74.0257C93.4108 77.6288 82.0553 83.3437 78.4546 93.9738C76.2112 100.606 77.5326 108.033 80.5392 114.352C83.5458 120.677 88.1095 126.105 92.622 131.456C83.0593 132.184 73.6963 135.428 65.7316 140.764C60.0615 144.562 54.709 150.312 55.0112 157.134C55.3288 164.346 62.4791 170.03 69.6857 170.245C64.3845 180.829 66.7918 194.74 75.3353 202.925C83.8839 211.11 97.8772 212.904 108.213 207.143C105.447 211.792 105.919 217.855 108.3 222.719C110.677 227.578 114.718 231.422 118.959 234.774C127.477 241.514 137.532 246.86 148.365 247.644C159.198 248.433 170.819 243.938 176.505 234.677C181.022 227.317 181.304 218.209 181.401 209.567C188.352 215.62 197.971 217.963 207.175 217.522C216.38 217.081 225.271 214.083 233.764 210.5C240.048 207.85 246.492 204.611 250.267 198.927C252.991 194.822 254.042 189.834 254.59 184.94C255.394 177.795 255.004 169.866 250.272 164.453C260.767 161.87 266.324 148.857 263.189 138.509C260.055 128.165 250.333 120.867 239.961 117.817Z" fill="#F3920F"/>
<path d="M222.577 140.948C218.531 136.515 212.087 135.116 206.09 135.218C200.092 135.321 194.16 136.679 188.163 136.715C193.746 133.942 198.104 128.786 199.902 122.815C200.404 121.154 200.717 119.37 200.286 117.684C199.272 113.691 194.627 111.815 190.519 111.554C184.715 111.185 178.82 112.917 174.082 116.28C173.662 117.315 172.848 118.109 171.68 118.212C172.438 117.515 173.242 116.874 174.082 116.28C174.763 114.604 174.395 112.297 172.766 111.313C171.04 110.268 169.006 110.672 167.449 111.774C166.886 112.63 166.205 113.445 165.406 114.194C165.831 113.25 166.563 112.4 167.449 111.774C171.321 105.87 169.57 97.8537 163.008 94.1071C158.957 91.7955 154.03 91.57 149.404 92.1543C146.531 92.5182 143.611 93.205 141.25 94.881C139.007 96.475 137.363 99.1146 137.501 101.841C137.542 101.975 137.562 102.118 137.537 102.277C137.521 102.133 137.511 101.985 137.501 101.841C137.286 101.098 136.21 100.688 135.339 100.637C128.061 100.222 121.377 106.239 119.712 113.343C118.048 120.447 120.711 128.078 125.382 133.68C124.317 132.43 122.345 132.727 120.762 133.173C114.954 134.808 109.11 137.109 104.879 141.415C98.159 148.252 96.9963 159.871 102.231 167.908C107.466 175.945 118.555 179.573 127.523 176.18C125.244 181.972 125.587 188.768 128.548 194.242C131.508 199.721 137.05 203.75 143.192 204.765C146.808 205.365 150.634 204.929 153.912 203.273C161.4 199.491 164.489 190.521 166.235 182.305C168.289 188.251 174.128 192.254 180.229 193.781C185.13 195.006 190.549 194.832 194.949 192.346C199.349 189.86 202.432 184.781 201.695 179.784C208.82 183.561 218.285 180.399 223.156 173.971C228.032 167.544 228.872 158.744 227.161 150.856C226.383 147.258 225.061 143.67 222.577 140.948Z" fill="#FFD506"/>
<path d="M174.087 116.285C173.247 116.879 172.443 117.52 171.685 118.217C172.858 118.114 173.667 117.315 174.087 116.285Z" fill="#FFD506"/>
<path d="M165.416 114.199C166.22 113.45 166.901 112.635 167.46 111.78C166.574 112.405 165.841 113.256 165.416 114.199Z" fill="#FFD506"/>
<path d="M137.516 101.841C137.521 101.985 137.531 102.133 137.552 102.277C137.572 102.123 137.552 101.98 137.516 101.841Z" fill="#FFD506"/>
<path d="M210.561 108.54C209.373 108.817 208.215 109.212 207.125 109.735C208.313 109.468 209.46 109.053 210.561 108.54Z" fill="#F2790A"/>
<path d="M239.946 117.827C245.201 113.379 245.437 104.706 241.498 99.053C237.559 93.3997 230.45 90.5961 223.566 90.3859C222.844 90.3654 222.122 90.3706 221.399 90.3962C221.466 91.1804 221.497 91.9748 221.456 92.7641C221.092 99.4836 216.621 105.716 210.561 108.54C216.057 107.254 222.245 108.612 225.722 112.984C229.958 118.304 227.925 127.822 221.394 129.713C228.657 129.032 236.176 132.081 240.909 137.637C245.258 142.742 247.178 149.979 245.37 156.437C243.562 162.895 237.846 168.231 231.198 169.046C234.107 178.528 232.371 189.701 225.471 196.825C218.572 203.95 206.341 205.8 198.427 199.819C189.986 206.41 176.562 205.329 169.278 197.476C172.659 208.435 168.848 221.258 160.033 228.588C157.605 230.607 154.675 232.278 151.52 232.283C148.365 232.288 145.056 230.166 144.595 227.04C136.994 230.453 127.355 227.568 122.166 221.048C116.977 214.529 116.143 205.098 119.257 197.364C109.433 207.609 91.0192 207.707 81.0928 197.558C71.1612 187.41 71.6427 168.994 82.0865 159.379C75.6993 161.014 68.8666 162.639 62.6434 160.471C59.5395 159.389 56.8043 156.945 55.2472 154.059C55.0423 155.058 54.9399 156.084 54.986 157.139C55.3036 164.351 62.4539 170.035 69.6605 170.25C64.3592 180.834 66.7666 194.745 75.3101 202.93C83.8587 211.115 97.8519 212.909 108.188 207.148C105.422 211.797 105.893 217.86 108.275 222.724C110.652 227.583 114.693 231.427 118.934 234.779C127.452 241.519 137.506 246.865 148.339 247.649C159.172 248.438 170.794 243.943 176.48 234.682C180.997 227.322 181.279 218.214 181.376 209.572C188.327 215.626 197.946 217.968 207.15 217.527C216.354 217.086 225.246 214.088 233.738 210.505C240.023 207.855 246.466 204.616 250.241 198.932C252.966 194.827 254.016 189.84 254.564 184.945C255.363 177.8 254.974 169.871 250.246 164.458C260.741 161.875 266.299 148.862 263.164 138.514C260.04 128.176 250.313 120.877 239.946 117.827Z" fill="#F2790A"/>
<path d="M191.538 144.367C187.625 140.917 182.206 139.247 177.038 139.892C178.503 138.673 179.978 137.391 180.905 135.72C181.832 134.055 182.108 131.897 181.13 130.262C180.101 128.534 177.985 127.796 175.998 127.463C172.044 126.797 167.91 127.233 164.181 128.698C165.79 127.289 166.865 124.993 166.107 122.994C165.354 120.995 162.245 120.129 160.996 121.861C165.216 115.998 160.596 107.023 153.144 106.546C148.631 106.259 143.924 108.161 141.245 111.805C138.561 115.449 138.223 120.8 140.794 124.521C139.954 123.793 138.7 124.757 138.167 125.731C136.031 129.626 137.061 134.977 140.492 137.796C134.633 139.334 128.476 141.035 124.179 145.31C119.876 149.585 118.381 157.319 122.673 161.599C126.796 165.709 133.644 164.694 139.171 162.88C136.39 166.355 136.451 171.875 139.483 175.13C142.515 178.389 148.221 178.753 151.494 175.74C154.972 172.546 155.049 167.165 156.99 162.859C157.528 165.294 158.138 167.857 159.859 169.656C161.58 171.455 164.812 172.06 166.497 170.225C166.092 173.751 169.831 176.349 173.288 177.159C179.353 178.574 186.283 176.872 190.329 172.136C194.376 167.401 194.75 159.62 190.514 155.048C192.895 155.381 194.97 152.896 194.934 150.487C194.898 148.088 193.341 145.956 191.538 144.367Z" fill="#FFF87B"/>
<path d="M146.936 161.798C146.388 161.624 145.85 161.363 145.481 160.922C145.071 160.425 144.923 159.764 144.846 159.123C144.549 156.642 145.133 154.059 146.47 151.947C143.683 152.603 140.533 153.095 138.136 151.522C137.122 150.856 136.297 149.523 136.881 148.457C137.214 147.847 137.911 147.524 138.587 147.36C140.672 146.853 143.002 147.504 144.518 149.026C143.135 147.642 142.454 145.705 140.523 144.628C138.638 143.583 136.344 143.736 134.505 144.915C132.738 146.048 131.58 148.042 131.334 150.128C131.14 151.773 131.539 153.562 132.702 154.741C134.766 156.832 138.234 156.314 141.02 155.392C139.535 157.601 139.365 160.661 140.702 162.962C142.039 165.263 144.851 166.647 147.474 166.191C150.096 165.735 152.309 163.413 152.534 160.758C150.992 161.988 148.826 162.393 146.936 161.798Z" fill="white"/>
<path d="M149.968 114.819C148.068 115.337 146.521 116.905 145.886 118.771C145.251 120.636 145.486 122.748 146.372 124.511C144.692 124.173 143.243 126.1 143.412 127.807C143.811 131.753 147.166 132.066 149.937 133.532C148.764 132.891 147.566 132.23 146.659 131.246C145.753 130.262 145.164 128.878 145.466 127.576C145.712 126.515 146.562 125.618 147.602 125.305C148.467 125.049 149.43 125.213 150.183 125.705C149.312 124.89 148.928 123.578 149.2 122.404C149.512 121.046 150.629 119.939 151.95 119.509C154.086 118.812 156.652 119.99 157.523 122.056C157.779 120.011 157.103 117.843 155.648 116.392C154.194 114.942 151.955 114.281 149.968 114.819Z" fill="white"/>
<path d="M150.634 126.054C150.501 125.921 150.347 125.813 150.188 125.71C150.327 125.839 150.47 125.956 150.634 126.054Z" fill="white"/>
<path d="M177.181 149.498C178.452 151.01 179.563 152.742 179.865 154.695C180.173 156.648 179.517 158.846 177.868 159.933C176.223 161.025 173.606 160.543 172.807 158.739C171.737 160.076 170.108 160.912 168.412 161.163C166.927 161.383 165.314 161.143 164.156 160.189C162.999 159.236 162.456 157.473 163.173 156.155C162.159 157.375 161.723 159.015 161.959 160.579C161.882 160.379 161.785 159.974 161.733 159.784C160.97 161.373 163.096 163.193 164.545 163.587C166.415 164.1 168.412 163.521 170.164 162.701C170.277 165.33 172.602 167.575 175.209 167.954C177.811 168.333 180.495 167.062 182.18 165.038C184.239 162.562 184.89 158.995 183.881 155.935C182.882 152.86 180.275 150.389 177.181 149.498Z" fill="white"/>
<path d="M152.145 143.916C152.166 144.295 152.212 144.675 152.314 145.044C152.263 144.669 152.201 144.295 152.145 143.916Z" fill="white"/>
<path d="M167.931 138.857C165.744 137.929 163.167 138.257 161.037 139.313C161.769 137.586 160.391 135.474 158.573 134.998C156.755 134.521 154.803 135.346 153.431 136.628C151.341 138.575 151.74 141.297 152.145 143.911C152.063 142.194 152.801 140.431 154.153 139.359C154.829 138.826 155.73 138.447 156.55 138.709C157.431 138.99 157.958 139.949 158.025 140.877C158.092 141.804 157.789 142.711 157.487 143.588C159.024 142.916 160.668 142.23 162.327 142.476C163.987 142.722 165.57 144.305 165.155 145.935C164.976 146.643 164.468 147.217 163.91 147.683C161.795 149.446 158.824 149.933 156.099 149.518C158.189 151.01 160.857 151.671 163.403 151.322C165.949 150.974 168.341 149.626 169.954 147.627C170.687 146.72 171.276 145.653 171.429 144.495C171.747 142.143 170.118 139.785 167.931 138.857Z" fill="white"/>
<path d="M118.596 168.031C118.023 168.139 117.449 168.18 116.87 168.19C117.449 168.236 118.028 168.19 118.596 168.031Z" fill="#FFF87B"/>
<path d="M114.068 142.993C116.706 141.041 119.902 139.641 123.18 139.826C118.166 139.539 112.076 139.949 108.439 143.972C104.936 147.852 103.543 154.238 105.069 159.195C106.631 164.274 111.656 168.241 116.87 168.185C114.821 168.016 112.849 166.637 111.692 164.863C110.211 162.593 109.771 159.815 109.397 157.129C108.956 153.977 108.593 150.625 109.909 147.729C110.795 145.802 112.363 144.254 114.068 142.993Z" fill="#FFF87B"/>
<path d="M143.043 100.473C141.209 101.483 140.005 103.548 140.041 105.644C135.759 105.275 131.216 106.552 128.23 109.642C123.067 114.988 125.331 121.948 129.398 127.017C126.991 124.019 126.156 119.821 127.231 116.131C128.307 112.436 131.267 109.35 134.909 108.115C136.968 107.418 139.473 107.382 141.076 108.853C140.538 106.654 141.204 104.194 142.787 102.574C144.369 100.955 146.807 100.227 149.02 100.714C147.268 99.5605 144.876 99.4683 143.043 100.473Z" fill="#FFF87B"/>
<path d="M216.912 143.998C214.367 140.825 210.3 139.144 206.248 138.821C202.197 138.498 198.145 139.416 194.289 140.697C199.339 139.021 204.676 140.133 208.891 143.234C211.422 145.095 213.409 147.873 213.752 150.994C214.095 154.115 212.513 157.519 209.639 158.785C211.514 160.65 211.386 163.997 209.67 166.012C207.954 168.026 205.019 168.749 202.427 168.21C203.518 171.034 200.64 174.51 197.669 173.961C199.59 175.857 202.975 175.991 205.045 174.258C205.378 173.976 205.685 173.659 206.054 173.423C206.633 173.059 207.324 172.936 207.995 172.803C211.201 172.162 214.505 170.988 216.559 168.446C218.618 165.904 218.854 161.681 216.318 159.61C220.196 155.463 220.462 148.421 216.912 143.998Z" fill="#FFF87B"/>
<path d="M138.008 71.914C132.594 70.4174 126.694 71.2579 121.572 73.5644C116.695 75.7632 112.132 79.7559 111.343 85.0504C108.065 84.1176 104.459 84.0048 101.314 85.3221C98.4663 86.5112 96.1922 88.7766 94.3431 91.2471C90.4658 96.4186 88.1199 102.892 88.5911 109.345C88.9241 113.886 90.7424 118.371 93.8053 121.754C96.9195 125.193 101.391 125.557 104.818 128.258C98.4561 123.245 94.5326 114.885 95.89 106.895C97.2422 98.9096 104.459 91.9902 112.557 92.0159C115.564 92.0261 118.965 93.3075 119.912 96.1675C118.575 90.8729 121.116 85.0504 125.418 81.6882C129.721 78.3259 135.483 77.2137 140.912 77.7672C144.523 78.1311 148.442 79.4894 150.076 82.7286C148.242 77.4187 143.422 73.4106 138.008 71.914Z" fill="#FFAD08"/>
<path d="M82.2603 142.542C83.4691 141.532 85.0057 140.999 86.5218 140.579C89.9791 139.626 93.5645 139.149 97.1448 139.159C94.4762 139.149 91.7564 138.006 88.9752 138.047C86.3015 138.088 83.3052 138.386 80.8261 139.446C77.4712 140.876 72.4261 143.383 72.1392 147.524C71.8985 151.025 75.9193 154.064 79.2127 152.88C78.7261 153.9 80.3037 154.602 81.4305 154.638C83.4025 154.705 85.3744 154.771 87.3464 154.843C84.473 158.093 82.46 162.101 81.5739 166.35C81.0822 168.713 80.9439 171.245 81.8352 173.489C82.9364 176.262 85.4974 178.251 88.2684 179.343C91.0394 180.44 94.0511 180.757 97.0167 181.065C91.065 179.85 87.3054 173.295 87.6128 167.226C87.9201 161.153 91.403 155.679 95.5314 151.214C93.1138 151.696 90.6296 151.855 88.171 151.681C87.4284 151.63 86.6396 151.527 86.0608 151.061C85.482 150.594 85.2413 149.631 85.7637 149.098C83.8225 150.297 80.8568 148.949 80.4727 146.699C80.2166 145.141 81.0515 143.557 82.2603 142.542Z" fill="#FFAD08"/>
<path d="M205.762 49.9158C206.95 55.0617 212.682 54.4415 214.956 51.0382C222.49 39.7931 224.278 23.4584 233.999 13.6586C227.925 19.7783 221.84 25.9083 216.334 32.556C213.347 36.154 204.594 44.8467 205.762 49.9158Z" fill="#FFDA00"/>
<path d="M213.363 40.2339C211.934 41.8996 208.343 45.0774 208.492 47.5017C208.61 49.4596 210.966 49.7159 212.185 48.578C214.126 46.7688 215.14 42.9401 216.211 40.5619C217.419 37.8813 218.674 35.1956 220.359 32.7764C218.49 35.457 215.514 37.7275 213.363 40.2339Z" fill="#FF6903"/>
<path d="M30.6512 207.476C20.3458 214.841 11.6948 228.762 0.539062 234.067C7.50497 230.751 14.4914 227.435 21.3036 223.457C24.9966 221.299 34.9844 216.64 36.4801 211.715C38.0013 206.707 33.7654 205.247 30.6512 207.476Z" fill="#FFDA00"/>
<path d="M31.4451 210.644C29.2836 211.571 26.8456 214.626 25.0272 216.364C22.9733 218.327 20.8938 220.274 18.6299 221.838C21.1397 220.11 24.2231 219.136 26.8456 217.66C28.587 216.681 32.5054 215.113 33.5041 212.904C34.3083 211.115 32.8024 210.059 31.4451 210.644Z" fill="#FF6903"/>
<path d="M249.637 231.089C246.784 231.381 246.123 235.784 247.48 237.906C251.972 244.917 260.07 248.177 263.441 256.67C261.335 251.365 259.225 246.05 256.756 241.109C255.409 238.434 252.444 230.802 249.637 231.089Z" fill="#FFDA00"/>
<path d="M250.41 233.436C249.381 233.298 248.848 235.046 249.222 236.102C249.821 237.778 251.614 238.998 252.654 240.084C253.827 241.314 254.989 242.57 255.947 244.133C254.887 242.406 254.231 239.889 253.315 237.972C252.7 236.691 251.681 233.606 250.41 233.436Z" fill="#FF6903"/>
<path d="M257.771 104.389C257.591 107.254 261.817 108.632 264.132 107.643C271.784 104.368 276.333 96.9157 285.26 94.9885C279.688 96.193 274.1 97.3975 268.824 99.0222C265.966 99.8987 257.95 101.57 257.771 104.389Z" fill="#FFDA00"/>
<path d="M260.209 104.015C259.901 105.004 261.54 105.824 262.636 105.624C264.388 105.311 265.884 103.738 267.128 102.892C268.532 101.939 269.966 100.996 271.661 100.309C269.787 101.067 267.195 101.303 265.151 101.893C263.799 102.292 260.588 102.79 260.209 104.015Z" fill="#FF6903"/>
<path d="M36.3829 64.7692C29.2582 60.4638 20.5559 61.1096 13.7847 54.9796C18.0154 58.8083 22.2513 62.6472 26.646 65.989C29.0277 67.7983 35.0614 73.3389 37.4534 71.8371C39.8812 70.3149 38.5392 66.071 36.3829 64.7692Z" fill="#FFDA00"/>
<path d="M30.7793 65.1024C29.1864 64.5181 27.5832 63.903 26.0415 62.9241C27.7522 64.0055 29.4527 65.9737 31.1225 67.2909C32.234 68.1622 34.5082 70.4841 35.7272 70.074C36.7106 69.746 36.4187 67.9367 35.6196 67.1577C34.3391 65.9173 32.193 65.62 30.7793 65.1024Z" fill="#FF6903"/>
<path d="M286.151 125.582C285.691 127.95 289.619 130.288 291.944 130.093C299.633 129.447 304.755 124.414 313.534 125.26C308.053 124.732 302.557 124.199 297.323 124.106C294.48 124.065 286.602 123.25 286.151 125.582Z" fill="#FFDA00"/>
<path d="M293.501 125.526C292.159 125.48 289.02 125.013 288.533 125.941C288.139 126.694 289.629 127.837 290.71 127.976C292.426 128.196 294.024 127.284 295.304 126.915C296.749 126.5 298.224 126.1 299.924 125.992C298.034 126.11 295.525 125.592 293.501 125.526Z" fill="#FF6903"/>
<path d="M208.257 266.814C209.427 269.204 206.577 273.014 201.877 275.314C197.177 277.614 192.427 277.554 191.247 275.164C191.187 275.054 191.147 274.934 191.107 274.814C191.037 274.714 190.967 274.604 190.917 274.494C189.747 272.104 192.597 268.294 197.297 265.994C201.997 263.684 206.757 263.754 207.927 266.144C207.977 266.254 208.027 266.374 208.067 266.494C208.137 266.594 208.197 266.694 208.257 266.814Z" fill="#38778A"/>
<path d="M302.917 153.554C302.597 148.034 301.907 142.414 302.477 136.994C302.937 142.384 303.107 147.864 302.917 153.554Z" fill="#38778A"/>
<path d="M187.307 299.864C188.687 299.544 190.067 299.234 191.447 298.964C190.077 299.284 188.697 299.594 187.307 299.864Z" fill="#384769"/>
<path d="M208.257 266.814C209.427 269.204 206.577 273.014 201.877 275.314C197.177 277.614 192.427 277.554 191.247 275.164C191.187 275.054 191.147 274.934 191.107 274.814C191.037 274.714 190.967 274.604 190.917 274.494C189.747 272.104 192.597 268.294 197.297 265.994C201.997 263.684 206.757 263.754 207.927 266.144C207.977 266.254 208.027 266.374 208.067 266.494C208.137 266.594 208.197 266.694 208.257 266.814Z" fill="#384769"/>
<path d="M287.497 142.204C286.517 148.514 282.517 153.144 278.567 152.524C278.377 152.494 278.197 152.454 278.017 152.404C277.827 152.394 277.647 152.384 277.457 152.354C275.987 152.124 274.737 151.204 273.787 149.804C270.297 153.054 266.407 156.014 263.547 159.804C257.467 167.854 255.447 177.234 254.327 186.904C257.347 187.164 260.097 188.144 262.397 189.914C262.867 190.274 263.317 190.664 263.737 191.084C264.247 191.384 264.737 191.704 265.217 192.074C275.237 199.754 273.087 219.374 260.417 235.904C247.747 252.434 229.367 259.604 219.347 251.924C218.877 251.564 218.427 251.174 218.007 250.754C217.497 250.454 217.007 250.124 216.527 249.764C215.677 249.114 214.907 248.374 214.237 247.554C199.497 247.144 183.977 239.964 169.227 242.994C151.437 246.654 139.537 264.024 122.427 270.084C118.907 271.334 115.417 272.154 111.957 272.624C112.187 272.724 112.427 272.814 112.657 272.914C113.057 273.064 113.457 273.214 113.857 273.374C122.377 276.754 128.237 282.104 126.957 285.334C125.677 288.554 117.737 288.434 109.217 285.044C108.817 284.884 108.417 284.724 108.027 284.554C107.627 284.404 107.227 284.254 106.827 284.094C98.3071 280.714 92.4471 275.354 93.7271 272.134C93.7371 272.114 93.7471 272.094 93.7571 272.064C87.4171 270.924 81.1471 268.894 74.9471 266.404C62.3371 261.334 50.1971 255.154 39.5271 246.764C38.1571 244.164 36.9071 241.504 35.7271 238.834C31.5071 229.274 23.2471 222.864 17.5671 214.024C12.7771 206.574 9.4171 197.954 9.5471 189.104C9.5671 187.624 9.6871 186.154 9.8771 184.704C13.6771 191.654 19.3171 196.014 25.8471 200.784C33.6571 206.484 41.6771 211.464 50.9871 214.574C54.1071 215.614 57.3471 216.404 60.6371 216.914C61.6171 217.064 62.5971 217.194 63.5871 217.304C75.8571 218.574 88.4971 215.924 97.5971 207.944C97.6871 207.874 97.7771 207.794 97.8671 207.714C98.0771 207.534 98.2771 207.344 98.4771 207.154C103.087 202.824 106.487 197.294 111.297 193.194C122.787 183.384 139.507 183.604 154.577 184.554C174.157 185.784 196.477 186.394 210.187 172.364C218.297 164.064 221.517 152.304 224.447 141.074C228.257 126.464 232.067 110.954 227.707 96.4941C225.887 90.4841 222.657 84.5041 223.597 78.2941C224.317 73.5241 227.337 69.6141 229.957 65.7241C237.687 54.2241 236.387 41.9041 232.207 29.9441C235.437 31.1741 238.587 32.6341 241.587 34.4341C250.477 39.7641 257.357 47.7241 263.887 55.8341C263.927 55.9041 263.957 55.9641 263.997 56.0341C267.667 62.6041 270.537 69.4641 272.997 76.5741C278.227 91.7141 281.547 107.514 282.607 123.494C282.747 125.574 282.837 127.684 282.797 129.794C286.347 130.914 288.427 136.254 287.497 142.204Z" fill="#384769"/>
<path d="M303.067 158.054C303.067 163.234 302.787 168.404 302.237 173.544C302.277 169.274 302.317 165.084 302.547 161.084C302.627 159.624 302.717 158.154 302.787 156.684C302.847 155.634 302.887 154.594 302.917 153.554C303.017 155.064 303.067 156.564 303.067 158.054Z" fill="#384769"/>
<path d="M126.957 285.354C125.677 288.574 117.737 288.454 109.217 285.064C108.817 284.904 108.417 284.744 108.027 284.574C107.627 284.424 107.227 284.274 106.827 284.114C98.3072 280.734 92.4472 275.374 93.7272 272.154C93.7372 272.134 93.7472 272.114 93.7572 272.084C94.6572 272.254 95.5472 272.394 96.4472 272.514C101.527 273.224 106.647 273.334 111.847 272.644C111.877 272.644 111.917 272.634 111.947 272.634C112.177 272.734 112.417 272.824 112.647 272.924C113.047 273.074 113.447 273.224 113.847 273.384C122.367 276.774 128.237 282.134 126.957 285.354Z" fill="#452E61"/>
<path d="M187.307 299.864C188.687 299.544 190.067 299.234 191.447 298.964C190.077 299.284 188.697 299.594 187.307 299.864Z" fill="#452E61"/>
<path d="M208.257 266.814C209.427 269.204 206.577 273.014 201.877 275.314C197.177 277.614 192.427 277.554 191.247 275.164C191.187 275.054 191.147 274.934 191.107 274.814C191.037 274.714 190.967 274.604 190.917 274.494C189.747 272.104 192.597 268.294 197.297 265.994C201.997 263.684 206.757 263.754 207.927 266.144C207.977 266.254 208.027 266.374 208.067 266.494C208.137 266.594 208.197 266.694 208.257 266.814Z" fill="#452E61"/>
<path d="M260.417 235.914C247.747 252.444 229.367 259.614 219.347 251.934C218.877 251.574 218.427 251.184 218.007 250.764C217.497 250.464 217.007 250.134 216.527 249.774C215.677 249.124 214.907 248.384 214.237 247.564C214.677 247.574 215.127 247.584 215.567 247.584C219.587 247.584 223.537 247.024 227.407 245.584C237.237 241.894 243.917 233.164 247.947 223.224C248.067 222.934 248.187 222.644 248.287 222.354C248.287 222.354 248.287 222.354 248.287 222.344C249.627 218.894 250.647 215.304 251.377 211.754C251.387 211.714 251.387 211.684 251.397 211.644C251.517 211.054 251.627 210.454 251.737 209.854C252.957 203.054 253.347 195.994 254.077 189.044C254.147 188.334 254.227 187.624 254.317 186.924C257.337 187.184 260.087 188.164 262.387 189.934C262.857 190.294 263.307 190.684 263.727 191.104C264.237 191.404 264.727 191.724 265.207 192.094C275.227 199.754 273.087 219.384 260.417 235.914Z" fill="#452E61"/>
<path d="M287.497 142.204C286.517 148.514 282.517 153.144 278.567 152.524C278.377 152.494 278.197 152.454 278.017 152.404C277.827 152.394 277.647 152.384 277.457 152.354C275.987 152.124 274.737 151.204 273.787 149.804C274.007 149.604 274.217 149.404 274.427 149.204C276.637 147.094 278.637 144.834 280.067 142.134C282.007 138.454 282.677 134.324 282.787 130.134C282.787 130.024 282.787 129.914 282.787 129.804C286.347 130.914 288.427 136.254 287.497 142.204Z" fill="#452E61"/>
<path d="M302.917 153.554C302.597 148.034 301.907 142.414 302.477 136.994C302.937 142.384 303.107 147.864 302.917 153.554Z" fill="#452E61"/>
<path d="M302.787 156.684C302.847 155.634 302.887 154.594 302.917 153.554C303.007 155.064 303.067 156.564 303.067 158.054C303.067 163.234 302.787 168.404 302.237 173.544C302.277 169.274 302.317 165.084 302.547 161.084C302.627 159.614 302.717 158.154 302.787 156.684Z" fill="#452E61"/>
<path d="M189.447 84.414C190.107 84.944 190.737 85.504 191.347 86.074C177.397 76.634 157.547 80.2139 145.897 94.6839C134.247 109.154 134.987 129.304 147.177 140.924C146.487 140.454 145.807 139.954 145.147 139.424C131.157 128.154 129.727 106.714 141.957 91.524C154.197 76.324 175.457 73.144 189.447 84.414Z" fill="#384769"/>
<path d="M191.347 86.074C203.547 97.684 204.287 117.844 192.637 132.314C180.977 146.784 161.137 150.354 147.187 140.924C134.997 129.304 134.247 109.154 145.907 94.684C157.547 80.214 177.397 76.634 191.347 86.074Z" fill="#38778A"/>
<path d="M193.377 87.574C207.367 98.844 208.787 120.284 196.557 135.484C184.327 150.684 163.067 153.854 149.077 142.594C148.417 142.064 147.787 141.504 147.177 140.934C161.127 150.374 180.977 146.804 192.627 132.324C204.287 117.854 203.537 97.694 191.337 86.084C192.037 86.544 192.707 87.044 193.377 87.574Z" fill="#00A89D"/>
<path d="M137.217 150.584C137.387 150.724 137.557 150.864 137.707 151.014C134.107 148.544 129.167 149.234 126.387 152.684C123.607 156.134 123.997 161.114 127.167 164.104C126.987 163.984 126.817 163.854 126.647 163.714C123.027 160.794 122.447 155.494 125.367 151.864C128.287 148.234 133.597 147.664 137.217 150.584Z" fill="#384769"/>
<path d="M137.717 151.014C140.897 154.004 141.287 158.974 138.497 162.434C135.717 165.884 130.767 166.564 127.177 164.104C123.997 161.114 123.617 156.144 126.397 152.684C129.177 149.224 134.117 148.544 137.717 151.014Z" fill="#38778A"/>
<path d="M138.237 151.404C141.857 154.324 142.437 159.624 139.517 163.254C136.597 166.874 131.297 167.454 127.677 164.534C127.507 164.394 127.338 164.254 127.188 164.104C130.777 166.574 135.728 165.884 138.508 162.434C141.288 158.984 140.898 154.004 137.728 151.014C137.888 151.134 138.067 151.264 138.237 151.404Z" fill="#00A89D"/>
<path d="M207.157 60.504C207.347 60.654 207.537 60.8141 207.717 60.9741C203.797 58.0541 199.567 57.1641 198.067 59.0241C196.567 60.8841 198.337 64.8241 202.027 68.0341C201.837 67.8941 201.637 67.7341 201.447 67.5841C197.377 64.3041 195.347 60.064 196.927 58.104C198.497 56.154 203.077 57.224 207.157 60.504Z" fill="#384769"/>
<path d="M207.717 60.9741C211.407 64.1741 213.177 68.124 211.677 69.984C210.177 71.844 205.947 70.9641 202.027 68.0341C198.337 64.8341 196.567 60.8941 198.067 59.0241C199.567 57.1641 203.797 58.0541 207.717 60.9741Z" fill="#38778A"/>
<path d="M208.297 61.4241C212.367 64.7041 214.397 68.9441 212.817 70.9041C211.247 72.8641 206.667 71.7841 202.587 68.5041C202.397 68.3441 202.207 68.1941 202.027 68.0341C205.947 70.9541 210.177 71.8441 211.677 69.9841C213.177 68.1241 211.407 64.1841 207.717 60.9741C207.907 61.1241 208.107 61.2741 208.297 61.4241Z" fill="#00A89D"/>
<path d="M198.177 33.1241C198.507 33.3041 198.847 33.4941 199.167 33.6741C192.427 30.2841 186.057 29.5841 184.667 32.1741C183.277 34.7541 187.357 39.6941 193.887 43.4641C193.557 43.2941 193.217 43.1241 192.887 42.9441C185.787 39.1141 181.207 33.8041 182.677 31.0941C184.127 28.3841 191.067 29.2941 198.177 33.1241Z" fill="#384769"/>
<path d="M199.168 33.6741C205.698 37.4441 209.788 42.3841 208.388 44.9641C206.998 47.5441 200.628 46.8441 193.888 43.4541C187.358 39.6841 183.268 34.7441 184.668 32.1641C186.058 29.5841 192.418 30.2941 199.168 33.6741Z" fill="#38778A"/>
<path d="M200.167 34.1941C207.267 38.0241 211.847 43.3341 210.377 46.0441C208.917 48.7541 201.967 47.8441 194.867 44.0141C194.527 43.8341 194.197 43.6441 193.877 43.4641C200.617 46.8541 206.987 47.5541 208.377 44.9741C209.767 42.3941 205.687 37.4541 199.157 33.6841C199.497 33.8441 199.837 34.0141 200.167 34.1941Z" fill="#00A89D"/>
<path d="M191.067 103.304C191.307 103.494 191.537 103.694 191.757 103.904C186.727 100.454 179.807 101.404 175.917 106.244C172.027 111.074 172.567 118.044 177.017 122.214C176.767 122.044 176.527 121.864 176.287 121.664C171.217 117.584 170.417 110.164 174.497 105.084C178.577 100.024 185.997 99.2141 191.067 103.304Z" fill="#384769"/>
<path d="M191.757 103.904C196.207 108.084 196.747 115.044 192.857 119.884C188.967 124.714 182.047 125.674 177.017 122.214C172.567 118.034 172.027 111.074 175.917 106.244C179.807 101.404 186.727 100.454 191.757 103.904Z" fill="#38778A"/>
<path d="M192.497 104.444C197.567 108.524 198.367 115.944 194.287 121.024C190.207 126.104 182.787 126.894 177.717 122.814C177.477 122.624 177.247 122.424 177.027 122.214C182.057 125.664 188.977 124.714 192.867 119.884C196.757 115.054 196.217 108.084 191.767 103.904C192.007 104.074 192.257 104.254 192.497 104.444Z" fill="#00A89D"/>
<path d="M93.7672 204.824C94.2972 205.194 94.8072 205.574 95.3072 205.974C84.4272 199.234 71.6472 199.934 66.1172 207.824C60.5872 215.714 64.3072 227.954 74.3572 235.884C73.8172 235.554 73.2772 235.194 72.7572 234.824C61.5572 226.974 57.1672 213.904 62.9772 205.614C68.7772 197.334 82.5672 196.984 93.7672 204.824Z" fill="#452E61"/>
<path d="M95.3171 205.974C105.367 213.894 109.087 226.144 103.557 234.034C98.0271 241.924 85.2571 242.624 74.3671 235.884C64.3171 227.964 60.5971 215.714 66.1271 207.824C71.6571 199.934 84.4271 199.234 95.3171 205.974Z" fill="#384769"/>
<path d="M96.9172 207.034C108.117 214.884 112.497 227.954 106.697 236.244C100.897 244.524 87.1072 244.884 75.9072 237.034C75.3772 236.664 74.8672 236.284 74.3672 235.884C85.2472 242.624 98.0272 241.924 103.557 234.034C109.087 226.144 105.367 213.894 95.3172 205.974C95.8472 206.304 96.3872 206.664 96.9172 207.034Z" fill="#38778A"/>
<path d="M41.6174 175.924C41.6574 176.104 41.6974 176.284 41.7374 176.454C40.6774 172.984 37.9774 170.704 35.5274 171.314C33.0774 171.924 31.7574 175.194 32.4474 178.764C32.3974 178.594 32.3474 178.414 32.2974 178.234C31.3574 174.464 32.6874 170.894 35.2574 170.254C37.8374 169.624 40.6774 172.154 41.6174 175.924Z" fill="#384769"/>
<path d="M41.7375 176.454C42.4275 180.024 41.1075 183.294 38.6575 183.904C36.2075 184.514 33.5075 182.244 32.4475 178.764C31.7575 175.194 33.0775 171.924 35.5275 171.314C37.9775 170.704 40.6775 172.984 41.7375 176.454Z" fill="#38778A"/>
<path d="M41.8873 176.984C42.8273 180.754 41.4973 184.324 38.9273 184.964C36.3573 185.604 33.5073 183.074 32.5673 179.304C32.5273 179.124 32.4873 178.944 32.4473 178.774C33.5073 182.244 36.2073 184.524 38.6573 183.914C41.1073 183.304 42.4273 180.024 41.7373 176.464C41.7873 176.624 41.8373 176.804 41.8873 176.984Z" fill="#00A89D"/>
<path d="M74.7174 157.904C74.8974 158.204 75.0674 158.514 75.2174 158.824C71.2374 153.044 63.8574 151.004 58.2774 154.304C52.6874 157.604 50.9174 165.054 54.0574 171.324C53.8574 171.034 53.6674 170.744 53.4874 170.434C49.6774 163.984 51.3474 155.954 57.2074 152.494C63.0774 149.044 70.9174 151.464 74.7174 157.904Z" fill="#384769"/>
<path d="M75.2274 158.834C78.3674 165.104 76.5874 172.554 71.0074 175.854C65.4174 179.154 58.0374 177.114 54.0674 171.334C50.9274 165.064 52.7074 157.614 58.2874 154.314C63.8674 151.014 71.2474 153.054 75.2274 158.834Z" fill="#38778A"/>
<path d="M75.7876 159.714C79.5976 166.164 77.9276 174.194 72.0676 177.654C66.2076 181.114 58.3676 178.694 54.5576 172.254C54.3776 171.954 54.2076 171.644 54.0576 171.334C58.0376 177.114 65.4176 179.154 70.9976 175.854C76.5876 172.554 78.3576 165.104 75.2176 158.834C75.4176 159.114 75.6076 159.414 75.7876 159.714Z" fill="#00A89D"/>
<path d="M259.437 78.954C259.717 79.194 259.997 79.434 260.257 79.684C254.367 75.334 247.017 75.184 243.437 79.484C239.857 83.784 241.357 90.984 246.697 95.984C246.407 95.764 246.117 95.544 245.837 95.304C239.827 90.304 237.997 82.5941 241.747 78.0841C245.507 73.554 253.427 73.954 259.437 78.954Z" fill="#452E61"/>
<path d="M260.257 79.674C265.607 84.664 267.097 91.874 263.517 96.174C259.937 100.474 252.587 100.314 246.697 95.9641C241.347 90.9641 239.857 83.7641 243.437 79.4641C247.017 75.1741 254.377 75.334 260.257 79.674Z" fill="#384769"/>
<path d="M261.127 80.3541C267.137 85.3541 268.967 93.0641 265.217 97.5741C261.467 102.084 253.547 101.694 247.537 96.6941C247.257 96.4541 246.977 96.2141 246.717 95.9641C252.597 100.314 259.957 100.474 263.537 96.1741C267.117 91.8741 265.617 84.6741 260.277 79.6741C260.557 79.8941 260.837 80.1241 261.127 80.3541Z" fill="#38778A"/>
<path d="M278.027 152.414C277.837 152.404 277.657 152.394 277.467 152.364C275.997 152.134 274.747 151.214 273.797 149.814C272.197 147.464 271.487 143.774 272.107 139.814C273.087 133.504 277.087 128.874 281.037 129.494C281.227 129.524 281.407 129.564 281.587 129.614C277.827 129.494 274.157 133.974 273.217 139.994C272.657 143.544 273.177 146.884 274.447 149.224C275.317 150.834 276.547 151.984 278.027 152.414Z" fill="#452E61"/>
<path d="M281.577 129.604C285.197 130.634 287.327 136.014 286.387 142.034C285.447 148.054 281.777 152.534 278.017 152.414C274.397 151.384 272.267 146.004 273.207 139.984C274.147 133.964 277.827 129.484 281.577 129.604Z" fill="#384769"/>
<path d="M287.498 142.204C286.518 148.514 282.518 153.144 278.568 152.524C278.378 152.494 278.198 152.454 278.018 152.404C281.768 152.524 285.448 148.044 286.378 142.024C287.208 136.714 285.648 131.904 282.788 130.134C282.408 129.894 281.998 129.714 281.568 129.594C281.748 129.604 281.938 129.614 282.128 129.644C282.358 129.684 282.578 129.734 282.788 129.794C286.348 130.914 288.428 136.254 287.498 142.204Z" fill="#38778A"/>
<path d="M261.237 142.734C261.327 142.744 261.418 142.764 261.508 142.794C259.628 142.734 257.797 144.974 257.327 147.984C256.857 150.994 257.927 153.684 259.737 154.194C259.647 154.194 259.547 154.184 259.457 154.164C257.487 153.854 256.288 151.044 256.778 147.884C257.268 144.744 259.267 142.434 261.237 142.734Z" fill="#452E61"/>
<path d="M261.518 142.794C263.328 143.304 264.398 146.004 263.928 149.014C263.458 152.024 261.628 154.264 259.748 154.204C257.938 153.694 256.868 150.994 257.338 147.994C257.798 144.974 259.638 142.734 261.518 142.794Z" fill="#384769"/>
<path d="M261.798 142.824C263.768 143.134 264.968 145.944 264.478 149.104C263.988 152.264 261.988 154.574 260.018 154.264C259.928 154.254 259.838 154.234 259.748 154.204C261.628 154.264 263.458 152.024 263.928 149.014C264.398 146.004 263.328 143.314 261.518 142.794C261.608 142.804 261.698 142.814 261.798 142.824Z" fill="#38778A"/>
<path d="M70.2471 72.6141C70.5171 72.7941 70.7671 72.9941 71.0071 73.2041C65.3271 70.1341 56.7571 73.6141 51.3771 81.3741C45.9971 89.1341 45.7471 98.3741 50.6171 102.624C50.3371 102.474 50.0571 102.304 49.7971 102.114C44.1471 98.2041 44.1471 88.4241 49.7971 80.2741C55.4471 72.1341 64.6071 68.7041 70.2471 72.6141Z" fill="#38778A"/>
<path d="M71.0169 73.2041C75.8869 77.4441 75.6369 86.6941 70.2569 94.4541C64.8769 102.214 56.3069 105.694 50.6269 102.624C45.7569 98.3841 46.0069 89.1441 51.3869 81.3741C56.7669 73.6141 65.3269 70.1341 71.0169 73.2041Z" fill="#00A89D"/>
<path d="M71.8369 73.7141C77.4869 77.6241 77.4869 87.4041 71.8369 95.5541C66.1869 103.704 57.0369 107.134 51.3869 103.214C51.1169 103.024 50.867 102.834 50.627 102.624C56.307 105.694 64.8769 102.214 70.2569 94.4541C75.6369 86.6941 75.897 77.4441 71.017 73.2041C71.297 73.3641 71.5669 73.5241 71.8369 73.7141Z" fill="#29E1C2"/>
<path d="M80.9173 113.234C81.0773 113.314 81.2373 113.404 81.3873 113.504C78.0173 112.144 73.8773 113.994 71.9173 117.834C69.9573 121.674 70.8973 126.104 73.9773 128.044C73.8073 127.974 73.6473 127.904 73.4773 127.814C70.0273 126.054 68.8973 121.364 70.9473 117.334C72.9973 113.304 77.4673 111.474 80.9173 113.234Z" fill="#38778A"/>
<path d="M81.3875 113.504C84.4675 115.434 85.3975 119.874 83.4475 123.714C81.4875 127.554 77.3475 129.394 73.9775 128.044C70.8975 126.114 69.9675 121.674 71.9175 117.834C73.8675 113.994 78.0175 112.144 81.3875 113.504Z" fill="#00A89D"/>
<path d="M81.8875 113.724C85.3375 115.484 86.4675 120.174 84.4175 124.204C82.3675 128.234 77.9075 130.064 74.4475 128.304C74.2875 128.224 74.1275 128.134 73.9775 128.034C77.3475 129.394 81.4875 127.544 83.4475 123.704C85.4075 119.864 84.4675 115.434 81.3875 113.494C81.5575 113.564 81.7175 113.644 81.8875 113.724Z" fill="#29E1C2"/>
<path d="M114.657 55.0539C114.777 55.1939 114.877 55.3439 114.977 55.4939C112.397 52.9639 107.267 53.504 103.197 56.834C99.1273 60.164 97.5873 65.0839 99.5573 68.1239C99.4273 67.9939 99.3073 67.864 99.1873 67.724C96.7473 64.744 98.2373 59.4939 102.507 56.0039C106.777 52.4939 112.217 52.0739 114.657 55.0539Z" fill="#38778A"/>
<path d="M114.977 55.494C116.947 58.524 115.407 63.4541 111.337 66.7841C107.267 70.1141 102.137 70.6541 99.5574 68.1241C97.5874 65.0941 99.1274 60.1641 103.197 56.8341C107.267 53.5041 112.397 52.964 114.977 55.494Z" fill="#00A89D"/>
<path d="M115.347 55.8939C117.787 58.8739 116.297 64.1239 112.027 67.6139C107.757 71.1139 102.317 71.5339 99.8771 68.5539C99.7571 68.4139 99.6571 68.2639 99.5571 68.1139C102.137 70.6439 107.267 70.1039 111.337 66.7739C115.407 63.4439 116.947 58.5239 114.977 55.4839C115.107 55.6139 115.227 55.7539 115.347 55.8939Z" fill="#29E1C2"/>
<path d="M124.057 22.784C124.077 22.834 124.087 22.884 124.087 22.944C123.577 21.994 121.137 21.874 118.467 22.694C115.797 23.514 113.847 24.984 113.957 26.054C113.927 26.004 113.907 25.954 113.897 25.904C113.567 24.824 115.567 23.244 118.377 22.384C121.177 21.524 123.727 21.704 124.057 22.784Z" fill="#38778A"/>
<path d="M124.088 22.944C124.198 24.014 122.248 25.484 119.578 26.304C116.908 27.124 114.468 27.004 113.958 26.054C113.848 24.984 115.798 23.514 118.468 22.694C121.148 21.864 123.578 21.994 124.088 22.944Z" fill="#00A89D"/>
<path d="M124.157 23.0941C124.487 24.1741 122.487 25.7541 119.677 26.6141C116.867 27.4741 114.327 27.2941 113.997 26.2141C113.977 26.1641 113.967 26.1141 113.967 26.0541C114.477 27.0041 116.917 27.1341 119.587 26.3041C122.257 25.4841 124.207 24.0141 124.097 22.9441C124.117 22.9941 124.137 23.0441 124.157 23.0941Z" fill="#29E1C2"/>
<path d="M146.487 18.2841C146.917 18.2541 147.357 18.2241 147.777 18.1941C139.187 19.0541 132.567 21.4541 132.747 23.7141C132.927 25.9741 139.847 27.2841 148.467 26.7641C148.037 26.8041 147.607 26.8441 147.177 26.8841C137.967 27.6241 130.357 26.2941 130.167 23.9241C129.977 21.5441 137.287 19.0241 146.487 18.2841Z" fill="#38778A"/>
<path d="M147.787 18.194C156.397 17.674 163.327 18.984 163.507 21.244C163.687 23.504 157.057 25.9041 148.477 26.7641C139.867 27.2841 132.937 25.9741 132.757 23.7141C132.567 21.4541 139.197 19.054 147.787 18.194Z" fill="#00A89D"/>
<path d="M149.077 18.0841C158.287 17.3441 165.897 18.6741 166.087 21.0441C166.277 23.4141 158.967 25.9341 149.767 26.6741C149.327 26.7041 148.897 26.7441 148.477 26.7641C157.067 25.9041 163.687 23.5141 163.507 21.2441C163.327 18.9741 156.407 17.6741 147.787 18.1941C148.207 18.1541 148.637 18.1141 149.077 18.0841Z" fill="#29E1C2"/>
<path d="M263.737 191.094C260.957 189.474 257.657 188.824 254.087 189.054C244.487 189.664 232.937 196.634 224.137 208.114C213.427 222.094 210.237 238.284 215.567 247.594C216.237 248.774 217.057 249.834 217.997 250.774C217.487 250.474 216.997 250.144 216.517 249.784C215.667 249.134 214.897 248.394 214.227 247.574C206.947 238.794 209.727 221.074 221.317 205.954C231.067 193.234 244.217 186.044 254.317 186.924C257.337 187.184 260.087 188.164 262.387 189.934C262.877 190.284 263.317 190.674 263.737 191.094Z" fill="#452E61"/>
<path d="M263.737 191.094C272.187 199.454 269.667 218.004 257.597 233.754C245.527 249.504 228.267 256.754 217.997 250.764C209.547 242.404 212.067 223.854 224.137 208.104C236.207 192.364 253.467 185.104 263.737 191.094Z" fill="#384769"/>
<path d="M260.417 235.914C247.747 252.444 229.367 259.614 219.347 251.934C218.877 251.574 218.427 251.184 218.007 250.764C228.277 256.754 245.537 249.494 257.607 233.754C269.677 218.004 272.197 199.444 263.747 191.094C264.257 191.394 264.747 191.714 265.227 192.084C275.227 199.754 273.087 219.384 260.417 235.914Z" fill="#38778A"/>
<path d="M112.647 272.944C112.377 272.844 112.117 272.754 111.847 272.664C104.667 270.214 98.2572 270.144 96.4472 272.534C96.3072 272.714 96.1972 272.914 96.1172 273.124C94.8972 276.194 100.167 281.204 108.027 284.594C107.627 284.444 107.227 284.294 106.827 284.134C98.3072 280.754 92.4472 275.394 93.7272 272.174C93.7372 272.154 93.7472 272.134 93.7572 272.104C95.1172 268.954 103.007 269.094 111.467 272.454C111.627 272.524 111.797 272.584 111.957 272.654C112.187 272.744 112.417 272.844 112.647 272.944Z" fill="#452E61"/>
<path d="M112.647 272.944C120.517 276.334 125.777 281.334 124.557 284.414C123.337 287.484 116.067 287.514 108.027 284.584C100.167 281.194 94.8973 276.194 96.1173 273.114C97.3373 270.034 104.607 270.014 112.647 272.944Z" fill="#384769"/>
<path d="M126.957 285.354C125.677 288.574 117.737 288.454 109.217 285.064C108.817 284.904 108.417 284.744 108.027 284.574C116.077 287.504 123.337 287.474 124.557 284.394C125.777 281.324 120.507 276.314 112.647 272.924C113.047 273.074 113.447 273.224 113.847 273.384C122.367 276.774 128.237 282.134 126.957 285.354Z" fill="#38778A"/>
<path d="M183.267 220.094C183.407 220.194 183.537 220.304 183.657 220.424C180.807 218.584 176.867 219.344 174.647 222.244C172.427 225.144 172.717 229.144 175.227 231.414C175.087 231.324 174.947 231.224 174.807 231.124C171.937 228.924 171.497 224.674 173.837 221.624C176.167 218.584 180.397 217.894 183.267 220.094Z" fill="#452E61"/>
<path d="M183.657 220.424C186.177 222.694 186.467 226.694 184.237 229.604C182.017 232.504 178.077 233.264 175.227 231.424C172.707 229.144 172.417 225.154 174.647 222.254C176.867 219.344 180.807 218.584 183.657 220.424Z" fill="#384769"/>
<path d="M184.067 220.714C186.937 222.914 187.377 227.174 185.037 230.214C182.707 233.264 178.487 233.944 175.607 231.744C175.467 231.644 175.337 231.534 175.217 231.414C178.067 233.254 182.007 232.494 184.227 229.594C186.447 226.694 186.157 222.694 183.647 220.414C183.797 220.514 183.937 220.614 184.067 220.714Z" fill="#38778A"/>
<path d="M208.067 266.484C206.637 264.414 202.097 264.464 197.627 266.664C193.157 268.864 190.347 272.424 191.107 274.814C191.037 274.714 190.967 274.604 190.917 274.494C189.747 272.104 192.597 268.294 197.297 265.994C201.997 263.684 206.757 263.754 207.927 266.144C207.977 266.254 208.027 266.364 208.067 266.484Z" fill="#452E61"/>
<path d="M208.067 266.484C208.827 268.884 206.027 272.444 201.547 274.644C197.067 276.844 192.537 276.884 191.107 274.814C190.347 272.414 193.147 268.854 197.627 266.664C202.097 264.464 206.627 264.414 208.067 266.484Z" fill="#384769"/>
<path d="M201.877 275.314C197.177 277.614 192.427 277.554 191.247 275.164C191.187 275.054 191.147 274.934 191.107 274.814C192.537 276.884 197.067 276.844 201.547 274.644C206.027 272.444 208.827 268.884 208.067 266.484C208.137 266.584 208.197 266.694 208.257 266.804C209.427 269.194 206.577 273.004 201.877 275.314Z" fill="#38778A"/>
<path d="M158.717 212.654C158.917 212.804 159.107 212.964 159.287 213.124C155.187 210.404 149.877 210.964 147.157 214.524C144.427 218.084 145.267 223.344 148.957 226.604C148.757 226.474 148.557 226.324 148.357 226.174C144.187 222.974 143.117 217.354 145.987 213.624C148.837 209.894 154.537 209.454 158.717 212.654Z" fill="#452E61"/>
<path d="M159.287 213.124C162.977 216.374 163.817 221.644 161.087 225.204C158.357 228.764 153.057 229.324 148.957 226.604C145.267 223.344 144.427 218.084 147.157 214.524C149.877 210.964 155.177 210.404 159.287 213.124Z" fill="#384769"/>
<path d="M159.887 213.554C164.057 216.754 165.117 222.374 162.257 226.104C159.397 229.834 153.697 230.274 149.517 227.074C149.317 226.924 149.127 226.764 148.947 226.604C153.047 229.324 158.357 228.764 161.077 225.204C163.807 221.644 162.967 216.374 159.277 213.124C159.487 213.254 159.687 213.404 159.887 213.554Z" fill="#38778A"/>
<path d="M259.307 207.094C259.437 207.164 259.567 207.244 259.687 207.334C256.887 206.254 252.717 208.964 250.127 213.654C247.537 218.344 247.477 223.314 249.897 225.104C249.757 225.054 249.627 224.984 249.487 224.914C246.697 223.374 246.627 218.144 249.347 213.214C252.047 208.294 256.507 205.554 259.307 207.094Z" fill="#452E61"/>
<path d="M259.677 207.334C262.087 209.124 262.027 214.094 259.447 218.784C256.867 223.474 252.687 226.184 249.887 225.104C247.477 223.314 247.537 218.344 250.117 213.654C252.697 208.964 256.877 206.254 259.677 207.334Z" fill="#384769"/>
<path d="M260.087 207.524C262.877 209.064 262.937 214.294 260.227 219.224C257.517 224.144 253.057 226.884 250.267 225.354C250.137 225.284 250.007 225.204 249.887 225.114C252.687 226.194 256.857 223.484 259.447 218.794C262.027 214.104 262.097 209.134 259.677 207.344C259.817 207.384 259.957 207.454 260.087 207.524Z" fill="#38778A"/>
</svg>
