<svg width="65" height="65" viewBox="0 0 65 65" fill="none" xmlns="http://www.w3.org/2000/svg">
<rect y="0.854858" width="65" height="64" rx="8" fill="#212429" fill-opacity="0.5"/>
<path d="M24.5 22.012C25.6046 22.012 26.5 21.0056 26.5 19.7642C26.5 18.5227 25.6046 17.5164 24.5 17.5164C23.3954 17.5164 22.5 18.5227 22.5 19.7642C22.5 21.0056 23.3954 22.012 24.5 22.012Z" fill="#F4B92E"/>
<path d="M27.17 23.5854C26.651 24.0245 26.2299 24.5933 25.9401 25.2467C25.6503 25.9001 25.4996 26.6204 25.5 27.3505V27.6315H21.25C20.84 27.6315 20.5 27.2493 20.5 26.7885V26.2266C20.5 24.5183 21.73 23.1359 23.25 23.1359H25.75C26.27 23.1359 26.76 23.3044 27.17 23.5854Z" fill="#F4B92E"/>
<path d="M40.5 22.012C41.6046 22.012 42.5 21.0056 42.5 19.7642C42.5 18.5227 41.6046 17.5164 40.5 17.5164C39.3954 17.5164 38.5 18.5227 38.5 19.7642C38.5 21.0056 39.3954 22.012 40.5 22.012Z" fill="#F4B92E"/>
<path d="M44.5001 26.2266V26.7885C44.5001 27.2493 44.1601 27.6315 43.7501 27.6315H39.5001V27.3505C39.5001 25.8107 38.8401 24.4396 37.8301 23.5854C38.2401 23.3044 38.7301 23.1359 39.2501 23.1359H41.7501C43.2701 23.1359 44.5001 24.5183 44.5001 26.2266Z" fill="#F4B92E"/>
<path d="M32.5 22.5738C34.1569 22.5738 35.5 21.0643 35.5 19.2021C35.5 17.34 34.1569 15.8304 32.5 15.8304C30.8431 15.8304 29.5 17.34 29.5 19.2021C29.5 21.0643 30.8431 22.5738 32.5 22.5738Z" fill="#F4B92E"/>
<path d="M35.25 24.2598H29.75C29.0208 24.2604 28.3217 24.5862 27.806 25.1657C27.2904 25.7452 27.0005 26.531 27 27.3505V29.0363C27 29.5016 27.336 29.8793 27.75 29.8793H37.25C37.4489 29.8793 37.6397 29.7905 37.7803 29.6324C37.921 29.4743 38 29.2599 38 29.0363V27.3505C37.9995 26.531 37.7096 25.7452 37.1939 25.1657C36.6783 24.5862 35.9792 24.2604 35.25 24.2598Z" fill="#F4B92E"/>
<path d="M19.8652 46.4564V52.8549H18.7622V46.4564H19.8652ZM22.4755 49.2557V50.1302H19.5839V49.2557H22.4755ZM22.8403 46.4564V47.3353H19.5839V46.4564H22.8403ZM24.3829 49.0052V52.8549H23.3239V48.1H24.3346L24.3829 49.0052ZM25.8375 48.0692L25.8288 49.0536C25.7643 49.0419 25.694 49.0331 25.6178 49.0272C25.5446 49.0214 25.4713 49.0184 25.3981 49.0184C25.2164 49.0184 25.0568 49.0448 24.9191 49.0975C24.7814 49.1473 24.6657 49.2206 24.5719 49.3173C24.4811 49.411 24.4108 49.5253 24.361 49.66C24.3112 49.7948 24.2819 49.9457 24.2731 50.1127L24.0314 50.1302C24.0314 49.8314 24.0607 49.5546 24.1193 49.2997C24.1779 49.0448 24.2658 48.8207 24.3829 48.6273C24.5031 48.434 24.6525 48.2831 24.8312 48.1747C25.0128 48.0663 25.2223 48.0121 25.4596 48.0121C25.5241 48.0121 25.5929 48.0179 25.6662 48.0297C25.7423 48.0414 25.7995 48.0546 25.8375 48.0692ZM27.4549 48.1V52.8549H26.3914V48.1H27.4549ZM26.3211 46.8519C26.3211 46.6908 26.3738 46.5575 26.4793 46.452C26.5877 46.3436 26.7371 46.2894 26.9276 46.2894C27.1151 46.2894 27.263 46.3436 27.3714 46.452C27.4798 46.5575 27.534 46.6908 27.534 46.8519C27.534 47.0101 27.4798 47.142 27.3714 47.2474C27.263 47.3529 27.1151 47.4056 26.9276 47.4056C26.7371 47.4056 26.5877 47.3529 26.4793 47.2474C26.3738 47.142 26.3211 47.0101 26.3211 46.8519ZM30.5312 52.9427C30.1797 52.9427 29.8618 52.8856 29.5776 52.7714C29.2964 52.6542 29.0562 52.4916 28.8569 52.2836C28.6606 52.0756 28.5098 51.8309 28.4043 51.5497C28.2988 51.2684 28.2461 50.9652 28.2461 50.64V50.4642C28.2461 50.0922 28.3003 49.7552 28.4087 49.4535C28.5171 49.1517 28.668 48.8939 28.8613 48.6801C29.0547 48.4633 29.2832 48.2977 29.5469 48.1835C29.8105 48.0692 30.0962 48.0121 30.4038 48.0121C30.7437 48.0121 31.041 48.0692 31.2959 48.1835C31.5508 48.2977 31.7617 48.4589 31.9287 48.6669C32.0986 48.8719 32.2246 49.1166 32.3066 49.4008C32.3916 49.6849 32.4341 49.9984 32.4341 50.3412V50.7938H28.7603V50.0336H31.3882V49.9501C31.3823 49.7596 31.3442 49.5809 31.2739 49.4139C31.2065 49.2469 31.1025 49.1122 30.9619 49.0096C30.8213 48.9071 30.6338 48.8558 30.3994 48.8558C30.2236 48.8558 30.0669 48.8939 29.9292 48.9701C29.7944 49.0433 29.6816 49.1503 29.5908 49.2909C29.5 49.4315 29.4297 49.6014 29.3799 49.8007C29.333 49.9969 29.3096 50.2181 29.3096 50.4642V50.64C29.3096 50.848 29.3374 51.0414 29.3931 51.2201C29.4517 51.3959 29.5366 51.5497 29.6479 51.6815C29.7593 51.8134 29.894 51.9174 30.0522 51.9935C30.2104 52.0668 30.3906 52.1034 30.5928 52.1034C30.8477 52.1034 31.0747 52.0521 31.2739 51.9496C31.4731 51.847 31.646 51.702 31.7925 51.5145L32.3506 52.0551C32.248 52.2045 32.1147 52.348 31.9507 52.4857C31.7866 52.6205 31.5859 52.7303 31.3486 52.8153C31.1143 52.9003 30.8418 52.9427 30.5312 52.9427ZM34.1305 49.1151V52.8549H33.0715V48.1H34.069L34.1305 49.1151ZM33.9416 50.3016L33.5988 50.2972C33.6017 49.9603 33.6486 49.6512 33.7394 49.37C33.8332 49.0887 33.9621 48.847 34.1262 48.6449C34.2931 48.4427 34.4924 48.2875 34.7238 48.1791C34.9553 48.0677 35.2131 48.0121 35.4972 48.0121C35.7258 48.0121 35.9323 48.0443 36.1169 48.1088C36.3044 48.1703 36.464 48.2714 36.5959 48.412C36.7306 48.5526 36.8332 48.7357 36.9035 48.9613C36.9738 49.184 37.009 49.4579 37.009 49.7831V52.8549H35.9455V49.7787C35.9455 49.5502 35.9118 49.37 35.8444 49.2382C35.78 49.1034 35.6847 49.0082 35.5588 48.9525C35.4357 48.8939 35.2819 48.8646 35.0973 48.8646C34.9157 48.8646 34.7531 48.9027 34.6096 48.9789C34.466 49.0551 34.3444 49.1591 34.2448 49.2909C34.1481 49.4227 34.0734 49.5751 34.0207 49.7479C33.9679 49.9208 33.9416 50.1053 33.9416 50.3016ZM40.8104 51.8705V46.1049H41.8739V52.8549H40.9115L40.8104 51.8705ZM37.7167 50.5302V50.4379C37.7167 50.0775 37.7591 49.7494 37.8441 49.4535C37.9291 49.1547 38.0521 48.8983 38.2132 48.6844C38.3744 48.4677 38.5707 48.3021 38.8021 48.1879C39.0336 48.0707 39.2943 48.0121 39.5843 48.0121C39.8714 48.0121 40.1234 48.0677 40.3402 48.1791C40.557 48.2904 40.7416 48.4501 40.8939 48.6581C41.0462 48.8632 41.1678 49.1093 41.2587 49.3964C41.3495 49.6805 41.4139 49.9969 41.452 50.3456V50.64C41.4139 50.9799 41.3495 51.2904 41.2587 51.5717C41.1678 51.8529 41.0462 52.0961 40.8939 52.3011C40.7416 52.5062 40.5555 52.6644 40.3358 52.7758C40.119 52.8871 39.8656 52.9427 39.5755 52.9427C39.2884 52.9427 39.0292 52.8827 38.7977 52.7626C38.5692 52.6425 38.3744 52.474 38.2132 52.2572C38.0521 52.0404 37.9291 51.7855 37.8441 51.4926C37.7591 51.1967 37.7167 50.8759 37.7167 50.5302ZM38.7757 50.4379V50.5302C38.7757 50.7469 38.7948 50.9491 38.8329 51.1366C38.8739 51.3241 38.9369 51.4896 39.0218 51.6332C39.1068 51.7738 39.2167 51.8851 39.3514 51.9672C39.4891 52.0463 39.6532 52.0858 39.8436 52.0858C40.0838 52.0858 40.2816 52.0331 40.4369 51.9276C40.5921 51.8221 40.7137 51.6801 40.8016 51.5013C40.8924 51.3197 40.954 51.1176 40.9862 50.8949V50.0995C40.9686 49.9266 40.932 49.7655 40.8763 49.6161C40.8236 49.4667 40.7518 49.3363 40.661 49.225C40.5702 49.1107 40.4574 49.0228 40.3226 48.9613C40.1908 48.8969 40.034 48.8646 39.8524 48.8646C39.659 48.8646 39.495 48.9056 39.3602 48.9877C39.2254 49.0697 39.1141 49.1825 39.0262 49.326C38.9413 49.4696 38.8783 49.6366 38.8373 49.827C38.7962 50.0175 38.7757 50.2211 38.7757 50.4379ZM45.4688 51.5673C45.4688 51.4618 45.4424 51.3666 45.3897 51.2816C45.337 51.1937 45.2359 51.1146 45.0865 51.0443C44.94 50.974 44.7232 50.9095 44.4361 50.851C44.1841 50.7953 43.9527 50.7294 43.7417 50.6532C43.5337 50.5741 43.355 50.4789 43.2056 50.3676C43.0562 50.2562 42.9405 50.1244 42.8584 49.972C42.7764 49.8197 42.7354 49.6439 42.7354 49.4447C42.7354 49.2513 42.7779 49.0682 42.8628 48.8954C42.9478 48.7225 43.0694 48.5702 43.2276 48.4384C43.3858 48.3065 43.5777 48.2025 43.8033 48.1263C44.0318 48.0502 44.2867 48.0121 44.5679 48.0121C44.9663 48.0121 45.3077 48.0795 45.5918 48.2142C45.8789 48.3461 46.0987 48.5262 46.251 48.7548C46.4034 48.9803 46.4795 49.2352 46.4795 49.5194H45.4204C45.4204 49.3934 45.3882 49.2762 45.3238 49.1678C45.2622 49.0565 45.1685 48.9672 45.0425 48.8998C44.9165 48.8295 44.7583 48.7943 44.5679 48.7943C44.3863 48.7943 44.2354 48.8236 44.1153 48.8822C43.9981 48.9379 43.9102 49.0111 43.8516 49.1019C43.7959 49.1927 43.7681 49.2924 43.7681 49.4008C43.7681 49.4799 43.7828 49.5516 43.812 49.6161C43.8443 49.6776 43.897 49.7347 43.9703 49.7875C44.0435 49.8373 44.1431 49.8842 44.2691 49.9281C44.398 49.972 44.5591 50.0145 44.7525 50.0555C45.1158 50.1317 45.4278 50.2299 45.6885 50.35C45.9522 50.4672 46.1543 50.6195 46.295 50.807C46.4356 50.9916 46.5059 51.226 46.5059 51.5101C46.5059 51.7211 46.4605 51.9144 46.3697 52.0902C46.2818 52.2631 46.1529 52.4139 45.9829 52.5428C45.813 52.6688 45.6094 52.767 45.3721 52.8373C45.1377 52.9076 44.8741 52.9427 44.5811 52.9427C44.1504 52.9427 43.7857 52.8666 43.4869 52.7142C43.188 52.559 42.961 52.3612 42.8057 52.121C42.6534 51.8778 42.5772 51.6259 42.5772 51.3651H43.6011C43.6128 51.5614 43.667 51.7181 43.7637 51.8353C43.8633 51.9496 43.9864 52.0331 44.1329 52.0858C44.2823 52.1356 44.4361 52.1605 44.5943 52.1605C44.7847 52.1605 44.9444 52.1356 45.0733 52.0858C45.2022 52.0331 45.3003 51.9628 45.3677 51.8749C45.4351 51.7841 45.4688 51.6815 45.4688 51.5673Z" fill="white"/>
</svg>
