<svg width="412" height="172" viewBox="0 0 412 172" fill="none" xmlns="http://www.w3.org/2000/svg">
<g filter="url(#filter0_d_175_13487)">
<mask id="path-1-inside-1_175_13487" fill="white">
<path d="M0 0H412V143.855C412 154.901 403.046 163.855 392 163.855H20C8.95431 163.855 0 154.901 0 143.855V0Z"/>
</mask>
<path d="M0 0H412V143.855C412 154.901 403.046 163.855 392 163.855H20C8.95431 163.855 0 154.901 0 143.855V0Z" fill="black"/>
<path d="M0 0H412H0ZM412 143.855C412 155.453 402.598 164.855 391 164.855H21C9.40202 164.855 0 155.453 0 143.855C0 154.348 8.95431 162.855 20 162.855H392C403.046 162.855 412 154.348 412 143.855ZM0 163.855V0V163.855ZM412 0V163.855V0Z" fill="#00FFFF" mask="url(#path-1-inside-1_175_13487)"/>
</g>
<defs>
<filter id="filter0_d_175_13487" x="-8" y="-8" width="428" height="179.855" filterUnits="userSpaceOnUse" color-interpolation-filters="sRGB">
<feFlood flood-opacity="0" result="BackgroundImageFix"/>
<feColorMatrix in="SourceAlpha" type="matrix" values="0 0 0 0 0 0 0 0 0 0 0 0 0 0 0 0 0 0 127 0" result="hardAlpha"/>
<feOffset/>
<feGaussianBlur stdDeviation="4"/>
<feComposite in2="hardAlpha" operator="out"/>
<feColorMatrix type="matrix" values="0 0 0 0 0 0 0 0 0 0 0 0 0 0 0 0 0 0 0.25 0"/>
<feBlend mode="normal" in2="BackgroundImageFix" result="effect1_dropShadow_175_13487"/>
<feBlend mode="normal" in="SourceGraphic" in2="effect1_dropShadow_175_13487" result="shape"/>
</filter>
</defs>
</svg>
