<svg width="65" height="65" viewBox="0 0 65 65" fill="none" xmlns="http://www.w3.org/2000/svg">
<rect y="0.854858" width="65" height="64" rx="8" fill="#212429" fill-opacity="0.5"/>
<path d="M29.5 32.8549V22.8549H35.5V32.8549M23.5 19.8549L32.5 12.8549L41.5 19.8549V30.8549C41.5 31.3853 41.2893 31.894 40.9142 32.2691C40.5391 32.6441 40.0304 32.8549 39.5 32.8549H25.5C24.9696 32.8549 24.4609 32.6441 24.0858 32.2691C23.7107 31.894 23.5 31.3853 23.5 30.8549V19.8549Z" stroke="#F4B92E" stroke-width="2" stroke-linecap="round" stroke-linejoin="round"/>
<path d="M24.8779 49.1283V50.0028H21.481V49.1283H24.8779ZM21.7534 46.4564V52.8549H20.6504V46.4564H21.7534ZM25.7261 46.4564V52.8549H24.6274V46.4564H25.7261ZM26.7324 50.5302V50.4291C26.7324 50.0863 26.7822 49.7684 26.8818 49.4755C26.9814 49.1796 27.125 48.9232 27.3125 48.7064C27.5029 48.4867 27.7344 48.3168 28.0068 48.1967C28.2822 48.0736 28.5928 48.0121 28.9385 48.0121C29.2871 48.0121 29.5977 48.0736 29.8701 48.1967C30.1455 48.3168 30.3784 48.4867 30.5688 48.7064C30.7593 48.9232 30.9043 49.1796 31.0039 49.4755C31.1035 49.7684 31.1533 50.0863 31.1533 50.4291V50.5302C31.1533 50.8729 31.1035 51.1908 31.0039 51.4838C30.9043 51.7767 30.7593 52.0331 30.5688 52.2528C30.3784 52.4696 30.147 52.6395 29.8745 52.7626C29.6021 52.8827 29.293 52.9427 28.9473 52.9427C28.5986 52.9427 28.2866 52.8827 28.0112 52.7626C27.7388 52.6395 27.5073 52.4696 27.3169 52.2528C27.1265 52.0331 26.9814 51.7767 26.8818 51.4838C26.7822 51.1908 26.7324 50.8729 26.7324 50.5302ZM27.7915 50.4291V50.5302C27.7915 50.744 27.8135 50.9462 27.8574 51.1366C27.9014 51.327 27.9702 51.494 28.064 51.6376C28.1577 51.7811 28.2778 51.8939 28.4243 51.976C28.5708 52.058 28.7451 52.099 28.9473 52.099C29.1436 52.099 29.3135 52.058 29.457 51.976C29.6035 51.8939 29.7236 51.7811 29.8174 51.6376C29.9111 51.494 29.98 51.327 30.0239 51.1366C30.0708 50.9462 30.0942 50.744 30.0942 50.5302V50.4291C30.0942 50.2181 30.0708 50.0189 30.0239 49.8314C29.98 49.641 29.9097 49.4725 29.813 49.326C29.7192 49.1796 29.5991 49.0653 29.4526 48.9833C29.3091 48.8983 29.1377 48.8558 28.9385 48.8558C28.7393 48.8558 28.5664 48.8983 28.4199 48.9833C28.2764 49.0653 28.1577 49.1796 28.064 49.326C27.9702 49.4725 27.9014 49.641 27.8574 49.8314C27.8135 50.0189 27.7915 50.2181 27.7915 50.4291ZM33.1001 49.0668V52.8549H32.041V48.1H33.0386L33.1001 49.0668ZM32.9287 50.3016L32.5684 50.2972C32.5684 49.9691 32.6094 49.6659 32.6914 49.3876C32.7734 49.1093 32.8936 48.8676 33.0518 48.6625C33.21 48.4545 33.4062 48.2948 33.6406 48.1835C33.8779 48.0692 34.1519 48.0121 34.4624 48.0121C34.6792 48.0121 34.877 48.0443 35.0557 48.1088C35.2373 48.1703 35.394 48.2684 35.5259 48.4032C35.6606 48.538 35.7632 48.7108 35.8335 48.9218C35.9067 49.1327 35.9434 49.3876 35.9434 49.6864V52.8549H34.8843V49.7787C34.8843 49.5472 34.8491 49.3656 34.7788 49.2338C34.7114 49.1019 34.6133 49.0082 34.4844 48.9525C34.3584 48.8939 34.2075 48.8646 34.0317 48.8646C33.8325 48.8646 33.6626 48.9027 33.522 48.9789C33.3843 49.0551 33.2715 49.1591 33.1836 49.2909C33.0957 49.4227 33.0312 49.5751 32.9902 49.7479C32.9492 49.9208 32.9287 50.1053 32.9287 50.3016ZM35.8774 50.0204L35.3809 50.1302C35.3809 49.8431 35.4204 49.5721 35.4995 49.3173C35.5815 49.0594 35.7002 48.8339 35.8555 48.6405C36.0137 48.4442 36.2085 48.2904 36.4399 48.1791C36.6714 48.0677 36.9365 48.0121 37.2354 48.0121C37.4785 48.0121 37.6953 48.0458 37.8857 48.1132C38.0791 48.1776 38.2432 48.2802 38.3779 48.4208C38.5127 48.5614 38.6152 48.7445 38.6855 48.9701C38.7559 49.1927 38.791 49.4623 38.791 49.7787V52.8549H37.7275V49.7743C37.7275 49.5341 37.6924 49.348 37.6221 49.2162C37.5547 49.0844 37.458 48.9935 37.332 48.9437C37.2061 48.891 37.0552 48.8646 36.8794 48.8646C36.7153 48.8646 36.5703 48.8954 36.4443 48.9569C36.3213 49.0155 36.2173 49.099 36.1323 49.2074C36.0474 49.3129 35.9829 49.4344 35.939 49.5721C35.8979 49.7098 35.8774 49.8593 35.8774 50.0204ZM41.9771 52.9427C41.6255 52.9427 41.3076 52.8856 41.0234 52.7714C40.7422 52.6542 40.502 52.4916 40.3027 52.2836C40.1064 52.0756 39.9556 51.8309 39.8501 51.5497C39.7446 51.2684 39.6919 50.9652 39.6919 50.64V50.4642C39.6919 50.0922 39.7461 49.7552 39.8545 49.4535C39.9629 49.1517 40.1138 48.8939 40.3071 48.6801C40.5005 48.4633 40.729 48.2977 40.9927 48.1835C41.2563 48.0692 41.542 48.0121 41.8496 48.0121C42.1895 48.0121 42.4868 48.0692 42.7417 48.1835C42.9966 48.2977 43.2075 48.4589 43.3745 48.6669C43.5444 48.8719 43.6704 49.1166 43.7524 49.4008C43.8374 49.6849 43.8799 49.9984 43.8799 50.3412V50.7938H40.2061V50.0336H42.834V49.9501C42.8281 49.7596 42.79 49.5809 42.7197 49.4139C42.6523 49.2469 42.5483 49.1122 42.4077 49.0096C42.2671 48.9071 42.0796 48.8558 41.8452 48.8558C41.6694 48.8558 41.5127 48.8939 41.375 48.9701C41.2402 49.0433 41.1274 49.1503 41.0366 49.2909C40.9458 49.4315 40.8755 49.6014 40.8257 49.8007C40.7788 49.9969 40.7554 50.2181 40.7554 50.4642V50.64C40.7554 50.848 40.7832 51.0414 40.8389 51.2201C40.8975 51.3959 40.9824 51.5497 41.0938 51.6815C41.2051 51.8134 41.3398 51.9174 41.498 51.9935C41.6562 52.0668 41.8364 52.1034 42.0386 52.1034C42.2935 52.1034 42.5205 52.0521 42.7197 51.9496C42.9189 51.847 43.0918 51.702 43.2383 51.5145L43.7964 52.0551C43.6938 52.2045 43.5605 52.348 43.3965 52.4857C43.2324 52.6205 43.0317 52.7303 42.7944 52.8153C42.5601 52.9003 42.2876 52.9427 41.9771 52.9427Z" fill="white"/>
</svg>
