<svg width="128" height="120" viewBox="0 0 128 120" fill="none" xmlns="http://www.w3.org/2000/svg">
<g opacity="0.3">
<path fill-rule="evenodd" clip-rule="evenodd" d="M25.4963 47.133C23.8441 54.1924 24.8955 61.5856 27.4489 68.3112C27.9997 69.7632 28.5837 71.6323 29.4849 72.9341C30.2026 73.9688 31.4041 74.5863 32.3721 75.3206C33.6572 76.3052 34.8421 77.4234 36.1104 78.4247C37.5457 79.5596 39.0143 80.2605 40.75 80.878C44.0544 82.0462 47.3588 82.9308 50.8468 81.896C53.9342 80.9782 56.955 78.7418 58.7407 76.0883C59.5752 74.8533 60.5431 73.7518 61.4276 72.5669C62.2955 71.382 62.8462 69.8967 63.3802 68.5449C64.4483 65.858 64.782 62.4701 64.5985 59.6163C64.515 58.2478 64.3482 56.8626 64.0144 55.5275C63.6639 54.1423 63.0297 52.8406 62.7627 51.4387C62.3288 49.1189 61.2941 47.0662 60.3595 44.8799C58.0564 39.4894 52.0651 36.2684 46.541 35.4674C43.9542 35.0835 41.3841 35.6843 38.8307 36.0849C36.1438 36.5021 34.1746 37.7538 31.788 38.922C30.3695 39.6062 28.9842 40.3906 27.9829 41.6089C25.5463 44.5128 25.2126 48.6016 25.4963 47.133Z" fill="#7D72B3"/>
<path fill-rule="evenodd" clip-rule="evenodd" d="M47.6089 86.1684C48.8606 85.0502 50.5462 83.7652 52.1483 83.2144C53.2498 82.8306 54.2678 83.2478 55.169 83.882C56.9714 85.167 56.6376 88.1877 55.2023 89.7064C52.5989 92.4935 47.6923 90.2739 47.6923 86.7191L47.6089 86.1684Z" fill="#7D72B3"/>
<path fill-rule="evenodd" clip-rule="evenodd" d="M72.9094 62.7704C72.1918 61.8024 71.6911 61.4686 71.7245 60.5007C71.7579 59.7664 72.5756 58.3812 72.9594 57.6802C74.111 55.5607 75.9468 54.0587 78.2332 53.3411C79.8353 52.8404 81.3206 52.6068 83.0062 52.5901C84.5082 52.5734 85.7599 53.024 87.1618 53.4746C89.7319 54.3091 92.5523 55.6609 94.4381 57.6802C96.2071 59.5661 95.9569 62.9706 94.4048 64.8899C93.2199 66.3585 91.4842 67.243 89.9155 68.261C88.1965 69.3625 86.3106 70.7644 84.3246 71.3151C83.0396 71.6656 82.105 71.8491 80.8367 71.482C79.6017 71.1148 78.617 70.7644 77.4989 70.1969C76.4809 69.6796 75.6965 69.4626 74.862 68.6449C74.1277 67.9272 73.5102 67.1762 72.9929 66.275C72.2752 64.99 72.5256 63.4212 72.9094 62.7704Z" fill="#7D72B3"/>
<path fill-rule="evenodd" clip-rule="evenodd" d="M67.3352 49.4693C67.0348 50.4205 66.384 52.3398 68.1029 52.2396C68.8873 52.1896 70.0555 51.522 70.4728 51.038C72.1917 49.0354 68.0862 47.6836 67.719 49.4693H67.3352Z" fill="#7D72B3"/>
<path fill-rule="evenodd" clip-rule="evenodd" d="M92.9195 97.4168C92.1017 95.6978 91.9181 95.0302 92.4688 93.1945C93.3033 90.4575 94.6885 87.4368 96.1237 84.9501C97.0416 83.3813 98.1765 81.2285 99.9121 80.4775C101.314 79.8767 102.933 79.5095 104.451 79.4094C107.756 79.2091 110.309 80.7612 112.663 82.9474C114.114 84.2992 115.316 85.4174 116.167 87.2532C116.901 88.8386 117.335 90.9414 117.152 92.6938C116.668 97.6671 112.345 101.188 109.141 104.576C106.621 107.247 102.399 110.618 98.4602 109.182C95.7399 108.198 94.1044 105.311 93.0029 102.791C92.2519 101.138 92.5189 99.2025 92.9195 97.4168Z" fill="#7D72B3"/>
<path fill-rule="evenodd" clip-rule="evenodd" d="M88.6137 84.3993C87.6457 85.1837 87.3287 86.1516 87.095 87.3866C86.9282 88.2878 86.5609 90.2738 87.4287 91.0081C88.1964 91.6423 89.6151 90.5742 90.2326 90.1737C90.7666 89.8232 91.1504 89.4727 91.551 88.9721C91.7679 88.7217 92.0516 88.5048 92.1685 88.1877C92.3687 87.687 92.302 86.9861 92.2686 86.4687C92.2352 85.8179 91.868 85.2838 91.4174 84.8332C91.0336 84.4661 90.6998 84.3659 90.1825 84.2658C89.6317 84.149 88.9308 83.8986 88.6137 84.3993Z" fill="#7D72B3"/>
<path fill-rule="evenodd" clip-rule="evenodd" d="M60.6931 116.642C60.593 116.926 60.4928 117.11 60.6263 117.393C60.7765 117.677 61.2772 118.078 61.4775 118.261C62.2285 118.945 63.0295 119.162 63.9975 119.363C64.9488 119.563 65.9501 119.696 66.9181 119.496C67.5356 119.379 68.32 119.229 68.7372 118.712C69.4882 117.727 68.8707 116.258 68.37 115.324C67.9862 114.606 67.4521 113.972 67.0015 113.288C66.5342 112.554 65.85 111.936 65.1825 111.385C64.348 110.701 63.0796 109.75 62.0115 110.517C61.0102 111.235 60.4428 112.554 60.1758 113.722C60.0256 114.373 60.059 115.157 60.2926 115.791C60.4428 116.208 60.7766 116.526 60.6931 116.642Z" fill="#7D72B3"/>
<path fill-rule="evenodd" clip-rule="evenodd" d="M120.173 88.1876C119.589 87.7036 119.372 87.6703 119.438 87.0194C119.505 86.3185 119.555 85.6342 119.822 84.9666C120.39 83.5314 121.591 82.3298 122.726 81.3285C123.377 80.7443 124.178 80.3939 124.996 80.1268C125.43 79.9766 125.78 79.8098 126.214 79.8765C126.965 79.9766 127.482 80.4606 127.716 81.1616C128.083 82.2964 127.533 83.5481 126.915 84.466C126.131 85.6509 125.513 86.986 124.278 87.7537C123.711 88.1209 123.11 88.4713 122.492 88.7717C122.125 88.9553 121.725 89.1389 121.291 89.0888C121.007 89.0387 120.089 88.8051 120.173 88.1876Z" fill="#7D72B3"/>
<path fill-rule="evenodd" clip-rule="evenodd" d="M0.462678 37.3531C0.612879 38.004 0.646291 38.6716 0.863248 39.3057C1.29716 40.6075 2.23172 41.7089 3.18299 42.6602C5.00208 44.4459 7.60555 45.1802 10.0588 45.6809C11.3272 45.9312 12.6957 46.1482 13.9808 46.1649C15.0322 46.1816 16.1503 46.3985 17.2017 46.3151C18.9541 46.1816 20.6396 45.6809 22.1416 44.7797C24.3779 43.4613 26.2137 41.3919 25.4794 38.6716C25.0789 37.1862 24.0943 35.9012 23.0095 34.8498C21.8412 33.6982 20.89 32.4966 19.3546 31.779C18.687 31.4786 17.9861 31.1615 17.3019 30.8778C16.4674 30.544 15.683 30.0934 14.7985 29.9432C14.0642 29.8097 13.3132 29.526 12.5622 29.4926C11.8279 29.4593 11.0602 29.4593 10.3259 29.5093C7.68905 29.7263 4.95202 31.2617 3.13292 33.1475C2.4153 33.8985 1.78113 34.733 1.06351 35.4673C0.37926 36.1849 0.462678 37.0027 0.462678 37.3531Z" fill="#7D72B3"/>
<path fill-rule="evenodd" clip-rule="evenodd" d="M54.7853 18.9119C54.051 20.0634 53.784 20.3137 53.6838 21.6489C53.5503 23.3511 53.6671 24.9533 54.0844 26.6222C55.0523 30.4106 58.023 33.4646 60.5597 36.3351C64.7152 41.0247 69.4048 45.2971 75.1291 47.984C77.3821 49.0354 79.7686 50.237 82.3387 49.9032C84.8421 49.5695 87.1118 48.6349 89.4817 47.8839C91.5678 47.2163 93.8207 46.5988 95.9903 46.2984C97.0083 46.1649 98.0264 46.0147 99.0444 45.9146C100.53 45.7477 101.781 45.1636 103.2 44.7464C105.253 44.1456 107.389 43.7784 109.408 43.1275C110.343 42.8271 111.227 42.4433 112.095 41.9927C113.514 41.2584 115.032 40.8245 116.451 40.0401C121.675 37.1529 125.246 31.3952 125.53 25.3872C125.68 22.3164 124.545 19.1121 123.01 16.5253C122.142 15.0567 121.024 13.7216 120.073 12.303C118.821 10.4672 117.335 8.83173 115.733 7.29635C112.763 4.45923 109.425 2.62344 105.503 1.40515C103.35 0.737591 101.364 0.453876 99.0945 0.470565C95.6399 0.487254 92.1185 0.954546 88.7139 1.63879C85.3261 2.32304 81.8882 3.04066 78.5504 3.99194C75.0291 4.97658 71.491 6.47859 68.2032 8.03067C64.7987 9.61612 61.8281 11.7356 59.6418 14.8231C59.1578 15.524 58.5903 16.1916 58.1231 16.8925C57.7559 17.4432 57.5557 17.8771 57.0216 18.2777C56.0704 18.9619 55.1524 19.1121 54.7853 18.9119Z" fill="#7D72B3"/>
</g>
</svg>
