<svg width="161" height="86" viewBox="0 0 161 86" fill="none" xmlns="http://www.w3.org/2000/svg">
<path d="M82.7317 24.6427C78.8217 23.2427 74.6418 24.0827 70.6418 25.0127C64.8718 26.4127 61.7118 31.8927 60.3218 37.2927C59.3918 40.7327 59.9517 44.4527 61.4417 47.7127C62.2617 49.3627 63.8018 50.6027 65.4918 51.4827C71.9618 48.9827 84.4318 46.0627 86.3518 39.6127C87.8018 34.7627 86.5318 29.1727 83.7118 24.7427C83.3918 24.7727 83.0717 24.7527 82.7317 24.6427Z" fill="#384769"/>
<path d="M61.4315 47.7027C59.9415 44.4427 59.3815 40.7227 60.3115 37.2827C61.7115 31.8927 64.8715 26.4027 70.6315 25.0027C74.6315 24.0727 78.8115 23.2327 82.7215 24.6327C83.0615 24.7427 83.3815 24.7627 83.6915 24.7227C82.1015 22.2127 80.0215 20.0827 77.6515 18.6527C70.2515 14.1827 59.9915 15.4327 53.5915 21.2327C47.1915 27.0327 44.9015 36.8227 47.6615 45.0127C49.0615 49.1727 52.1815 53.2627 56.5415 53.7727C59.2415 54.0927 61.8715 52.9827 64.3715 51.9027C64.7115 51.7527 65.0815 51.6027 65.4815 51.4527C63.7915 50.6027 62.2615 49.3527 61.4315 47.7027Z" fill="#452E61"/>
<path d="M15.3015 56.4527C13.8115 53.6627 13.3515 49.8527 15.4915 47.1527C16.5115 45.7527 18.0915 45.0127 19.8615 45.0127C22.0815 44.9527 24.4915 44.6227 26.7415 44.7727C26.7915 42.9427 26.4115 41.2127 25.0515 40.0727C23.8315 39.0527 22.1515 38.8427 20.5615 38.6727C17.3115 38.3327 11.5315 36.5327 8.7715 39.0127C5.8015 41.6727 6.4115 49.2927 7.8415 52.4827C9.2015 55.5227 12.0415 57.8627 15.2815 58.6227C16.0515 58.8027 16.8415 58.8927 17.6315 58.8827C16.7415 58.1727 15.8415 57.4827 15.3015 56.4527Z" fill="#452E61"/>
<path d="M19.8616 45.0127C18.0916 45.0127 16.5116 45.7527 15.4916 47.1527C13.3516 49.8527 13.8216 53.6627 15.3016 56.4527C15.8516 57.4927 16.7416 58.1727 17.6316 58.8827C18.6816 58.8627 19.7216 58.6527 20.6716 58.1927C24.2116 56.4927 25.4316 52.1427 26.2616 48.2927C26.5016 47.1727 26.7116 45.9527 26.7416 44.7627C24.4816 44.6227 22.0716 44.9527 19.8616 45.0127Z" fill="#384769"/>
<path d="M44.6918 72.3527C44.4118 74.4027 44.3218 76.5427 45.6218 78.3027C45.7618 78.4827 45.9018 78.6427 46.0618 78.7927C47.5818 79.2027 49.1218 79.4827 50.6518 79.2127C52.6418 78.8627 54.5918 77.2927 54.8318 75.1127C54.9818 73.7427 54.4318 72.3627 53.6118 71.3027C52.7918 70.2427 51.7318 69.4427 50.6918 68.6627C50.6018 68.5927 50.5018 68.5127 50.4018 68.4427C49.3418 68.8527 48.3218 69.2927 47.3918 69.6627C46.1818 70.1227 44.8818 70.9627 44.6918 72.3527Z" fill="#384769"/>
<path d="M42.6217 63.9227C40.2017 64.4027 37.2817 68.0427 35.7617 69.9727C34.7117 71.3027 33.7517 73.2627 34.6717 74.7127C35.2017 75.5427 36.1717 75.8727 37.0617 76.1327C39.6117 76.8927 42.1517 77.6527 44.7017 78.4127C45.1517 78.5427 45.5917 78.6827 46.0517 78.8027C45.9017 78.6527 45.7517 78.4927 45.6117 78.3127C44.3117 76.5427 44.4017 74.4027 44.6817 72.3627C44.8717 70.9627 46.1717 70.1327 47.3817 69.6627C48.3117 69.2927 49.3317 68.8527 50.3917 68.4427C48.3317 66.7927 45.1917 63.4027 42.6217 63.9227Z" fill="#452E61"/>
<path d="M134.812 49.3827C130.352 47.8927 125.702 47.8927 121.042 48.9227C117.782 49.6627 115.272 52.3627 113.972 55.3427C113.412 56.5527 113.692 58.0427 114.442 59.3427C115.652 61.3927 117.422 62.8727 119.282 64.4627C120.752 65.7827 122.682 66.4527 124.252 67.6627C124.812 67.7227 125.382 67.7727 125.952 67.8027C131.102 68.0227 136.642 66.1327 139.442 61.8127C141.052 59.3327 141.532 56.2927 141.082 53.3527C139.352 51.5527 137.102 50.1727 134.812 49.3827Z" fill="#384769"/>
<path d="M114.441 59.3327C113.701 58.0327 113.421 56.5427 113.971 55.3327C115.271 52.3527 117.781 49.6627 121.041 48.9127C125.691 47.8927 130.341 47.8927 134.811 49.3727C137.091 50.1727 139.341 51.5427 141.081 53.3327C140.741 51.0927 139.851 48.9227 138.511 47.1127C135.401 42.9227 130.251 40.5527 125.051 40.0427C116.511 39.2027 95.4213 44.7827 103.151 58.0827C104.811 60.9427 108.091 62.3727 111.151 63.6327C115.391 65.3727 119.721 67.1227 124.251 67.6427C122.681 66.4327 120.751 65.7627 119.281 64.4427C117.421 62.8627 115.651 61.3827 114.441 59.3327Z" fill="#452E61"/>
<path d="M137.882 10.2227C137.972 8.17272 139.372 6.41272 141.042 5.10272C143.162 3.42272 146.192 3.00272 148.722 3.99272C147.202 2.39272 145.272 1.18272 143.352 0.662723C135.132 -1.54728 124.542 10.6827 132.972 16.7927C135.032 18.2827 137.742 18.3227 140.312 18.2027C138.322 16.3227 137.812 12.8727 137.882 10.2227Z" fill="#452E61"/>
<path d="M141.042 5.11272C139.372 6.41272 137.972 8.18272 137.882 10.2327C137.812 12.8727 138.312 16.3327 140.322 18.2127C140.532 18.2027 140.752 18.1927 140.962 18.1827C145.672 17.9127 151.622 16.7927 151.762 10.9527C151.822 8.44272 150.572 5.94272 148.732 4.01272C146.202 3.01272 143.162 3.43272 141.042 5.11272Z" fill="#384769"/>
<path d="M155.461 32.2727C154.691 34.3727 155.451 36.6227 156.931 38.3227C158.081 38.4427 159.081 38.0227 159.791 37.3227C160.841 36.2927 161.311 34.5127 160.631 32.6227C160.591 32.5027 160.541 32.3827 160.491 32.2627C159.981 31.9327 159.441 31.6527 158.901 31.4327C157.791 30.8727 155.931 31.1527 155.461 32.2727Z" fill="#384769"/>
<path d="M156.771 29.1827C156.021 29.3127 155.241 29.6327 154.551 30.1027C153.421 30.8827 152.531 32.0827 152.441 33.5527C152.311 35.6727 154.851 38.0127 156.761 38.3027C156.821 38.3127 156.881 38.3227 156.931 38.3227C155.441 36.6227 154.691 34.3727 155.461 32.2727C155.931 31.1527 157.791 30.8727 158.901 31.4327C159.431 31.6527 159.981 31.9227 160.491 32.2627C159.781 30.6227 158.211 28.9227 156.771 29.1827Z" fill="#452E61"/>
<path d="M106.212 24.5527C106.942 25.8527 108.282 26.6527 109.642 27.1527C110.342 27.4127 111.082 27.6127 111.822 27.6727C111.432 27.2127 111.072 26.7227 110.722 26.3027C109.792 25.2827 109.702 23.7027 110.262 22.5827C110.932 21.2927 112.332 20.7327 113.852 20.5827C112.892 19.9427 111.782 19.5427 110.682 19.1827C107.432 18.1227 104.172 20.9227 106.212 24.5527Z" fill="#452E61"/>
<path d="M110.262 22.5927C109.702 23.7127 109.792 25.2927 110.722 26.3127C111.072 26.7327 111.422 27.2227 111.822 27.6827C112.262 27.7227 112.692 27.7027 113.132 27.6327C114.302 27.4227 115.432 26.6727 115.882 25.5327C116.462 24.0827 115.802 22.3427 114.702 21.2827C114.442 21.0327 114.152 20.8027 113.852 20.6027C112.332 20.7527 110.932 21.3127 110.262 22.5927Z" fill="#384769"/>
<path d="M93.1514 69.3827C89.9914 69.8527 87.0114 71.5227 85.6214 74.5027C84.6014 76.8327 84.3214 79.8027 85.9914 81.9427C87.1114 83.2927 88.4814 84.3827 90.0414 85.0527C92.4614 84.2427 94.6814 82.7727 96.4214 80.9027C98.1714 79.0227 99.5514 76.5727 99.3114 74.0127C99.1314 72.0427 97.9914 70.3527 96.4214 69.1227C95.2614 69.1127 94.1214 69.2327 93.1514 69.3827Z" fill="#384769"/>
<path d="M75.5016 78.1727C76.5716 82.3327 80.6716 85.3327 84.9516 85.6927C86.6816 85.8327 88.4116 85.5927 90.0416 85.0427C88.4816 84.3727 87.1016 83.2827 85.9916 81.9327C84.3216 79.7927 84.5916 76.8127 85.6216 74.4927C87.0216 71.5127 89.9916 69.8427 93.1516 69.3727C94.1216 69.2327 95.2716 69.1027 96.4216 69.1027C95.2416 68.1827 93.8216 67.5227 92.3716 67.2127C85.3516 65.7027 72.9716 68.3827 75.5016 78.1727Z" fill="#452E61"/>
<path d="M3.21149 78.6827C2.73149 80.3627 3.68149 81.8027 5.06149 82.5727C6.15149 82.3027 7.11149 81.5527 7.64149 80.5527C8.28149 79.3427 8.24149 77.8127 7.60149 76.6127C6.94149 76.6827 6.30149 76.7927 5.72149 76.9127C4.70149 77.1027 3.49149 77.6527 3.21149 78.6827Z" fill="#384769"/>
<path d="M0.451528 79.7427C0.881528 81.4727 2.62153 82.7727 4.39153 82.6727C4.61153 82.6627 4.84153 82.6227 5.06153 82.5727C3.68153 81.8027 2.73153 80.3627 3.21153 78.6827C3.49153 77.6627 4.70153 77.1027 5.72153 76.9127C6.30153 76.7927 6.94153 76.6827 7.60153 76.6127C7.44153 76.3227 7.25153 76.0427 7.02153 75.7927C4.18153 72.7327 -0.488472 75.9327 0.451528 79.7427Z" fill="#452E61"/>
</svg>
