<svg width="135" height="129" viewBox="0 0 135 129" fill="none" xmlns="http://www.w3.org/2000/svg">
<g opacity="0.7">
<path opacity="0.4" fill-rule="evenodd" clip-rule="evenodd" d="M9.48062 22.211C7.27768 24.8145 5.37518 27.468 3.88987 30.5388C2.57144 33.2758 2.10407 36.3299 1.62009 39.2838C1.33638 41.0362 1.08608 42.8052 0.819054 44.5742C0.585408 46.143 0.134806 47.7785 0.40183 49.364C0.768987 51.5001 0.88585 53.87 1.90388 55.8226C3.00535 57.9087 4.14015 59.7445 5.60877 61.597C7.04402 63.3994 8.76302 64.2171 11.0661 64.384C12.3178 64.4675 13.5527 64.2839 14.8211 64.4508C16.5568 64.6844 18.2924 65.0015 20.0281 65.2685C23.516 65.836 27.438 65.8526 29.9413 62.9988C31.9773 60.6791 32.9286 57.7919 34.2304 55.0215C35.6156 52.0843 37.3512 49.631 39.9213 47.645C41.8238 46.1764 43.476 44.5242 45.3118 42.9721C46.1462 42.2711 46.6469 41.5035 47.5815 40.9861C48.4994 40.4687 49 39.9013 49.8011 39.1503C50.5187 38.4828 51.4033 38.0322 52.0542 37.2645C53.0889 36.0462 53.9066 34.4273 54.4574 32.942C55.0415 31.39 55.3251 29.7544 55.5421 28.1356C55.759 26.5502 55.2918 24.948 54.7912 23.4293C53.8399 20.5421 51.3865 18.723 49.0668 16.9373C46.1963 14.7177 42.8084 13.733 39.2704 13.0488C36.0494 12.4146 32.1943 12.2811 28.9566 12.8652C25.5354 13.466 22.0307 13.9667 18.8431 15.4353C16.5233 16.5201 15.1048 18.0221 13.2356 19.6075C12.2844 20.4253 11.1162 20.976 10.2484 21.8939C9.06344 23.1623 7.94524 24.5308 9.48062 22.211Z" fill="#7D72B3"/>
<path opacity="0.4" fill-rule="evenodd" clip-rule="evenodd" d="M43.2925 8.29245C43.7598 7.47469 44.2771 6.32316 44.928 5.55546C45.2784 5.13824 45.7291 4.82115 46.1296 4.48737C47.3813 3.43597 48.7497 2.55145 50.3185 2.10085C51.1863 1.85052 52.1543 1.83383 53.0222 2.05078C53.9067 2.28443 55.5255 2.88523 56.2097 3.5361C57.4781 4.73771 56.6437 6.80714 56.2598 8.20901C55.876 9.62757 55.4254 10.9794 54.157 11.8806C53.3226 12.4647 52.3379 12.932 51.3533 13.1656C50.8025 13.2991 50.2518 13.2491 49.6844 13.3158C49.2338 13.3659 48.7998 13.4827 48.3492 13.4827C47.3145 13.4827 45.7457 12.7484 45.3118 11.7304C45.0781 11.1963 44.9613 10.6623 44.711 10.1282C44.5274 9.7277 44.3939 9.29379 44.2271 8.89325C43.9267 8.12556 43.6429 7.39125 43.2925 8.29245Z" fill="#7D72B3"/>
<path opacity="0.4" fill-rule="evenodd" clip-rule="evenodd" d="M55.6255 16.253C55.3251 17.0707 55.1581 17.9219 55.1248 18.7897C55.5086 19.0233 55.6422 19.4906 56.0093 19.7076C56.3765 19.9245 56.8103 19.8411 57.2109 19.8244C57.9619 19.8244 58.6795 19.8244 58.8131 18.9065C58.9299 18.1054 58.2123 17.5213 57.6115 17.0707C57.1776 16.7536 56.3097 16.0193 55.8258 16.6201L55.6255 16.253Z" fill="#7D72B3"/>
<path opacity="0.4" fill-rule="evenodd" clip-rule="evenodd" d="M65.9728 28.3859C65.0048 29.0702 63.9535 29.7044 63.0356 30.4387C61.8674 31.3732 60.9327 32.5582 60.0315 33.7431C58.8967 35.2117 57.5615 36.7471 57.8453 38.7164C58.129 40.669 58.7799 42.2878 60.2819 43.5896C62.0175 45.1082 64.6878 45.0916 66.6905 46.0762C68.4094 46.9107 69.5108 48.6463 70.362 50.2985C71.6637 52.8019 74.4174 53.2358 76.9207 53.7197C78.5562 54.0201 80.1585 54.2538 81.8107 54.4541C84.0136 54.7211 86.1998 55.1383 88.4194 55.3553C92.4748 55.7391 96.5804 56.6904 100.669 56.3566C105.008 56.0061 108.947 54.4541 112.502 51.9841C115.539 49.8646 118.259 46.193 119.06 42.5548C119.911 38.7331 118.643 34.4607 116.791 31.1229C114.387 26.7838 111.534 22.7117 108.446 18.8231C106.727 16.6703 104.758 14.751 103.006 12.6315C101.487 10.7958 99.9014 9.14355 98.099 7.59148C94.0436 4.10349 89.0203 1.23299 83.5797 0.949279C81.5103 0.832456 79.4074 1.14955 77.4715 1.90055C75.7692 2.56811 74.5342 3.53607 73.2658 4.85449C70.0449 8.1756 68.3594 12.3812 66.9742 16.7203C66.34 18.7063 65.7391 20.9593 65.9728 23.0621C66.0395 23.713 66.3901 24.2137 66.3734 24.8312C66.3734 25.3986 66.3734 25.9827 66.3734 26.5501C66.3734 26.8839 66.4067 27.1509 66.2899 27.4346C66.0896 27.8519 65.6223 28.3192 65.9728 28.3859Z" fill="#7D72B3"/>
<path opacity="0.4" fill-rule="evenodd" clip-rule="evenodd" d="M48.8664 43.1057C46.7636 44.3239 44.6108 45.2919 43.0587 47.2612C42.7917 47.6117 42.3745 47.9955 42.5247 48.4795C42.6915 48.9968 43.2757 49.2973 43.7263 49.4808C45.2951 50.1317 47.1975 50.4655 48.8664 50.1484C50.3684 49.848 52.3544 48.83 53.1555 47.4782C54.1902 45.7592 53.022 42.9721 50.8524 43.1223C50.5186 43.139 50.2684 43.3059 49.9513 43.3393C49.7009 43.3727 49.4172 43.3226 49.1502 43.3226C48.8498 43.3393 48.7831 43.3894 48.5327 43.4895C48.2824 43.5729 47.9485 43.8733 48.8664 43.1057Z" fill="#7D72B3"/>
<path opacity="0.4" fill-rule="evenodd" clip-rule="evenodd" d="M5.70877 71.9441C4.85763 72.7118 4.00649 73.3126 3.50582 74.3473C3.03853 75.3152 2.72148 76.2331 2.50452 77.2845C2.30425 78.1857 2.05391 79.1537 2.28756 80.0716C2.48782 80.906 2.88831 81.7238 3.17202 82.5249C3.53918 83.5763 3.87305 84.5609 4.1067 85.6624C4.39041 87.0142 4.891 88.1657 5.49181 89.4174C6.09261 90.6357 6.76017 91.8039 7.4778 92.9554C8.2288 94.1404 9.09662 95.0749 10.0813 96.0763C13.4858 99.6143 17.6414 103.369 22.7148 104.004C25.2682 104.321 27.9552 103.67 29.8243 101.834C31.8771 99.8313 33.1788 96.9441 33.6128 94.1237C33.9799 91.7205 33.7462 89.2338 32.4445 87.1477C31.4098 85.4788 30.2749 83.6931 28.9398 82.2578C28.0386 81.2899 27.0038 80.4554 26.0192 79.5709C25.0346 78.6864 24.1 77.7518 23.0319 76.9674C21.1628 75.5989 19.3436 74.1637 17.4745 72.7952C15.7722 71.5602 13.9364 70.2251 11.8503 69.7244C10.415 69.374 8.82964 69.0902 7.41108 69.641C6.81028 69.8746 6.34296 70.0916 6.02587 70.6423C5.87567 70.9093 5.5085 71.3933 5.49181 71.6937C5.40836 71.7104 5.3583 71.7271 5.70877 71.9441Z" fill="#7D72B3"/>
<path opacity="0.4" fill-rule="evenodd" clip-rule="evenodd" d="M19.0267 68.5563C19.0935 69.1571 19.1603 69.7579 19.2271 70.3587C19.2771 70.559 19.3104 70.7426 19.3605 70.9428C19.4773 71.0764 19.9279 71.1264 20.0948 71.1431C20.6956 71.2099 21.3632 70.8928 21.8305 70.5089C22.5648 69.9415 22.8819 68.6231 22.2143 67.9555C21.6803 67.4215 20.9794 67.2212 20.2284 67.3714C19.8445 67.4549 18.1756 68.3227 18.8431 68.9569L19.0267 68.5563Z" fill="#7D72B3"/>
<path opacity="0.4" fill-rule="evenodd" clip-rule="evenodd" d="M118.877 52.2512C119.144 50.9161 119.16 50.065 119.978 49.0636C120.696 48.1958 121.48 47.3947 122.164 46.4935C123.416 44.858 124.201 42.9388 124.668 40.9361C125.085 39.1671 124.651 37.4481 125.435 35.7458C125.619 35.3453 125.836 34.5776 126.27 34.3773C126.67 34.1938 127.455 34.344 127.805 34.5609C128.173 34.7779 128.54 35.2452 128.84 35.5122C129.391 35.9962 129.858 36.5302 130.342 37.0643C132.829 39.7679 134.197 43.8066 134.18 47.4615C134.164 49.5977 133.93 51.5836 133.229 53.5863C132.946 54.4041 132.645 55.1384 132.195 55.8894C131.661 56.8073 130.976 57.358 130.092 57.9254C127.522 59.5777 123.767 58.9602 121.63 56.9241C120.829 56.1731 120.462 55.1384 119.945 54.2539C119.544 53.5529 119.144 52.9354 119.01 52.101C118.994 52.0676 118.943 52.0676 118.877 52.2512Z" fill="#7D72B3"/>
<path opacity="0.4" fill-rule="evenodd" clip-rule="evenodd" d="M118.877 24.1971C119.294 25.649 119.511 27.2345 121.013 27.9855C121.263 28.119 121.814 28.3193 122.114 28.3359C122.498 28.3526 122.765 28.1357 123.066 27.9187C124.634 26.7672 123.733 24.1303 122.682 22.9454C122.064 22.2445 121.347 22.0108 120.479 21.7605C120.078 21.6437 120.178 21.6103 119.845 21.7605C119.594 21.8773 119.427 21.9941 119.294 22.1944C119.16 22.4114 119.11 22.7451 119.094 22.9955C119.077 23.2792 118.994 23.4294 118.944 23.6297C118.843 24.1303 118.893 24.5309 119.094 24.9815L118.877 24.1971Z" fill="#7D72B3"/>
<path opacity="0.4" fill-rule="evenodd" clip-rule="evenodd" d="M107.144 84.878C106.76 85.8627 106.46 86.8974 106.026 87.8653C105.559 88.9001 105.092 89.9348 104.658 90.9695C103.506 93.7232 102.872 96.5603 102.121 99.4308C101.336 102.451 100.836 105.522 100.535 108.626C100.368 110.229 100.135 111.764 100.168 113.366C100.202 114.518 100.202 115.903 100.602 117.004C100.852 117.689 101.487 118.723 102.204 119.024C103.122 119.424 104.307 118.656 105.075 118.256C108.112 116.754 110.699 114.451 113.119 112.098C115.505 109.778 117.909 107.575 119.878 104.888C120.779 103.653 121.78 102.451 122.531 101.116C123.166 100.015 123.583 98.7966 124.167 97.6618C124.701 96.5937 125.085 95.4755 125.602 94.3907C126.22 93.089 126.787 91.7372 127.204 90.352C128.022 87.6985 128.74 85.0115 127.822 82.2745C127.037 79.9548 125.102 78.1691 122.698 77.6517C121.397 77.368 119.928 76.9841 118.593 77.0843C117.274 77.1844 115.873 77.5516 114.654 78.0522C113.586 78.4861 112.518 79.0035 111.55 79.621C110.999 79.9715 110.632 80.4388 110.198 80.9061C109.464 81.6904 108.746 82.5249 108.196 83.4428C107.912 83.9101 107.662 84.1771 107.294 84.5776C106.81 85.1617 106.593 85.9962 107.144 84.878Z" fill="#7D72B3"/>
<path opacity="0.4" fill-rule="evenodd" clip-rule="evenodd" d="M95.412 119.291C93.8266 119.892 92.5249 120.459 91.1731 121.46C89.5543 122.662 88.0523 123.88 86.9007 125.532C86.4835 126.133 85.6323 127.185 86.2665 127.886C86.8173 128.503 87.7018 128.453 88.4528 128.436C89.5376 128.42 90.6223 128.219 91.6403 127.802C92.5749 127.402 93.4261 126.884 94.394 126.567C95.3286 126.25 96.597 125.633 97.2145 124.832C97.5649 124.381 97.7819 123.747 98.1156 123.263C98.3827 122.862 98.4661 122.562 98.416 122.061C98.3493 121.51 97.9989 120.709 97.565 120.325C97.1811 119.975 96.43 119.625 95.9127 119.675C95.6457 119.708 95.2953 119.808 95.0449 119.908C94.3941 120.175 93.8933 120.96 95.412 119.291Z" fill="#7D72B3"/>
<path opacity="0.4" fill-rule="evenodd" clip-rule="evenodd" d="M93.4261 110.128C93.109 108.944 92.7419 108.009 92.842 106.807C92.9421 105.723 92.9255 104.821 93.4929 103.837C93.7265 103.42 94.4274 102.134 94.878 101.968C95.0449 101.918 95.5122 101.934 95.6624 101.951C96.4635 102.051 96.9475 103.052 97.1144 103.77C97.3647 104.888 97.1978 106.19 97.1978 107.341C97.1978 108.226 97.0809 109.06 96.7471 109.895C96.4801 110.562 95.9462 110.562 95.2619 110.529C94.5944 110.496 94.3106 110.312 93.8266 109.928C93.643 109.778 93.376 109.728 93.2091 109.594C92.9921 109.394 93.0756 109.127 93.4261 110.128Z" fill="#7D72B3"/>
<path opacity="0.4" fill-rule="evenodd" clip-rule="evenodd" d="M92.0244 62.9989C91.8908 63.8333 91.824 64.6511 91.8574 65.4855C92.1578 65.4855 92.475 66.0363 92.8588 66.1364C93.4095 66.2699 93.9769 65.9361 94.4109 65.5857C95.3454 64.8347 95.6124 63.4161 95.3955 62.2813C95.1952 61.1798 93.9268 61.063 93.0089 61.1798C92.7085 61.2132 92.2413 61.3634 92.0076 61.5803C91.4569 62.0643 91.4068 62.6651 91.4235 63.3827L92.0244 62.9989Z" fill="#7D72B3"/>
<path opacity="0.4" fill-rule="evenodd" clip-rule="evenodd" d="M20.8122 114.317C21.3129 113.433 21.7635 112.482 22.4144 111.714C23.1487 110.846 23.9665 109.912 24.8176 109.144C25.869 108.193 27.0707 107.308 28.1888 106.44C29.2235 105.639 30.2916 104.855 31.4098 104.154C33.3457 102.936 35.365 102.134 37.5179 101.383C39.2702 100.783 41.1227 100.582 42.9585 100.95C44.8444 101.333 46.6634 102.401 48.0486 103.703C49.3837 104.955 50.7689 106.474 51.5867 108.126C53.2556 111.497 52.6047 115.152 51.4698 118.573C50.9692 120.092 49.9011 121.928 48.6161 122.929C47.8818 123.496 47.014 123.863 46.1294 124.064C45.1114 124.297 43.9598 124.631 42.9418 124.765C38.4525 125.332 33.8296 125.015 29.5739 123.43C27.8884 122.812 26.2195 122.044 24.6007 121.26C23.3156 120.643 22.2475 119.841 21.3797 118.69C20.7455 117.839 20.2115 116.821 20.2282 115.736C20.2449 115.252 20.4118 114.818 20.4618 114.334C20.6621 114.334 20.8456 114.201 20.8122 114.317Z" fill="#7D72B3"/>
<path opacity="0.4" fill-rule="evenodd" clip-rule="evenodd" d="M54.6408 116.303C54.3237 117.121 54.1235 117.972 54.04 118.84C54.3404 119.007 54.3237 119.508 54.5574 119.791C54.8077 120.108 55.0914 120.259 55.4753 120.292C55.8758 120.309 56.3598 120.325 56.7436 120.275C57.3611 120.175 57.4947 119.958 57.8118 119.491C58.1789 118.974 58.2623 118.757 58.2123 118.089C58.1789 117.622 58.0454 117.138 57.7616 116.754C57.5781 116.52 57.261 116.136 57.0106 115.953C56.4265 115.536 55.976 115.769 55.4085 116.12L54.6408 116.303Z" fill="#7D72B3"/>
<path opacity="0.4" fill-rule="evenodd" clip-rule="evenodd" d="M128.239 77.5182C127.555 76.9842 126.987 76.35 126.537 75.6157C126.604 75.3153 126.587 75.0149 126.503 74.7145C126.387 73.9468 126.253 73.3293 126.403 72.5449C126.77 70.7258 128.356 69.3907 130.192 69.1737C131.393 69.0402 133.162 70.0082 133.797 70.9928C134.464 72.0275 134.748 73.4294 134.798 74.6477C134.848 75.649 134.614 76.8507 134.013 77.6851C133.596 78.2692 132.745 78.2859 132.061 78.3193C131.293 78.3527 130.509 78.2192 129.775 77.9688C129.224 77.7852 128.606 77.368 128.239 77.5182Z" fill="#7D72B3"/>
</g>
</svg>
