<svg width="202" height="70" viewBox="0 0 202 70" fill="none" xmlns="http://www.w3.org/2000/svg">
<g opacity="0.75">
<path d="M22.2043 56.4015L162.377 56.4015L179.151 43.1874L179.151 12.4592L38.9706 12.4592L22.2043 25.6658L22.2043 56.4015Z" fill="black"/>
</g>
<path d="M130.063 12.3021L172.742 12.3021L169.07 7.00003L133.735 7.00002L130.063 12.3021Z" fill="#00FFFF"/>
<path d="M28.8002 57.6803L71.4862 57.6803L67.8069 62.9899L32.4795 62.9899L28.8002 57.6803Z" fill="#00FFFF"/>
<path d="M22.2046 56.5511L22.2046 25.8154L38.9709 12.6087L179.151 12.6087L179.151 43.3444L162.377 56.5511L22.2046 56.5511ZM21.0754 57.6803L22.2046 57.6803L162.377 57.6803L162.766 57.6803L163.073 57.441L179.847 44.2269L180.28 43.8904L180.28 43.3444L180.28 12.6087L180.28 11.4795L179.151 11.4795L38.9709 11.4795L38.582 11.4795L38.2754 11.7188L21.5091 24.9329L21.0754 25.2695L21.0754 25.8228L21.0754 56.5511L21.0754 57.6803Z" fill="#00FFFF"/>
<path d="M28.8002 57.6803L71.4862 57.6803L67.8069 62.9899L32.4795 62.9899L28.8002 57.6803Z" fill="#00FFFF"/>
<path d="M18.1211 53.2532L22.0621 53.2532L22.0621 35.941L18.1211 35.941L18.1211 53.2532Z" fill="#00FFFF"/>
<path d="M179.285 32.9197L183.226 32.9197L183.226 15.6075L179.285 15.6075L179.285 32.9197Z" fill="#00FFFF"/>
<path d="M181.596 44.526L163.23 59.0039L111.876 59.0039L111.876 60.1331L163.618 60.1331L182.725 45.0794L182.725 39.5081L181.596 39.5081L181.596 44.526Z" fill="#00FFFF"/>
<path d="M19.7515 29.3451L19.7515 24.6338L38.1181 10.1558L89.4789 10.1558L89.4789 9.02663L37.7292 9.02662L18.6223 24.0804L18.6223 29.3451L19.7515 29.3451Z" fill="#00FFFF"/>
<path d="M57.15 51.3611L155.317 51.3611C155.631 51.3611 155.886 51.6154 155.886 51.9295C155.886 52.2436 155.631 52.4978 155.317 52.4978L57.1575 52.4978C56.8434 52.4978 56.5891 52.2436 56.5891 51.9295C56.5891 51.6079 56.8434 51.3611 57.15 51.3611Z" fill="#00FFFF"/>
<path d="M51.7805 50.0375C50.7397 50.0375 49.896 50.8812 49.896 51.922C49.896 52.9628 50.7397 53.8065 51.7805 53.8065C52.8213 53.8065 53.665 52.9628 53.665 51.922C53.665 50.8812 52.8213 50.0375 51.7805 50.0375Z" fill="#00FFFF"/>
<path opacity="0.8" d="M46.0521 50.0375C45.0113 50.0375 44.1676 50.8812 44.1676 51.922C44.1676 52.9628 45.0113 53.8065 46.0521 53.8065C47.0929 53.8065 47.9366 52.9628 47.9366 51.922C47.9366 50.8812 47.0929 50.0375 46.0521 50.0375Z" fill="#00FFFF"/>
<path opacity="0.6" d="M40.3237 50.0375C39.2829 50.0375 38.4392 50.8812 38.4392 51.922C38.4392 52.9628 39.2829 53.8065 40.3237 53.8065C41.3645 53.8065 42.2083 52.9628 42.2083 51.922C42.2083 50.8812 41.3645 50.0375 40.3237 50.0375Z" fill="#00FFFF"/>
<path opacity="0.4" d="M34.5958 50.0375C33.555 50.0375 32.7113 50.8812 32.7113 51.922C32.7113 52.9628 33.555 53.8065 34.5958 53.8065C35.6366 53.8065 36.4803 52.9628 36.4803 51.922C36.4803 50.8812 35.6366 50.0375 34.5958 50.0375Z" fill="#00FFFF"/>
</svg>
