<svg width="203" height="113" viewBox="0 0 203 113" fill="none" xmlns="http://www.w3.org/2000/svg">
<path d="M202.542 28.5727C202.512 34.8927 197.332 37.9827 194.592 42.6927C193.962 43.7727 193.462 44.9427 193.182 46.2527C193.162 46.3527 193.142 46.4527 193.122 46.5527C191.442 54.7027 192.262 63.2727 185.392 69.3227C179.282 74.7027 173.422 77.9827 171.462 86.6827C170.152 92.4827 170.032 96.8827 164.812 100.333C160.652 103.093 156.292 103.933 151.332 102.833C145.762 101.603 140.602 98.7427 134.942 97.9827C123.122 96.4027 114.892 103.863 105.032 108.583C95.0017 113.373 81.7817 113.823 71.1717 111.133C68.6917 110.503 66.2017 109.323 63.7017 108.173C60.4317 106.663 57.1417 105.193 53.8717 105.083C53.1017 105.053 52.3317 105.063 51.5417 105.103C44.8717 105.443 37.8517 107.983 31.4317 109.123C23.7317 110.493 15.3217 110.723 8.58174 106.743C7.03174 105.823 5.35174 104.283 3.89174 102.413C2.97174 101.223 2.13174 99.9127 1.47174 98.5427C-0.278258 94.8927 -0.768258 90.8627 1.68174 87.9127C3.73174 85.4327 8.07174 84.9327 10.6117 82.8427C13.7917 80.2227 16.1117 76.4927 16.7117 72.3827C17.4117 67.5627 16.0017 62.7327 15.2617 57.9127C14.5317 53.1027 14.6317 47.7027 17.7717 43.9827C21.6217 39.4227 28.5017 39.0927 34.4217 39.8827C40.3417 40.6827 46.5417 42.2027 52.1317 40.1027C58.0317 37.8827 61.7917 32.1827 66.9017 28.4927C75.0817 22.5827 86.0017 22.3027 96.0517 23.2727C110.902 24.7027 134.672 28.1427 145.482 15.5627C149.262 11.1627 152.262 5.95273 157.022 2.62273C161.782 -0.697269 169.242 -1.28727 172.732 3.34273C174.332 5.46273 174.822 8.29273 176.062 10.5927C176.462 11.3427 176.952 12.0327 177.572 12.6327C181.042 15.9227 186.652 14.4327 191.372 15.2327C191.522 15.2627 191.682 15.2927 191.832 15.3227C197.812 16.5927 202.572 22.4127 202.542 28.5727Z" fill="#38778A"/>
<path d="M202.542 28.5727C202.512 34.8927 197.332 37.9827 194.592 42.6927C193.962 43.7727 193.462 44.9427 193.182 46.2527C193.162 46.3527 193.142 46.4527 193.122 46.5527C191.442 54.7027 192.262 63.2727 185.392 69.3227C179.282 74.7027 173.422 77.9827 171.462 86.6827C170.152 92.4827 170.032 96.8827 164.812 100.333C160.652 103.093 156.292 103.933 151.332 102.833C145.762 101.603 140.602 98.7427 134.942 97.9827C123.122 96.4027 114.892 103.863 105.032 108.583C95.0017 113.373 81.7817 113.823 71.1717 111.133C68.6917 110.503 66.2017 109.323 63.7017 108.173C60.4317 106.663 57.1417 105.193 53.8717 105.083C53.1017 105.053 52.3317 105.063 51.5417 105.103C44.8717 105.443 37.8517 107.983 31.4317 109.123C23.7317 110.493 15.3217 110.723 8.58174 106.743C7.03174 105.823 5.35174 104.283 3.89174 102.413C6.69174 104.213 9.79174 105.623 13.0117 106.533C13.8017 106.763 14.5917 106.953 15.4017 107.113C21.0117 108.263 26.8817 107.913 32.1717 105.573C36.0817 103.853 39.3017 100.723 43.1517 99.0527C46.7117 97.5127 51.0117 96.7627 54.8617 96.5327C63.5317 96.0127 72.0917 98.2127 80.6117 99.4327C86.1617 100.223 92.3917 99.7527 96.6017 96.1627C96.6617 96.1127 96.7217 96.0527 96.7917 96.0027C96.9817 95.8327 97.1717 95.6527 97.3517 95.4727C98.9517 93.8627 100.042 91.8827 100.932 89.7627C101.652 88.0527 102.252 86.2427 102.892 84.4727C103.152 83.7527 103.422 83.0327 103.712 82.3227C103.862 81.9527 104.012 81.6027 104.172 81.2427C105.152 79.0527 106.392 77.0627 108.252 75.5427C112.392 72.1527 118.272 72.2927 123.562 73.6927C123.962 73.8027 124.362 73.9127 124.752 74.0327C125.062 74.1227 125.362 74.2227 125.662 74.3227C129.912 75.7327 134.072 77.7227 138.412 78.6827C139.952 79.0227 141.512 79.2427 143.112 79.2527C149.432 79.3127 155.242 76.0727 159.532 71.5927C159.792 71.3227 160.042 71.0527 160.292 70.7727C160.622 70.4027 160.942 70.0227 161.252 69.6327C161.562 69.2327 161.872 68.8227 162.162 68.4127C162.452 67.9927 162.742 67.5727 163.002 67.1427C164.192 65.2427 165.172 63.2227 165.982 61.1527C167.882 56.3027 167.102 50.8727 169.532 46.3527C170.532 44.5027 171.772 42.7727 173.222 41.2427C175.262 39.0727 177.712 37.2927 180.422 36.0527C183.112 34.8227 186.012 34.1127 188.722 32.9327C191.432 31.7527 194.052 29.9827 195.352 27.3227C196.942 24.0727 196.172 19.9427 193.842 17.1727C193.252 16.4727 192.572 15.8527 191.832 15.3227C197.812 16.5927 202.572 22.4127 202.542 28.5727Z" fill="#384769"/>
<path d="M172.702 3.34273C174.302 5.46273 174.792 8.29273 176.032 10.5927C175.472 10.1127 174.902 9.65273 174.262 9.29273C173.172 8.67273 171.942 8.41273 170.702 8.43273C169.942 8.44273 169.172 8.56273 168.422 8.78273C167.232 9.12273 166.102 9.70273 165.132 10.4627C164.822 10.7127 164.522 10.9727 164.232 11.2527C163.592 11.8727 163.022 12.5527 162.512 13.2827C162.332 13.5327 162.172 13.7827 162.012 14.0427C161.742 14.4827 161.482 14.9327 161.252 15.4027C160.722 16.4127 160.282 17.4727 159.892 18.5427C159.862 18.6127 159.842 18.6827 159.812 18.7527C159.402 19.8927 159.032 21.0627 158.672 22.2227C158.522 22.7027 158.372 23.1827 158.212 23.6527C158.212 23.6627 158.202 23.6627 158.202 23.6727C158.152 23.8127 158.112 23.9527 158.062 24.0927C158.062 24.1027 158.052 24.1227 158.052 24.1327C157.652 25.3527 157.212 26.5727 156.682 27.7427C155.942 29.3827 155.032 30.9327 153.962 32.3727C153.432 33.0927 152.862 33.7827 152.252 34.4427C151.352 35.4327 150.372 36.3527 149.322 37.1827C147.882 38.3327 146.492 39.2227 145.222 40.5227C143.802 41.9727 141.972 43.2127 140.182 44.1427C131.342 48.7427 121.082 45.6027 110.942 44.3327C109.592 44.1627 108.252 44.0227 106.902 43.9427C106.522 43.9227 106.142 43.9027 105.762 43.8927C105.502 43.8827 105.232 43.8727 104.972 43.8727C104.402 43.8627 103.832 43.8627 103.262 43.8827C102.722 43.8927 102.192 43.9227 101.652 43.9727C95.8517 44.4327 90.3417 46.5427 84.9117 48.6327C83.5917 49.1427 82.2817 49.6527 80.9617 50.1527C76.6917 51.8027 72.4217 53.4427 68.1617 55.0927C67.9017 55.1927 67.6517 55.2927 67.3917 55.3927C67.1617 55.4827 66.9317 55.5727 66.7017 55.6727C66.1017 55.9127 65.5217 56.1627 64.9517 56.4227C61.6017 57.9427 58.5917 59.7627 55.3517 61.6427C53.1917 62.8927 50.8117 63.4827 48.4517 64.3427C47.9117 64.5427 47.3717 64.7527 46.8417 64.9927C46.5217 65.1327 46.2117 65.2827 45.8917 65.4427C45.8317 65.4727 45.7817 65.5027 45.7217 65.5327C45.1017 65.8527 44.4717 66.1627 43.8417 66.4627C40.8917 67.8727 37.8317 69.1327 34.9417 70.6727C33.9817 71.1727 33.0417 71.7127 32.1317 72.3027C31.7717 72.5327 31.4217 72.7627 31.0717 73.0027C30.6217 73.3127 30.1917 73.6327 29.7617 73.9727C27.8417 75.4827 25.7517 77.4127 24.2017 79.3127C22.1817 81.7927 21.2417 85.0627 19.1917 87.6027C18.8317 88.0527 18.4417 88.4927 18.0317 88.9027C15.9917 90.9927 13.4317 92.6127 10.5717 93.0827C9.08174 93.3227 7.55174 93.2527 6.06174 93.5027C4.57174 93.7627 3.05174 94.4427 2.30174 95.7627C1.82174 96.6027 1.72174 97.6027 1.47174 98.5327C-0.278258 94.8827 -0.768258 90.8527 1.68174 87.9027C3.73174 85.4227 8.07174 84.9227 10.6117 82.8327C13.7917 80.2127 16.1117 76.4827 16.7117 72.3727C17.4117 67.5527 16.0017 62.7227 15.2617 57.9027C14.5317 53.0927 14.6317 47.6927 17.7717 43.9727C21.6217 39.4127 28.5017 39.0827 34.4217 39.8727C40.3417 40.6727 46.5417 42.1927 52.1317 40.0927C58.0317 37.8727 61.7917 32.1727 66.9017 28.4827C75.0817 22.5727 86.0017 22.2927 96.0517 23.2627C110.902 24.6927 134.672 28.1327 145.482 15.5527C149.262 11.1527 152.262 5.94273 157.022 2.61273C161.752 -0.69727 169.212 -1.28727 172.702 3.34273Z" fill="#00A89D"/>
<path d="M40.5217 83.9727C41.9517 80.1427 44.7817 77.0127 47.7817 74.2327C50.0517 72.1327 52.5417 70.1227 55.5217 69.2727C58.6717 68.3727 60.6517 68.6327 63.6017 69.8927C66.8017 71.2527 69.9617 72.7127 73.0617 74.2827C73.3617 74.4327 73.7117 74.6627 73.7017 74.9927C73.6917 75.4627 73.0717 75.6127 72.6017 75.6127C69.2117 75.6227 65.6717 74.6827 62.3617 75.2227C59.2817 75.7327 56.3117 76.4827 53.7317 78.3327C50.4517 80.7027 48.3917 84.3627 46.4317 87.9027C45.3217 89.9027 44.2817 91.9627 43.1017 93.9227C42.2117 95.3927 42.1117 96.1127 40.9817 94.6727C38.8917 92.0427 39.4517 86.8127 40.5217 83.9727Z" fill="#00A89D"/>
<path d="M96.3917 70.2227C98.0917 69.1627 100.002 68.3827 101.982 67.8827C102.452 67.7627 102.932 67.6627 103.412 67.7327C106.352 68.1927 102.912 70.2227 102.322 70.8227C100.742 72.4427 99.3617 74.3127 98.1417 76.2127C97.3817 77.3927 96.6817 78.6227 95.7017 79.6227C93.8117 81.5527 88.9617 82.3827 90.0317 78.4727C91.0217 74.8427 93.3817 72.0927 96.3917 70.2227Z" fill="#384769"/>
<path d="M165.342 37.5927C163.312 37.7927 161.292 38.2027 159.362 38.8527C157.172 39.5927 154.572 40.8327 153.712 43.1527C152.902 45.3427 152.272 48.4727 152.652 50.7527C153.062 53.2427 155.682 56.0327 158.092 56.7327C161.352 57.6827 163.002 53.6527 162.532 50.9827C162.232 49.2627 161.582 47.5227 161.982 45.8227C162.492 43.6727 164.202 42.7727 166.032 41.8627C166.992 41.3927 171.182 39.3227 169.002 37.8027C168.502 37.4527 167.852 37.4427 167.242 37.4627C166.612 37.4827 165.982 37.5227 165.342 37.5927Z" fill="#384769"/>
<path d="M55.5617 54.3227C57.8417 54.0327 59.9617 52.6727 61.1917 50.7227C62.4117 48.7727 62.7217 46.2727 62.0017 44.0927C61.8017 43.5027 61.4917 42.8827 60.9217 42.6227C59.9817 42.1927 58.9517 42.9227 58.0817 43.4927C55.7517 45.0127 52.9617 45.4527 50.2317 45.5227C48.5417 45.5627 44.8117 44.4427 44.2417 46.5227C43.0017 51.0227 52.4117 54.7327 55.5617 54.3227Z" fill="#38778A"/>
<path d="M113.872 37.2427C115.212 38.1627 116.582 39.1027 118.162 39.4927C119.742 39.8827 121.592 39.5927 122.652 38.3727C123.622 37.2527 123.742 35.6627 124.102 34.2227C124.462 32.7827 125.352 31.2127 126.822 31.0827C127.542 31.0127 128.242 31.3127 128.962 31.3427C129.682 31.3727 130.542 30.9327 130.512 30.2127C130.482 29.4127 129.472 29.1027 128.672 29.0027C123.822 28.4227 118.982 27.8427 114.132 27.2527C110.462 26.8127 106.792 26.3727 103.122 25.9327C97.7217 25.2827 101.712 28.8627 103.822 30.3227C107.182 32.6227 110.532 34.9327 113.872 37.2427Z" fill="#38778A"/>
<path d="M149.172 36.0927C151.132 34.3627 153.922 33.9127 156.542 33.9927C159.162 34.0727 161.752 34.6227 164.362 34.5727C166.982 34.5227 169.752 33.7727 171.432 31.7627C173.852 28.8727 173.192 24.6627 172.592 21.2527C172.002 17.8927 168.532 15.1027 165.362 14.3027C161.972 13.4527 158.172 14.4927 155.682 16.9527C158.122 18.0127 160.552 19.0827 162.992 20.1427C162.912 20.1127 160.972 21.3227 160.682 21.4227C159.922 21.6827 159.272 21.9627 158.552 22.2827C156.652 23.1227 154.712 23.6727 152.952 24.8227C150.792 26.2227 148.952 28.3127 148.412 30.8227C147.942 32.9127 147.942 34.3627 149.172 36.0927Z" fill="#00A89D"/>
<path d="M40.2717 75.4727C42.6017 74.9027 44.4917 73.1427 45.7517 71.1027C47.0117 69.0627 47.7217 66.7427 48.4117 64.4527C48.7317 63.3927 49.0017 62.1227 48.2817 61.2827C47.5117 60.3927 46.1117 60.5527 44.9617 60.7927C42.5717 61.2927 40.1617 61.8027 37.9017 62.7327C34.9517 63.9527 29.8217 67.5227 30.2617 71.3427C30.6717 74.8227 37.6617 76.1227 40.2717 75.4727Z" fill="#00A89D"/>
<path d="M75.5217 87.2527C76.6317 89.2027 77.2517 91.8827 75.7417 93.5527C74.6017 94.8127 72.7117 94.9827 71.0117 94.9327C66.9617 94.8227 62.9417 93.9827 59.1817 92.4527C57.9717 91.9627 56.6417 91.2027 56.4217 89.9127C56.1617 88.3427 57.7317 87.0927 59.1917 86.4527C60.6517 85.8127 62.3617 85.2327 63.0017 83.7627C63.4717 82.6827 63.0317 80.2527 64.1417 79.5427C65.1417 78.9027 67.3217 80.1127 68.2717 80.5627C71.2917 82.0027 73.8717 84.3527 75.5217 87.2527Z" fill="#00A89D"/>
<path d="M21.8917 97.8227C23.4517 99.0927 25.9217 98.9627 27.4517 97.6527C28.9817 96.3427 29.5117 94.0527 28.8917 92.1327C28.5817 91.1727 27.9617 90.2627 27.0317 89.8627C23.2517 88.2227 18.2317 94.8327 21.8917 97.8227Z" fill="#00A89D"/>
<path d="M66.9117 64.5227C68.5517 67.9927 71.8117 70.9827 75.7217 71.2427C78.0917 71.4027 80.4017 70.5627 82.6217 69.7327C89.0317 67.3427 95.4417 64.9527 101.852 62.5627C103.782 61.8427 105.752 61.1027 107.292 59.7627C109.082 58.2027 110.132 55.9527 110.622 53.6627C111.112 51.3727 111.102 49.0127 111.092 46.6727C111.082 45.5527 111.072 44.3927 110.632 43.3527C110.192 42.3127 109.212 41.4127 108.062 41.3827C107.052 41.3627 106.142 42.0127 105.562 42.8227C104.982 43.6327 104.682 44.5827 104.332 45.5027C101.372 53.3627 94.4517 59.7127 86.2217 62.1427C83.2617 63.0127 80.0917 63.4027 77.0717 62.7827C74.0417 62.1627 71.1817 60.4627 69.6217 57.8627C68.9717 56.7727 68.5517 55.5427 67.7517 54.5427C67.3017 53.9827 65.7117 52.5827 64.9217 53.2527C64.3117 53.7627 64.9017 56.0227 64.9817 56.6927C65.2717 59.3627 65.7517 62.0527 66.9117 64.5227Z" fill="#00A89D"/>
<path d="M144.992 84.5927C148.472 84.8227 152.042 84.3727 155.212 82.9327C158.382 81.4827 161.142 78.9827 162.532 75.7827C163.962 72.4927 163.862 68.5627 162.252 65.3627C160.642 62.1527 157.552 59.7227 154.062 58.9127C153.762 63.2327 153.312 67.9227 150.312 71.0427C147.962 73.4927 144.402 74.4927 141.012 74.3527C137.622 74.2127 134.362 73.0527 131.232 71.7327C129.532 71.0127 124.782 68.9827 124.282 72.2927C123.952 74.4627 127.722 77.1827 129.182 78.3527C133.662 81.9527 139.242 84.2127 144.992 84.5927Z" fill="#38778A"/>
<path d="M98.7317 98.8927C100.952 100.783 104.002 101.543 106.912 101.333C109.822 101.113 112.602 99.9927 115.092 98.4727C117.202 97.1827 119.172 95.5627 120.422 93.4327C121.672 91.3027 122.092 88.5827 121.102 86.3227C119.922 83.6427 116.982 82.0727 114.072 81.7227C111.162 81.3727 108.242 82.0327 105.382 82.6927C107.902 82.4327 110.392 84.6827 110.372 87.2227C110.352 89.7527 107.832 91.9727 105.322 91.6727C103.952 91.5127 102.742 90.7427 101.542 90.0627C99.4918 88.9127 95.2417 88.0627 95.3317 91.6027C95.4017 94.2127 96.7617 97.2127 98.7317 98.8927Z" fill="#38778A"/>
<path d="M176.472 54.3027C178.352 55.1027 180.702 54.5827 182.072 53.0727C183.442 51.5627 183.742 49.1727 182.772 47.3827C181.802 45.5827 179.642 44.5127 177.632 44.8327C177.922 45.8727 178.202 46.9727 177.922 48.0127C177.052 51.1827 174.332 48.0127 173.502 49.2927C172.432 50.9527 175.202 53.7727 176.472 54.3027Z" fill="#38778A"/>
<path d="M165.942 12.5127C163.322 11.7527 159.212 11.6027 155.862 12.5027C153.682 13.0927 151.662 14.4127 150.062 15.9827C148.452 17.5527 147.592 19.4827 146.742 21.5227C144.412 27.1327 145.822 29.1127 146.222 28.2727C147.472 25.6427 146.222 22.8827 152.752 17.6327C152.192 18.1427 157.772 12.9527 165.092 14.4627C166.172 14.6827 167.622 15.2627 168.512 15.0827C169.062 14.9727 169.812 13.6427 165.942 12.5127Z" fill="#29E1C2"/>
<path d="M91.9917 26.7127C91.3517 26.0127 90.3817 25.9727 89.4917 25.9327C88.7917 25.9027 88.0817 25.9427 87.3717 25.9927C85.8617 26.1027 84.3517 26.3227 82.8717 26.6727C80.0217 27.3427 77.2417 28.5627 74.7717 30.1227C69.8317 33.2427 66.0217 37.9627 63.9317 43.4027C63.3717 44.8527 62.9417 46.3527 62.6617 47.8827C62.5117 48.6727 62.3717 49.5027 62.3617 50.3127C62.3617 51.1327 62.5617 51.9327 62.5917 52.7527C62.6117 53.2627 63.3217 53.2427 63.3717 52.7527C63.4417 52.0727 63.7017 51.4727 63.8817 50.8127C64.0617 50.1527 64.1917 49.4727 64.3417 48.8027C64.6417 47.5027 65.0317 46.2227 65.5117 44.9827C66.4417 42.5727 67.7817 40.2627 69.3817 38.2327C71.0817 36.0827 73.0617 34.3327 75.3417 32.8827C77.7017 31.3827 80.0017 30.4127 82.7017 29.7227C83.4317 29.5327 84.1717 29.3627 84.9217 29.2327C85.1217 29.1927 85.3217 29.1627 85.5217 29.1327C85.5917 29.1227 85.6717 29.1127 85.7417 29.1027C85.7917 29.0927 85.8217 29.0927 85.8317 29.0927C85.8417 29.0927 85.8517 29.0927 85.8717 29.0827C86.2517 29.0327 86.6217 28.9927 87.0017 28.9627C87.7517 28.9027 88.5117 28.8727 89.2717 28.8627C89.6717 28.8627 90.0817 28.8327 90.4817 28.8227C90.7717 28.8127 91.0417 28.8027 91.3117 28.6927C91.5817 28.5927 91.7817 28.4127 92.0017 28.2327C92.4617 27.8727 92.3517 27.1027 91.9917 26.7127Z" fill="#29E1C2"/>
<path d="M107.372 44.9327C106.732 43.4427 105.822 42.1127 104.812 40.8627C104.332 40.2627 103.822 39.6427 103.252 39.1227C102.622 38.5527 101.872 37.7827 101.022 37.6627C100.142 37.5427 99.3517 38.1527 99.5717 39.1127C99.7517 39.8927 100.302 40.3327 100.792 40.9127C101.232 41.4327 101.692 41.9227 102.132 42.4427C102.872 43.3127 103.562 44.2827 104.182 45.4527C104.792 46.5727 105.182 47.6127 105.452 48.9927C105.482 49.1227 105.502 49.2627 105.522 49.3927C105.522 49.3927 105.562 49.7227 105.562 49.7127C105.592 50.0327 105.612 50.3527 105.612 50.6827C105.612 51.4527 105.572 51.8827 105.432 52.5127C105.362 52.8227 105.272 53.1327 105.172 53.4427C105.132 53.5627 105.092 53.6727 105.052 53.7827C105.062 53.7427 104.952 54.0227 104.942 54.0327C104.682 54.5827 104.372 55.1027 104.022 55.5927C104.012 55.6027 103.862 55.7927 103.852 55.8127C103.782 55.8927 103.712 55.9827 103.642 56.0627C103.462 56.2727 103.272 56.4827 103.072 56.6727C102.872 56.8727 102.672 57.0627 102.462 57.2527C102.352 57.3427 102.252 57.4427 102.142 57.5327C102.112 57.5627 101.832 57.7827 101.832 57.7827C99.9017 59.2527 97.6217 60.2427 95.4217 61.1127C93.9317 61.7027 92.4317 62.2627 90.9717 62.9227C90.2717 63.2427 89.6017 63.6127 88.9517 64.0327C88.2817 64.4727 87.7917 64.9727 87.2917 65.5827C87.1217 65.7927 87.2817 66.0727 87.5517 66.0327C88.2617 65.9127 88.9317 65.8227 89.6217 65.6127C90.3317 65.3927 91.0417 65.2027 91.7517 64.9727C93.1217 64.5327 94.5017 64.1327 95.8817 63.6927C98.4817 62.8627 101.042 61.8627 103.272 60.2527C105.492 58.6527 107.322 56.5527 108.142 53.9027C109.062 50.9527 108.582 47.7427 107.372 44.9327Z" fill="#29E1C2"/>
<path d="M106.932 35.7627C106.612 35.1427 106.212 34.5527 105.782 34.0027C104.972 32.9627 104.032 32.0327 102.972 31.2327C101.932 30.4427 100.782 29.7727 99.5617 29.3027C98.9717 29.0727 98.3517 28.8727 97.7317 28.7627C97.3817 28.7027 97.0317 28.6527 96.6717 28.6427C96.3317 28.6327 96.0117 28.5627 95.6817 28.6627C95.0517 28.8427 95.0417 29.6127 95.5117 29.9627C95.7517 30.1427 96.0817 30.2027 96.3517 30.3227C96.5917 30.4327 96.8417 30.5427 97.0817 30.6427C97.6217 30.8727 98.1617 31.1127 98.6817 31.3927C99.6517 31.9127 100.712 32.5527 101.472 33.1827C101.912 33.5427 102.342 33.9227 102.742 34.3327C102.952 34.5427 103.152 34.7627 103.352 34.9827C103.462 35.1027 103.562 35.2227 103.662 35.3527C103.682 35.3727 103.832 35.5627 103.832 35.5627C104.192 36.0227 104.522 36.5027 104.842 36.9827C105.202 37.5227 105.532 38.1927 106.112 38.4927C106.622 38.7527 107.292 38.5427 107.442 37.9527C107.642 37.2027 107.282 36.4327 106.932 35.7627Z" fill="#29E1C2"/>
<path d="M25.4017 55.1227C25.6417 54.5027 26.4018 52.9427 25.3518 52.6327C24.3018 52.3227 23.7117 53.9427 23.4217 54.6527C22.7017 56.4127 22.3417 58.2927 22.3117 60.1927C22.3017 61.2727 22.4018 62.3527 22.5918 63.4127C22.7818 64.4827 23.1318 65.5227 23.9418 66.2827C24.2618 66.5827 24.7018 66.3427 24.7517 65.9527C24.8617 64.9927 24.6818 64.0727 24.5318 63.1327C24.3818 62.2427 24.3418 61.3327 24.3618 60.4327C24.4118 58.6227 24.7617 56.8127 25.4017 55.1227Z" fill="#29E1C2"/>
<path d="M40.1017 50.1227C39.7917 49.6127 39.2017 49.2827 38.6917 49.0027C38.2017 48.7327 37.6017 48.5827 37.0617 48.4427C35.9217 48.1527 34.6917 48.0527 33.5217 48.1127C31.1917 48.2227 28.8317 48.9327 27.1217 50.5827C26.7517 50.9427 27.1317 51.7027 27.6517 51.5027C29.5317 50.7727 31.4917 50.1627 33.5117 50.1127C34.5017 50.0927 35.4617 50.2027 36.4317 50.4127C36.9317 50.5227 37.4117 50.7027 37.9117 50.8227C38.4217 50.9427 38.9917 51.1727 39.5117 51.1427C40.0117 51.1227 40.3817 50.5927 40.1017 50.1227Z" fill="#29E1C2"/>
<path d="M29.3717 72.4727C28.8217 71.8227 28.1217 71.2927 27.4517 70.7627C26.7717 70.2227 26.0617 69.6827 25.3017 69.2927C24.7217 68.9927 23.8617 69.6527 24.3217 70.2727C24.8517 70.9827 25.4817 71.6127 26.1317 72.2127C26.7917 72.8227 27.4817 73.4527 28.2517 73.9227C29.1917 74.4927 30.0217 73.2427 29.3717 72.4727Z" fill="#29E1C2"/>
<path d="M46.8317 63.0227C46.7817 62.0827 46.6417 61.1427 46.4717 60.2127C46.3817 59.7227 46.3217 59.2027 46.0317 58.7927C45.7817 58.4427 45.5517 58.1227 45.1817 57.8927C44.8217 57.6627 44.4217 57.8527 44.1917 58.1527C43.5717 58.9527 43.7017 59.9227 43.8117 60.8527C43.9117 61.6927 43.9817 62.5427 44.0217 63.3827C44.0917 64.9927 43.9917 66.2127 43.5117 67.7127C43.1217 68.9127 42.4717 70.0227 41.3917 70.8427C41.4117 70.8227 41.1517 71.0027 41.1117 71.0327C40.9717 71.1227 40.8217 71.2127 40.6817 71.2927C40.3517 71.4827 40.2517 71.5327 39.9517 71.6427C39.2617 71.8827 38.4917 71.9327 37.8617 72.3127C37.4117 72.5927 37.2017 73.3627 37.6817 73.7427C38.8817 74.7027 40.5417 74.2327 41.8217 73.6627C43.0417 73.1227 44.0617 72.1527 44.8517 71.0927C46.5517 68.8027 46.9917 65.7927 46.8317 63.0227Z" fill="#29E1C2"/>
<path d="M53.5617 71.1327C52.6917 71.1227 51.7517 71.7927 51.0517 72.2627C50.3717 72.7227 49.7217 73.2127 49.0817 73.7227C47.8717 74.6827 46.7517 75.7927 45.7317 76.9527C44.6817 78.1427 43.7117 79.4327 42.9017 80.7927C42.5117 81.4527 42.1717 82.1327 41.8717 82.8427C41.5817 83.5227 41.0417 84.4727 41.5117 85.1827C41.6017 85.3227 41.7617 85.4327 41.9317 85.4227C42.7517 85.3627 43.1317 84.5927 43.5617 84.0027C44.0017 83.4027 44.4517 82.8027 44.9017 82.2127C45.7317 81.1127 46.7017 79.9727 47.7117 78.9227C48.7417 77.8527 49.8617 76.8827 51.0217 75.9627C51.0517 75.9427 51.2617 75.7727 51.2917 75.7527C51.4317 75.6427 51.5717 75.5427 51.7117 75.4327C52.0117 75.2127 52.3117 75.0027 52.6217 74.7927C52.9917 74.5427 53.3717 74.3127 53.7217 74.0227C53.7617 73.9927 53.7817 73.9727 53.8017 73.9527C53.8717 73.9027 53.9417 73.8527 54.0117 73.8027C54.2917 73.5927 54.5217 73.4127 54.6917 73.1027C55.1817 72.2327 54.5817 71.1427 53.5617 71.1327Z" fill="#29E1C2"/>
<path d="M61.8817 70.5527C61.5717 69.3227 59.5717 69.9827 58.7317 70.1227C58.2017 70.2027 57.9117 70.8627 58.0417 71.3427C58.2017 71.9127 58.7317 72.1127 59.2617 72.0327C60.0717 71.9127 62.2217 71.8727 61.8817 70.5527Z" fill="#29E1C2"/>
<path d="M152.282 57.3227C151.642 56.7927 151.012 56.3027 150.272 55.9127C149.532 55.5227 148.762 55.1827 147.992 54.8727C146.622 54.3227 145.162 53.9527 143.712 53.7027C140.562 53.1627 137.392 53.1727 134.252 53.7627C131.262 54.3227 128.342 55.5027 125.802 57.1827C123.102 58.9727 120.672 61.3427 119.632 64.4727C119.092 66.0827 119.042 67.8727 119.482 69.5227C119.702 70.3527 120.062 71.1527 120.602 71.8227C120.842 72.1227 121.102 72.4027 121.402 72.6427C121.772 72.9427 122.192 72.9527 122.632 73.0627C123.092 73.1727 123.392 72.7127 123.212 72.3127C123.092 72.0427 123.132 71.7227 122.972 71.4327C122.842 71.1827 122.642 70.8627 122.552 70.6627C122.452 70.4327 122.392 70.2727 122.292 69.9627C122.182 69.6327 122.082 69.3027 122.012 68.9627C121.992 68.8527 121.972 68.7427 121.952 68.6327C121.962 68.6527 121.932 68.3827 121.922 68.3327C121.902 68.0027 121.902 67.6727 121.922 67.3427C121.932 67.1827 121.942 67.0327 121.962 66.8727C121.962 66.8627 121.962 66.8527 121.962 66.8527C121.972 66.7827 121.982 66.7227 121.992 66.6527C122.052 66.3227 122.132 66.0027 122.232 65.6927C122.282 65.5427 122.332 65.3927 122.392 65.2427C122.412 65.1827 122.422 65.1527 122.432 65.1427C122.442 65.1327 122.452 65.1127 122.482 65.0527C122.642 64.7327 122.802 64.4127 122.992 64.1027C123.422 63.4027 123.622 63.1427 124.102 62.6127C124.572 62.0827 125.092 61.6027 125.632 61.1527C125.742 61.0527 125.862 60.9627 125.982 60.8727C126.012 60.8427 126.152 60.7427 126.192 60.7127C126.482 60.4927 126.792 60.2927 127.092 60.0927C127.672 59.7127 128.272 59.3627 128.892 59.0427C129.192 58.8927 129.492 58.7427 129.792 58.6027C129.942 58.5327 130.102 58.4627 130.252 58.3927H130.262C130.352 58.3527 130.442 58.3227 130.532 58.2827C131.792 57.7827 133.112 57.3927 134.442 57.1027C134.772 57.0327 135.102 56.9727 135.432 56.9127C135.602 56.8827 135.762 56.8527 135.932 56.8327C135.972 56.8227 136.022 56.8227 136.062 56.8127C136.102 56.8127 136.152 56.8027 136.202 56.7927C136.872 56.7127 137.542 56.6627 138.212 56.6327C138.902 56.6027 139.602 56.6127 140.292 56.6427C140.632 56.6627 140.962 56.6827 141.292 56.7127C141.462 56.7327 141.622 56.7427 141.792 56.7627C141.862 56.7727 141.932 56.7827 142.002 56.7827C142.022 56.7827 142.042 56.7827 142.062 56.7927C143.582 57.0227 145.072 57.3627 146.522 57.8727C146.882 58.0027 147.242 58.1327 147.602 58.2627C147.672 58.2927 147.732 58.3127 147.802 58.3427C147.802 58.3427 147.942 58.4027 148.012 58.4327C148.042 58.4427 148.062 58.4527 148.072 58.4527C148.182 58.5027 148.292 58.5527 148.402 58.6027C148.792 58.7827 149.172 58.9827 149.562 59.1527C149.772 59.2427 149.992 59.3227 150.212 59.4127C150.282 59.4427 150.342 59.4627 150.402 59.4927C150.422 59.5027 150.442 59.5127 150.452 59.5127C150.472 59.5227 150.512 59.5427 150.572 59.5627C151.222 59.8427 151.952 59.8127 152.412 59.1927C152.792 58.6727 152.842 57.7827 152.282 57.3227Z" fill="#00A89D"/>
<path d="M110.892 82.2627C110.722 82.1427 110.592 81.9527 110.402 81.8327C110.142 81.6727 109.832 81.6327 109.542 81.5927C108.972 81.5127 108.412 81.4227 107.842 81.3627C106.922 81.2627 105.992 81.2127 105.062 81.2227C103.232 81.2427 101.342 81.4827 99.6318 82.1727C96.5418 83.4227 93.9617 85.9327 93.5217 89.3527C93.3917 90.3827 93.5317 91.4927 93.8317 92.4927C93.9917 93.0427 94.2118 93.7027 94.6018 94.1427C94.9418 94.5227 95.2318 95.0127 95.7218 95.2327C96.0618 95.3827 96.4317 95.2727 96.5517 94.8927C96.6717 94.4827 96.5818 94.1127 96.5718 93.7027C96.5518 93.2327 96.4918 92.7927 96.4018 92.3227C96.2518 91.5627 96.1618 90.8327 96.2418 90.0427C96.2618 89.8727 96.3218 89.5327 96.3918 89.2827C96.4318 89.1327 96.4818 88.9927 96.5318 88.8427C96.5518 88.7727 96.5818 88.7127 96.6018 88.6527C96.6118 88.6327 96.6218 88.6127 96.6318 88.5827C96.7718 88.3127 96.9117 88.0427 97.0817 87.7927C97.1117 87.7527 97.3318 87.4527 97.2918 87.5027C97.3918 87.3827 97.4817 87.2727 97.5817 87.1627C97.7917 86.9327 98.0118 86.7127 98.2518 86.5127C98.3018 86.4727 98.3518 86.4227 98.4018 86.3827C98.4218 86.3727 98.4918 86.3127 98.5318 86.2827C98.5518 86.2627 98.5717 86.2527 98.5817 86.2527C98.6717 86.1827 98.7618 86.1227 98.8518 86.0527C99.3618 85.6927 99.9117 85.3927 100.482 85.1427C100.442 85.1627 100.782 85.0327 100.832 85.0127C100.962 84.9727 101.082 84.9227 101.212 84.8827C101.632 84.7527 102.052 84.6527 102.482 84.5727C102.922 84.4927 103.102 84.4627 103.432 84.4327C103.862 84.3927 104.292 84.3727 104.722 84.3627C105.672 84.3427 106.632 84.3927 107.582 84.4527C108.042 84.4827 108.512 84.5027 108.972 84.5327C109.272 84.5527 109.552 84.5827 109.862 84.5427C110.182 84.5027 110.362 84.3227 110.642 84.2127C111.492 83.8427 111.662 82.8127 110.892 82.2627Z" fill="#00A89D"/>
<path d="M161.572 66.4627C161.052 65.1327 160.352 63.9327 159.442 62.8327C159.032 62.3327 158.572 61.8527 158.072 61.4427C157.432 60.9227 156.792 60.5527 156.032 60.2327C154.842 59.7327 153.782 61.6127 154.762 62.4127C155.032 62.6327 155.292 62.8627 155.562 63.0827C155.402 62.9527 155.582 63.1027 155.602 63.1227C155.712 63.2127 155.812 63.3027 155.922 63.3927C156.342 63.7627 156.762 64.1327 157.132 64.5527C157.702 65.1827 158.232 65.9727 158.682 66.9327C158.872 67.3227 158.972 67.5927 159.142 68.1627C159.282 68.6227 159.392 69.0927 159.462 69.5727C159.462 69.6127 159.492 69.8327 159.492 69.8427C159.502 69.9827 159.512 70.1227 159.522 70.2627C159.532 70.4927 159.532 70.7327 159.532 70.9627C159.532 71.1927 159.512 71.4327 159.492 71.6627C159.492 71.6727 159.462 71.9227 159.462 71.9427C159.442 72.0727 159.422 72.2027 159.392 72.3327C159.302 72.8127 159.172 73.2827 159.012 73.7527C158.972 73.8827 158.922 74.0127 158.872 74.1427C158.882 74.1127 158.762 74.4027 158.762 74.4027C158.702 74.5427 158.522 74.8927 158.422 75.0827C157.902 76.0627 157.472 76.6427 156.732 77.3827C155.972 78.1427 155.372 78.5827 154.372 79.1027C153.442 79.5827 152.362 79.9127 151.232 80.1127C150.162 80.3127 148.862 80.3627 147.652 80.3327C147.002 80.3127 146.362 80.2427 145.712 80.2227C145.132 80.2027 144.412 80.2327 143.962 80.6227C143.932 80.6227 143.902 80.6227 143.872 80.6227C143.322 80.5827 143.272 81.3727 143.752 81.5327C143.762 81.5327 143.772 81.5427 143.772 81.5427C144.032 82.0727 144.712 82.3527 145.252 82.4927C145.952 82.6827 146.702 82.7427 147.422 82.8127C148.662 82.9327 149.892 82.9227 151.132 82.7627C153.772 82.4227 156.252 81.4627 158.262 79.6927C161.932 76.4527 163.342 71.0127 161.572 66.4627Z" fill="#00A89D"/>
<path d="M182.252 49.8727C182.032 48.2027 180.782 46.8127 179.372 45.9727C178.722 45.5827 177.982 45.2727 177.242 45.1227C176.832 45.0427 176.392 45.0527 175.972 45.0727C175.312 45.1027 174.892 45.3227 174.502 45.8527C174.292 46.1427 174.292 46.6927 174.502 46.9727C174.762 47.3327 175.032 47.6027 175.472 47.7127C175.592 47.7427 175.712 47.7627 175.822 47.7927C175.872 47.8027 175.902 47.8027 175.932 47.8127C175.952 47.8227 175.982 47.8327 176.012 47.8527C176.312 47.9827 176.622 48.0627 176.932 48.1727C176.952 48.1827 177.102 48.2427 177.162 48.2627C177.232 48.2927 177.362 48.3527 177.372 48.3627C177.612 48.4827 177.842 48.6227 178.062 48.7727C178.112 48.8027 178.212 48.8827 178.222 48.8927C178.312 48.9727 178.402 49.0427 178.492 49.1227C178.652 49.2727 178.812 49.4327 178.962 49.6027C178.922 49.5627 179.122 49.8327 179.122 49.8427C179.132 49.8627 179.212 50.0127 179.252 50.0727C179.262 50.1127 179.282 50.1827 179.302 50.2327C179.302 50.2427 179.302 50.2927 179.312 50.3227C179.312 50.3427 179.302 50.3627 179.302 50.3827C179.302 50.3827 179.282 50.4527 179.242 50.5227C179.222 50.5427 179.192 50.5727 179.152 50.6027C179.082 50.6627 179.092 50.6527 179.192 50.5727C179.152 50.5927 179.122 50.6127 179.082 50.6327C178.702 50.7027 179.332 50.6027 178.952 50.6927C178.932 50.6927 178.822 50.7227 178.762 50.7427C178.702 50.7527 178.592 50.7627 178.572 50.7627C178.412 50.7627 178.232 50.7627 178.082 50.7427C177.942 50.7227 177.642 50.6227 177.462 50.5727C176.862 50.4027 176.152 50.2727 175.582 50.5927C175.392 50.7027 175.222 50.9527 175.242 51.1827C175.412 52.9527 177.962 53.5827 179.422 53.3427C181.082 53.0627 182.482 51.6227 182.252 49.8727Z" fill="#00A89D"/>
<path d="M118.402 52.0127C118.382 51.8627 118.362 51.7027 118.342 51.5527C118.262 51.2627 118.112 51.0027 117.902 50.7927C117.782 50.7027 117.672 50.6127 117.552 50.5227C117.282 50.3627 116.992 50.2927 116.682 50.2827C116.442 50.2727 116.222 50.3227 116.022 50.4327C115.812 50.5027 115.622 50.6227 115.472 50.7927C115.302 50.9527 115.182 51.1327 115.112 51.3427C115.002 51.5527 114.952 51.7727 114.962 52.0027C114.982 52.1527 115.002 52.3127 115.022 52.4627C115.102 52.7527 115.252 53.0127 115.462 53.2227C115.582 53.3127 115.692 53.4027 115.812 53.4927C116.082 53.6527 116.372 53.7227 116.682 53.7327C116.922 53.7427 117.142 53.6927 117.342 53.5827C117.552 53.5127 117.742 53.3927 117.892 53.2227C118.062 53.0627 118.182 52.8827 118.252 52.6727C118.362 52.4727 118.412 52.2527 118.402 52.0127Z" fill="#00A89D"/>
<path d="M115.002 65.1027C114.902 64.8627 114.732 64.6427 114.502 64.5127C114.022 64.2627 113.402 64.3027 113.012 64.7027C112.802 64.9227 112.592 65.1527 112.542 65.4627C112.502 65.6827 112.482 65.9027 112.542 66.1227C112.612 66.3827 112.772 66.6027 112.982 66.7627C113.162 66.9027 113.342 66.9727 113.572 67.0027C113.832 67.0327 114.142 67.0127 114.362 66.8527C114.622 66.6727 114.812 66.4927 114.942 66.1927C114.982 66.0927 115.032 65.9827 115.072 65.8827C115.082 65.7727 115.102 65.6627 115.112 65.5527C115.112 65.4127 115.072 65.2527 115.002 65.1027Z" fill="#00A89D"/>
<path d="M109.052 71.3727C107.872 71.3727 107.872 73.2027 109.052 73.2027C110.232 73.2027 110.232 71.3727 109.052 71.3727Z" fill="#00A89D"/>
<path d="M125.072 52.4827C125.062 52.3327 125.022 52.1927 124.942 52.0627C124.842 51.9027 124.702 51.7627 124.542 51.6627C124.412 51.5827 124.272 51.5327 124.122 51.5327C124.022 51.5027 123.922 51.5027 123.822 51.5327C123.672 51.5427 123.532 51.5827 123.402 51.6627C123.322 51.7227 123.252 51.7827 123.172 51.8427L123.092 51.9427C122.922 52.0827 122.782 52.2627 122.732 52.4727C122.722 52.5627 122.712 52.6627 122.692 52.7527C122.682 52.8927 122.712 53.0327 122.782 53.1527C122.802 53.2427 122.852 53.3227 122.912 53.3827C122.982 53.4927 123.082 53.5827 123.202 53.6527C123.442 53.7727 123.742 53.8527 124.002 53.7627C124.032 53.7627 124.072 53.7527 124.102 53.7427C124.252 53.7327 124.392 53.6927 124.522 53.6127C124.602 53.5527 124.672 53.4927 124.752 53.4327C124.812 53.3527 124.872 53.2827 124.932 53.2027C125.012 53.0727 125.062 52.9327 125.062 52.7827C125.102 52.6727 125.102 52.5727 125.072 52.4827Z" fill="#00A89D"/>
<path d="M181.782 18.4027C181.722 18.1527 181.612 17.9427 181.442 17.7627C181.362 17.6227 181.242 17.5127 181.102 17.4227C180.982 17.3027 180.842 17.2227 180.682 17.1827C180.532 17.0927 180.372 17.0527 180.202 17.0527C179.952 16.9927 179.702 17.0127 179.452 17.0827C179.452 17.0827 179.442 17.0827 179.442 17.0927C179.122 17.1827 178.842 17.3427 178.602 17.5827C178.372 17.8227 178.202 18.0927 178.112 18.4127C178.022 18.7527 178.022 19.0827 178.112 19.4227C178.172 19.6727 178.282 19.8827 178.452 20.0627C178.582 20.2727 178.762 20.4327 178.982 20.5527C179.282 20.7227 179.592 20.8127 179.942 20.8127C180.602 20.8127 181.252 20.4527 181.572 19.8727L181.582 19.8627L181.772 19.4127C181.792 19.2427 181.812 19.0827 181.842 18.9127C181.822 18.7327 181.802 18.5627 181.782 18.4027Z" fill="#00A89D"/>
<path d="M191.862 20.8727C191.812 20.7527 191.762 20.6427 191.712 20.5227C191.632 20.4227 191.562 20.3227 191.482 20.2227C191.382 20.1427 191.282 20.0727 191.182 19.9927C191.062 19.9427 190.952 19.8927 190.832 19.8427C190.642 19.7827 190.442 19.7727 190.252 19.8127C190.162 19.8127 190.072 19.8327 189.992 19.8627C189.962 19.8727 189.932 19.8727 189.902 19.8827C189.792 19.9327 189.672 19.9827 189.562 20.0227C189.392 20.1127 189.262 20.2327 189.162 20.3927C189.072 20.4827 189.012 20.5827 188.982 20.7027C188.892 20.8727 188.852 21.0527 188.862 21.2527C188.882 21.3827 188.892 21.5027 188.912 21.6327C188.962 21.7427 189.012 21.8627 189.052 21.9727C189.142 22.1427 189.262 22.2727 189.422 22.3727C189.562 22.5027 189.722 22.5827 189.902 22.6227C189.942 22.6327 189.972 22.6327 190.012 22.6427C190.032 22.6527 190.042 22.6527 190.062 22.6627C190.252 22.7227 190.452 22.7327 190.642 22.6927C190.772 22.6927 190.892 22.6627 191.012 22.5927C191.132 22.5627 191.242 22.4927 191.332 22.4027C191.442 22.3427 191.532 22.2527 191.592 22.1427C191.682 22.0527 191.742 21.9427 191.782 21.8227C191.872 21.6527 191.912 21.4627 191.912 21.2627C191.892 21.1227 191.872 21.0027 191.862 20.8727Z" fill="#00A89D"/>
<path d="M185.412 27.0327C185.362 26.8427 185.262 26.6727 185.122 26.5427C185.042 26.4827 184.972 26.4227 184.892 26.3627C184.722 26.2627 184.532 26.2127 184.322 26.2127C184.172 26.2027 184.022 26.2427 183.892 26.3127C183.752 26.3627 183.632 26.4327 183.532 26.5427C183.422 26.6427 183.342 26.7627 183.302 26.9027C183.232 27.0327 183.202 27.1827 183.202 27.3327C183.212 27.4327 183.232 27.5327 183.242 27.6327C183.292 27.8227 183.392 27.9927 183.532 28.1227C183.612 28.1827 183.682 28.2427 183.762 28.3027C183.932 28.4027 184.122 28.4527 184.332 28.4527C184.482 28.4627 184.632 28.4227 184.762 28.3527C184.902 28.3027 185.022 28.2327 185.122 28.1227C185.232 28.0227 185.312 27.9027 185.352 27.7627C185.422 27.6327 185.452 27.4827 185.452 27.3327C185.442 27.2327 185.422 27.1327 185.412 27.0327Z" fill="#00A89D"/>
<path d="M178.382 29.1127C177.162 29.1127 177.162 31.0027 178.382 31.0027C179.592 31.0127 179.592 29.1127 178.382 29.1127Z" fill="#00A89D"/>
<path d="M33.0017 101.043C32.9517 100.873 32.8717 100.733 32.7417 100.603C32.6717 100.553 32.6117 100.503 32.5417 100.443C32.3917 100.353 32.2217 100.313 32.0417 100.303C31.9017 100.293 31.7817 100.323 31.6617 100.393C31.5417 100.433 31.4317 100.503 31.3417 100.603C31.2417 100.693 31.1717 100.803 31.1417 100.923C31.0817 101.043 31.0517 101.173 31.0517 101.303C31.0617 101.393 31.0717 101.483 31.0917 101.563C31.1417 101.733 31.2217 101.873 31.3517 102.003C31.4217 102.053 31.4817 102.103 31.5517 102.163C31.7017 102.253 31.8717 102.293 32.0517 102.303C32.1917 102.313 32.3117 102.283 32.4317 102.213C32.5517 102.173 32.6617 102.103 32.7517 102.003C32.8517 101.913 32.9217 101.803 32.9617 101.683C33.0217 101.563 33.0517 101.433 33.0517 101.303C33.0217 101.213 33.0117 101.133 33.0017 101.043Z" fill="#00A89D"/>
<path d="M33.1717 82.3327C33.1517 82.1627 33.1317 82.0027 33.1017 81.8327C33.0117 81.5127 32.8517 81.2427 32.6217 81.0127C32.4917 80.9127 32.3717 80.8227 32.2417 80.7227C31.9517 80.5527 31.6317 80.4727 31.3017 80.4627C31.0417 80.4527 30.8017 80.5027 30.5817 80.6227C30.3517 80.7027 30.1517 80.8227 29.9817 81.0127C29.8017 81.1827 29.6717 81.3827 29.5917 81.6127C29.4717 81.8327 29.4217 82.0727 29.4317 82.3327C29.4517 82.5027 29.4717 82.6627 29.5017 82.8327C29.5917 83.1527 29.7517 83.4227 29.9817 83.6527C30.1117 83.7527 30.2317 83.8427 30.3617 83.9427C30.6517 84.1127 30.9717 84.1927 31.3017 84.2027C31.5617 84.2127 31.8017 84.1627 32.0217 84.0427C32.2517 83.9627 32.4517 83.8427 32.6217 83.6527C32.8017 83.4827 32.9317 83.2827 33.0117 83.0527C33.1217 82.8327 33.1817 82.5927 33.1717 82.3327Z" fill="#00A89D"/>
<path d="M53.6417 93.3127C53.6317 93.2827 53.6217 93.2427 53.6117 93.2127C53.5017 92.8827 53.3017 92.5627 52.9817 92.3927C52.9217 92.3627 52.8617 92.3327 52.8017 92.3127C52.6417 92.2327 52.4617 92.1927 52.2817 92.1927C52.1517 92.2027 52.0217 92.2227 51.8917 92.2427C51.8417 92.2627 51.7917 92.2827 51.7417 92.3027C51.5817 92.3727 51.4417 92.4427 51.3217 92.5927C51.1617 92.7827 51.0417 92.9627 50.9717 93.2127C50.9017 93.4527 50.9017 93.7027 50.9717 93.9427C51.0217 94.0527 51.0617 94.1627 51.1117 94.2727C51.1317 94.3027 51.1617 94.3327 51.1817 94.3627C51.2617 94.5227 51.3817 94.6427 51.5317 94.7427C51.6617 94.8627 51.8117 94.9427 51.9917 94.9827C52.1117 95.0027 52.2317 95.0127 52.3517 95.0327C52.5417 95.0427 52.7117 95.0027 52.8717 94.9127C52.9817 94.8827 53.0817 94.8227 53.1717 94.7427C53.3217 94.6427 53.4317 94.5227 53.5217 94.3627C53.6717 94.0327 53.7417 93.6627 53.6417 93.3127Z" fill="#00A89D"/>
<path d="M61.6218 64.2427C61.5618 64.0327 61.4518 63.8427 61.3018 63.6827C61.1918 63.5627 61.0518 63.4727 60.8918 63.4227C60.7418 63.3427 60.5817 63.3027 60.4017 63.3127C60.1717 63.3127 59.9617 63.3727 59.7617 63.4827C59.5717 63.5927 59.4217 63.7427 59.3117 63.9327C59.2917 63.9727 59.2717 64.0027 59.2517 64.0327C59.2117 64.1327 59.1717 64.2327 59.1317 64.3227C59.0817 64.4827 59.0717 64.6527 59.1117 64.8127C59.1117 64.9227 59.1418 65.0227 59.1918 65.1227C59.2418 65.2727 59.3218 65.4027 59.4418 65.5227C59.5218 65.5827 59.6118 65.6527 59.6918 65.7127L59.9818 65.8327C60.1418 65.8827 60.3117 65.8927 60.4717 65.8527C60.6317 65.8427 60.7917 65.7927 60.9317 65.7027C60.9617 65.6827 61.0018 65.6627 61.0318 65.6427C61.2218 65.5327 61.3718 65.3827 61.4818 65.1927C61.5918 64.9927 61.6517 64.7827 61.6517 64.5527C61.6517 64.4627 61.6418 64.3527 61.6218 64.2427Z" fill="#00A89D"/>
<path d="M81.4718 78.6627C81.4618 78.4427 81.4118 78.2027 81.2918 78.0227C81.0518 77.6527 80.6617 77.4027 80.2117 77.4027C79.7917 77.4027 79.3117 77.6327 79.1217 78.0227C78.9817 78.3127 78.8917 78.5827 78.8817 78.9127C78.8717 79.2427 78.9717 79.5127 79.1017 79.8127C79.2217 80.0827 79.5918 80.3227 79.8618 80.4027C80.1718 80.4827 80.5717 80.4527 80.8417 80.2727C81.1117 80.0927 81.3518 79.8327 81.4318 79.5127C81.4818 79.3027 81.4817 79.1127 81.4417 78.9227C81.4717 78.8427 81.4818 78.7527 81.4718 78.6627Z" fill="#00A89D"/>
<path d="M83.8818 88.3027C83.8218 88.0627 83.7118 87.8627 83.5518 87.6827C83.4418 87.5127 83.3018 87.3827 83.1418 87.2727L82.9518 87.1227C82.7318 86.9827 82.5018 86.9127 82.2518 86.9027C81.9418 86.8627 82.0218 86.8627 81.7118 86.9027C81.5418 86.9027 81.3818 86.9427 81.2418 87.0327C81.1518 87.0527 81.0618 87.0827 80.9918 87.1427C80.8718 87.2427 80.7418 87.3327 80.6218 87.4327C80.4418 87.6027 80.3118 87.7927 80.2418 88.0227C80.1618 88.1627 80.1218 88.3227 80.1118 88.4827C80.0618 88.7227 80.0718 88.9727 80.1418 89.2127C80.2418 89.5227 80.3118 89.6427 80.4818 89.8727C80.5618 90.0127 80.6818 90.1227 80.8218 90.2127C80.8918 90.2727 80.9618 90.3327 81.0418 90.3827L81.4918 90.5727C81.6618 90.5927 81.8218 90.6127 81.9918 90.6427C82.1618 90.6527 82.3318 90.6227 82.5018 90.5727C82.5318 90.5727 82.5618 90.5627 82.6018 90.5627C82.8418 90.5027 83.0418 90.3927 83.2218 90.2327C83.3618 90.1527 83.4718 90.0427 83.5518 89.9027C83.7118 89.7227 83.8218 89.5227 83.8818 89.2827C83.9018 89.1227 83.9218 88.9627 83.9518 88.7927C83.9218 88.6327 83.9018 88.4627 83.8818 88.3027Z" fill="#00A89D"/>
<path d="M194.592 42.6927C193.962 43.7727 193.462 44.9427 193.182 46.2527C193.162 46.3527 193.142 46.4527 193.122 46.5527C188.162 48.4827 182.912 50.7927 180.992 55.6427C179.452 59.5127 180.532 64.0827 178.812 67.8727C176.732 72.4627 171.252 74.5227 168.392 78.6827C164.512 84.3127 165.922 93.0127 160.612 97.3327C156.902 100.343 151.412 99.7727 146.942 98.0627C142.472 96.3527 138.322 93.6827 133.622 92.8527C128.612 91.9727 123.592 93.2827 118.912 95.4527C116.932 96.3727 115.022 97.4527 113.192 98.5927C112.002 99.3227 110.832 100.093 109.662 100.863C104.752 104.083 99.8617 107.403 94.2517 109.083C84.4317 112.013 74.0217 109.503 63.7217 108.183C60.4517 106.673 57.1617 105.203 53.8917 105.093C53.1217 105.063 52.3517 105.073 51.5617 105.113C56.4917 103.823 62.2017 104.493 67.2817 105.733C74.9117 107.603 82.8317 110.443 90.4117 108.393C95.1317 107.123 98.9717 104.163 102.702 100.923C102.902 100.753 103.092 100.583 103.292 100.413C104.372 99.4627 105.452 98.5027 106.552 97.5527C108.872 95.5427 111.242 93.6027 113.852 92.0827C115.592 91.0727 117.442 90.2527 119.352 89.6327C120.112 89.3827 120.892 89.1727 121.672 88.9927C126.532 87.8627 131.692 87.9727 136.472 89.4127C140.412 90.6027 144.072 92.6227 148.052 93.6327C152.042 94.6327 156.702 94.4127 159.692 91.5827C163.762 87.7427 163.062 81.0127 165.912 76.1927C168.672 71.5327 174.662 68.8427 175.812 63.5427C176.512 60.3427 175.192 56.9827 175.602 53.7527C175.632 53.5227 175.672 53.2827 175.722 53.0527C175.732 53.0227 175.732 53.0027 175.742 52.9727C175.782 52.7827 175.832 52.5927 175.892 52.4027C175.932 52.2727 175.972 52.1427 176.022 52.0127C176.222 51.4527 176.482 50.9127 176.792 50.4127C177.152 49.8227 177.582 49.2627 178.072 48.7527C178.682 48.1127 179.372 47.5327 180.122 47.0127C180.192 46.9627 180.262 46.9127 180.332 46.8727C180.382 46.8327 180.432 46.8027 180.482 46.7727C180.882 46.5127 181.302 46.2727 181.722 46.0527C182.662 45.5627 183.642 45.1627 184.622 44.8427C187.722 43.8527 190.972 43.5227 194.132 42.8027C194.282 42.7727 194.442 42.7327 194.592 42.6927Z" fill="#38778A"/>
<path d="M52.7117 58.0827C52.5717 57.8527 52.3917 57.6727 52.1617 57.5327C52.0417 57.4727 51.9117 57.4027 51.7717 57.3627C51.3817 57.2527 50.9817 57.3227 50.6417 57.5127C50.0317 57.8627 49.7217 58.5727 49.9117 59.2527C50.0517 59.7527 50.4717 60.2027 50.9817 60.3227C51.1217 60.3427 51.2517 60.3627 51.3917 60.3727C51.6717 60.3727 51.9217 60.3027 52.1617 60.1627C52.6317 59.8927 52.9217 59.3827 52.9217 58.8427C52.9217 58.5727 52.8517 58.3127 52.7117 58.0827Z" fill="#38778A"/>
<path d="M139.122 32.4027C139.062 32.3227 138.982 32.1927 138.912 32.1227C138.762 31.9727 138.552 31.8527 138.342 31.7927C138.182 31.7427 138.012 31.7327 137.852 31.7227C137.622 31.7027 137.402 31.7327 137.192 31.8027C136.922 31.8927 136.702 32.0327 136.532 32.2627C136.362 32.4827 136.242 32.7527 136.262 33.0327C136.272 33.2627 136.332 33.4727 136.432 33.6827C136.582 33.9727 136.892 34.1727 137.192 34.2727C137.402 34.3427 137.632 34.3727 137.852 34.3527C138.012 34.3427 138.172 34.3327 138.332 34.2927C138.502 34.2427 138.652 34.1627 138.792 34.0527C138.932 33.9427 139.032 33.8227 139.142 33.6727C139.352 33.3227 139.352 32.7527 139.122 32.4027Z" fill="#38778A"/>
<path d="M141.232 36.3827C140.352 36.3827 139.512 37.1527 139.552 38.0627C139.592 38.9727 140.292 39.7427 141.232 39.7427C142.112 39.7427 142.952 38.9727 142.912 38.0627C142.872 37.1527 142.182 36.3827 141.232 36.3827Z" fill="#38778A"/>
<path d="M121.482 78.6427C121.482 78.5227 121.452 78.4127 121.392 78.3127C121.342 78.1527 121.252 78.0127 121.122 77.8927C121.032 77.8227 120.942 77.7527 120.852 77.6827C120.752 77.6427 120.642 77.5927 120.542 77.5527C120.362 77.5027 120.192 77.4927 120.012 77.5327C119.832 77.5427 119.672 77.5927 119.522 77.6927C119.372 77.7527 119.302 77.7927 119.152 77.9427C119.122 77.9727 119.102 78.0027 119.072 78.0327C118.942 78.1527 118.852 78.3027 118.792 78.4627C118.712 78.6227 118.672 78.7927 118.672 78.9827C118.662 79.1727 118.702 79.3427 118.792 79.5027C118.842 79.6727 118.942 79.8127 119.072 79.9327C119.162 80.0027 119.252 80.0727 119.342 80.1427C119.552 80.2627 119.782 80.3227 120.022 80.3227L120.382 80.2727C120.612 80.2127 120.812 80.0927 120.982 79.9227C121.012 79.8927 121.042 79.8727 121.072 79.8427C121.222 79.6927 121.262 79.6227 121.322 79.4727C121.362 79.3627 121.412 79.2627 121.452 79.1527C121.522 78.9927 121.522 78.8227 121.482 78.6427Z" fill="#38778A"/>
<path d="M152.402 86.8127C151.632 86.8127 150.902 87.4927 150.932 88.2827C150.972 89.0827 151.572 89.7527 152.402 89.7527C153.172 89.7527 153.902 89.0727 153.872 88.2827C153.832 87.4927 153.222 86.8127 152.402 86.8127Z" fill="#38778A"/>
<path d="M191.022 35.8527C189.462 35.8527 189.462 38.2827 191.022 38.2827C192.592 38.2827 192.592 35.8527 191.022 35.8527Z" fill="#38778A"/>
<path d="M186.762 56.6027C186.702 56.4027 186.592 56.2327 186.432 56.0927C186.232 55.8927 186.002 55.7627 185.732 55.6827C185.452 55.6027 185.172 55.6027 184.882 55.6827C184.832 55.6927 184.792 55.6927 184.742 55.7027C184.622 55.7527 184.492 55.8127 184.362 55.8627C184.182 55.9627 184.032 56.0927 183.922 56.2627C183.822 56.3627 183.762 56.4727 183.722 56.6127C183.622 56.8027 183.582 57.0027 183.582 57.2127C183.602 57.3527 183.622 57.4927 183.642 57.6327C183.692 57.7527 183.752 57.8827 183.802 58.0127C183.902 58.1927 184.032 58.3427 184.202 58.4527C184.352 58.5927 184.532 58.6827 184.732 58.7327C184.782 58.7427 184.822 58.7427 184.872 58.7527C185.152 58.8327 185.432 58.8327 185.722 58.7527C185.992 58.6727 186.222 58.5427 186.422 58.3427C186.502 58.2327 186.592 58.1327 186.672 58.0227C186.812 57.7727 186.892 57.5027 186.892 57.2227C186.902 57.0027 186.862 56.7927 186.762 56.6027Z" fill="#38778A"/>
<path d="M61.6317 100.183C61.5117 99.9527 61.2117 99.7227 60.9617 99.6627C60.8217 99.6327 60.6717 99.5927 60.5317 99.5927C60.3217 99.5927 60.1317 99.6527 59.9517 99.7527C59.8917 99.7727 59.8317 99.8027 59.7717 99.8327C59.6517 99.9027 59.5517 99.9927 59.4717 100.113C59.3317 100.293 59.2317 100.523 59.2417 100.763C59.2517 100.953 59.3017 101.133 59.3917 101.303C59.5017 101.503 59.7717 101.733 60.0017 101.783C60.1617 101.863 60.3417 101.913 60.5317 101.913C60.6717 101.913 60.8217 101.873 60.9617 101.843C61.0517 101.803 61.1417 101.763 61.2317 101.733C61.3617 101.663 61.4717 101.563 61.5517 101.443C61.7017 101.253 61.8017 101.003 61.7917 100.763C61.7817 100.543 61.7317 100.353 61.6317 100.183Z" fill="#38778A"/>
<path d="M76.3417 102.063C76.2817 101.933 76.2317 101.793 76.1717 101.663C76.0817 101.553 76.0017 101.433 75.9117 101.323C75.7617 101.163 75.5817 101.043 75.3717 100.973C75.2417 100.893 75.1017 100.863 74.9517 100.863C74.7317 100.813 74.5017 100.823 74.2817 100.893C74.1417 100.943 73.9917 100.993 73.8617 101.073C73.8017 101.113 73.7417 101.153 73.6917 101.203C73.5117 101.313 73.3717 101.473 73.2717 101.663C73.2217 101.793 73.1617 101.923 73.1117 102.053L73.0517 102.483C73.0517 102.563 73.0617 102.643 73.0817 102.713C73.0817 102.793 73.0917 102.873 73.1117 102.953L73.2817 103.353C73.3717 103.463 73.4517 103.583 73.5417 103.693C73.6917 103.853 73.8717 103.973 74.0817 104.043C74.2117 104.123 74.3517 104.153 74.5017 104.153C74.6517 104.193 74.8017 104.193 74.9517 104.153C75.1017 104.153 75.2417 104.113 75.3717 104.043C75.5117 104.003 75.6417 103.933 75.7417 103.823C75.9217 103.703 76.0717 103.553 76.1717 103.353C76.2317 103.223 76.2817 103.083 76.3417 102.953C76.3617 102.803 76.3817 102.653 76.4017 102.503C76.3817 102.363 76.3617 102.213 76.3417 102.063Z" fill="#38778A"/>
<path d="M90.8217 101.763C89.4917 101.763 89.4917 103.823 90.8217 103.823C92.1517 103.823 92.1517 101.763 90.8217 101.763Z" fill="#38778A"/>
<path d="M136.962 25.4927C135.622 25.4927 135.622 27.5727 136.962 27.5727C138.292 27.5627 138.302 25.4927 136.962 25.4927Z" fill="#29E1C2"/>
<path d="M146.882 32.5527C146.812 32.2927 146.682 32.0727 146.492 31.8827C146.392 31.8027 146.292 31.7227 146.182 31.6427C145.942 31.5027 145.692 31.4327 145.422 31.4327C145.212 31.4227 145.022 31.4727 144.842 31.5627C144.652 31.6227 144.492 31.7327 144.352 31.8727C144.202 32.0127 144.102 32.1727 144.042 32.3627C143.952 32.5427 143.902 32.7327 143.912 32.9427C143.932 33.0727 143.952 33.2127 143.962 33.3427C144.032 33.6027 144.162 33.8227 144.352 34.0127C144.452 34.0927 144.552 34.1727 144.662 34.2527C144.902 34.3927 145.152 34.4627 145.422 34.4627C145.632 34.4727 145.822 34.4227 146.002 34.3327C146.192 34.2727 146.352 34.1627 146.492 34.0227C146.642 33.8827 146.742 33.7227 146.802 33.5327C146.892 33.3527 146.942 33.1627 146.932 32.9527L146.882 32.5527Z" fill="#29E1C2"/>
<path d="M18.0917 49.9127C16.8317 49.9127 16.8317 51.8727 18.0917 51.8727C19.3517 51.8727 19.3617 49.9127 18.0917 49.9127Z" fill="#29E1C2"/>
<path d="M23.9017 43.9527C23.8517 43.7827 23.7717 43.6327 23.6417 43.5027C23.5717 43.4527 23.5017 43.3927 23.4417 43.3427C23.2817 43.2527 23.1117 43.2027 22.9317 43.2027C22.7917 43.1927 22.6617 43.2227 22.5417 43.2927C22.4117 43.3327 22.3117 43.4027 22.2117 43.5027C22.0817 43.6327 22.0017 43.7727 21.9517 43.9527L21.9117 44.2227C21.9117 44.4027 21.9617 44.5727 22.0517 44.7327C22.0617 44.7427 22.0617 44.7427 22.0717 44.7527C22.0917 44.7927 22.1017 44.8227 22.1217 44.8627C22.1817 44.9727 22.2617 45.0627 22.3617 45.1227C22.4217 45.1827 22.4917 45.2227 22.5717 45.2427C22.6817 45.3027 22.8017 45.3327 22.9317 45.3227L23.1817 45.2927C23.2517 45.2627 23.3317 45.2327 23.4017 45.2027C23.5117 45.1427 23.6017 45.0627 23.6617 44.9627C23.7217 44.8927 23.7717 44.8127 23.8017 44.7227C23.8717 44.6127 23.9117 44.4927 23.9117 44.3627C23.9517 44.2127 23.9417 44.0827 23.9017 43.9527Z" fill="#29E1C2"/>
<path d="M61.7717 37.1227C61.7317 37.0027 61.6617 36.8927 61.5717 36.8127C61.4517 36.6927 61.3117 36.6127 61.1417 36.5627C60.9717 36.5127 60.7917 36.5127 60.6217 36.5627C60.5717 36.5727 60.5317 36.5827 60.4817 36.5927C60.4017 36.6227 60.3317 36.6527 60.2517 36.6927C60.1417 36.7527 60.0517 36.8327 59.9817 36.9327C59.9217 36.9927 59.8817 37.0627 59.8617 37.1427C59.8017 37.2527 59.7717 37.3727 59.7817 37.5027C59.7917 37.5827 59.8017 37.6727 59.8117 37.7527C59.8417 37.8327 59.8717 37.9027 59.9117 37.9827C59.9717 38.0927 60.0517 38.1827 60.1517 38.2527C60.2417 38.3327 60.3517 38.3927 60.4717 38.4227L60.6117 38.4527C60.7817 38.5027 60.9617 38.5027 61.1317 38.4527C61.3017 38.4027 61.4417 38.3227 61.5617 38.2027C61.6117 38.1327 61.6617 38.0727 61.7117 38.0027C61.8017 37.8527 61.8417 37.6827 61.8417 37.5127C61.8517 37.3727 61.8317 37.2427 61.7717 37.1227Z" fill="#29E1C2"/>
<path d="M69.0817 30.3327C69.0317 30.2627 68.9817 30.1927 68.9417 30.1327C68.8417 29.9627 68.7018 29.8227 68.5318 29.7227C68.3518 29.6227 68.1618 29.5627 67.9518 29.5627C67.7418 29.5627 67.5517 29.6127 67.3717 29.7227C67.2017 29.8227 67.0618 29.9627 66.9618 30.1327C66.9118 30.2027 66.8618 30.2727 66.8218 30.3327C66.7018 30.5427 66.6418 30.7627 66.6418 30.9927C66.6418 31.2327 66.7018 31.4527 66.8218 31.6527C67.0518 32.0527 67.4918 32.3027 67.9618 32.3027C68.4218 32.3027 68.8618 32.0527 69.1018 31.6527C69.2218 31.4427 69.2818 31.2227 69.2818 30.9927C69.2618 30.7527 69.2017 30.5327 69.0817 30.3327Z" fill="#29E1C2"/>
<path d="M5.56175 90.2227C5.55175 90.1927 5.55175 90.1627 5.54175 90.1327C5.50175 90.0427 5.47175 89.9627 5.43175 89.8727C5.36175 89.7527 5.27175 89.6527 5.15175 89.5727C5.08175 89.5027 5.00175 89.4627 4.91175 89.4327C4.78175 89.3627 4.65175 89.3327 4.50175 89.3427C4.41175 89.3527 4.31175 89.3727 4.22175 89.3827L3.96175 89.4927C3.84175 89.5627 3.74175 89.6527 3.66175 89.7727C3.57175 89.8727 3.50175 89.9927 3.47175 90.1327C3.46175 90.1627 3.46175 90.1927 3.45175 90.2227C3.40175 90.4127 3.40175 90.6127 3.45175 90.8027C3.50175 90.9827 3.60175 91.1427 3.73175 91.2827C3.80175 91.3427 3.88175 91.3927 3.95175 91.4527C4.12175 91.5527 4.30175 91.6027 4.50175 91.6027C4.65175 91.6127 4.79175 91.5727 4.92175 91.5127C5.06175 91.4727 5.17175 91.3927 5.27175 91.2827C5.41175 91.1427 5.50175 90.9827 5.55175 90.8027C5.62175 90.6127 5.62175 90.4227 5.56175 90.2227Z" fill="#29E1C2"/>
<path d="M15.0317 87.6327C14.9817 87.4527 14.8917 87.2927 14.7617 87.1627C14.6917 87.1027 14.6217 87.0527 14.5417 86.9927C14.3717 86.8927 14.1917 86.8427 14.0017 86.8427C13.8517 86.8327 13.7217 86.8727 13.5917 86.9327C13.4617 86.9727 13.3417 87.0527 13.2517 87.1527C13.1517 87.2527 13.0717 87.3627 13.0317 87.4927C12.9617 87.6227 12.9317 87.7527 12.9417 87.9027C12.9517 87.9927 12.9717 88.0927 12.9817 88.1827C13.0317 88.3627 13.1217 88.5227 13.2517 88.6527C13.3217 88.7127 13.3917 88.7627 13.4717 88.8227C13.6417 88.9227 13.8217 88.9727 14.0117 88.9727C14.1617 88.9827 14.2917 88.9427 14.4217 88.8827C14.5517 88.8427 14.6717 88.7627 14.7617 88.6627C14.8617 88.5627 14.9417 88.4527 14.9817 88.3227C15.0517 88.1927 15.0817 88.0627 15.0717 87.9127C15.0617 87.8227 15.0417 87.7227 15.0317 87.6327Z" fill="#29E1C2"/>
<path d="M19.6117 78.1927C19.5117 78.0127 19.3817 77.8627 19.2117 77.7527C19.0617 77.6127 18.8817 77.5227 18.6817 77.4727C18.2717 77.3827 17.8617 77.4227 17.4817 77.6327C17.1717 77.8027 16.9717 78.0727 16.8017 78.3727C16.5217 78.8627 16.4917 79.5327 16.8017 80.0227C17.0317 80.3827 17.3617 80.6527 17.7717 80.7727C18.1817 80.8827 18.6617 80.8227 19.0317 80.6127C19.5417 80.3127 19.8217 79.7827 19.8417 79.2027C19.8517 78.8427 19.7917 78.5127 19.6117 78.1927Z" fill="#29E1C2"/>
<path d="M14.8417 100.023C14.8317 99.8627 14.7817 99.7027 14.6917 99.5627C14.6317 99.4827 14.5617 99.3927 14.5017 99.3127C14.3917 99.1927 14.2617 99.1027 14.1017 99.0527C13.9517 98.9727 13.7917 98.9427 13.6217 98.9427L13.2917 98.9827C13.1317 99.0227 12.9917 99.0927 12.8717 99.2027C12.7417 99.2927 12.6317 99.4027 12.5517 99.5527C12.5117 99.6527 12.4717 99.7527 12.4317 99.8427C12.3817 100.003 12.3717 100.173 12.4117 100.333C12.4217 100.493 12.4717 100.653 12.5617 100.793C12.6017 100.843 12.6317 100.883 12.6717 100.933C12.7417 101.053 12.8317 101.153 12.9517 101.233C13.0217 101.303 13.1017 101.353 13.2017 101.373C13.3317 101.443 13.4817 101.473 13.6317 101.473C13.7317 101.463 13.8317 101.443 13.9317 101.433C14.0217 101.393 14.1117 101.353 14.2017 101.323C14.3317 101.253 14.4317 101.163 14.5117 101.043C14.5917 100.973 14.6517 100.893 14.7017 100.793L14.8217 100.493C14.8717 100.353 14.8817 100.193 14.8417 100.023Z" fill="#00A89D"/>
<path d="M14.3717 104.713C13.6217 104.713 12.9017 105.373 12.9417 106.143C12.9717 106.923 13.5717 107.573 14.3717 107.573C15.1217 107.573 15.8417 106.913 15.8017 106.143C15.7717 105.363 15.1717 104.713 14.3717 104.713Z" fill="#00A89D"/>
<path d="M167.762 3.49273C167.762 3.44273 167.752 3.39274 167.742 3.34274C167.742 3.24274 167.712 3.15273 167.672 3.06273C167.642 2.97273 167.602 2.89273 167.532 2.82273C167.452 2.70273 167.352 2.61273 167.222 2.54273C167.212 2.53273 167.202 2.53274 167.192 2.52274C167.012 2.42274 166.822 2.36273 166.612 2.36273C166.552 2.37273 166.492 2.37274 166.442 2.38274C166.292 2.39274 166.142 2.43274 166.012 2.52274C165.872 2.59274 165.772 2.69273 165.682 2.82273C165.632 2.88273 165.602 2.92273 165.562 2.98273C165.352 3.33273 165.362 3.77273 165.562 4.12273C165.662 4.29273 165.802 4.42274 165.962 4.52274C166.142 4.62274 166.332 4.67273 166.532 4.67273C166.542 4.67273 166.552 4.67273 166.572 4.67273C166.582 4.67273 166.582 4.67273 166.592 4.67273C166.692 4.66273 166.802 4.64274 166.902 4.63274C166.992 4.59274 167.082 4.55273 167.182 4.51273C167.262 4.45273 167.342 4.39273 167.412 4.33273C167.542 4.21273 167.602 4.09273 167.662 3.94273C167.712 3.85273 167.742 3.75273 167.742 3.65273C167.762 3.60273 167.762 3.54273 167.762 3.49273Z" fill="#29E1C2"/>
<path d="M160.812 4.63274C160.692 4.56274 160.552 4.52274 160.412 4.52274C160.272 4.52274 160.132 4.56274 160.012 4.63274C159.992 4.64274 159.972 4.65273 159.962 4.66273C159.722 4.78273 159.582 5.06273 159.582 5.32273C159.582 5.58273 159.722 5.86273 159.962 5.98273C159.982 5.99273 160.002 6.00273 160.012 6.01273C160.132 6.08273 160.272 6.12273 160.412 6.12273C160.552 6.12273 160.692 6.08273 160.812 6.01273C161.052 5.87273 161.212 5.60273 161.212 5.32273C161.212 5.04273 161.052 4.78274 160.812 4.63274Z" fill="#29E1C2"/>
<path d="M155.612 8.59274C155.562 8.55274 155.512 8.52273 155.472 8.48273C155.362 8.42273 155.242 8.38274 155.112 8.38274C155.072 8.38274 155.032 8.39273 154.992 8.39273C154.892 8.39273 154.812 8.41274 154.722 8.45274C154.632 8.48274 154.562 8.53274 154.502 8.59274C154.432 8.65274 154.382 8.73273 154.362 8.81273C154.322 8.89273 154.302 8.98273 154.302 9.08273C154.312 9.26273 154.372 9.45273 154.502 9.57273C154.552 9.61273 154.592 9.64273 154.642 9.68273C154.752 9.74273 154.862 9.77274 154.992 9.77274C155.032 9.77274 155.072 9.78273 155.112 9.78273C155.212 9.78273 155.302 9.76273 155.382 9.72273C155.472 9.69273 155.542 9.64273 155.612 9.57273C155.682 9.51273 155.732 9.43274 155.762 9.34274C155.802 9.26274 155.822 9.16273 155.822 9.07273C155.802 8.91273 155.742 8.72274 155.612 8.59274Z" fill="#29E1C2"/>
<path d="M170.752 7.62273C170.692 7.40273 170.572 7.20272 170.412 7.04272C170.322 6.97272 170.232 6.90273 170.142 6.83273C169.932 6.71273 169.712 6.65272 169.472 6.65272C169.292 6.64272 169.122 6.68273 168.962 6.76273C168.802 6.81273 168.652 6.90272 168.532 7.03272C168.402 7.15272 168.312 7.29272 168.262 7.46272C168.182 7.62272 168.142 7.79272 168.152 7.97272C168.172 8.09272 168.182 8.20272 168.202 8.32272C168.262 8.54272 168.382 8.74272 168.542 8.90272C168.632 8.97272 168.722 9.04272 168.812 9.11272C169.022 9.23272 169.242 9.29272 169.482 9.29272C169.662 9.30272 169.832 9.26272 169.992 9.18272C170.152 9.13272 170.302 9.04273 170.422 8.91273C170.552 8.79273 170.642 8.65273 170.692 8.48273C170.772 8.32273 170.812 8.15272 170.802 7.97272C170.782 7.86272 170.772 7.74273 170.752 7.62273Z" fill="#29E1C2"/>
<path d="M176.592 16.8727C176.552 16.7827 176.512 16.6927 176.472 16.5927C176.402 16.4527 176.302 16.3527 176.172 16.2627C176.062 16.1627 175.932 16.0927 175.782 16.0527C175.742 16.0427 175.702 16.0327 175.662 16.0327C175.452 15.9727 175.242 15.9727 175.032 16.0327C174.832 16.0927 174.662 16.1927 174.512 16.3327C174.452 16.4127 174.392 16.4927 174.332 16.5727C174.222 16.7527 174.172 16.9527 174.172 17.1727C174.162 17.3327 174.202 17.4827 174.272 17.6327C174.322 17.7827 174.402 17.9027 174.512 18.0127C174.662 18.1627 174.832 18.2627 175.032 18.3127C175.242 18.3727 175.452 18.3727 175.662 18.3127C175.702 18.3027 175.742 18.2927 175.782 18.2927C175.872 18.2527 175.962 18.2127 176.062 18.1727C176.202 18.1027 176.302 18.0027 176.392 17.8727C176.462 17.8027 176.512 17.7127 176.542 17.6127C176.612 17.4727 176.652 17.3227 176.642 17.1627C176.622 17.0827 176.602 16.9827 176.592 16.8727Z" fill="#38778A"/>
<path d="M123.162 42.0227C121.912 42.0227 121.902 43.9727 123.162 43.9727C124.412 43.9727 124.412 42.0227 123.162 42.0227Z" fill="#38778A"/>
<path d="M131.502 84.2627C131.492 84.0927 131.442 83.9427 131.352 83.8027C131.342 83.7727 131.322 83.7527 131.312 83.7227C131.202 83.5327 131.042 83.3827 130.852 83.2627C130.652 83.1427 130.442 83.0927 130.212 83.0927C130.202 83.0927 130.202 83.0927 130.192 83.0927C130.072 83.0927 129.962 83.1027 129.842 83.1327C129.632 83.1927 129.452 83.2927 129.292 83.4527C129.142 83.6027 129.032 83.7927 128.972 84.0027C128.942 84.1227 128.922 84.2327 128.932 84.3527C128.932 84.3627 128.932 84.3627 128.932 84.3727C128.932 84.6027 128.992 84.8127 129.102 85.0127C129.212 85.2027 129.372 85.3527 129.562 85.4727C129.592 85.4827 129.612 85.5027 129.642 85.5127C129.742 85.5527 129.842 85.5927 129.942 85.6427C130.112 85.6927 130.272 85.7027 130.442 85.6627C130.552 85.6627 130.662 85.6327 130.752 85.5727C130.902 85.5227 131.042 85.4327 131.152 85.3127C131.222 85.2327 131.282 85.1427 131.352 85.0627C131.392 84.9627 131.432 84.8627 131.482 84.7627C131.532 84.5927 131.532 84.4227 131.502 84.2627Z" fill="#452E61"/>
<path d="M172.762 62.7127C172.712 62.6027 172.672 62.4927 172.622 62.3827C172.532 62.2227 172.412 62.0927 172.262 61.9927C172.132 61.8727 171.972 61.7927 171.792 61.7427C171.652 61.7027 171.522 61.6727 171.372 61.6827C171.302 61.6927 171.232 61.7027 171.172 61.7127C170.982 61.7227 170.812 61.7727 170.652 61.8827C170.232 62.1327 169.962 62.6027 169.962 63.0827C169.962 63.5527 170.232 64.0627 170.652 64.2827C170.762 64.3327 170.872 64.3727 170.982 64.4227C171.112 64.4427 171.242 64.4627 171.372 64.4727C171.532 64.4727 171.652 64.4427 171.792 64.4127C171.902 64.3627 172.012 64.3227 172.122 64.2727C172.282 64.1827 172.412 64.0627 172.512 63.9127C172.602 63.8227 172.652 63.7227 172.692 63.6127C172.782 63.4527 172.822 63.2727 172.812 63.0827C172.792 62.9627 172.782 62.8327 172.762 62.7127Z" fill="#452E61"/>
<path d="M43.0817 101.423C41.6117 101.423 41.6117 103.713 43.0817 103.713C44.5517 103.703 44.5617 101.423 43.0817 101.423Z" fill="#452E61"/>
<path d="M51.1317 101.863C51.1117 101.703 51.0918 101.543 51.0718 101.383C51.0118 101.243 50.9518 101.093 50.8918 100.953C50.8718 100.913 50.6418 100.613 50.6018 100.573C50.5918 100.563 50.5717 100.543 50.5617 100.533C50.4317 100.433 50.3117 100.333 50.1817 100.243C50.0317 100.183 49.8818 100.113 49.7318 100.053C49.4818 99.9727 49.2318 99.9627 48.9818 100.023C48.8118 100.023 48.6517 100.063 48.5117 100.153C48.3518 100.193 48.2118 100.283 48.1018 100.393C47.9618 100.473 47.8517 100.593 47.7617 100.733C47.6417 100.853 47.5617 100.993 47.5217 101.143C47.4017 101.363 47.3517 101.613 47.3617 101.863C47.3817 102.033 47.4017 102.193 47.4317 102.363C47.4917 102.513 47.5618 102.663 47.6218 102.813L47.9117 103.193L48.2917 103.483C48.4417 103.543 48.5917 103.613 48.7417 103.673C48.9917 103.753 49.2417 103.763 49.4917 103.703C49.6617 103.703 49.8218 103.663 49.9618 103.573C50.1918 103.493 50.3917 103.363 50.5617 103.183C50.5717 103.173 50.5918 103.153 50.6018 103.143C50.6318 103.113 50.8718 102.803 50.8918 102.763C50.9318 102.693 50.9618 102.623 50.9818 102.543C51.0818 102.343 51.1417 102.113 51.1317 101.863Z" fill="#452E61"/>
<path d="M85.9617 105.903C85.9317 105.783 85.9017 105.663 85.8317 105.563C85.7417 105.403 85.6117 105.283 85.4617 105.193C85.3017 105.103 85.1317 105.053 84.9417 105.053C84.7517 105.053 84.5817 105.103 84.4217 105.193C84.2617 105.283 84.1417 105.413 84.0517 105.563C83.9717 105.663 83.9417 105.783 83.9217 105.903C83.8717 106.093 83.8717 106.283 83.9217 106.473C83.9717 106.653 84.0617 106.813 84.1917 106.943C84.2617 107.003 84.3317 107.053 84.4117 107.113C84.5817 107.213 84.7517 107.253 84.9517 107.263C85.1017 107.273 85.2317 107.233 85.3617 107.173C85.4917 107.133 85.6117 107.053 85.7017 106.953C85.8317 106.823 85.9217 106.663 85.9717 106.483C86.0117 106.283 86.0117 106.093 85.9617 105.903Z" fill="#452E61"/>
<path d="M145.062 87.2127C143.452 87.2127 143.442 89.7227 145.062 89.7227C146.682 89.7227 146.682 87.2127 145.062 87.2127Z" fill="#452E61"/>
<path d="M102.732 39.6427C98.8215 38.2427 94.6415 39.0827 90.6415 40.0127C84.8715 41.4127 81.7115 46.8927 80.3215 52.2927C79.3915 55.7327 79.9515 59.4527 81.4415 62.7127C82.2615 64.3627 83.8015 65.6027 85.4915 66.4827C91.9615 63.9827 104.432 61.0627 106.352 54.6127C107.802 49.7627 106.532 44.1727 103.712 39.7427C103.392 39.7727 103.072 39.7527 102.732 39.6427Z" fill="#384769"/>
<path d="M81.4315 62.7027C79.9415 59.4427 79.3815 55.7227 80.3115 52.2827C81.7115 46.8927 84.8715 41.4027 90.6315 40.0027C94.6315 39.0727 98.8115 38.2327 102.722 39.6327C103.062 39.7427 103.382 39.7627 103.692 39.7227C102.102 37.2127 100.022 35.0827 97.6515 33.6527C90.2515 29.1827 79.9915 30.4327 73.5915 36.2327C67.1915 42.0327 64.9015 51.8227 67.6615 60.0127C69.0615 64.1727 72.1815 68.2627 76.5415 68.7727C79.2415 69.0927 81.8715 67.9827 84.3715 66.9027C84.7115 66.7527 85.0815 66.6027 85.4815 66.4527C83.7915 65.6027 82.2615 64.3527 81.4315 62.7027Z" fill="#452E61"/>
<path d="M35.3015 71.4527C33.8115 68.6627 33.3515 64.8527 35.4915 62.1527C36.5115 60.7527 38.0915 60.0127 39.8615 60.0127C42.0815 59.9527 44.4915 59.6227 46.7415 59.7727C46.7915 57.9427 46.4115 56.2127 45.0515 55.0727C43.8315 54.0527 42.1515 53.8427 40.5615 53.6727C37.3115 53.3327 31.5315 51.5327 28.7715 54.0127C25.8015 56.6727 26.4115 64.2927 27.8415 67.4827C29.2015 70.5227 32.0415 72.8627 35.2815 73.6227C36.0515 73.8027 36.8415 73.8927 37.6315 73.8827C36.7415 73.1727 35.8415 72.4827 35.3015 71.4527Z" fill="#452E61"/>
<path d="M39.8615 60.0127C38.0915 60.0127 36.5115 60.7527 35.4915 62.1527C33.3515 64.8527 33.8215 68.6627 35.3015 71.4527C35.8515 72.4927 36.7415 73.1727 37.6315 73.8827C38.6815 73.8627 39.7215 73.6527 40.6715 73.1927C44.2115 71.4927 45.4315 67.1427 46.2615 63.2927C46.5015 62.1727 46.7115 60.9527 46.7415 59.7627C44.4815 59.6227 42.0715 59.9527 39.8615 60.0127Z" fill="#384769"/>
<path d="M64.6915 87.3527C64.4115 89.4027 64.3215 91.5427 65.6215 93.3027C65.7615 93.4827 65.9015 93.6427 66.0615 93.7927C67.5815 94.2027 69.1215 94.4827 70.6515 94.2127C72.6415 93.8627 74.5915 92.2927 74.8315 90.1127C74.9815 88.7427 74.4315 87.3627 73.6115 86.3027C72.7915 85.2427 71.7315 84.4427 70.6915 83.6627C70.6015 83.5927 70.5015 83.5127 70.4015 83.4427C69.3415 83.8527 68.3215 84.2927 67.3915 84.6627C66.1815 85.1227 64.8815 85.9627 64.6915 87.3527Z" fill="#384769"/>
<path d="M62.6215 78.9227C60.2015 79.4027 57.2815 83.0427 55.7615 84.9727C54.7115 86.3027 53.7515 88.2627 54.6715 89.7127C55.2015 90.5427 56.1715 90.8727 57.0615 91.1327C59.6115 91.8927 62.1515 92.6527 64.7015 93.4127C65.1515 93.5427 65.5915 93.6827 66.0515 93.8027C65.9015 93.6527 65.7515 93.4927 65.6115 93.3127C64.3115 91.5427 64.4015 89.4027 64.6815 87.3627C64.8715 85.9627 66.1715 85.1327 67.3815 84.6627C68.3115 84.2927 69.3315 83.8527 70.3915 83.4427C68.3315 81.7927 65.1915 78.4027 62.6215 78.9227Z" fill="#452E61"/>
<path d="M154.812 64.3827C150.352 62.8927 145.702 62.8927 141.042 63.9227C137.782 64.6627 135.272 67.3627 133.972 70.3427C133.412 71.5527 133.692 73.0427 134.442 74.3427C135.652 76.3927 137.422 77.8727 139.282 79.4627C140.752 80.7827 142.682 81.4527 144.252 82.6627C144.812 82.7227 145.382 82.7727 145.952 82.8027C151.102 83.0227 156.642 81.1327 159.442 76.8127C161.052 74.3327 161.532 71.2927 161.082 68.3527C159.352 66.5527 157.102 65.1727 154.812 64.3827Z" fill="#384769"/>
<path d="M134.442 74.3327C133.702 73.0327 133.422 71.5427 133.972 70.3327C135.272 67.3527 137.782 64.6627 141.042 63.9127C145.692 62.8927 150.342 62.8927 154.812 64.3727C157.092 65.1727 159.342 66.5427 161.082 68.3327C160.742 66.0927 159.852 63.9227 158.512 62.1127C155.402 57.9227 150.252 55.5527 145.052 55.0427C136.512 54.2027 115.422 59.7827 123.152 73.0827C124.812 75.9427 128.092 77.3727 131.152 78.6327C135.392 80.3727 139.722 82.1227 144.252 82.6427C142.682 81.4327 140.752 80.7627 139.282 79.4427C137.422 77.8627 135.652 76.3827 134.442 74.3327Z" fill="#452E61"/>
<path d="M157.882 25.2227C157.972 23.1727 159.372 21.4127 161.042 20.1027C163.162 18.4227 166.192 18.0027 168.722 18.9927C167.202 17.3927 165.272 16.1827 163.352 15.6627C155.132 13.4527 144.542 25.6827 152.972 31.7927C155.032 33.2827 157.742 33.3227 160.312 33.2027C158.322 31.3227 157.812 27.8727 157.882 25.2227Z" fill="#452E61"/>
<path d="M161.042 20.1127C159.372 21.4127 157.972 23.1827 157.882 25.2327C157.812 27.8727 158.312 31.3327 160.322 33.2127C160.532 33.2027 160.752 33.1927 160.962 33.1827C165.672 32.9127 171.622 31.7927 171.762 25.9527C171.822 23.4427 170.572 20.9427 168.732 19.0127C166.202 18.0127 163.162 18.4327 161.042 20.1127Z" fill="#384769"/>
<path d="M175.462 47.2727C174.692 49.3727 175.452 51.6227 176.932 53.3227C178.082 53.4427 179.082 53.0227 179.792 52.3227C180.842 51.2927 181.312 49.5127 180.632 47.6227C180.592 47.5027 180.542 47.3827 180.492 47.2627C179.982 46.9327 179.442 46.6527 178.902 46.4327C177.792 45.8727 175.932 46.1527 175.462 47.2727Z" fill="#384769"/>
<path d="M176.772 44.1827C176.022 44.3127 175.242 44.6327 174.552 45.1027C173.422 45.8827 172.532 47.0827 172.442 48.5527C172.312 50.6727 174.852 53.0127 176.762 53.3027C176.822 53.3127 176.882 53.3227 176.932 53.3227C175.442 51.6227 174.692 49.3727 175.462 47.2727C175.932 46.1527 177.792 45.8727 178.902 46.4327C179.432 46.6527 179.982 46.9227 180.492 47.2627C179.782 45.6227 178.212 43.9227 176.772 44.1827Z" fill="#452E61"/>
<path d="M126.212 39.5527C126.942 40.8527 128.282 41.6527 129.642 42.1527C130.342 42.4127 131.082 42.6127 131.822 42.6727C131.432 42.2127 131.072 41.7227 130.722 41.3027C129.792 40.2827 129.702 38.7027 130.262 37.5827C130.932 36.2927 132.332 35.7327 133.852 35.5827C132.892 34.9427 131.782 34.5427 130.682 34.1827C127.432 33.1227 124.172 35.9227 126.212 39.5527Z" fill="#452E61"/>
<path d="M130.262 37.5927C129.702 38.7127 129.792 40.2927 130.722 41.3127C131.072 41.7327 131.422 42.2227 131.822 42.6827C132.262 42.7227 132.692 42.7027 133.132 42.6327C134.302 42.4227 135.432 41.6727 135.882 40.5327C136.462 39.0827 135.802 37.3427 134.702 36.2827C134.442 36.0327 134.152 35.8027 133.852 35.6027C132.332 35.7527 130.932 36.3127 130.262 37.5927Z" fill="#384769"/>
<path d="M113.152 84.3827C109.992 84.8527 107.012 86.5227 105.622 89.5027C104.602 91.8327 104.322 94.8027 105.992 96.9427C107.112 98.2927 108.482 99.3827 110.042 100.053C112.462 99.2427 114.682 97.7727 116.422 95.9027C118.172 94.0227 119.552 91.5727 119.312 89.0127C119.132 87.0427 117.992 85.3527 116.422 84.1227C115.262 84.1127 114.122 84.2327 113.152 84.3827Z" fill="#384769"/>
<path d="M95.5015 93.1727C96.5715 97.3327 100.672 100.333 104.952 100.693C106.682 100.833 108.412 100.593 110.042 100.043C108.482 99.3727 107.102 98.2827 105.992 96.9327C104.322 94.7927 104.592 91.8127 105.622 89.4927C107.022 86.5127 109.992 84.8427 113.152 84.3727C114.122 84.2327 115.272 84.1027 116.422 84.1027C115.242 83.1827 113.822 82.5227 112.372 82.2127C105.352 80.7027 92.9715 83.3827 95.5015 93.1727Z" fill="#452E61"/>
<path d="M23.2115 93.6827C22.7315 95.3627 23.6815 96.8027 25.0615 97.5727C26.1515 97.3027 27.1115 96.5527 27.6415 95.5527C28.2815 94.3427 28.2415 92.8127 27.6015 91.6127C26.9415 91.6827 26.3015 91.7927 25.7215 91.9127C24.7015 92.1027 23.4915 92.6527 23.2115 93.6827Z" fill="#384769"/>
<path d="M20.4515 94.7427C20.8815 96.4727 22.6215 97.7727 24.3915 97.6727C24.6115 97.6627 24.8415 97.6227 25.0615 97.5727C23.6815 96.8027 22.7315 95.3627 23.2115 93.6827C23.4915 92.6627 24.7015 92.1027 25.7215 91.9127C26.3015 91.7927 26.9415 91.6827 27.6015 91.6127C27.4415 91.3227 27.2515 91.0427 27.0215 90.7927C24.1815 87.7327 19.5115 90.9327 20.4515 94.7427Z" fill="#452E61"/>
</svg>
