<svg width="155" height="152" viewBox="0 0 155 152" fill="none" xmlns="http://www.w3.org/2000/svg">
<path fill-rule="evenodd" clip-rule="evenodd" d="M152.104 75.5517C152.104 82.7112 151.103 89.6538 149.183 96.2126C145.412 109.397 138.085 121.062 128.306 130.158C121.313 136.683 113.069 141.857 103.973 145.311C95.7454 148.449 86.8168 150.151 77.4877 150.151C76.1693 150.151 74.8342 150.118 73.5157 150.034H73.499C71.5464 149.934 69.6105 149.751 67.7079 149.517C53.3054 147.631 40.2213 141.64 29.6071 132.728C25.6185 129.407 21.9969 125.652 18.8093 121.563C16.3894 118.492 14.2032 115.238 12.2673 111.783C11.8167 110.966 11.3661 110.131 10.9322 109.297C10.9322 109.263 10.9154 109.247 10.8988 109.213C10.4482 108.312 10.0142 107.411 9.61368 106.51C9.59699 106.51 9.59707 106.51 9.59707 106.51C8.31202 103.656 7.17717 100.719 6.25928 97.6979C5.55835 95.5283 4.99084 93.292 4.50686 91.0223C4.49017 91.0056 4.49015 90.9722 4.49015 90.9556C4.15638 89.3701 3.87266 87.7513 3.65571 86.1324C3.15504 82.6611 2.90479 79.1398 2.90479 75.5517C2.90479 73.4822 2.98819 71.4295 3.17176 69.4101C3.2719 68.1251 3.40541 66.84 3.58899 65.5717C4.55695 58.2285 6.59303 51.2358 9.56366 44.7438C11.0156 41.5396 12.6845 38.4688 14.5536 35.5315C17.6745 30.625 21.3627 26.119 25.5183 22.0636C38.9529 8.9961 57.294 0.952026 77.521 0.952026C78.3054 0.952026 79.0899 0.968716 79.8742 0.985405C80.7087 1.01878 81.5431 1.05216 82.3776 1.11892C86.6666 1.40263 90.8556 2.03681 94.8943 3.00477C97.2641 3.57219 99.5672 4.23975 101.837 5.02413C103.372 5.54149 104.891 6.1256 106.393 6.75978C107.511 7.22707 108.596 7.72774 109.681 8.2451C109.864 8.34523 110.065 8.41199 110.248 8.51212C117.491 12.0502 124.067 16.7231 129.758 22.3139C130.575 23.0983 131.36 23.916 132.144 24.7505C132.661 25.3179 133.179 25.902 133.679 26.4861C134.547 27.4708 135.382 28.4888 136.199 29.5068C139.17 33.2785 141.79 37.3506 143.976 41.6564C146.547 46.6631 148.566 52.0035 149.934 57.5943C151.353 63.3353 152.104 69.3434 152.104 75.5517Z" fill="url(#paint0_radial_1_6264)"/>
<path opacity="0.4" fill-rule="evenodd" clip-rule="evenodd" d="M2.90479 75.5518C2.90479 75.5518 20.4949 106.777 37.501 111.617C54.507 116.456 73.9329 113.386 80.5751 115.856C87.2173 118.326 90.8222 128.472 90.8222 128.472L93.2921 129.891C93.2921 129.891 98.9663 121.079 102.438 126.286C102.438 126.286 101.053 118.91 105.225 109.931C109.397 100.952 112.184 91.3062 117.358 88.2187C122.531 85.1312 131.994 83.696 139.487 86.6833C146.997 89.6539 150.869 89.0865 150.869 89.0865L151.436 85.5485L152.004 82.4276C152.004 82.4276 144.828 83.5625 139.053 79.8742C139.053 79.8742 139.838 81.2594 144.327 72.8982C148.8 64.5371 148.282 57.0104 148.282 57.0104L147.648 50.0677C147.648 50.0677 145.245 74.1499 135.098 81.1259C135.098 81.1259 112.451 76.4363 102.888 103.155C102.888 103.155 101.253 121.029 91.7735 120.529C82.2941 120.028 85.5652 108.346 71.8468 108.229C58.1285 108.112 49.8007 113.753 36.1992 106.009C22.581 98.2488 2.90479 75.5518 2.90479 75.5518Z" fill="#7D72B3"/>
<path opacity="0.4" fill-rule="evenodd" clip-rule="evenodd" d="M73.5323 150.034C73.5323 150.034 82.9449 135.982 93.292 136.066C103.639 136.149 108.412 139.904 116.573 135.131C124.734 130.375 128.122 127.388 131.877 124.851C135.632 122.314 136.266 121.496 136.266 121.496L137.968 119.26C137.968 119.26 132.244 116.49 127.204 120.562C122.164 124.634 113.052 133.863 105.825 133.829C98.5991 133.779 98.9496 129.624 90.8221 132.878C82.6945 136.149 65.5884 147.681 65.5884 147.681C65.5884 147.681 68.6759 149.934 73.5323 150.034Z" fill="#7D72B3"/>
<path opacity="0.4" fill-rule="evenodd" clip-rule="evenodd" d="M6.99316 99.9843L7.89443 102.454C7.89443 102.454 22.4472 110.482 31.6261 121.663C40.805 132.845 42.4406 140.405 42.4406 140.405C42.4406 140.405 44.0761 133.746 36.1655 121.213C28.255 108.696 11.2155 101.82 6.99316 99.9843Z" fill="#7D72B3"/>
<path fill-rule="evenodd" clip-rule="evenodd" d="M110.215 8.49548C109.964 8.52886 109.731 8.54554 109.48 8.59561C108.646 8.74581 107.978 8.67905 107.144 8.44541C106.543 8.27852 106.126 8.02819 105.492 7.92805C104.59 7.77785 103.739 7.39401 102.838 7.27718C101.887 7.14367 101.052 6.77651 100.151 6.44274C99.4334 6.17571 99.0663 6.27585 98.382 6.44274C97.6978 6.62631 97.2138 6.3426 96.613 6.07558C95.9287 5.77518 95.2445 5.72511 94.5102 5.5916C92.6243 5.20775 90.7385 4.59026 88.8694 4.12297C87.7012 3.82257 86.633 3.82257 85.4481 3.80588C84.5135 3.78919 83.679 4.0729 82.7445 4.0729C82.127 4.0729 81.5929 3.97277 80.9754 3.87264C80.3413 3.75581 79.6905 3.88933 79.0563 3.78919C78.105 3.63899 77.6043 3.50548 76.6531 3.80588C75.9354 4.03953 75.3847 4.00615 74.6671 4.05622C73.8827 4.08959 72.9814 4.30655 72.2137 4.49013C70.8119 4.80722 69.2932 5.07424 67.8579 5.04086C66.9734 5.04086 65.6884 4.79053 64.8373 5.09093C64.2865 5.2912 64.0195 5.87531 63.6523 6.25916C62.9347 7.01016 62.0335 7.67772 61.4327 8.52885C60.8319 9.3633 60.1309 10.2311 60.1977 11.2992C60.2477 12.2171 60.6817 13.2852 61.0822 14.1363C61.4995 15.0209 61.6329 15.8386 60.715 16.4394C59.5635 17.2071 58.2284 17.908 56.91 18.2752C56.0255 18.5255 55.2411 18.6924 54.5068 18.0582C54.2398 17.8246 54.0728 17.374 53.7224 17.1904C53.3719 17.0068 53.0048 17.1904 52.6376 17.3072C51.7031 17.5743 50.8019 17.8914 49.8506 18.0416C49.2665 18.125 48.7657 18.4421 48.1983 18.5422C47.5141 18.6757 47.0135 18.1751 46.3126 18.342C45.3112 18.5756 44.3265 18.9928 43.2918 19.0429C42.5574 19.0763 41.6229 18.7592 41.0054 18.3753C40.6382 18.1751 40.5548 17.9581 40.1376 18.0749C39.8038 18.1584 39.3031 18.5589 39.1195 18.8259C38.8692 19.1764 38.7858 19.627 38.5354 19.9942C38.2684 20.3947 38.0348 20.7785 37.8011 21.2125C37.3672 22.0469 36.8665 22.8146 36.3325 23.5489C35.9487 24.0663 35.665 24.7672 35.2478 25.2512C35.0308 25.5182 34.5468 25.6851 34.2631 25.8854C33.4787 26.4361 32.6776 26.9201 31.9266 27.5042C30.4746 28.639 29.1062 29.8907 27.6376 30.9922C26.5195 31.8266 24.934 32.3273 23.6489 32.8613C22.8479 33.1784 22.0134 33.4121 21.2123 33.7626C20.9453 33.8627 20.478 33.9795 20.261 34.1798C19.9773 34.4301 19.8271 34.8807 19.5601 35.2145C18.8592 36.0656 18.1249 36.9168 17.5908 37.9014C17.2737 38.4688 17.0735 39.053 16.8732 39.6704C16.5895 40.5049 16.1389 41.2893 15.8552 42.1237C15.2711 43.8761 15.1542 45.7285 14.5033 47.4642C14.1362 48.4822 13.5855 49.4168 13.1182 50.3514C12.3171 51.9368 12.2003 53.806 11.9667 55.5583C11.8332 56.5764 11.8832 57.7613 12.0668 58.7626C12.2671 59.8307 12.217 60.9489 12.2003 62.0503C12.1836 63.2186 11.4493 64.3534 10.715 65.2379C10.0474 66.0557 9.01267 66.3561 8.26166 67.0904C7.62748 67.7079 6.85979 68.4255 6.59277 69.31C6.47595 69.6939 6.5761 70.1445 6.50934 70.545C6.34246 71.4629 6.1088 72.3307 5.97529 73.2653C5.82509 74.4168 5.80844 75.5016 5.80844 76.6699C5.80844 77.254 5.77504 77.8548 5.79173 78.4222C5.82511 78.9729 6.02533 79.4903 6.05871 80.0577C6.09209 80.4416 6.00864 80.8421 6.05871 81.2259C6.14216 81.6599 6.30908 82.1271 6.40922 82.5444C6.67624 83.5791 6.85984 84.5971 7.06011 85.6318C7.24369 86.5831 7.61086 87.5344 7.91126 88.4689C8.32849 89.7373 8.5955 91.039 8.84584 92.3575C9.04611 93.3421 9.02942 94.3602 9.16293 95.3615C9.27976 96.1626 9.46325 96.9803 9.49663 97.7814C9.53001 98.9997 9.22965 100.218 9.22965 101.436C9.21296 103.506 10.0475 105.575 10.5314 107.578C10.6816 108.129 10.8151 108.696 10.9653 109.263C5.84176 99.1499 2.95459 87.7013 2.95459 75.5851C2.95459 60.8654 7.22702 47.1304 14.5868 35.565C17.7244 30.6417 21.3959 26.1357 25.5515 22.1137C39.0028 9.04621 57.3272 1.00214 77.5542 1.00214C79.1897 1.00214 80.7919 1.0522 82.3941 1.15234C92.2906 1.73645 101.72 4.32324 110.215 8.49548Z" fill="url(#paint1_linear_1_6264)"/>
<path opacity="0.4" fill-rule="evenodd" clip-rule="evenodd" d="M21.1455 33.7291C21.1455 33.7291 37.9345 48.7491 60.0975 49.1664C82.2604 49.6003 90.4881 48.115 97.8646 39.904C105.241 31.693 113.168 17.7911 113.168 17.7911C113.168 17.7911 103.706 22.3472 97.1637 31.2591C90.6049 40.1877 59.6803 55.3747 21.1455 33.7291Z" fill="#7D72B3"/>
<g opacity="0.7">
<path opacity="0.4" fill-rule="evenodd" clip-rule="evenodd" d="M22.4806 34.163C20.2777 36.7665 18.3752 39.42 16.8899 42.4908C15.5714 45.2278 15.1041 48.2819 14.6201 51.2358C14.3364 52.9882 14.0861 54.7572 13.8191 56.5262C13.5854 58.095 13.1348 59.7305 13.4018 61.316C13.769 63.4521 13.8859 65.822 14.9039 67.7746C16.0053 69.8607 17.1401 71.6965 18.6088 73.549C20.044 75.3514 21.763 76.1691 24.0661 76.336C25.3178 76.4195 26.5527 76.2359 27.8211 76.4028C29.5568 76.6364 31.2924 76.9535 33.0281 77.2205C36.516 77.7879 40.438 77.8046 42.9413 74.9508C44.9773 72.6311 45.9286 69.7439 47.2304 66.9735C48.6156 64.0363 50.3512 61.583 52.9213 59.597C54.8238 58.1284 56.476 56.4762 58.3118 54.9241C59.1462 54.2231 59.6469 53.4555 60.5815 52.9381C61.4994 52.4207 62 51.8533 62.8011 51.1023C63.5187 50.4347 64.4033 49.9842 65.0542 49.2165C66.0889 47.9982 66.9066 46.3793 67.4574 44.894C68.0415 43.3419 68.3251 41.7064 68.5421 40.0876C68.759 38.5022 68.2918 36.9 67.7912 35.3813C66.8399 32.4941 64.3865 30.675 62.0668 28.8893C59.1963 26.6697 55.8084 25.685 52.2704 25.0008C49.0494 24.3666 45.1943 24.2331 41.9566 24.8172C38.5354 25.418 35.0307 25.9187 31.8431 27.3873C29.5233 28.4721 28.1048 29.9741 26.2356 31.5595C25.2844 32.3773 24.1162 32.928 23.2484 33.8459C22.0634 35.1143 20.9452 36.4828 22.4806 34.163Z" fill="#7D72B3"/>
<path opacity="0.4" fill-rule="evenodd" clip-rule="evenodd" d="M56.2925 20.2445C56.7598 19.4267 57.2771 18.2752 57.928 17.5075C58.2784 17.0903 58.7291 16.7732 59.1296 16.4394C60.3813 15.388 61.7497 14.5035 63.3185 14.0529C64.1863 13.8026 65.1543 13.7859 66.0222 14.0028C66.9067 14.2365 68.5255 14.8373 69.2097 15.4882C70.4781 16.6898 69.6437 18.7592 69.2598 20.1611C68.876 21.5796 68.4254 22.9314 67.157 23.8326C66.3226 24.4167 65.3379 24.884 64.3533 25.1177C63.8025 25.2512 63.2518 25.2011 62.6844 25.2679C62.2338 25.318 61.7998 25.4348 61.3492 25.4348C60.3145 25.4348 58.7457 24.7005 58.3118 23.6824C58.0781 23.1484 57.9613 22.6143 57.711 22.0803C57.5274 21.6798 57.3939 21.2458 57.2271 20.8453C56.9267 20.0776 56.6429 19.3433 56.2925 20.2445Z" fill="#7D72B3"/>
<path opacity="0.4" fill-rule="evenodd" clip-rule="evenodd" d="M68.6258 28.205C68.3253 29.0228 68.1584 29.8739 68.125 30.7417C68.5088 30.9754 68.6424 31.4427 69.0096 31.6596C69.3767 31.8766 69.8106 31.7931 70.2111 31.7765C70.9621 31.7765 71.6798 31.7765 71.8133 30.8586C71.9301 30.0575 71.2125 29.4734 70.6117 29.0228C70.1778 28.7057 69.31 27.9714 68.826 28.5722L68.6258 28.205Z" fill="#7D72B3"/>
<path opacity="0.4" fill-rule="evenodd" clip-rule="evenodd" d="M78.9728 40.338C78.0048 41.0222 76.9535 41.6564 76.0356 42.3907C74.8674 43.3253 73.9327 44.5102 73.0315 45.6951C71.8967 47.1638 70.5615 48.6991 70.8453 50.6684C71.129 52.621 71.7799 54.2399 73.2819 55.5416C75.0175 57.0603 77.6878 57.0436 79.6905 58.0283C81.4094 58.8627 82.5108 60.5984 83.362 62.2506C84.6637 64.7539 87.4174 65.1878 89.9207 65.6718C91.5562 65.9722 93.1585 66.2059 94.8107 66.4061C97.0136 66.6731 99.1998 67.0904 101.419 67.3073C105.475 67.6912 109.58 68.6424 113.669 68.3087C118.008 67.9582 121.947 66.4061 125.502 63.9362C128.539 61.8167 131.259 58.1451 132.06 54.5069C132.911 50.6851 131.643 46.4128 129.791 43.075C127.387 38.7358 124.534 34.6637 121.446 30.7752C119.727 28.6223 117.758 26.7031 116.006 24.5836C114.487 22.7478 112.901 21.0956 111.099 19.5435C107.044 16.0555 102.02 13.185 96.5797 12.9013C94.5103 12.7845 92.4074 13.1016 90.4715 13.8526C88.7692 14.5202 87.5342 15.4881 86.2658 16.8066C83.0449 20.1277 81.3594 24.3333 79.9742 28.6724C79.34 30.6584 78.7391 32.9114 78.9728 35.0142C79.0395 35.6651 79.3901 36.1657 79.3734 36.7832C79.3734 37.3507 79.3734 37.9348 79.3734 38.5022C79.3734 38.836 79.4067 39.103 79.2899 39.3867C79.0896 39.8039 78.6223 40.2712 78.9728 40.338Z" fill="#7D72B3"/>
<path opacity="0.4" fill-rule="evenodd" clip-rule="evenodd" d="M61.8667 55.0576C59.7639 56.2759 57.611 57.2439 56.059 59.2132C55.7919 59.5636 55.3747 59.9475 55.5249 60.4315C55.6918 60.9488 56.276 61.2492 56.7266 61.4328C58.2953 62.0837 60.1978 62.4174 61.8667 62.1004C63.3687 61.8 65.3547 60.7819 66.1558 59.4301C67.1905 57.7112 66.0222 54.9241 63.8527 55.0743C63.5189 55.091 63.2686 55.2579 62.9515 55.2913C62.7012 55.3246 62.4175 55.2746 62.1505 55.2746C61.8501 55.2913 61.7833 55.3413 61.533 55.4415C61.2826 55.5249 60.9488 55.8253 61.8667 55.0576Z" fill="#7D72B3"/>
<path opacity="0.4" fill-rule="evenodd" clip-rule="evenodd" d="M18.7088 83.8961C17.8576 84.6637 17.0065 85.2645 16.5058 86.2993C16.0385 87.2672 15.7215 88.1851 15.5045 89.2365C15.3043 90.1377 15.0539 91.1057 15.2876 92.0236C15.4878 92.858 15.8883 93.6758 16.172 94.4768C16.5392 95.5283 16.8731 96.5129 17.1067 97.6144C17.3904 98.9662 17.891 100.118 18.4918 101.369C19.0926 102.588 19.7602 103.756 20.4778 104.907C21.2288 106.092 22.0966 107.027 23.0813 108.028C26.4858 111.566 30.6414 115.321 35.7148 115.956C38.2682 116.273 40.9552 115.622 42.8243 113.786C44.8771 111.783 46.1788 108.896 46.6128 106.076C46.9799 103.672 46.7462 101.186 45.4445 99.0997C44.4098 97.4308 43.2749 95.6451 41.9398 94.2098C41.0386 93.2419 40.0038 92.4074 39.0192 91.5229C38.0346 90.6384 37.1 89.7038 36.0319 88.9194C34.1628 87.5509 32.3436 86.1157 30.4745 84.7472C28.7722 83.5122 26.9364 82.1771 24.8503 81.6764C23.415 81.326 21.8296 81.0422 20.4111 81.593C19.8103 81.8266 19.343 82.0436 19.0259 82.5943C18.8757 82.8613 18.5085 83.3453 18.4918 83.6457C18.4084 83.6624 18.3583 83.6791 18.7088 83.8961Z" fill="#7D72B3"/>
<path opacity="0.4" fill-rule="evenodd" clip-rule="evenodd" d="M32.0265 80.5084C32.0932 81.1092 32.1601 81.71 32.2268 82.3108C32.2769 82.5111 32.3102 82.6946 32.3603 82.8949C32.4771 83.0284 32.9277 83.0785 33.0946 83.0952C33.6954 83.1619 34.363 82.8448 34.8303 82.461C35.5646 81.8936 35.8817 80.5751 35.2141 79.9076C34.6801 79.3735 33.9791 79.1733 33.2281 79.3235C32.8443 79.4069 31.1753 80.2747 31.8429 80.9089L32.0265 80.5084Z" fill="#7D72B3"/>
<path opacity="0.4" fill-rule="evenodd" clip-rule="evenodd" d="M131.876 64.2032C132.143 62.8681 132.16 62.0169 132.978 61.0156C133.696 60.1478 134.48 59.3467 135.164 58.4455C136.416 56.81 137.2 54.8907 137.668 52.8881C138.085 51.119 137.651 49.4001 138.435 47.6978C138.619 47.2973 138.836 46.5296 139.27 46.3293C139.67 46.1457 140.455 46.2959 140.805 46.5129C141.172 46.7298 141.539 47.1971 141.84 47.4641C142.391 47.9481 142.858 48.4822 143.342 49.0162C145.828 51.7198 147.197 55.7586 147.18 59.4134C147.164 61.5496 146.93 63.5356 146.229 65.5383C145.945 66.356 145.645 67.0904 145.194 67.8414C144.66 68.7593 143.976 69.31 143.091 69.8774C140.521 71.5296 136.766 70.9121 134.63 68.8761C133.829 68.1251 133.462 67.0904 132.945 66.2058C132.544 65.5049 132.144 64.8874 132.01 64.053C131.993 64.0196 131.943 64.0196 131.876 64.2032Z" fill="#7D72B3"/>
<path opacity="0.4" fill-rule="evenodd" clip-rule="evenodd" d="M131.876 36.1491C132.294 37.601 132.511 39.1865 134.013 39.9375C134.263 40.071 134.814 40.2713 135.114 40.288C135.498 40.3047 135.765 40.0877 136.065 39.8707C137.634 38.7192 136.733 36.0824 135.682 34.8974C135.064 34.1965 134.346 33.9629 133.479 33.7125C133.078 33.5957 133.178 33.5623 132.844 33.7125C132.594 33.8293 132.427 33.9462 132.294 34.1464C132.16 34.3634 132.11 34.6972 132.093 34.9475C132.077 35.2312 131.993 35.3814 131.943 35.5817C131.843 36.0824 131.893 36.4829 132.093 36.9335L131.876 36.1491Z" fill="#7D72B3"/>
<path opacity="0.4" fill-rule="evenodd" clip-rule="evenodd" d="M120.144 96.83C119.76 97.8147 119.46 98.8494 119.026 99.8173C118.559 100.852 118.092 101.887 117.658 102.921C116.506 105.675 115.872 108.512 115.121 111.383C114.336 114.403 113.836 117.474 113.535 120.578C113.368 122.181 113.135 123.716 113.168 125.318C113.202 126.47 113.202 127.855 113.602 128.956C113.852 129.64 114.487 130.675 115.204 130.976C116.122 131.376 117.307 130.608 118.075 130.208C121.112 128.706 123.699 126.403 126.119 124.05C128.505 121.73 130.909 119.527 132.878 116.84C133.779 115.605 134.78 114.403 135.531 113.068C136.166 111.967 136.583 110.749 137.167 109.614C137.701 108.546 138.085 107.427 138.602 106.343C139.22 105.041 139.787 103.689 140.204 102.304C141.022 99.6504 141.74 96.9635 140.822 94.2265C140.037 91.9068 138.102 90.1211 135.698 89.6037C134.397 89.32 132.928 88.9361 131.593 89.0363C130.274 89.1364 128.873 89.5036 127.654 90.0042C126.586 90.4381 125.518 90.9555 124.55 91.573C123.999 91.9235 123.632 92.3908 123.198 92.8581C122.464 93.6424 121.746 94.4769 121.196 95.3948C120.912 95.8621 120.662 96.1291 120.294 96.5296C119.81 97.1137 119.593 97.9482 120.144 96.83Z" fill="#7D72B3"/>
<path opacity="0.4" fill-rule="evenodd" clip-rule="evenodd" d="M108.412 131.243C106.826 131.844 105.525 132.411 104.173 133.412C102.554 134.614 101.052 135.832 99.9005 137.484C99.4833 138.085 98.6321 139.137 99.2663 139.838C99.817 140.455 100.702 140.405 101.453 140.388C102.537 140.372 103.622 140.171 104.64 139.754C105.575 139.354 106.426 138.836 107.394 138.519C108.328 138.202 109.597 137.585 110.214 136.784C110.565 136.333 110.782 135.699 111.115 135.215C111.382 134.814 111.466 134.514 111.416 134.013C111.349 133.462 110.999 132.661 110.565 132.278C110.181 131.927 109.43 131.577 108.912 131.627C108.645 131.66 108.295 131.76 108.045 131.86C107.394 132.127 106.893 132.912 108.412 131.243Z" fill="#7D72B3"/>
<path opacity="0.4" fill-rule="evenodd" clip-rule="evenodd" d="M106.426 122.081C106.109 120.896 105.742 119.961 105.842 118.759C105.942 117.675 105.925 116.773 106.493 115.789C106.727 115.372 107.427 114.086 107.878 113.92C108.045 113.87 108.512 113.886 108.662 113.903C109.463 114.003 109.947 115.004 110.114 115.722C110.365 116.84 110.198 118.142 110.198 119.293C110.198 120.178 110.081 121.012 109.747 121.847C109.48 122.514 108.946 122.514 108.262 122.481C107.594 122.448 107.311 122.264 106.827 121.88C106.643 121.73 106.376 121.68 106.209 121.546C105.992 121.346 106.076 121.079 106.426 122.081Z" fill="#7D72B3"/>
<path opacity="0.4" fill-rule="evenodd" clip-rule="evenodd" d="M105.024 74.9509C104.891 75.7854 104.824 76.6031 104.857 77.4376C105.158 77.4376 105.475 77.9883 105.859 78.0885C106.41 78.222 106.977 77.8882 107.411 77.5377C108.345 76.7867 108.612 75.3682 108.395 74.2333C108.195 73.1318 106.927 73.015 106.009 73.1318C105.709 73.1652 105.241 73.3154 105.008 73.5324C104.457 74.0164 104.407 74.6172 104.423 75.3348L105.024 74.9509Z" fill="#7D72B3"/>
<path opacity="0.4" fill-rule="evenodd" clip-rule="evenodd" d="M33.8125 126.269C34.3131 125.385 34.7638 124.434 35.4147 123.666C36.149 122.798 36.9667 121.864 37.8179 121.096C38.8693 120.145 40.0709 119.26 41.1891 118.392C42.2238 117.591 43.2919 116.807 44.41 116.106C46.3459 114.888 48.3653 114.086 50.5181 113.335C52.2705 112.735 54.123 112.534 55.9588 112.902C57.8446 113.285 59.6637 114.354 61.0489 115.655C62.384 116.907 63.7692 118.426 64.5869 120.078C66.2558 123.449 65.6049 127.104 64.4701 130.525C63.9694 132.044 62.9014 133.88 61.6163 134.881C60.882 135.448 60.0142 135.815 59.1297 136.016C58.1117 136.249 56.9601 136.583 55.942 136.717C51.4527 137.284 46.8299 136.967 42.5742 135.382C40.8886 134.764 39.2197 133.996 37.6009 133.212C36.3159 132.595 35.2478 131.793 34.38 130.642C33.7458 129.791 33.2117 128.773 33.2284 127.688C33.2451 127.204 33.412 126.77 33.4621 126.286C33.6623 126.286 33.8459 126.153 33.8125 126.269Z" fill="#7D72B3"/>
<path opacity="0.4" fill-rule="evenodd" clip-rule="evenodd" d="M67.6408 128.255C67.3237 129.073 67.1235 129.924 67.04 130.792C67.3404 130.959 67.3237 131.46 67.5574 131.743C67.8077 132.06 68.0914 132.211 68.4753 132.244C68.8758 132.261 69.3598 132.277 69.7436 132.227C70.3611 132.127 70.4947 131.91 70.8118 131.443C71.1789 130.926 71.2623 130.709 71.2123 130.041C71.1789 129.574 71.0454 129.09 70.7616 128.706C70.5781 128.472 70.261 128.088 70.0106 127.905C69.4265 127.488 68.976 127.721 68.4085 128.072L67.6408 128.255Z" fill="#7D72B3"/>
<path opacity="0.4" fill-rule="evenodd" clip-rule="evenodd" d="M141.239 89.4703C140.555 88.9362 139.987 88.302 139.537 87.5677C139.604 87.2673 139.587 86.9669 139.503 86.6665C139.387 85.8988 139.253 85.2813 139.403 84.497C139.77 82.6779 141.356 81.3428 143.192 81.1258C144.393 80.9923 146.162 81.9602 146.797 82.9449C147.464 83.9796 147.748 85.3815 147.798 86.5998C147.848 87.6011 147.614 88.8027 147.013 89.6372C146.596 90.2213 145.745 90.238 145.061 90.2713C144.293 90.3047 143.509 90.1712 142.775 89.9209C142.224 89.7373 141.606 89.3201 141.239 89.4703Z" fill="#7D72B3"/>
</g>
<path fill-rule="evenodd" clip-rule="evenodd" d="M33.262 133.813C25.5517 127.354 19.1598 119.36 14.5703 110.298C11.6832 104.607 9.51355 98.499 8.16174 92.0904C8.14506 92.0737 8.14504 92.057 8.14504 92.0237C7.11032 87.0503 6.55967 81.9101 6.55967 76.6197C6.55967 61.9001 10.832 48.1651 18.1918 36.5996C21.3293 31.6764 25.0009 27.1704 29.1565 23.1483C42.6078 10.0809 60.9322 2.03681 81.1592 2.03681C82.7947 2.03681 84.3969 2.08687 85.999 2.18701C91.0558 2.5041 95.979 3.35524 100.702 4.6236C94.8776 2.72106 88.7193 1.50276 82.3442 1.10223C80.742 1.00209 79.1398 0.952026 77.5043 0.952026C57.2773 0.952026 38.9362 8.9961 25.5016 22.0636C21.346 26.1023 17.6745 30.6083 14.5369 35.5149C7.17711 47.0803 2.90479 60.8153 2.90479 75.535C2.90479 80.8087 3.45544 85.9656 4.49015 90.9389C4.49015 90.9722 4.49017 90.9889 4.50686 91.0056C5.85866 97.4142 8.02827 103.522 10.9155 109.213C15.5049 118.275 21.8968 126.269 29.6071 132.728C37.7847 139.587 47.4308 144.711 58.0116 147.564C48.8661 144.577 40.4883 139.871 33.262 133.813Z" fill="url(#paint2_radial_1_6264)"/>
<path opacity="0.4" fill-rule="evenodd" clip-rule="evenodd" d="M11.5493 67.5243C11.5493 67.5243 53.3217 84.5637 75.9853 83.1952C98.6489 81.8267 108.295 68.8427 117.357 56.9935C126.403 45.1444 129.807 30.8586 129.807 30.8586C129.807 30.8586 112.634 63.9862 91.3225 72.7646L79.0728 75.2512C79.0728 75.2512 85.4646 70.4949 89.9206 65.6551C94.3765 60.8153 111.55 53.7726 113.168 48.115C114.771 42.4574 114.587 33.1617 117.374 27.2204C120.161 21.2792 122.931 16.3726 122.931 16.3726L115.555 15.1042L112.1 23.2485C112.1 23.2485 111.132 36.7665 108.479 44.093C105.825 51.4194 79.974 71.4795 74.1496 74.8507C68.3251 78.1885 16.8063 71.0957 11.5493 67.5243Z" fill="#7D72B3"/>
<path opacity="0.4" fill-rule="evenodd" clip-rule="evenodd" d="M86.0822 138.97C86.2324 138.903 88.936 137.685 89.7204 137.751C90.0542 137.768 90.3881 138.035 90.6384 138.185C91.356 138.586 91.8233 139.187 91.7398 140.021C91.623 141.223 90.3213 142.791 88.8694 143.309C87.0837 143.96 85.2145 143.142 84.5803 141.957C83.9461 140.772 85.5649 138.586 87.3506 138.536L86.0822 138.97Z" fill="#7D72B3"/>
<path fill-rule="evenodd" clip-rule="evenodd" d="M51.1189 64.7372C50.1343 66.4228 47.6643 69.4935 48.4153 71.9134C48.7324 72.9482 49.4668 74.0163 49.9341 74.9842C51.2024 77.6544 53.7391 80.3414 56.8933 78.4054C60.4314 76.2359 58.896 72.2806 57.394 69.4101C56.8433 68.342 56.0255 67.0236 54.9074 66.4228C54.3066 66.089 53.3052 65.7552 52.6377 65.6217C51.4695 65.3547 52.3039 64.6037 51.1189 64.7372Z" fill="#FF9F84"/>
<path fill-rule="evenodd" clip-rule="evenodd" d="M75.0009 9.83052C74.8674 10.6983 74.8341 11.5662 74.9342 12.434C75.2179 12.3839 75.4182 12.6343 75.7019 12.6343C76.019 12.6343 76.503 12.4006 76.7534 12.2337C77.3041 11.8499 77.5878 11.0822 77.5878 10.4313C77.5878 9.76377 77.521 9.19634 76.8868 8.82918C76.1358 8.39527 75.3848 8.71236 75.0009 9.42999V9.83052Z" fill="#FFEF84"/>
<path fill-rule="evenodd" clip-rule="evenodd" d="M59.2801 90.989C59.4303 90.4382 59.6473 88.9362 60.0979 88.2854C60.465 87.7346 61.166 87.4342 61.7502 87.2339C63.0519 86.8 64.4036 86.8501 65.4551 87.8014C67.2908 89.4536 67.2241 91.9069 65.4718 93.6091C64.6707 94.3768 63.5859 95.1445 62.4511 95.1946C61.8836 95.2113 61.1493 95.278 60.6653 94.9943C60.0812 94.6438 59.6139 94.0264 59.4137 93.3922C59.0799 92.3241 59.2969 91.523 59.8643 90.6051L59.2801 90.989Z" fill="#FF9F84"/>
<path fill-rule="evenodd" clip-rule="evenodd" d="M45.5617 90.1878C45.5617 91.0222 45.0777 92.9748 46.2793 93.3587C46.8634 93.5423 47.4642 92.7746 47.5644 92.2906C47.6645 91.7899 47.5977 91.0389 47.4141 90.5883C47.1137 89.9208 46.5296 89.4535 45.9622 90.1878H45.5617Z" fill="#FF9F84"/>
<path fill-rule="evenodd" clip-rule="evenodd" d="M13.7358 75.6685C13.836 76.9869 13.8359 78.9061 14.637 80.1077C14.9708 80.6084 15.3046 81.1258 15.9388 81.2426C16.4895 81.3427 16.8232 81.0089 17.1236 80.5917C17.6911 79.8574 17.7579 79.3567 17.7245 78.4388C17.6911 77.6211 17.4408 76.7199 17.0736 75.9856C16.8066 75.4515 16.356 75.0677 15.9221 74.6504C15.5382 74.2833 15.2712 74.1998 14.7204 74.2499C14.0028 74.3334 14.0529 75.2012 13.9361 75.8521L13.7358 75.6685Z" fill="#FF9F84"/>
<path fill-rule="evenodd" clip-rule="evenodd" d="M124.317 69.5103C124.333 69.3934 124.483 67.1738 124.901 66.6898C125.068 66.4729 125.468 66.3394 125.702 66.2225C126.386 65.8888 127.137 65.7719 127.855 66.1224C128.873 66.6064 129.674 68.0083 129.473 69.1431C129.24 70.545 127.638 71.5129 126.286 71.5296C124.917 71.5463 123.716 69.7272 124.5 68.5256L124.317 69.5103Z" fill="#FF9F84"/>
<path fill-rule="evenodd" clip-rule="evenodd" d="M47.6145 87.2173C47.6312 87.1505 47.6979 86.0491 47.8981 85.7987C47.9816 85.6986 48.1818 85.6318 48.2987 85.5651C48.6491 85.3982 49.0163 85.3481 49.3835 85.515C49.9008 85.7654 50.3014 86.4663 50.2012 87.0337C50.0844 87.7346 49.2833 88.2186 48.6158 88.2186C47.9315 88.2353 47.3308 87.3174 47.7313 86.7166L47.6145 87.2173Z" fill="#FF9F84"/>
<path fill-rule="evenodd" clip-rule="evenodd" d="M81.6097 100.852C81.6264 100.785 81.6931 99.6838 81.8934 99.4335C81.9768 99.3334 82.1772 99.2666 82.294 99.1998C82.6445 99.033 83.0116 98.9829 83.3787 99.1498C83.8961 99.4001 84.2966 100.101 84.1965 100.668C84.0796 101.369 83.2787 101.853 82.6111 101.853C81.9269 101.87 81.326 100.952 81.7098 100.351L81.6097 100.852Z" fill="#FF9F84"/>
<path fill-rule="evenodd" clip-rule="evenodd" d="M104.54 40.7052C104.557 40.6384 104.624 39.537 104.824 39.2866C104.908 39.1865 105.108 39.1198 105.225 39.053C105.575 38.8861 105.942 38.836 106.309 39.0029C106.827 39.2533 107.227 39.9542 107.127 40.5216C107.01 41.2226 106.209 41.7065 105.542 41.7065C104.858 41.7232 104.257 40.8053 104.64 40.2045L104.54 40.7052Z" fill="#FF9F84"/>
<path fill-rule="evenodd" clip-rule="evenodd" d="M57.7782 127.988C57.7949 127.922 57.8616 126.82 58.0619 126.57C58.1453 126.47 58.3456 126.403 58.4624 126.336C58.8128 126.169 59.18 126.119 59.5472 126.286C60.0646 126.536 60.4651 127.237 60.3649 127.805C60.2481 128.506 59.447 128.99 58.7795 128.99C58.0952 129.006 57.4945 128.088 57.8783 127.488L57.7782 127.988Z" fill="#FF9F84"/>
<path fill-rule="evenodd" clip-rule="evenodd" d="M119.36 88.2019C118.225 88.9195 117.525 89.2199 116.857 90.2713C116.356 91.039 115.806 91.7567 115.405 92.6078C115.088 93.2754 114.704 94.2767 114.771 95.0277C114.921 96.9803 117.358 95.2613 118.059 94.6772C118.993 93.8762 119.894 92.7914 119.961 91.523C119.994 91.0223 120.011 90.4716 119.811 90.0043C119.727 89.804 119.627 89.5704 119.511 89.3701C119.277 88.9195 119.077 88.9028 119.36 88.2019Z" fill="#FF9F84"/>
<path fill-rule="evenodd" clip-rule="evenodd" d="M143.226 96.7632C143.309 95.8953 142.875 99.0162 143.059 99.1497C143.342 99.1497 143.66 99.1998 143.927 99.1497C144.31 99.0996 144.411 98.8993 144.728 98.6657C145.345 98.1817 145.796 97.9147 145.829 97.0636C145.846 96.3626 145.729 95.9287 145.028 95.7284C144.728 95.6283 144.577 95.5115 144.244 95.6116C143.576 95.8119 143.109 96.3793 142.842 96.9801L143.226 96.7632Z" fill="#FF9F84"/>
<path fill-rule="evenodd" clip-rule="evenodd" d="M79.8242 10.2311C79.891 9.64699 79.5906 11.7665 79.7074 11.8499C79.891 11.8499 80.108 11.8833 80.2916 11.8499C80.5586 11.8166 80.6253 11.683 80.8256 11.5162C81.2428 11.1991 81.5599 10.9988 81.5599 10.4314C81.5766 9.94739 81.4932 9.66368 81.0259 9.53017C80.8256 9.46341 80.7255 9.37997 80.4918 9.44672C80.0412 9.58023 79.7241 9.96408 79.5405 10.3646L79.8242 10.2311Z" fill="#FFEF84"/>
<path fill-rule="evenodd" clip-rule="evenodd" d="M120.245 71.1124C120.311 70.5283 120.011 72.6478 120.128 72.7312C120.311 72.7312 120.528 72.7646 120.712 72.7312C120.979 72.6978 121.046 72.5643 121.246 72.3974C121.663 72.0804 121.964 71.8801 121.98 71.3127C121.997 70.8287 121.914 70.545 121.446 70.4115C121.246 70.3447 121.146 70.2613 120.912 70.328C120.462 70.4615 120.145 70.8454 119.961 71.2459L120.245 71.1124Z" fill="#FFEF84"/>
<path fill-rule="evenodd" clip-rule="evenodd" d="M77.6212 129.173C78.2053 129.173 76.0692 129.09 76.0024 129.223C76.0191 129.407 76.0191 129.624 76.0525 129.807C76.1192 130.058 76.2528 130.125 76.4364 130.308C76.8035 130.692 77.0205 130.976 77.6046 130.926C78.0886 130.892 78.3555 130.775 78.4557 130.291C78.489 130.074 78.5725 129.974 78.4891 129.757C78.3055 129.323 77.905 129.04 77.4711 128.906L77.6212 129.173Z" fill="#FFEF84"/>
<path fill-rule="evenodd" clip-rule="evenodd" d="M43.709 65.171C43.7757 64.5869 43.4754 66.7064 43.5922 66.7898C43.7758 66.7898 43.9927 66.8232 44.1763 66.7898C44.4433 66.7564 44.5101 66.6229 44.7104 66.456C45.1276 66.1389 45.428 65.9387 45.4447 65.3713C45.4614 64.8873 45.3779 64.6036 44.9106 64.4701C44.7104 64.4033 44.6102 64.3198 44.3766 64.3866C43.926 64.5201 43.6089 64.904 43.4253 65.3045L43.709 65.171Z" fill="#FFEF84"/>
<path fill-rule="evenodd" clip-rule="evenodd" d="M76.4864 122.848C76.5698 121.98 76.1359 125.101 76.3195 125.235C76.6032 125.235 76.9203 125.285 77.1874 125.235C77.5712 125.184 77.6713 124.984 77.9884 124.751C78.6059 124.267 79.0564 124 79.0898 123.148C79.1065 122.447 78.9897 122.014 78.2888 121.813C77.9884 121.713 77.8381 121.596 77.5044 121.696C76.8368 121.897 76.3696 122.464 76.1025 123.065L76.4864 122.848Z" fill="#FF9F84"/>
<path fill-rule="evenodd" clip-rule="evenodd" d="M34.8141 73.7326C58.9797 77.5544 57.4944 83.9296 85.5319 76.286C113.586 68.6425 133.663 26.4528 133.663 26.4528C133.663 26.4528 135.065 23.332 133.88 21.4962C133.412 20.7619 129.724 22.2806 129.724 22.2806C130.358 35.8153 111.416 63.786 90.0045 71.8467C87.7181 72.7146 85.4149 72.9983 83.2621 73.4823C82.2607 72.9816 79.7741 70.6952 91.4897 62.7513C105.275 53.4055 111.483 49.9175 110.198 40.2045C108.913 30.4915 121.179 15.0876 121.179 15.0876C121.179 15.0876 122.064 10.9988 119.744 8.44541C116.757 5.15769 110.181 8.49548 110.181 8.49548C110.181 8.49548 108.479 27.5376 84.3135 37.8347C60.1479 48.1317 46.7133 43.0249 37.4676 40.2045C28.2219 37.3841 25.4682 22.0803 25.4682 22.0803C25.4682 22.0803 17.6412 20.4615 14.8041 25.4515C12.7179 29.123 15.7386 33.6791 15.7386 33.6791C15.7386 33.6791 30.3081 38.9528 43.4423 43.9929C56.5765 49.033 81.6266 44.5102 90.5886 40.2045C99.5338 35.8987 99.5339 29.0229 106.693 22.7645C109.647 20.1777 112.635 18.4254 115.121 17.2572C115.121 17.2572 107.294 29.34 108.179 37.8347C109.08 46.346 103.706 46.0456 90.5718 60.9489C81.3595 71.4128 73.3155 74.7339 69.3268 75.7853C59.2133 76.7032 50.0344 75.5684 37.4509 72.1471C17.1571 66.6398 4.97424 57.828 4.97424 57.828C4.97424 57.828 3.20518 56.9936 2.53762 58.9295C2.25391 59.7473 4.05637 62.067 4.05637 62.067C4.05637 62.067 10.6485 69.8941 34.8141 73.7326Z" fill="url(#paint3_linear_1_6264)"/>
<path fill-rule="evenodd" clip-rule="evenodd" d="M51.8032 145.228C51.8032 145.228 45.862 141.523 41.3726 130.024C36.9 118.526 37.5008 119.293 29.1396 112.05C20.7784 104.807 6.25911 97.6979 6.25911 97.6979C6.25911 97.6979 5.27441 98.0317 5.27441 98.3321C5.27441 99.8174 6.99332 100.001 6.99332 100.001C6.99332 100.001 20.5615 105.809 29.0228 115.171C37.4841 124.517 46.6463 141.123 40.121 140.138C40.121 140.138 41.5896 144.293 45.0108 145.245C48.4654 146.179 51.8032 145.228 51.8032 145.228Z" fill="url(#paint4_radial_1_6264)"/>
<path d="M111.199 89.6372C113.97 86.6833 117.324 82.6946 130.892 82.6112C144.46 82.511 151.436 85.5317 151.436 85.5317C151.436 85.5317 154.223 84.7474 154.524 81.1092C154.824 77.521 152.071 75.6853 152.071 75.6853C151.937 76.8201 150.552 84.2801 139.037 79.8575C139.037 79.7407 143.109 76.0524 143.993 68.5257C144.894 60.8822 147.615 50.051 147.615 50.051C147.615 50.051 149.217 47.3808 148.182 45.2112C147.832 44.4936 145.195 44.1765 145.195 44.1765C147.481 59.3968 141.707 77.7547 135.448 79.8575C127.838 79.9576 118.559 81.2761 114.37 84.0464C109.213 87.4677 104.023 102.905 100.702 113.769C99.8675 116.456 98.1652 119.394 95.9956 122.314C87.6845 124.317 90.3047 114.354 86.7166 111.283C83.1451 108.229 76.2693 109.864 71.7967 108.212C67.324 106.56 66.1224 103.022 61.3494 102.454C56.5763 101.887 49.0497 110.765 40.4716 107.094C31.8934 103.422 3.15498 69.3935 3.15498 69.3935C3.15498 69.3935 0.568202 68.776 0.0341557 70.5617C-0.366379 71.9302 2.888 75.5351 2.888 75.5351C2.888 75.5351 22.8646 105.692 41.9568 109.614C61.0657 113.536 78.3721 109.864 84.3301 115.054C90.2713 120.211 90.722 128.472 90.722 128.539C84.5137 135.115 77.2206 140.789 73.7826 142.525C67.808 145.529 58.0116 147.581 58.0116 147.581C59.3467 149.133 62.0503 150.368 64.9375 151.136C69.1264 152.254 71.7967 150.151 71.7967 150.151C71.7967 150.151 69.3768 148.049 72.531 145.395C80.5917 138.686 86.3161 135.765 94.6772 133.78C99.7507 132.578 101.253 134.881 101.987 134.147V134.163C109.781 136.633 115.956 130.792 122.665 125.418C129.357 120.061 137.952 119.277 137.952 119.277C137.952 119.277 142.408 118.526 143.559 116.557C144.611 114.771 142.124 112.818 142.124 112.818C142.124 112.818 138.336 114.37 131.176 117.992C124.016 121.613 116.34 132.144 107.594 131.81C102.771 131.643 103.789 126.753 103.322 126.069C103.322 125.719 103.339 125.368 103.322 125.034V125.018C103.189 121.48 102.438 118.259 102.438 115.689C102.438 115.021 102.488 114.42 102.604 113.853C103.439 110.048 108.429 92.6079 111.199 89.6372ZM95.9789 122.364C94.4436 124.434 92.6913 126.47 90.8221 128.456L95.9789 122.364ZM102.671 127.638C102.788 128.456 102.938 129.257 102.805 130.075C102.755 130.492 102.671 130.842 102.271 130.992C102.037 131.076 101.77 131.109 101.536 131.159C101.153 131.259 100.802 131.393 100.418 131.443C99.8341 131.526 99.1832 131.46 98.5991 131.46C97.9649 131.46 97.2974 131.526 96.6632 131.443C96.3628 131.393 96.0624 131.326 95.762 131.293C95.4616 131.243 95.0611 131.226 94.7774 131.076C94.1265 130.709 93.7593 130.041 93.2586 129.874C93.3087 129.307 93.2754 128.806 93.509 128.306C93.5758 128.122 93.6425 127.922 93.6758 127.738C93.7927 127.404 93.9096 127.104 94.0598 126.787C94.4102 125.986 94.7607 125.218 95.2613 124.5C95.495 124.133 95.7287 123.783 95.9623 123.399C96.2294 122.982 96.5964 122.681 96.9302 122.331C97.4309 121.83 97.9149 121.363 98.5491 121.029C99.0331 120.762 99.8174 120.378 100.368 120.595C100.936 120.779 101.169 121.53 101.386 122.03C101.536 122.398 101.586 122.781 101.703 123.182C101.837 123.666 102.054 124.117 102.154 124.617C102.287 125.168 102.287 125.735 102.388 126.286C102.538 126.72 102.588 127.187 102.671 127.638Z" fill="url(#paint5_linear_1_6264)"/>
<path fill-rule="evenodd" clip-rule="evenodd" d="M17.7246 23.7991C17.7246 23.7991 21.0957 30.7251 29.7406 36.95C29.7406 36.95 26.8701 26.9033 24.8007 22.7477C24.8007 22.7477 21.9636 20.0775 17.7246 23.7991Z" fill="#FFFF0E"/>
<path fill-rule="evenodd" clip-rule="evenodd" d="M63.085 44.9108C63.085 44.9108 68.9762 42.541 70.7952 43.4255C70.8119 43.4255 65.1711 44.9943 63.085 44.9108Z" fill="#FFFF0E"/>
<path fill-rule="evenodd" clip-rule="evenodd" d="M82.778 39.4701C83.8294 39.1363 84.9142 38.8192 85.9489 38.4187C86.8668 38.0515 87.7346 37.6343 88.6024 37.167C89.6872 36.5662 90.7553 35.8986 91.7399 35.1309C91.9903 34.9307 92.2906 34.8139 92.5577 34.6303C92.8581 34.4133 93.1585 34.1797 93.4589 33.946C93.726 33.7458 93.9428 33.4787 94.1931 33.2618C94.4435 33.0448 94.7106 32.8279 94.9776 32.6276C95.4282 32.2771 95.8954 31.8933 96.296 31.5094C96.4962 31.3259 96.6799 31.1256 96.8969 30.942C97.0471 30.8252 97.1638 30.7918 97.3307 30.7084C97.3974 30.8419 97.2306 31.159 97.1805 31.2925C97.0637 31.5762 96.8634 31.7932 96.7132 32.0602C96.3627 32.661 95.7786 33.0448 95.3614 33.5789C95.0777 33.946 94.6938 34.2131 94.31 34.4801C93.7759 34.8472 93.1585 35.1476 92.5911 35.448C92.007 35.7484 91.3895 35.932 90.822 36.2658C90.288 36.5829 89.7373 36.8332 89.1699 37.0836C88.8027 37.2504 88.4522 37.5175 88.1017 37.7177C87.8013 37.9013 87.501 38.0682 87.2006 38.2518C86.75 38.5188 86.316 38.7858 85.8654 39.0195C85.615 39.153 85.3647 39.2531 85.1311 39.3866C84.5803 39.687 83.9462 39.9207 83.312 39.904C83.0784 39.904 82.8781 39.9207 82.6611 39.8372C82.5777 39.8039 82.3774 39.7371 82.3774 39.637C82.4943 39.6203 82.6278 39.42 82.778 39.4701Z" fill="#FFFF0E"/>
<path fill-rule="evenodd" clip-rule="evenodd" d="M98.6661 29.2565C98.3824 29.39 98.1487 29.5736 97.9484 29.8072C97.9484 29.9741 97.8651 30.1577 98.1488 30.1577C98.4492 30.1577 98.6661 29.9574 98.8664 29.7405C98.9665 29.6237 99.1668 29.3066 99.05 29.1397C98.8998 28.9394 98.4992 29.2064 98.3824 29.3233L98.6661 29.2565Z" fill="#FFFF0E"/>
<path fill-rule="evenodd" clip-rule="evenodd" d="M111.266 8.96282C111.049 9.24653 110.732 9.58031 110.598 9.94746C110.498 10.2145 110.398 10.4815 110.298 10.7652C110.098 11.2993 109.981 11.8333 109.814 12.3841C109.514 13.3687 109.263 14.3534 108.879 15.3046C108.696 15.7385 108.495 16.1558 108.278 16.573C108.162 16.7899 107.995 17.0069 107.895 17.2238C107.811 17.4241 107.694 17.591 107.594 17.7913C107.511 17.9749 107.477 18.1751 107.361 18.342C107.21 18.5423 107.127 18.7425 107.01 18.9595C106.91 19.1264 106.526 19.5603 106.643 19.794C106.76 19.8106 106.877 19.6271 106.943 19.5603C107.16 19.3433 107.411 19.1598 107.628 18.9595C108.045 18.559 108.412 18.1251 108.813 17.7078C108.979 17.5243 109.096 17.324 109.246 17.1237C109.463 16.8567 109.73 16.623 109.947 16.3393C110.298 15.872 110.665 15.4381 111.049 15.0042C111.249 14.7873 111.383 14.5369 111.566 14.32C111.733 14.1197 111.933 13.9361 112.117 13.7359C112.684 13.1184 113.268 12.5176 113.819 11.8834C114.253 11.3827 114.67 10.832 115.038 10.2812C115.338 9.84733 115.588 9.39673 115.855 8.92944C115.955 8.74586 116.206 8.29526 116.122 8.0783C116.022 7.79459 115.672 7.67777 115.405 7.6277C114.987 7.56095 114.453 7.56095 114.036 7.66108C113.586 7.7779 113.168 7.94479 112.751 8.12837C112.367 8.29526 112.05 8.57897 111.683 8.76255C111.399 8.89606 111.082 9.01288 111.266 8.96282Z" fill="#FFFF0E"/>
<path fill-rule="evenodd" clip-rule="evenodd" d="M115.155 17.9079C115.038 18.1582 114.888 18.5755 114.687 18.8425C114.521 19.0761 114.354 19.2931 114.22 19.5434C113.97 19.9773 113.72 20.4113 113.469 20.8452C113.019 21.6462 112.434 22.3639 112.084 23.215C111.951 23.5488 111.8 23.8826 111.633 24.1997C111.466 24.5334 111.383 24.9006 111.266 25.2677C111.149 25.6182 111.099 25.9687 111.033 26.3358C110.966 26.6196 110.832 26.9033 110.916 27.2037C111.199 26.8365 111.4 26.4193 111.667 26.0354C111.85 25.7684 112.001 25.4847 112.251 25.2511C112.501 25.0341 112.702 24.7838 112.918 24.5334C113.135 24.2831 113.352 24.0328 113.519 23.749C113.669 23.482 113.77 23.215 113.953 22.9647C114.12 22.731 114.237 22.464 114.387 22.2137C114.571 21.93 114.754 21.6462 114.871 21.3292C115.088 20.7117 115.305 20.0775 115.472 19.4433C115.555 19.1429 115.605 18.7591 115.539 18.442C115.489 18.225 115.105 17.5574 115.155 17.9079Z" fill="#FFFF0E"/>
<path fill-rule="evenodd" clip-rule="evenodd" d="M109.997 28.1384C109.881 28.539 109.73 28.9729 109.647 29.3901C109.63 29.4902 109.58 29.7072 109.68 29.7739C109.78 29.8407 109.997 29.7406 110.064 29.6905C110.148 29.6237 110.198 29.5069 110.248 29.4068C110.365 29.2065 110.515 28.9061 110.465 28.6558C110.398 28.3888 110.148 28.1551 109.931 28.4388L109.997 28.1384Z" fill="#FFFF0E"/>
<path fill-rule="evenodd" clip-rule="evenodd" d="M102.171 49.7673C101.336 50.5684 100.352 51.286 99.6674 52.2373C99.6006 52.3374 99.2501 52.7213 99.3336 52.8882C99.4337 53.0717 99.8175 52.9549 99.951 52.9049C100.435 52.738 100.919 52.4709 101.386 52.2373C101.737 52.0537 102.071 51.8368 102.404 51.6198C103.172 51.1358 103.823 50.4683 104.407 49.784C104.657 49.4836 104.941 49.1498 105.075 48.7827C105.108 48.6825 105.275 48.3821 105.242 48.2653C105.125 47.8481 104.14 48.282 103.94 48.4155C103.706 48.5657 103.506 48.766 103.289 48.9496C103.105 49.0998 102.938 49.2166 102.755 49.3334C102.605 49.4336 102.454 49.5671 102.304 49.6839C102.171 49.8007 102.054 50.0677 102.171 49.7673Z" fill="#FFFF0E"/>
<path fill-rule="evenodd" clip-rule="evenodd" d="M98.3654 53.6389C98.0817 53.7724 97.7981 53.9059 97.5143 54.0561C97.5143 54.1897 97.1638 54.4233 97.3307 54.6069C97.4308 54.707 97.748 54.5735 97.8314 54.5401C98.0317 54.4734 98.1485 54.3232 98.2987 54.1897C98.4489 54.0395 98.4322 53.9894 98.3488 53.8058V53.6389H98.3654Z" fill="#FFFF0E"/>
<path fill-rule="evenodd" clip-rule="evenodd" d="M79.0731 72.097C78.3889 72.6144 77.6546 73.0984 76.8869 73.4989C75.9857 73.9662 75.0345 74.3334 74.15 74.834C72.7815 75.6184 71.3129 76.2025 69.8776 76.8367C69.644 76.9368 67.5244 77.7713 68.3254 78.1885C68.6926 78.3888 69.0598 78.3387 69.4604 78.3554C69.7942 78.3721 70.1112 78.4555 70.445 78.4722C70.7787 78.4889 71.1292 78.4722 71.463 78.4722C73.1986 78.4889 75.0177 78.0717 76.5865 77.3708C76.937 77.2206 77.3709 77.1037 77.688 76.8701C77.8883 76.7366 78.0718 76.5363 78.2387 76.3694C78.5892 76.0523 78.8396 75.6685 79.0565 75.2513C79.3569 74.6505 79.5739 74.083 79.5572 73.3821C79.5405 73.1318 79.4737 72.8314 79.2901 72.6478C79.1733 72.4809 79.0064 72.4475 79.0731 72.097Z" fill="#FFFF0E"/>
<path fill-rule="evenodd" clip-rule="evenodd" d="M66.7401 77.3541C66.3563 77.1705 65.9224 76.8701 65.4884 76.8534C65.3382 76.8534 65.2047 76.8701 65.0545 76.9035C64.7374 76.9702 64.22 77.0036 63.9697 77.2539C63.5858 77.6211 64.4036 77.9215 64.704 78.0049C65.0712 78.0884 65.5718 78.1051 65.9557 78.055C66.2561 78.0216 66.8735 77.7546 66.8735 77.3708C66.9069 77.3708 66.9237 77.3541 66.9571 77.3541H66.7401Z" fill="#FFFF0E"/>
<path fill-rule="evenodd" clip-rule="evenodd" d="M89.6206 72.5809C91.2394 72.0969 92.7582 71.4461 94.2602 70.6951C94.8443 70.3947 95.4118 70.0776 95.9625 69.7271C96.3296 69.5101 96.6801 69.2097 97.0639 69.0262C97.2141 68.9427 98.1487 68.4087 98.2822 68.659C98.4491 68.9928 97.4311 69.6603 97.2976 69.7938C96.9137 70.1276 96.4964 70.3947 96.0792 70.6951C95.7288 70.9454 95.3449 71.0622 94.9611 71.2792C94.4771 71.5629 93.9765 71.7965 93.4591 72.0135C93.0753 72.1804 92.6747 72.3639 92.2742 72.4808C91.9571 72.5642 91.6567 72.681 91.3396 72.7478C91.106 72.7979 90.8724 72.7311 90.6387 72.7979C90.355 72.8813 89.8042 73.0148 89.6206 72.5809Z" fill="#FFFF0E"/>
<path fill-rule="evenodd" clip-rule="evenodd" d="M124.768 81.2426C125.552 81.2426 126.487 81.326 127.288 81.2092C127.872 81.1258 128.456 80.9923 129.04 80.9422C130.208 80.8421 131.343 80.5417 132.511 80.4916C132.979 80.4749 133.446 80.4916 133.896 80.4916C134.147 80.4916 134.514 80.4248 134.748 80.4916C134.848 80.5083 135.148 80.6752 135.232 80.7586C135.515 81.059 135.248 81.0256 135.048 81.1258C134.631 81.3594 134.314 81.5597 133.83 81.6598C133.095 81.81 132.378 82.0103 131.627 82.1104C131.109 82.1772 130.609 82.0937 130.091 82.1772C129.407 82.2773 128.756 82.294 128.072 82.294C127.505 82.294 126.954 82.294 126.386 82.294C125.953 82.294 125.619 82.2105 125.201 82.1605C124.851 82.1104 124.634 82.1772 124.35 82.0103C124.25 81.9268 124.017 81.7099 124.768 81.2426Z" fill="#FFFF0E"/>
<path fill-rule="evenodd" clip-rule="evenodd" d="M143.576 81.9936C144.577 82.0771 145.195 82.2106 146.096 82.027C146.68 81.9102 147.281 81.8267 147.865 81.7266C148.716 81.5931 149.617 81.1925 150.335 80.7253C150.735 80.4582 151.553 79.8908 152.07 80.041C152.471 80.1578 152.938 80.6418 152.972 81.0924C153.005 81.6432 152.387 82.1104 152.004 82.4108C151.336 82.9449 150.335 83.1285 149.5 83.1785C148.482 83.2453 147.498 83.0951 146.513 82.8781C146.213 82.8114 145.912 82.7279 145.612 82.6612C145.345 82.5944 144.794 82.6612 143.576 81.9936Z" fill="#FFFF0E"/>
<path fill-rule="evenodd" clip-rule="evenodd" d="M145.812 45.1443C145.746 45.8285 145.328 47.4974 146.179 48.0482C146.63 48.3319 146.847 47.5809 146.864 47.2304C146.88 46.7297 146.563 45.428 145.962 45.2945L145.812 45.1443Z" fill="#FFFF0E"/>
<path fill-rule="evenodd" clip-rule="evenodd" d="M5.17451 60.5483C5.87544 61.4495 6.40952 62.4007 7.39417 62.9682C7.96159 63.3019 8.52901 63.6858 9.16319 63.8861C9.764 64.0696 10.5317 64.2699 11.1492 64.1364C11.483 64.053 11.5664 64.1698 11.5497 63.7359C11.5497 63.5356 11.3995 63.2853 11.2993 63.1351C11.0991 62.818 10.7819 62.6344 10.5483 62.3507C10.2646 62.0169 10.0977 61.7165 9.74727 61.4328C8.59573 60.5316 7.54428 59.7973 6.1591 59.3467C5.65843 59.1798 5.62513 59.1297 5.19121 59.3967C4.84075 59.6137 4.82406 59.5302 4.77399 59.9308C4.70723 60.4815 5.10774 60.8987 5.37477 61.3327L5.17451 60.5483Z" fill="#FFFF0E"/>
<path fill-rule="evenodd" clip-rule="evenodd" d="M5.77515 75.268C6.92669 77.1204 8.26183 78.7893 9.6637 80.4582C10.6484 81.6432 11.2492 83.1285 12.384 84.2133C12.5676 84.3968 14.5535 86.0991 14.5368 85.1145C14.5368 84.8975 13.9695 84.013 13.8526 83.8127C13.5189 83.2787 13.1517 82.7112 12.7511 82.2106C12.4173 81.81 12.0335 81.4095 11.7498 80.9756C11.4494 80.4916 11.1991 80.2079 10.8152 79.7907C10.3313 79.2566 10.0809 78.5891 9.647 78.0217C9.24646 77.4876 8.84591 76.9869 8.47875 76.4529C7.97808 75.7353 7.44406 74.9175 6.6263 74.6171C6.40935 74.5337 6.09229 74.3 5.82526 74.5003C5.37466 74.8341 5.72508 75.9022 5.77515 75.268Z" fill="#FFFF0E"/>
<path fill-rule="evenodd" clip-rule="evenodd" d="M77.5878 110.282C79.2567 109.981 80.6085 109.714 82.244 110.098C83.0451 110.282 83.8629 110.532 84.6472 110.765C85.1646 110.916 85.9323 111.066 86.2994 111.45C86.6833 111.85 86.5498 112.568 86.1993 112.918C85.7153 113.402 84.6472 113.302 84.0298 113.235C82.7948 113.119 81.6099 112.968 80.4083 112.601C79.7407 112.401 78.7895 112.067 78.222 111.617C77.955 111.416 77.2874 110.849 77.5878 110.282Z" fill="#FFFF0E"/>
<path fill-rule="evenodd" clip-rule="evenodd" d="M100.451 119.227C99.6002 119.043 99.5335 117.541 99.7672 116.94C99.9007 116.606 100.118 116.056 100.485 115.889C100.869 115.722 101.002 116.006 101.336 116.122C100.985 116.873 100.552 117.574 100.051 118.242L100.451 119.227Z" fill="#FFFF0E"/>
<path fill-rule="evenodd" clip-rule="evenodd" d="M131.877 118.643C132.995 117.925 133.746 117.408 134.948 117.057C135.565 116.874 136.199 116.79 136.817 116.606C137.535 116.39 138.269 116.039 139.003 115.906C139.27 115.855 139.537 115.872 139.788 115.822C140.088 115.772 139.938 115.622 140.272 115.805C140.889 116.139 140.605 116.606 140.205 116.957C139.437 117.608 138.786 117.875 137.785 118.108C137.234 118.242 136.783 118.559 136.249 118.726C135.916 118.826 135.582 118.876 135.265 118.96C134.047 119.26 132.561 119.026 131.877 118.643Z" fill="#FFFF0E"/>
<path fill-rule="evenodd" clip-rule="evenodd" d="M31.6264 116.056C32.3273 117.508 32.9115 118.893 33.8294 120.195C34.2466 120.779 34.547 121.346 35.2146 121.63C35.7486 121.847 36.0991 121.93 36.1659 121.229C36.1992 120.862 35.8988 120.328 35.6985 119.961C35.1144 118.91 34.28 118.008 33.5791 117.057C33.3121 116.69 32.9282 116.189 32.5777 115.906C32.3274 115.689 31.5763 115.455 31.6264 116.056Z" fill="#FFFF0E"/>
<path fill-rule="evenodd" clip-rule="evenodd" d="M60.8654 147.882C62.551 147.531 64.003 147.014 65.6052 146.43C66.2727 146.196 66.9236 146.196 67.5911 146.046C67.6579 146.029 67.7246 145.912 67.8247 145.879C67.9916 145.829 68.2586 145.896 68.4422 145.896C68.6091 145.896 69.3768 145.795 69.527 145.896C70.1445 146.346 68.8261 147.564 68.5257 147.865C67.4242 149.016 65.6218 149.651 64.0197 149.484C63.2019 149.4 62.4676 148.966 61.6832 148.883C61.1825 148.833 60.0644 148.633 60.1144 147.915C60.1645 147.898 60.2146 147.882 60.8654 147.882Z" fill="#FFFF0E"/>
<path fill-rule="evenodd" clip-rule="evenodd" d="M89.7204 130.976C88.2351 131.994 86.5996 132.862 85.5315 134.364C84.7972 135.398 86.149 135.181 86.7331 134.964C87.2338 134.781 87.601 134.597 88.0349 134.28C88.4187 134.013 88.6357 133.746 88.9695 133.412C89.2031 133.179 89.5034 132.978 89.7204 132.728C89.9373 132.461 90.0208 131.894 90.2879 131.727C90.2378 131.61 90.1878 131.51 90.121 131.376L89.7204 130.976Z" fill="#FFFF0E"/>
<path fill-rule="evenodd" clip-rule="evenodd" d="M49.1328 108.095C50.2176 107.645 51.2857 107.261 52.3038 106.71C53.2383 106.209 54.1395 105.692 55.1075 105.208C56.3425 104.59 57.6609 103.739 59.0962 103.706C59.6302 103.689 59.9807 103.439 60.4814 103.656C60.8819 103.839 61.1823 103.99 61.4327 104.357C62.1503 105.392 60.715 106.376 59.9306 106.91C59.3298 107.311 58.7791 107.811 58.0949 108.095C57.3105 108.429 56.4593 108.579 55.6583 108.88C54.3398 109.364 52.938 109.914 51.5194 110.081C50.7851 110.165 50.1175 109.898 49.5334 109.53C49.233 109.33 48.9326 109.08 48.749 108.779C48.5487 108.512 48.4319 108.062 49.1328 108.095Z" fill="#FFFF0E"/>
<path fill-rule="evenodd" clip-rule="evenodd" d="M100.435 60.5149C104.057 69.1765 96.0458 80.7586 82.5611 86.4162C69.0598 92.0737 55.1912 89.6371 51.553 80.9756C47.9315 72.314 55.9423 60.7319 69.4269 55.0743C82.945 49.4168 96.8135 51.8534 100.435 60.5149Z" fill="url(#paint6_radial_1_6264)"/>
<defs>
<radialGradient id="paint0_radial_1_6264" cx="0" cy="0" r="1" gradientUnits="userSpaceOnUse" gradientTransform="translate(31.3024 40.6555) scale(119.839 119.839)">
<stop offset="0.00558659" stop-color="#DE6863"/>
<stop offset="0.2018" stop-color="#DB6563"/>
<stop offset="0.3542" stop-color="#D15D62"/>
<stop offset="0.4919" stop-color="#C14F60"/>
<stop offset="0.6209" stop-color="#A93B5E"/>
<stop offset="0.7437" stop-color="#8B225B"/>
<stop offset="0.8606" stop-color="#670357"/>
<stop offset="0.8715" stop-color="#630057"/>
</radialGradient>
<linearGradient id="paint1_linear_1_6264" x1="2.90085" y1="55.0829" x2="110.218" y2="55.0829" gradientUnits="userSpaceOnUse">
<stop offset="0.0112" stop-color="#FF7D85"/>
<stop offset="0.2983" stop-color="#FC7B84"/>
<stop offset="0.5089" stop-color="#F3757F"/>
<stop offset="0.695" stop-color="#E36B77"/>
<stop offset="0.8659" stop-color="#CC5C6C"/>
<stop offset="1" stop-color="#B54D61"/>
</linearGradient>
<radialGradient id="paint2_radial_1_6264" cx="0" cy="0" r="1" gradientUnits="userSpaceOnUse" gradientTransform="translate(22.9866 24.77) scale(98.1956 98.1956)">
<stop stop-color="#FFFF4A"/>
<stop offset="1"/>
</radialGradient>
<linearGradient id="paint3_linear_1_6264" x1="2.55998" y1="43.4305" x2="134.362" y2="43.4305" gradientUnits="userSpaceOnUse">
<stop offset="0.00558659" stop-color="#FFB80B"/>
<stop offset="0.388" stop-color="#FFB60C"/>
<stop offset="0.5789" stop-color="#FEAE10"/>
<stop offset="0.7274" stop-color="#FCA117"/>
<stop offset="0.8539" stop-color="#FA8E21"/>
<stop offset="0.9655" stop-color="#F7762E"/>
<stop offset="1" stop-color="#F66D33"/>
</linearGradient>
<radialGradient id="paint4_radial_1_6264" cx="0" cy="0" r="1" gradientUnits="userSpaceOnUse" gradientTransform="translate(14.1306 110.458) scale(37.8919)">
<stop offset="0.00558659" stop-color="#FFB80B"/>
<stop offset="0.388" stop-color="#FFB60C"/>
<stop offset="0.5789" stop-color="#FEAE10"/>
<stop offset="0.7274" stop-color="#FCA117"/>
<stop offset="0.8539" stop-color="#FA8E21"/>
<stop offset="0.9655" stop-color="#F7762E"/>
<stop offset="1" stop-color="#F66D33"/>
</radialGradient>
<linearGradient id="paint5_linear_1_6264" x1="0.0196367" y1="97.8198" x2="154.557" y2="97.8198" gradientUnits="userSpaceOnUse">
<stop offset="0.00558659" stop-color="#FFB80B"/>
<stop offset="0.388" stop-color="#FFB60C"/>
<stop offset="0.5789" stop-color="#FEAE10"/>
<stop offset="0.7274" stop-color="#FCA117"/>
<stop offset="0.8539" stop-color="#FA8E21"/>
<stop offset="0.9655" stop-color="#F7762E"/>
<stop offset="1" stop-color="#F66D33"/>
</linearGradient>
<radialGradient id="paint6_radial_1_6264" cx="0" cy="0" r="1" gradientUnits="userSpaceOnUse" gradientTransform="translate(75.9982 70.7405) rotate(-22.7129) scale(26.4958 16.9876)">
<stop stop-color="#FF5B00"/>
<stop offset="0.1732" stop-color="#C54600"/>
<stop offset="0.3988" stop-color="#802E00"/>
<stop offset="0.6025" stop-color="#491A00"/>
<stop offset="0.7769" stop-color="#210C00"/>
<stop offset="0.9151" stop-color="#090300"/>
<stop offset="1"/>
</radialGradient>
</defs>
</svg>
