<svg width="109" height="76" viewBox="0 0 109 76" fill="none" xmlns="http://www.w3.org/2000/svg">
<path d="M103.747 59.4594C97.7468 69.7894 85.8269 76.5894 73.9069 75.7894C64.4069 75.1494 55.4369 71.2794 45.9069 70.4194C36.6969 69.5894 27.2469 70.7294 18.3469 67.5394C11.8169 65.2094 5.84685 60.6994 2.61685 54.6494C2.04685 53.5794 1.56685 52.4694 1.17685 51.3094C0.256849 48.5694 -0.0831547 45.6994 0.0168453 42.8194C0.146845 39.0394 1.03684 35.2494 2.41684 31.7194C5.30684 24.2894 9.93686 15.8094 16.5269 11.0894C17.2469 10.5694 17.9868 10.0794 18.7468 9.62941C18.7468 9.62941 18.7568 9.6294 18.7568 9.6194C25.7768 5.3494 34.0968 3.5194 42.2568 2.1894C47.9968 1.2494 53.8569 0.519403 59.6769 0.409403C59.6769 0.409403 59.6768 0.409403 59.6868 0.409403C65.9068 0.289403 72.0969 0.869383 78.0469 2.66938C81.2969 3.64938 84.4469 5.00939 87.3969 6.70939C93.3168 10.0994 98.4669 14.8194 102.177 20.4994C103.127 21.9494 103.977 23.4594 104.727 25.0294C109.877 35.8094 109.747 49.1194 103.747 59.4594Z" fill="#38778A"/>
<path d="M103.747 59.4594C97.7468 69.7894 85.8269 76.5894 73.9069 75.7894C64.4069 75.1494 55.4369 71.2794 45.9069 70.4194C36.6969 69.5894 27.2469 70.7294 18.3469 67.5394C11.8169 65.2094 5.84685 60.6994 2.61685 54.6494C2.04685 53.5794 1.56685 52.4694 1.17685 51.3094C0.256849 48.5694 -0.0831547 45.6994 0.0168453 42.8194C0.566845 43.7694 1.07686 44.7394 1.65686 45.6394C2.51686 46.9594 3.54686 48.0994 4.74686 49.0194C6.00686 49.9894 7.45684 50.7294 9.07684 51.2094C15.4768 53.0994 20.9969 55.9094 27.9269 54.9494C33.9069 54.1294 39.4769 51.5894 44.9869 49.1194C49.9969 46.8794 56.1168 43.5694 61.7568 43.8894C67.1268 44.1894 73.3169 45.6694 78.6069 44.2694C83.9969 42.8494 87.7468 37.7094 89.1368 32.3094C90.0968 28.5594 90.1069 24.6694 89.8669 20.8394C89.6969 18.1594 90.4069 15.3094 89.8469 12.7194C89.3969 10.6494 88.5469 8.61938 87.4169 6.70938C93.3369 10.0994 98.4868 14.8194 102.197 20.4994C103.147 21.9494 103.997 23.4594 104.747 25.0294C109.877 35.8094 109.747 49.1194 103.747 59.4594Z" fill="#384769"/>
<path d="M67.6069 28.4594C63.2269 30.1694 58.3169 29.4394 53.6569 30.0394C47.8969 30.7794 42.6268 33.5294 37.4468 36.1694C32.2768 38.8094 26.8969 41.4294 21.1069 41.8594C11.3269 42.5894 4.77684 37.1794 6.94684 27.5694C8.60684 20.2194 12.8769 14.0094 18.7269 9.62939C18.7269 9.62939 18.7369 9.62938 18.7369 9.61938C25.7569 5.34938 34.0769 3.51939 42.2369 2.18939C47.9769 1.24939 53.8369 0.519393 59.6569 0.409393C59.6569 0.409393 59.6569 0.409393 59.6669 0.409393C59.6869 0.409393 59.7069 0.409393 59.7169 0.409393C65.8769 0.819393 74.2968 4.6694 75.5168 11.2294C76.8068 17.9494 74.4769 25.7794 67.6069 28.4594Z" fill="#00A89D"/>
<path d="M103.747 59.4594C97.7468 69.7894 85.8269 76.5894 73.9069 75.7894C64.4069 75.1494 55.4369 71.2794 45.9069 70.4194C36.6969 69.5894 27.2469 70.7294 18.3469 67.5394C11.8169 65.2094 5.84685 60.6994 2.61685 54.6494C8.16685 59.3594 15.3069 62.1894 22.5869 62.4694C28.7669 62.7094 34.6668 61.1394 40.8068 61.0494C43.7268 61.0094 46.5568 61.0694 49.4568 60.8694C52.4868 60.6694 55.4769 61.6294 58.4769 61.9994C65.6269 62.8894 72.9769 62.6194 79.9169 60.5994C88.2069 58.1794 100.467 51.3594 102.247 41.9594C102.617 39.9794 102.837 37.7694 102.937 35.5494C103.057 33.0994 103.057 30.6394 103.017 28.4294C102.967 25.7594 102.657 23.1194 102.187 20.4894C103.137 21.9394 103.987 23.4494 104.737 25.0194C109.877 35.8094 109.747 49.1194 103.747 59.4594Z" fill="#452E61"/>
<path d="M19.5469 13.9794C23.3269 10.6694 27.9869 8.47938 32.7969 6.99938C35.4869 6.16938 38.9469 5.77939 40.6369 8.03939C42.1669 10.0794 41.1069 13.1994 39.0869 14.7394C37.0669 16.2794 34.4068 16.6594 31.8768 16.9494C27.5568 17.4594 23.4669 19.3594 20.2169 22.3294C18.2969 24.0794 16.6268 26.0894 14.6268 27.7394C13.9868 28.2694 13.1869 28.7794 12.3869 28.5694C7.97686 27.3794 17.9569 15.3694 19.5469 13.9794Z" fill="#29E1C2"/>
<path d="M55.2269 9.7094C55.4469 9.1894 55.4768 8.6494 55.2568 8.0894C54.6668 6.5594 51.2669 5.14941 49.7769 5.03941C47.5369 4.86941 45.6869 6.98939 44.8969 8.88939C42.1269 15.5794 53.6369 13.4794 55.2269 9.7094Z" fill="#29E1C2"/>
<path d="M50.0869 34.5294C49.4369 36.8694 47.3068 38.5694 44.9968 39.3394C42.4368 40.1994 39.5269 40.0494 37.1069 38.8694C36.4969 38.5694 35.9168 38.1994 35.3768 37.7694C35.0768 37.5194 34.7868 37.2494 34.5168 36.9494C35.0268 37.1694 35.6769 37.6494 36.2169 38.0094C36.4469 38.1594 36.6568 38.2794 36.8268 38.3594C37.8568 38.7994 38.9468 39.1094 40.0668 39.1694C43.5868 39.3594 47.0769 36.8694 48.0369 33.4794C48.7569 30.9194 47.9968 28.0494 46.2468 26.0694C47.2768 26.8394 48.2168 27.7394 48.9368 28.7994C50.0668 30.4594 50.6269 32.5894 50.0869 34.5294Z" fill="#29E1C2"/>
<path d="M48.0268 33.4794C47.0668 36.8694 43.5768 39.3594 40.0568 39.1694C38.9368 39.1094 37.8468 38.7994 36.8168 38.3594C36.6468 38.2894 36.4368 38.1594 36.2068 38.0094C35.6668 37.6494 35.0168 37.1694 34.5068 36.9494C30.7468 32.8094 30.0569 23.9294 36.9869 22.9594C39.2869 22.6394 41.6069 23.3794 43.6769 24.4694C43.9169 24.5994 44.1668 24.7294 44.3968 24.8694C45.0268 25.2294 45.6369 25.6294 46.2269 26.0594C47.9869 28.0494 48.7568 30.9194 48.0268 33.4794Z" fill="#384769"/>
<path d="M48.0269 33.4794C47.0669 36.8694 43.5768 39.3594 40.0568 39.1694C38.9368 39.1094 37.8468 38.7994 36.8168 38.3594C36.6468 38.2894 36.4369 38.1594 36.2069 38.0094C35.1469 36.8394 34.3969 35.3794 34.0869 33.8394C33.5069 31.0194 34.4969 27.8294 36.8369 26.1594C38.3869 25.0494 40.3468 24.6894 42.2468 24.5394C42.7168 24.4994 43.1969 24.4794 43.6669 24.4694C43.9069 24.5994 44.1568 24.7294 44.3868 24.8694C45.0168 25.2294 45.6269 25.6294 46.2169 26.0594C47.9869 28.0494 48.7569 30.9194 48.0269 33.4794Z" fill="#38778A"/>
<path d="M78.0869 14.5394C77.8369 14.6994 77.5568 14.8394 77.2568 14.9494C77.0068 15.0394 76.7369 15.1094 76.4569 15.1494C71.0769 16.0394 69.9068 7.4994 75.0668 6.6594C75.6368 6.5694 76.1569 6.58941 76.6369 6.69941C76.6469 6.69941 76.6569 6.69939 76.6669 6.70939C79.9669 7.49939 80.9769 12.6494 78.0869 14.5394Z" fill="#384769"/>
<path d="M78.0869 14.5394C77.8369 14.6994 77.5568 14.8394 77.2568 14.9494C76.3768 14.8394 75.5268 14.5894 74.8068 14.0894C73.0468 12.8694 72.5569 10.1594 73.7669 8.39937C74.4169 7.44937 75.4968 6.85937 76.6268 6.70937C76.6368 6.70937 76.6369 6.69937 76.6469 6.70937L76.6569 6.71938C79.9669 7.49938 80.9769 12.6494 78.0869 14.5394Z" fill="#38778A"/>
<path d="M78.0869 14.5394C78.7569 13.1394 78.9869 11.5294 78.7169 9.98938C78.5569 9.05938 78.1768 8.04939 77.4568 7.40939C77.1768 7.15939 76.8669 6.95938 76.6569 6.70938C79.9669 7.49938 80.9769 12.6494 78.0869 14.5394Z" fill="#00A89D"/>
<path d="M13.7369 42.2994C13.4469 41.4694 12.9368 40.6994 12.2168 40.1994C10.9268 39.2994 9.05686 39.4194 7.79686 40.3694C6.92686 41.0194 6.35684 42.0094 6.14684 43.0794C5.72684 39.7894 9.19685 37.2394 12.0968 39.3194C13.0568 40.0094 13.6469 41.1394 13.7369 42.2994Z" fill="#384769"/>
<path d="M13.6669 43.4394C13.6169 43.6694 13.5468 43.8794 13.4568 44.0994C12.7568 45.7494 10.8068 46.7594 9.05682 46.3494C7.73682 46.0394 6.61687 44.9494 6.25687 43.6394C6.23687 43.5594 6.21684 43.4794 6.19684 43.3994C6.17684 43.2894 6.15685 43.1794 6.14685 43.0794C6.35685 42.0094 6.92687 41.0194 7.79688 40.3694C9.05687 39.4194 10.9169 39.2994 12.2169 40.1994C12.9369 40.6994 13.4469 41.4694 13.7369 42.2994C13.7669 42.6794 13.7469 43.0694 13.6669 43.4394Z" fill="#38778A"/>
<path d="M13.6669 43.4394C13.6169 43.6694 13.5468 43.8794 13.4568 44.0994C12.7568 45.7494 10.8068 46.7594 9.05682 46.3494C7.73682 46.0394 6.61687 44.9494 6.25687 43.6394C6.67687 43.9094 7.20687 44.5794 7.47687 44.7494C8.13687 45.1694 8.89688 45.4194 9.67688 45.4594C11.2169 45.5294 12.7568 44.7594 13.6268 43.4994C13.6368 43.4694 13.6469 43.4594 13.6669 43.4394Z" fill="#00A89D"/>
<path d="M84.3868 63.3894C83.6768 64.0994 82.6368 64.3894 81.6368 64.3994C80.6368 64.3994 79.6568 64.1394 78.6868 63.8894C75.9868 63.1794 71.8869 63.0094 70.9869 59.7994C70.9769 59.7694 70.9769 59.7494 70.9669 59.7194C70.8769 59.3594 70.8369 59.0094 70.8369 58.6594C70.8569 56.9594 71.9469 55.4294 73.3569 54.4494C76.4169 52.3094 80.3469 52.9094 82.8669 55.1594C83.4669 55.6894 83.9869 56.3194 84.3969 57.0294C84.8869 57.8694 85.2169 58.8194 85.3369 59.8594C85.4869 61.1094 85.2768 62.4894 84.3868 63.3894Z" fill="#38778A"/>
<path d="M82.5068 62.7994C81.1868 63.4294 79.6268 63.0994 78.1968 62.7594C76.6068 62.3794 75.0068 61.9994 73.5168 61.3094C72.7668 60.9594 71.7268 60.4194 70.9568 59.7094C70.8668 59.3494 70.8268 58.9994 70.8268 58.6494C70.8468 56.9494 71.9369 55.4194 73.3469 54.4394C76.4069 52.2994 80.3369 52.8994 82.8569 55.1494C83.4569 55.6794 83.9768 56.3094 84.3868 57.0194C84.5068 57.4494 84.5868 57.8794 84.6368 58.3194C84.8068 60.0694 84.0968 62.0394 82.5068 62.7994Z" fill="#384769"/>
<path d="M82.8569 55.1494C80.8469 53.8694 78.2669 53.4894 75.9769 54.1594C74.3569 54.6394 73.0169 55.2894 71.9869 56.6794C71.5369 57.2894 71.1668 57.9694 70.8268 58.6594C70.8468 56.9594 71.9369 55.4294 73.3469 54.4494C76.4069 52.3094 80.3369 52.8994 82.8569 55.1494Z" fill="#452E61"/>
<path d="M56.2469 20.0994C56.7369 20.4694 57.4069 20.4394 58.0269 20.3894C58.9569 20.3094 59.8969 20.2294 60.8269 20.1594C61.4769 20.1094 62.1869 20.0194 62.6269 19.5394C63.0869 19.0394 63.0669 18.2294 62.7469 17.6294C62.4169 17.0294 61.8469 16.6094 61.2469 16.2794C59.7469 15.4394 58.3369 15.3494 57.0769 16.5094C56.2069 17.2794 54.9569 19.1194 56.2469 20.0994Z" fill="#38778A"/>
<path d="M62.4368 23.7694C65.3968 22.1994 58.6569 20.8694 59.7169 23.0894C59.9469 23.5694 60.4369 23.8794 60.9669 23.9394C61.4469 23.9894 61.9868 23.9994 62.4368 23.7694Z" fill="#38778A"/>
<path d="M26.9869 49.9294C27.2769 49.8794 27.5769 49.8094 27.8169 49.6394C28.0569 49.4694 28.2369 49.1794 28.2069 48.8894C28.1669 48.5294 27.8369 48.2794 27.5269 48.0894C26.2669 47.3394 23.7869 46.2794 22.9669 48.1494C22.0769 50.1994 25.8469 50.1194 26.9869 49.9294Z" fill="#384769"/>
<path d="M80.9968 30.0694C80.8968 30.3894 80.8169 30.8094 81.0869 31.0194C81.3469 31.2294 81.7268 31.0794 82.0068 30.9094C83.5068 30.0094 84.7169 28.6394 85.3869 27.0294C85.6169 26.4794 85.7869 25.8794 85.6969 25.2894C85.6169 24.6994 85.2369 24.1194 84.6669 23.9494C82.8969 23.4094 81.3868 28.8594 80.9968 30.0694Z" fill="#384769"/>
<path d="M76.1669 35.7094C76.0069 35.7794 75.8369 35.8494 75.7069 35.9694C75.5869 36.0994 75.5169 36.2994 75.5969 36.4494C75.6769 36.5894 75.8469 36.6494 76.0069 36.6894C77.6969 37.0694 79.5869 36.3094 80.5269 34.8494C81.2169 33.7894 80.2169 32.9494 79.2369 33.5594C78.1569 34.2394 77.4069 35.1894 76.1669 35.7094Z" fill="#384769"/>
<path d="M76.4169 32.3494C77.6369 32.0594 78.6669 31.0494 78.9869 29.8294C79.0769 29.4894 79.0868 28.8394 78.5768 28.8294C78.2568 28.8294 77.9669 29.4094 77.7969 29.6394C77.5769 29.9494 76.5669 32.3194 76.4169 32.3494Z" fill="#384769"/>
<path d="M48.7269 55.5994C48.7169 55.6594 48.7069 55.7094 48.7069 55.7694C48.6369 58.4694 53.1069 57.8794 54.6469 57.8894C55.1069 57.8894 55.5869 57.8894 56.0069 57.6994C56.7969 57.3294 57.1268 56.3794 57.1868 55.5094C57.3268 53.3494 55.9769 51.6194 53.7969 52.2094C52.4469 52.5894 49.0069 54.0294 48.7269 55.5994Z" fill="#452E61"/>
<path d="M59.7369 55.5094C60.6069 55.7894 61.4869 55.1094 62.0469 54.3994C62.4269 53.9194 62.7569 53.3794 62.8869 52.7794C63.0069 52.1794 62.8969 51.5094 62.4769 51.0594C60.0369 48.4694 56.7669 54.5594 59.7369 55.5094Z" fill="#452E61"/>
<path d="M95.6368 23.0394C95.9668 23.1394 96.3369 22.9494 96.5369 22.6694C96.7469 22.3894 96.8268 22.0394 96.8968 21.6994C97.0968 20.8194 97.3668 17.6594 95.7068 19.0394C94.9568 19.6794 94.4468 22.6694 95.6368 23.0394Z" fill="#452E61"/>
<path d="M86.8869 52.6594C87.2969 53.0194 87.7169 53.3793 88.2169 53.6193C88.7069 53.8593 89.2869 53.9593 89.8069 53.7793C90.3269 53.5993 90.7369 53.0894 90.6969 52.5394C90.6669 52.1294 90.3869 51.7693 90.0469 51.5493C89.7069 51.3293 89.2969 51.2193 88.8969 51.1393C88.3269 51.0193 87.7469 50.9493 87.1769 50.9193C86.9069 50.9093 86.6169 50.9093 86.4069 51.0593C86.1869 51.2093 86.1069 51.5793 86.3169 51.7393L86.8869 52.6594Z" fill="#452E61"/>
<path d="M61.7468 35.6594C59.8568 35.6594 59.8568 38.5994 61.7468 38.5994C63.6368 38.5894 63.6368 35.6594 61.7468 35.6594Z" fill="#00A89D"/>
<path d="M65.8269 37.5194C65.1569 37.5194 64.6068 38.1994 64.8068 38.8594C65.1468 39.9594 66.5269 39.8994 66.8469 38.8594C67.0469 38.1894 66.4969 37.5194 65.8269 37.5194Z" fill="#00A89D"/>
<path d="M84.8368 11.4894C83.3868 11.4894 83.3868 13.7494 84.8368 13.7494C86.2868 13.7494 86.2868 11.4894 84.8368 11.4894Z" fill="#00A89D"/>
<path d="M31.2969 42.2794C29.8969 42.2794 29.8969 44.4494 31.2969 44.4494C32.6969 44.4494 32.6969 42.2794 31.2969 42.2794Z" fill="#00A89D"/>
<path d="M16.3669 56.7294C14.7569 56.7294 14.8669 59.0994 16.3669 59.0994C17.9869 59.0994 17.8769 56.7294 16.3669 56.7294Z" fill="#38778A"/>
<path d="M97.0869 41.0794C95.6569 41.1394 96.3269 43.3494 97.5069 42.6294C98.2769 42.1594 97.8569 41.0494 97.0869 41.0794Z" fill="#38778A"/>
<path d="M95.7769 37.2994C94.5569 38.5194 96.4069 40.4294 97.6569 39.1794C98.8769 37.9594 97.0269 36.0494 95.7769 37.2994Z" fill="#38778A"/>
<path d="M42.6968 65.1094C40.9668 65.1094 41.0168 67.7094 42.6968 67.7094C44.4168 67.7094 44.3868 65.1094 42.6968 65.1094Z" fill="#384769"/>
<path d="M46.7468 66.4294C45.4968 66.4294 45.5768 68.2694 46.7468 68.2694C47.9968 68.2694 47.9168 66.4294 46.7468 66.4294Z" fill="#384769"/>
<path d="M57.2869 67.2794C55.6769 67.2794 55.6669 69.7894 57.2869 69.7894C58.8969 69.7894 58.9069 67.2794 57.2869 67.2794Z" fill="#384769"/>
<path d="M95.1568 61.5394C93.9968 61.5394 93.9868 63.3494 95.1568 63.3494C96.3268 63.3494 96.3268 61.5394 95.1568 61.5394Z" fill="#384769"/>
<path d="M87.6568 68.0594C86.4668 68.0594 86.4668 69.9094 87.6568 69.9094C88.8468 69.9094 88.8568 68.0594 87.6568 68.0594Z" fill="#384769"/>
<path d="M24.6169 65.2094C23.5869 65.2094 23.5869 66.8094 24.6169 66.8094C25.6469 66.8094 25.6469 65.2094 24.6169 65.2094Z" fill="#384769"/>
<path d="M43.0568 14.4894C41.2768 14.4894 41.2868 17.1894 43.0568 17.1894C44.8668 17.1794 44.8068 14.4894 43.0568 14.4894Z" fill="#29E1C2"/>
<path d="M11.3168 30.7894C10.5868 30.3194 9.61683 31.0894 9.84683 31.9494C10.3468 33.7494 13.0168 31.8794 11.3168 30.7894Z" fill="#29E1C2"/>
</svg>
