<svg width="171" height="169" viewBox="0 0 171 169" fill="none" xmlns="http://www.w3.org/2000/svg">
<path fill-rule="evenodd" clip-rule="evenodd" d="M170.761 103.842L170.144 106.062C170.127 106.162 170.094 106.245 170.06 106.379C168.375 112.153 166.105 117.694 163.318 122.918C158.779 131.396 152.871 139.039 145.878 145.564C137.734 153.141 128.154 159.149 117.574 163.188C108.011 166.826 97.6304 168.795 86.7826 168.795C85.2472 168.795 83.6784 168.762 82.1764 168.679H82.1597C79.89 168.562 77.637 168.345 75.4174 168.078C60.8479 166.175 47.4133 160.651 36.0314 152.407C34.9633 151.639 33.9119 150.838 32.8939 150.037C34.8966 148.318 39.1022 148.151 39.1022 148.151L33.2277 143.495L18.5247 135.584C15.7043 132.03 13.1509 128.225 10.9146 124.219C10.3805 123.268 9.86317 122.317 9.3625 121.332C9.3625 121.299 9.3291 121.282 9.31241 121.249C8.79506 120.197 8.2944 119.146 7.81042 118.094C7.79373 118.094 7.79374 118.094 7.79374 118.094C6.29173 114.773 4.9733 111.352 3.90521 107.847C3.12083 105.311 2.41989 102.724 1.86915 100.07C1.85247 100.054 1.85247 100.02 1.85247 100.004C1.46863 98.1678 1.15154 96.282 0.884512 94.3961C0.300399 90.3741 0 86.2686 0 82.0964C0 81.1284 0.0166869 80.1604 0.0500648 79.2092C0.0834427 77.7739 0.166877 76.3554 0.300389 74.9535C0.400523 73.5516 0.550714 72.1664 0.734293 70.798C0.734293 70.6978 0.750989 70.6144 0.767678 70.4809C1.01801 68.5616 1.3351 66.6758 1.73564 64.8066C2.26969 62.103 2.93726 59.4328 3.75501 56.846C4.8398 53.1911 6.15821 49.6697 7.72697 46.2652C9.22897 42.9608 10.9312 39.7565 12.8338 36.6857C18.7584 33.5482 22.5301 31.9127 22.5301 31.9127C22.5301 31.9127 123.515 11.8693 125.084 10.1503C126.636 8.44802 134.296 9.51611 134.296 9.51611C139.019 12.6369 143.442 16.1917 147.497 20.147C148.448 21.0649 149.349 22.0161 150.284 22.9841C150.885 23.635 151.486 24.3192 152.07 25.0035C153.071 26.1383 154.056 27.3232 154.99 28.5081C158.445 32.914 161.499 37.637 164.036 42.6437C165.037 44.5629 165.938 46.5489 166.789 48.5683C166.789 48.585 166.806 48.6016 166.806 48.6183C174.6 79.109 164.987 104.96 164.987 104.96C167.157 104.159 169.092 103.892 170.761 103.842Z" fill="url(#paint0_radial_1_6266)"/>
<path fill-rule="evenodd" clip-rule="evenodd" d="M170.761 103.842L170.144 106.062C170.127 106.162 170.094 106.245 170.06 106.379C168.375 112.153 166.105 117.694 163.318 122.918C158.779 131.396 152.871 139.039 145.878 145.564C137.734 153.141 128.154 159.149 117.574 163.188C108.011 166.826 97.6304 168.795 86.7826 168.795C85.2472 168.795 83.6784 168.762 82.1764 168.679H82.1597C79.89 168.562 77.637 168.345 75.4174 168.078C60.8479 166.175 47.4133 160.651 36.0314 152.407C34.9633 151.639 33.9119 150.838 32.8939 150.037C34.8966 148.318 39.1022 148.151 39.1022 148.151L33.2277 143.495L18.5247 135.584C15.7043 132.03 13.1509 128.225 10.9146 124.219C10.3805 123.268 9.86317 122.317 9.3625 121.332C9.3625 121.299 9.3291 121.282 9.31241 121.249C8.79506 120.197 8.2944 119.146 7.81042 118.094C7.79373 118.094 7.79374 118.094 7.79374 118.094C6.29173 114.773 4.9733 111.352 3.90521 107.847C3.12083 105.311 2.41989 102.724 1.86915 100.07C1.85247 100.054 1.85247 100.02 1.85247 100.004C1.46863 98.1678 1.15154 96.282 0.884512 94.3961C0.300399 90.3741 0 86.2686 0 82.0964C0 81.1284 0.0166869 80.1604 0.0500648 79.2092C0.0834427 77.7739 0.166877 76.3554 0.300389 74.9535C0.400523 73.5516 0.550714 72.1664 0.734293 70.798C0.734293 70.6978 0.750989 70.6144 0.767678 70.4809C1.01801 68.5616 1.3351 66.6758 1.73564 64.8066C2.26969 62.103 2.93726 59.4328 3.75501 56.846C4.8398 53.1911 6.15821 49.6697 7.72697 46.2652C9.22897 42.9608 10.9312 39.7565 12.8338 36.6857C18.7584 33.5482 22.5301 31.9127 22.5301 31.9127C22.5301 31.9127 123.515 11.8693 125.084 10.1503C126.636 8.44802 134.296 9.51611 134.296 9.51611C139.019 12.6369 143.442 16.1917 147.497 20.147C148.448 21.0649 149.349 22.0161 150.284 22.9841C150.885 23.635 151.486 24.3192 152.07 25.0035C153.071 26.1383 154.056 27.3232 154.99 28.5081C158.445 32.914 161.499 37.637 164.036 42.6437C165.037 44.5629 165.938 46.5489 166.789 48.5683C166.789 48.585 166.806 48.6016 166.806 48.6183C174.6 79.109 164.987 104.96 164.987 104.96C167.157 104.159 169.092 103.892 170.761 103.842Z" fill="url(#paint1_radial_1_6266)"/>
<path fill-rule="evenodd" clip-rule="evenodd" d="M168.292 82.0294C168.292 85.1169 168.125 88.1376 167.774 91.1082C167.274 95.731 166.372 100.237 165.104 104.593C165.087 104.693 165.054 104.776 165.02 104.893C163.435 110.334 161.299 115.524 158.695 120.431C154.423 128.391 148.866 135.568 142.307 141.692C134.663 148.819 125.651 154.476 115.721 158.248C106.726 161.669 96.9796 163.522 86.7827 163.522C85.3307 163.522 83.8788 163.488 82.4436 163.405H82.4269C80.2907 163.305 78.1712 163.088 76.1017 162.837C62.4001 161.052 49.7999 155.845 39.119 148.118C37.5169 146.983 35.9648 145.765 34.4795 144.513C34.0623 144.162 33.6617 143.829 33.2612 143.461C29.3894 140.107 25.8513 136.352 22.6804 132.313C20.0269 128.959 17.6404 125.404 15.5375 121.632C15.0369 120.731 14.5529 119.83 14.0689 118.912C14.0689 118.879 14.0522 118.862 14.0355 118.829C13.5349 117.844 13.0676 116.859 12.617 115.875C12.6003 115.875 12.6003 115.875 12.6003 115.875C11.1817 112.754 9.94675 109.549 8.94541 106.245C8.19441 103.875 7.54354 101.422 7.04287 98.952C7.02618 98.9353 7.02617 98.9019 7.02617 98.8852C6.65901 97.1496 6.3586 95.3972 6.10827 93.6282C5.55753 89.8398 5.29053 85.9847 5.29053 82.0628C5.29053 81.1449 5.30721 80.2437 5.34059 79.3425C5.37397 78.0074 5.45741 76.6556 5.57424 75.3538C5.67437 74.0521 5.80788 72.7337 5.99146 71.4486C5.99146 71.3485 6.00816 71.265 6.02485 71.1482C6.25849 69.3458 6.55888 67.5768 6.92604 65.8077C7.42671 63.2543 8.06089 60.7677 8.8119 58.3311C9.82992 54.9098 11.0816 51.5887 12.5502 48.3845C14.1357 44.8965 15.9548 41.542 18.0075 38.321C19.4261 36.0847 20.9448 33.9318 22.5803 31.8624C24.85 28.9418 27.3366 26.1882 29.9735 23.6014C44.6431 9.31562 64.6865 0.537231 86.7827 0.537231C87.6505 0.537231 88.5016 0.55392 89.3528 0.570609C90.2707 0.603987 91.1719 0.637365 92.0898 0.704121C94.6265 0.871011 97.1298 1.15472 99.5831 1.55526C99.6165 1.55526 99.6332 1.57195 99.6666 1.57195C101.736 1.88904 103.755 2.28957 105.758 2.77355C108.345 3.39104 110.865 4.10867 113.352 4.97649C115.037 5.54392 116.689 6.1781 118.325 6.86235C119.543 7.3797 120.728 7.91375 121.913 8.48117C122.113 8.58131 122.33 8.66475 122.53 8.78158C130.441 12.6534 137.617 17.7435 143.842 23.8517C144.743 24.7195 145.595 25.604 146.462 26.5219C147.03 27.1394 147.597 27.7736 148.148 28.4078C149.099 29.4759 150 30.594 150.902 31.7122C154.156 35.8344 157.01 40.2736 159.396 44.9966C162.2 50.4706 164.403 56.295 165.905 62.4032C166.873 66.2583 167.541 70.2136 167.924 74.2523C168.175 76.7891 168.292 79.3925 168.292 82.0294Z" fill="url(#paint2_radial_1_6266)"/>
<path fill-rule="evenodd" clip-rule="evenodd" d="M46.9795 49.5363C46.9795 49.5363 44.8099 54.3427 46.6123 59.2159C48.4147 64.089 53.4715 60.8514 59.4962 59.2159C65.5209 57.5803 71.7125 51.2385 75.6344 47.3166C79.5396 43.3947 83.2946 38.0209 82.9609 32.7972C82.6271 27.5736 77.1364 24.1524 77.1364 24.1524C77.1364 24.1524 79.1391 21.599 77.4535 31.8126C75.7679 42.0262 73.4815 45.6811 71.2953 47.2999C69.109 48.9188 62.4501 52.8073 58.8286 54.9769C55.1904 57.1464 51.1517 59.3994 48.7485 58.8654C46.3453 58.3647 45.0769 52.9575 46.9795 49.5363Z" fill="url(#paint3_radial_1_6266)"/>
<path fill-rule="evenodd" clip-rule="evenodd" d="M58.0277 46.0147C58.0277 46.0147 54.9402 48.7517 55.758 50.9714C56.5757 53.1743 62.4336 51.7724 66.1886 47.0161C69.9436 42.2597 66.973 38.4213 66.973 38.4213C66.973 38.4213 65.6045 46.3485 61.9496 47.7504C58.2947 49.1523 57.1098 48.5515 57.1098 48.5515C57.1098 48.5515 56.5424 47.9173 58.0277 46.0147Z" fill="url(#paint4_radial_1_6266)"/>
<path fill-rule="evenodd" clip-rule="evenodd" d="M48.6816 49.4526C48.6816 49.4526 51.6856 46.048 55.1069 42.8604C58.5281 39.6728 64.4527 38.4379 64.4527 38.4379C64.4527 38.4379 60.9981 36.6021 56.5588 39.1889C52.1363 41.759 48.6816 49.4526 48.6816 49.4526Z" fill="url(#paint5_radial_1_6266)"/>
<path fill-rule="evenodd" clip-rule="evenodd" d="M36.3986 49.5027C36.3986 49.5027 43.3746 41.7591 51.8359 38.4213C60.3139 35.0835 63.2511 34.1155 66.9895 31.0114C70.7445 27.9072 74.9668 25.4373 74.9668 25.4373C74.9668 25.4373 66.7224 25.8545 54.1056 33.8485C41.5221 41.8425 36.3652 46.9159 36.3986 49.5027Z" fill="url(#paint6_radial_1_6266)"/>
<path fill-rule="evenodd" clip-rule="evenodd" d="M19.4092 47.9674C19.4092 47.9674 31.4753 35.918 40.9212 31.1783C50.3672 26.4553 56.7257 23.3512 65.2037 21.2317C73.6817 19.1122 86.7825 15.4239 86.7825 15.4239L89.1523 14.239C89.1523 14.239 62.1997 14.7898 44.5094 25.4373C26.8191 36.1015 19.4092 47.9674 19.4092 47.9674Z" fill="url(#paint7_radial_1_6266)"/>
<path fill-rule="evenodd" clip-rule="evenodd" d="M33.862 61.8692C33.862 61.8692 35.8647 78.5248 38.7685 79.2758C41.6724 80.0268 52.0529 79.9433 67.4902 72.0494C82.9275 64.1556 86.065 65.9747 94.7099 57.1796C103.355 48.3845 106.859 38.4045 109.546 31.8291C112.233 25.2536 113.001 17.7436 112.167 15.4238C112.167 15.4238 115.087 17.1595 115.087 23.6849C115.087 30.2102 113.135 41.1582 110.364 47.5C107.594 53.8418 100.418 63.7884 91.7894 68.6783C83.1445 73.5681 65.8714 82.964 48.9154 82.8305C31.9594 82.697 34.6464 81.4787 32.894 78.0908C31.1417 74.703 33.862 61.8692 33.862 61.8692Z" fill="url(#paint8_radial_1_6266)"/>
<path opacity="0.5" fill-rule="evenodd" clip-rule="evenodd" d="M7.44336 76.0882C7.44336 76.0882 10.4641 82.7972 12.1663 88.9387C13.8686 95.0803 13.5348 105.511 20.5442 107.13C27.5536 108.765 37.3333 113.321 41.0883 112.186C44.8433 111.052 58.6785 108.565 66.3554 110.067C74.0323 111.569 88.0343 110.718 92.9242 108.281C97.814 105.845 108.345 99.5529 113.351 97.6504C118.358 95.7311 125.267 90.2905 131.225 84.2324C137.183 78.1743 137.1 71.2818 138.568 67.8606C140.037 64.4393 142.974 50.7544 142.641 44.5461C142.307 38.3545 138.568 26.7724 138.568 26.7724L135.08 23.0841C135.08 23.0841 139.386 38.9887 137.434 50.237C135.481 61.4854 137.267 66.0415 129.44 76.8058C121.613 87.5702 110.698 96.0315 98.4649 100.12C86.2486 104.192 78.4048 103.708 65.7045 104.877C53.8553 105.978 39.1023 105.144 33.2445 103.608C27.9875 102.24 20.878 98.7018 15.5041 90.1236C10.1136 81.5455 7.44336 76.0882 7.44336 76.0882Z" fill="#7D72B3"/>
<path opacity="0.4" fill-rule="evenodd" clip-rule="evenodd" d="M34.3962 58.4813C34.3962 58.4813 35.5143 76.5721 37.8174 78.1242C40.1205 79.6762 44.9936 80.3271 49.5497 78.775C54.1058 77.2229 69.76 72.0994 72.447 70.4639C75.1339 68.8284 91.6059 60.6008 94.8602 58.1642C98.0979 55.7276 102.437 47.0159 103.906 45.2135C105.374 43.4111 109.363 32.6468 110.514 28.5747C111.649 24.5026 112.467 19.6127 112.467 19.6127C112.467 19.6127 112.801 17.3263 110.832 16.592C108.879 15.8577 108.545 16.592 108.545 16.592C108.545 16.592 108.128 19.2789 106.426 27.0226C104.707 34.7663 81.6593 61.3351 69.9937 68.261C58.3448 75.1869 47.2634 75.4372 43.258 74.9366C39.286 74.4526 34.3294 61.5854 34.3962 58.4813Z" fill="#7D72B3"/>
<path opacity="0.4" fill-rule="evenodd" clip-rule="evenodd" d="M33.8618 61.8692C33.8618 61.8692 34.3458 50.6042 37.2497 46.8325C40.1535 43.0608 49.9166 35.267 55.691 32.3298C61.4653 29.3925 69.8599 25.237 72.7805 24.6195C75.701 24.002 77.7704 24.6195 77.7704 24.6195C77.7704 24.6195 74.2491 22.717 66.1883 24.753C58.1275 26.7891 48.9987 34.2991 44.5928 36.6189C40.1869 38.9386 33.3445 44.5628 31.7089 47.4166C30.0901 50.2537 33.8618 61.8692 33.8618 61.8692Z" fill="#7D72B3"/>
<path opacity="0.4" fill-rule="evenodd" clip-rule="evenodd" d="M14.0352 50.0034L39.0352 28.0908L54.5226 21.0814C54.5226 21.0814 69.843 15.8745 76.8524 14.239C83.8617 12.6034 99.5827 12.1195 99.5827 12.1195L107.827 13.0207C107.827 13.0207 93.4746 5.19354 72.2796 10.9012C51.0846 16.6088 36.9992 23.735 30.7909 29.5761C24.616 35.4172 15.2701 47.1329 14.0352 50.0034Z" fill="#7D72B3"/>
<path fill-rule="evenodd" clip-rule="evenodd" d="M13.3346 50.9715C13.3346 50.9715 -0.0999954 67.1931 6.42539 77.1731C12.9508 87.1531 15.8213 101.539 17.7238 104.893C19.6097 108.248 41.2385 113.271 45.7446 112.237C50.2339 111.202 61.015 108.365 68.0577 111.102C68.0577 111.102 80.541 110.034 84.1292 110.034C87.7173 110.034 94.2427 106.996 95.7614 106.229C97.2801 105.461 105.758 102.757 110.097 101.005C114.436 99.2693 121.396 93.8287 124.216 91.6591C127.036 89.4896 134.43 80.6778 135.848 77.9742C137.267 75.2539 141.489 59.3994 142.591 51.8894C143.692 44.396 140.454 29.9434 138.034 24.9367C135.598 19.9467 127.921 15.2738 127.921 15.2738L128.372 13.0208L134.346 9.44934C134.346 9.44934 144.76 23.1176 145.745 34.9C146.312 41.8092 147.914 56.5789 146.095 62.9041C144.627 67.9942 139.653 82.9308 135.314 88.2713C130.975 93.6117 117.924 107.23 110.982 109.883C104.022 112.52 83.5117 116.075 71.4289 116.325C62.517 116.509 42.9074 114.907 33.2612 114.59C23.615 114.256 16.7225 108.215 12.884 105.16C9.04557 102.09 10.3473 93.7619 6.44209 87.1698C2.53688 80.5777 0.367307 71.816 1.35195 67.0596C2.30323 62.2699 13.3346 50.9715 13.3346 50.9715Z" fill="url(#paint9_radial_1_6266)"/>
<path fill-rule="evenodd" clip-rule="evenodd" d="M36.9326 112.721C34.8632 112.237 33.0107 111.102 30.958 110.584C29.8064 110.301 28.6716 110.134 27.5368 109.817C26.4019 109.483 25.1168 109.266 23.9486 109.216C21.5788 109.132 19.1088 108.582 17.6068 106.562C16.2717 104.76 15.4372 102.891 14.8198 100.738C14.0187 97.8506 13.2343 94.9635 12.3498 92.0596C11.532 89.3893 10.3805 87.0362 8.91187 84.6664C8.32776 83.7151 7.82709 82.7805 7.19291 81.8626C6.6088 81.0449 5.79103 80.2438 5.35712 79.3092L5.34044 79.2925C4.20559 76.8893 3.80505 74.2191 3.8718 71.5989C3.90518 70.1804 4.30572 68.8619 4.60612 67.4934C5.02335 65.7578 5.47395 64.2224 6.35847 62.6536C7.17623 61.2184 7.99399 59.7665 8.81175 58.2978C10.6475 55.0602 12.5834 51.8225 14.8698 48.9186C17.8071 45.2137 21.0948 41.6923 24.4159 38.3378C26.3351 36.3685 28.5214 34.6496 30.7243 33.0141C32.5768 31.6456 34.2958 30.1269 36.1482 28.725C39.3191 26.3218 42.924 24.753 46.4787 23.0341C50.7678 20.9646 55.0401 18.9786 59.4961 17.3431C64.7698 15.4239 70.2104 13.8885 75.7178 12.7704C81.9928 11.502 88.6183 11.235 95.0269 11.2684C98.5315 11.285 102.287 10.8344 105.641 12.1529C107.527 12.8872 109.73 13.6382 111.382 14.773C111.766 15.0234 111.933 15.0901 112.166 15.4239C112.317 15.6242 112.4 15.9079 112.5 16.1415C112.751 16.7423 113.068 17.7437 113.068 18.3778C113.068 19.0788 112.751 19.6963 112.751 20.4473C112.767 21.4987 112.5 22.45 112.45 23.468C112.4 24.6529 112.1 25.5875 111.933 26.739C111.582 28.8752 111.282 30.9112 110.447 32.9306C109.246 35.8345 108.445 38.9053 107.126 41.7758C106.726 42.6603 106.025 43.3278 105.624 44.1957C105.241 44.98 104.907 45.6476 104.456 46.3986C103.605 47.8172 102.921 49.2691 101.969 50.6209C99.9668 53.3746 97.9474 56.3118 95.3106 58.4981C92.123 61.1516 88.6517 63.2711 85.0135 65.207C82.6437 66.4587 80.157 67.4768 77.7538 68.6784C75.6009 69.7464 73.4481 70.8479 71.2785 71.8659C65.7044 74.4694 59.7798 76.3886 53.9387 78.2077C52.2531 78.7418 50.6676 79.3092 48.932 79.5429C47.3465 79.7598 45.5107 80.2772 43.9086 80.2438C42.1896 80.1937 40.3872 79.7932 38.7684 79.2425C35.9814 78.3079 35.6976 75.2872 35.4974 72.7672C35.3472 70.9481 35.1302 68.9621 34.7798 67.1763C34.5127 65.6743 34.3792 64.2057 34.0454 62.687C33.695 61.1516 33.478 59.5829 33.4613 58.0308C33.4279 56.0281 34.1956 54.159 34.6462 52.223C34.9466 50.9714 35.0801 49.6696 35.5975 48.468C36.3318 46.7157 37.7504 45.197 39.1356 43.9453C40.5708 42.677 41.9727 41.4086 43.3913 40.1236C44.2424 39.3392 45.227 38.7551 46.1282 38.0207C47.697 36.7691 49.4326 35.7844 51.2184 34.8665C52.6369 34.1322 53.6549 32.964 54.9734 32.0962C56.3085 31.2117 57.8439 30.2938 59.2791 29.5594C60.5308 28.942 61.8993 28.508 63.201 27.9907C64.2691 27.5735 65.2538 26.956 66.3386 26.5888C67.3399 26.2383 68.3746 26.1382 69.3426 25.721C70.3105 25.3205 71.2117 24.97 72.2131 24.703C73.3312 24.4359 74.5829 23.9686 75.7178 23.9353C77.9541 23.9019 79.0555 25.0201 79.623 27.1896C80.4073 30.1436 79.5061 32.6469 78.4381 35.3839C77.5702 37.5868 76.6356 39.7731 75.7845 42.0094C74.6663 44.98 72.0128 46.5488 69.7765 48.5849C67.4233 50.721 64.5195 52.6236 61.6156 53.9253C60.6977 54.3425 59.7297 54.5762 58.8285 54.96C58.0608 55.3105 57.2931 55.7277 56.5255 56.1449C56.0248 56.412 55.6576 56.8125 55.207 57.1296C54.7898 57.3966 54.3058 57.5635 53.8886 57.8305C52.8539 58.5148 51.7691 59.1823 50.6343 59.683C49.5328 60.1837 47.3465 60.4674 46.6289 59.1823C46.245 58.5315 46.2951 57.6136 46.1282 56.8793C45.928 55.9948 45.8946 55.2104 45.8946 54.2925C45.8946 53.3746 46.0615 52.707 46.2117 51.8392C46.3452 50.9881 46.729 50.3205 46.9961 49.5027C47.8138 47.1663 49.4326 45.4306 50.8679 43.4947C51.7691 42.2764 52.5368 41.0748 53.5882 39.94C55.1403 38.2878 57.3265 37.47 59.5128 36.9193C61.4821 36.4353 64.4026 35.8512 66.2051 36.986C67.7404 37.9373 66.6723 40.0067 66.1717 41.2918C65.9046 41.9927 65.6043 42.727 65.3706 43.4447C65.2037 43.9787 65.137 44.5795 64.8199 45.0969C64.1857 46.165 62.934 46.8993 61.9827 47.7337C61.5488 48.1009 60.8646 48.6182 60.3472 48.7851C59.6963 48.9854 58.9954 48.9687 58.3279 49.1356C57.9941 49.2023 57.8272 49.6196 57.4266 49.4694C57.0595 49.3525 57.0595 48.9353 57.1263 48.5515C57.193 48.201 57.3432 47.8672 57.4266 47.5334C57.4433 47.4667 57.3599 47.3499 57.3766 47.2664C57.6436 46.2484 58.9454 44.98 59.5295 44.1122C60.4641 44.4961 59.8299 45.0468 59.6463 45.4473C59.5295 45.7978 59.5461 46.1149 59.4627 46.482C59.3959 46.7824 58.9453 47.2998 59.2791 47.6169C59.4961 47.8338 60.2638 47.45 60.4974 47.3666C62.5001 46.6656 63.7852 44.4794 64.4026 42.4934C64.8032 41.2083 64.7364 38.972 63.3012 38.4046C62.2331 37.9874 60.948 38.221 59.8299 38.2043C55.7911 38.1376 53.3879 42.46 51.2517 45.2471C49.7831 47.1329 48.665 49.2858 47.8472 51.5221C47.2631 53.0742 47.0294 54.6763 46.6122 56.2284C46.2951 57.3799 45.928 59.149 47.697 58.9153C48.7317 58.7651 49.8499 58.2144 50.8345 57.8806C51.7023 57.5802 52.4533 57.2798 53.2544 56.8459C54.5228 56.1616 55.958 55.9614 57.2765 55.3773C58.3112 54.91 59.3626 54.3425 60.3973 53.8419C63.0675 52.5568 65.6543 49.92 67.5235 47.6503C68.7585 46.1149 70.5275 44.9634 71.9461 43.5782C73.4314 42.1095 74.2157 40.2904 75.2338 38.5047C76.2518 36.6856 76.7691 34.9333 77.2197 32.9139C77.637 31.1282 78.7051 29.0922 78.1543 27.2397C77.5702 25.3204 75.1003 25.2704 73.4981 25.5541C72.1797 25.7711 70.7111 26.0047 69.4594 26.5054C67.1229 27.4399 64.8199 28.4246 62.4834 29.3759C58.8118 30.8946 55.7744 33.3812 52.42 35.434C50.7177 36.4687 48.8819 37.2531 47.2965 38.488C46.1282 39.4059 45.0101 40.474 43.8919 41.4587C43.1075 42.1763 42.4233 42.9607 41.5555 43.5782C40.4039 44.3792 39.2524 45.2804 38.3846 46.3986C37.6836 47.3165 36.8659 48.4013 36.482 49.5027C36.1816 50.3873 36.4653 51.205 36.5154 52.1062C36.5821 53.3245 36.2484 54.4594 36.1816 55.661C36.1315 56.9293 36.1816 58.2478 36.1983 59.5161C36.1983 62.0028 35.8145 64.4394 35.8645 66.9594C35.8979 68.5115 36.2484 70.147 36.5488 71.6657C36.7824 72.884 37.2831 73.9354 37.3665 75.187C37.3999 75.9714 37.5334 77.0562 38.2511 77.5736C38.6015 77.8239 39.0354 77.9073 39.436 78.0575C39.8031 78.1911 40.1202 78.3079 40.4707 78.4247C40.6543 78.4915 40.8712 78.5248 41.0715 78.5916C41.2217 78.675 41.3385 78.9087 41.5054 78.9754C41.9226 79.1423 42.5401 79.0422 42.974 78.9587C43.9754 78.7752 44.96 78.5248 45.9447 78.3579C48.4313 77.924 50.968 77.9741 53.3379 77.0896C56.0748 76.0549 58.6116 74.5696 61.3152 73.4848C65.3539 71.8326 69.693 70.631 73.5649 68.5448C75.3005 67.5936 77.1029 66.7257 78.9053 65.908C83.161 64.0054 87.617 62.4534 91.3386 59.5829C92.7739 58.4814 93.8587 57.2297 95.077 55.928C95.7612 55.1937 96.5122 54.5261 97.1297 53.7251C98.9488 51.3552 100.701 48.7684 102.103 46.1149C102.704 44.9967 103.071 43.7784 103.688 42.6603C104.656 40.9246 105.825 39.3892 106.709 37.6035C107.594 35.8512 108.111 34.0988 108.695 32.2297C109.062 31.0948 109.313 30.1602 109.279 28.9586C109.246 26.5554 109.496 24.4693 110.464 22.2664C110.998 21.0648 111.749 19.279 111.365 17.9106C111.165 17.243 110.197 17.0594 109.613 16.8758C108.245 16.4085 106.809 16.0748 105.491 15.474C104.273 14.9232 103.388 14.2891 102.053 14.0387C101.536 13.9386 101.068 13.8718 100.551 13.8885C99.2659 13.9553 98.1477 14.8565 96.846 14.8064C96.4121 14.7897 96.1283 14.6562 95.6777 14.5728C95.0102 14.4559 94.2759 14.5394 93.625 14.5227C92.1397 14.4726 90.7211 14.1889 89.2191 14.2056C87.4668 14.2223 85.7478 14.3725 83.9955 14.4726C82.3599 14.5561 80.7077 14.4226 79.0722 14.4726C78.0208 14.506 77.3699 14.99 76.4354 15.4072C75.5842 15.7911 74.6497 15.9413 73.7651 16.275C72.9975 16.5921 72.2631 16.8592 71.4454 16.8925C70.2938 16.9092 69.1423 16.7423 68.0241 16.976C66.689 17.2931 65.2204 17.8605 63.9687 18.3945C60.2971 19.9633 56.7424 21.9159 52.9373 23.1175C51.1016 23.6849 49.199 23.9353 47.4133 24.6696C46.7457 24.9366 46.1616 25.4206 45.5608 25.8211C44.3592 26.6222 43.1075 27.3732 41.8559 28.1409C39.0855 29.8932 36.4486 31.8291 33.8285 33.7818C30.7243 36.0848 27.7704 38.3879 25.217 41.3252C20.7443 46.4654 16.0881 51.6723 12.2163 57.2965C10.3805 59.95 8.31107 62.8038 7.00934 65.7578C6.97596 65.8245 6.95926 65.8746 6.92589 65.9414C6.20826 67.6436 5.82441 69.4294 6.05805 71.2818C6.05805 71.3152 6.05807 71.3486 6.07476 71.382C6.27503 72.9007 6.94257 74.6864 7.54337 76.0549C8.14417 77.4234 8.64486 78.892 9.41255 80.1937C10.2637 81.629 11.4319 82.8139 12.0494 84.3493C12.7837 86.2518 13.4679 88.3046 14.0354 90.2906C14.7697 92.7772 15.3371 95.364 15.8044 97.9174C16.1215 99.5029 16.3718 101.105 17.1062 102.54C18.1576 104.576 20.3939 105.327 22.213 106.512C23.1809 107.146 23.8485 107.363 25.0167 107.413C26.6522 107.497 28.2043 107.897 29.7731 108.365C33.1109 109.399 36.4486 110.15 39.9533 110.1C42.0394 110.084 44.0087 109.516 46.0615 109.249C47.964 109.016 49.8832 108.815 51.7691 108.515C53.4881 108.248 55.1737 107.764 56.926 107.764C58.5782 107.764 60.464 108.031 62.0662 108.482C64.9367 109.266 67.7404 109.917 70.7445 109.783C72.5635 109.733 74.3493 109.316 76.1684 109.199C77.8706 109.099 79.4895 109.349 81.175 109.466C84.1624 109.65 87.0495 108.915 89.8366 107.998C91.7391 107.38 93.3246 106.462 95.0269 105.444C96.3953 104.643 97.7305 104.393 99.2492 103.992C102.203 103.208 105.157 102.123 107.827 100.604C111.332 98.6017 114.219 95.6644 117.64 93.5282C119.56 92.3266 121.729 91.5255 123.615 90.2405C125.167 89.1891 126.619 87.9708 127.937 86.6524C129.473 85.1003 130.908 83.4815 132.443 81.9461C133.612 80.7612 134.079 79.2758 134.763 77.8072C135.798 75.621 136.165 73.368 136.532 70.9981C136.933 68.6617 137.968 66.5922 138.969 64.4227C140.254 61.6523 141.355 59.0488 141.639 55.9614C141.856 53.6416 142.173 51.3052 142.173 48.952C142.173 47.45 141.923 45.9981 141.723 44.5127C141.539 43.1442 141.255 41.8091 140.972 40.4573C140.588 38.7884 140.638 37.0695 140.337 35.3839C140.07 33.932 139.62 32.4133 139.219 30.978C138.936 29.96 138.568 28.9086 138.151 27.9573C137.4 26.255 136.399 24.486 135.18 23.0508C134.663 22.45 134.012 22.2664 133.428 21.8325C132.978 21.482 132.877 21.1983 132.36 20.9313C131.642 20.5641 130.908 20.2136 130.207 19.8131C129.072 19.1622 127.787 18.962 126.652 18.3445C125.568 17.7604 124.583 16.9927 123.548 16.3251C122.38 15.5908 121.195 15.0901 120.177 14.1222C119.176 13.1542 118.525 11.9359 117.557 10.968C116.572 9.96661 115.17 9.31575 114.052 8.44792C112.116 6.92922 109.813 6.8124 107.627 5.87782C106.509 5.39384 105.441 5.32709 104.273 5.09344C102.954 4.82642 102.053 4.00866 100.634 3.85846C99.3827 3.72495 98.1477 3.70826 96.9127 3.35779C96.1784 3.17421 95.4775 2.99063 94.7431 2.92388C93.2745 2.79036 91.8727 2.99063 90.4207 3.14083C89.1524 3.27434 87.8506 3.20759 86.5823 3.20759C85.5142 3.20759 84.396 3.30772 83.3279 3.14083C80.3072 2.67354 76.9861 2.72361 73.9153 2.94056C70.9948 3.14083 68.141 3.35779 65.3706 4.30906C63.0175 5.11013 60.6977 5.81106 58.3779 6.74565C56.7925 7.37983 55.424 8.26434 53.9387 9.0821C50.3839 11.0848 47.1129 13.5214 43.725 15.7911C39.9366 18.3111 36.3819 21.0981 32.727 23.8184C30.3572 25.6042 27.9373 27.3732 25.6008 29.2257C24.5828 30.0267 23.5981 30.8779 22.6469 31.7457C24.9166 28.8251 27.4032 26.0715 30.0401 23.4847C44.7097 9.19892 64.7531 0.420532 86.8493 0.420532C87.7171 0.420532 88.5682 0.437221 89.4194 0.45391C90.3373 0.487288 91.2385 0.520666 92.1564 0.587422C94.6931 0.754311 97.1964 1.03802 99.6497 1.43856C99.6831 1.43856 99.6998 1.45525 99.7332 1.45525C102.537 2.20625 105.324 3.02401 108.111 3.85846C110.431 4.55939 112.767 5.19357 115.054 5.99464C116.572 6.512 118.041 7.17956 119.51 7.78036C120.828 8.34778 122.297 8.83177 123.532 9.5327C125.551 10.6676 127.42 12.1862 129.273 13.5547C130.508 14.4893 131.659 15.5574 132.777 16.6422C134.346 18.1776 135.748 19.8799 136.933 21.6989C139.72 26.0214 141.939 30.9112 142.991 35.9346C143.892 40.1736 143.759 44.7631 143.592 49.0855C143.508 51.3886 143.091 53.9253 142.624 56.195C142.106 58.6817 141.222 61.0181 140.972 63.5882C140.855 64.8399 141.055 66.1416 140.855 67.3766C140.688 68.3946 140.304 69.3793 140.104 70.3806C139.67 72.5335 139.036 74.6196 138.034 76.5889C136.699 79.2925 134.863 81.5288 132.927 83.8486C130.741 86.4521 128.405 88.9387 126.135 91.4921C123.849 94.0622 121.095 96.115 118.158 97.8673C115.871 99.2358 113.535 100.888 111.032 101.856C108.695 102.791 106.042 104.109 103.522 104.393C101.602 104.576 100.067 105.311 98.4982 106.479C97.5469 107.163 96.846 108.098 95.9615 108.832C95.1771 109.5 94.2425 109.716 93.2912 110.034C91.0382 110.785 88.8353 110.618 86.4821 110.618C83.1276 110.618 79.8232 110.951 76.4854 111.285C74.7998 111.452 73.131 111.602 71.4454 111.486C69.9267 111.402 68.4414 111.002 66.9394 110.818C65.2705 110.618 63.6016 110.584 61.9494 110.317C60.6476 110.1 59.6129 110.084 58.2778 110.251C57.2097 110.367 56.1416 110.251 55.0735 110.334C53.972 110.434 52.8873 110.684 51.7858 110.835C46.7457 111.619 42.0394 113.922 36.9326 112.721Z" fill="#00C4FF"/>
<path fill-rule="evenodd" clip-rule="evenodd" d="M32.894 150.004C32.894 150.004 51.9695 153.358 60.6478 153.108C73.7653 152.724 88.8688 154.359 100.601 154.676C112.333 155.01 132.844 145.381 136.599 143.612C140.354 141.843 149.4 136.686 157.294 127.924C165.187 119.162 168.308 104.893 168.308 104.893H165.02C165.02 104.893 163.769 111.068 159.012 118.011C156.159 122.166 151.953 125.821 146.212 130.778C137.968 137.904 127.22 143.395 116.389 146.098C101.97 149.686 89.1525 148.702 80.3074 150.02C67.5069 151.923 39.1023 147.4 39.1023 147.4L32.894 150.004Z" fill="url(#paint10_radial_1_6266)"/>
<path fill-rule="evenodd" clip-rule="evenodd" d="M27.854 140.541C27.854 140.541 30.8914 148.451 32.8941 149.987C32.8941 149.987 37.083 150.237 39.1024 148.101L33.2278 143.445L27.854 140.541Z" fill="url(#paint11_radial_1_6266)"/>
<path fill-rule="evenodd" clip-rule="evenodd" d="M168.559 90.1404C168.559 90.1404 170.595 99.0857 170.762 103.842C170.762 103.842 167.574 105.845 165.021 104.893C165.021 104.893 168.025 93.9455 168.559 90.1404Z" fill="url(#paint12_radial_1_6266)"/>
<path fill-rule="evenodd" clip-rule="evenodd" d="M113.334 4.94312C113.334 4.94312 130.341 6.64539 134.329 9.43244C134.329 9.43244 131.509 12.5867 128.355 13.0039C128.355 13.0039 114.553 5.36034 113.334 4.94312Z" fill="#FF61C7"/>
<path fill-rule="evenodd" clip-rule="evenodd" d="M12.8672 36.6021L19.8432 35.5007L22.5802 31.8291C22.5635 31.8458 17.5735 34.032 12.8672 36.6021Z" fill="#FF61C7"/>
<path opacity="0.5" fill-rule="evenodd" clip-rule="evenodd" d="M18.5249 135.534C18.5249 135.534 51.519 145.114 77.27 145.598C103.021 146.082 112.701 140.357 123.832 136.052C134.964 131.746 153.255 121.866 158.762 114.59C164.27 107.297 168.559 90.1404 168.559 90.1404C168.559 90.1404 163.268 115.875 158.695 120.431C154.123 124.987 133.679 138.755 130.091 140.558C126.502 142.343 116.756 149.753 99.1326 147.684C99.1326 147.684 87.2834 149.353 82.9943 149.019C78.7053 148.685 72.0464 153.008 59.8301 149.069C59.8301 149.069 42.824 148.218 39.1024 147.4C35.3807 146.582 18.5249 135.534 18.5249 135.534Z" fill="#54469B"/>
<path fill-rule="evenodd" clip-rule="evenodd" d="M26.5356 100.905C26.5356 100.905 53.8888 105.644 73.6986 103.625C93.5084 101.606 104.223 96.6491 109.864 92.9608C115.521 89.2726 126.586 77.4401 130.725 72.0496C134.864 66.6591 136.95 53.2078 136.95 53.2078C136.95 53.2078 137.701 66.3587 134.313 72.0496C130.925 77.7405 119.31 88.5717 114.57 91.7259C109.83 94.8801 96.2287 102.34 89.1359 103.625C82.0431 104.91 70.3274 108.498 61.8328 106.946C53.3715 105.377 32.794 105.644 26.5356 100.905Z" fill="#B04FE2"/>
<path fill-rule="evenodd" clip-rule="evenodd" d="M64.4526 144.68C64.4526 144.68 92.924 142.727 102.704 140.541C112.483 138.371 125.334 133.081 134.329 129.777C143.325 126.472 150.117 119.947 155.074 116.325C160.03 112.704 166.389 97.6337 166.389 97.6337C166.389 97.6337 162.333 112.57 156.108 117.443C149.883 122.317 133.945 131.245 115.938 139.239C95.928 148.118 80.3739 145.598 64.4526 144.68Z" fill="#8B40E0"/>
<path fill-rule="evenodd" clip-rule="evenodd" d="M163.635 108.932C164.086 107.58 164.57 106.228 165.003 104.893C163.418 110.334 161.282 115.524 158.678 120.431L158.628 120.481C157.877 121.215 156.943 121.799 156.242 122.617C155.524 123.418 154.89 124.236 154.106 124.987C150.384 128.675 146.145 131.829 141.756 134.683C137.25 137.62 132.744 140.407 127.804 142.56C124.015 144.212 120.144 145.614 116.138 146.632C112.917 147.45 109.479 147.817 106.158 147.968C104.473 148.051 102.82 148.335 101.151 148.485C99.0654 148.702 96.9292 148.668 94.8931 149.036C91.3551 149.686 87.7002 150.154 84.1121 150.337C81.0246 150.504 77.9705 150.938 74.8831 150.938C70.9278 150.921 67.0059 150.304 63.0506 150.321C59.2122 150.354 55.3403 150.187 51.5185 149.837C49.2322 149.62 46.9958 149.186 44.7428 148.919C42.8403 148.702 40.9878 148.285 39.102 148.068C37.4998 146.933 35.9477 145.714 34.4624 144.463C34.0452 144.112 33.6447 143.779 33.2441 143.411C35.4137 144.096 37.5666 144.847 39.7528 145.531C42.8069 146.499 46.2615 147.066 49.4491 147.45C52.0693 147.784 55.2068 148.018 57.7936 147.367C60.4805 146.699 62.4665 147.55 64.9198 148.552C66.0546 149.019 67.2062 149.236 68.3911 149.586C70.06 150.07 71.2949 149.97 72.9972 149.737C74.4992 149.553 76.0513 149.286 77.5533 148.969C78.8217 148.702 80.04 148.184 81.3417 148.001C83.578 147.734 85.9478 147.4 88.1842 147.801C90.771 148.251 93.3244 148.502 95.9278 148.101C98.6315 147.65 101.135 147.4 103.872 147.383C104.806 147.383 105.557 147.467 106.459 147.617C107.46 147.784 108.378 147.517 109.362 147.417C111.148 147.233 112.717 146.966 114.453 146.432C116.038 145.931 117.557 145.231 119.092 144.646C122.113 143.512 124.85 142.393 127.537 140.574C129.79 139.056 132.293 137.988 134.579 136.536C136.766 135.117 138.702 133.348 140.938 132.013C143.291 130.578 145.444 128.825 147.697 127.223C149.132 126.205 150.401 125.003 151.819 123.969C153.054 123.068 154.423 122.367 155.574 121.349C157.56 119.663 159.396 117.844 160.681 115.558C161.899 113.455 162.901 111.235 163.635 108.932Z" fill="#00C4FF"/>
<path fill-rule="evenodd" clip-rule="evenodd" d="M76.3018 63.6216C76.3018 63.6216 95.9613 47.5167 104.239 31.8291C104.239 31.8458 81.3084 55.3772 76.3018 63.6216Z" fill="#FF77F4"/>
<path fill-rule="evenodd" clip-rule="evenodd" d="M55.624 82.8139C55.624 82.8139 68.0573 82.8973 81.7923 77.173C95.5273 71.4487 102.42 59.6162 102.42 59.6162C102.42 59.6162 93.1241 68.4947 82.9939 73.468C72.8637 78.4413 65.2035 79.6596 55.624 82.8139Z" fill="#EA9CF4"/>
<path fill-rule="evenodd" clip-rule="evenodd" d="M104.723 56.7791C104.723 56.7791 106.108 53.2243 108.728 47.0161C111.332 40.7911 113.385 37.47 113.385 37.47C113.385 37.47 112.55 46.9493 104.723 56.7791Z" fill="#EA9CF4"/>
<path fill-rule="evenodd" clip-rule="evenodd" d="M51.3687 115.574C51.3687 115.574 68.6417 119.763 91.1217 115.574C113.618 111.385 114.586 110.017 120.778 105.16C126.97 100.304 131.375 94.079 133.812 91.7258C136.249 89.3727 139.336 81.2118 139.336 81.2118C139.336 81.2118 132.978 92.6437 123.865 100.304C114.753 107.964 107.26 111.703 91.9395 113.989C76.619 116.259 59.0122 116.025 51.3687 115.574Z" fill="#D374F4"/>
<path fill-rule="evenodd" clip-rule="evenodd" d="M66.522 153.058C66.522 153.058 82.1595 154.41 88.518 155.711C94.8765 157.013 107.093 156.963 114.102 154.376C121.112 151.789 134.997 144.363 134.997 144.363C134.997 144.363 122.046 151.639 106.609 153.258C91.1715 154.894 81.7757 152.29 66.522 153.058Z" fill="#D374F4"/>
<path fill-rule="evenodd" clip-rule="evenodd" d="M139.536 142.076C139.536 142.076 149.466 135.401 154.339 130.978C154.356 130.978 149.149 138.104 139.536 142.076Z" fill="#D374F4"/>
<path fill-rule="evenodd" clip-rule="evenodd" d="M64.0854 57.1797C64.0854 57.1797 75.4172 48.6516 79.0221 42.4767C82.6269 36.3185 82.9774 32.7971 82.9774 32.7971C82.9774 32.7971 84.5795 38.7885 77.7704 46.4153C70.9613 54.0588 64.0854 57.1797 64.0854 57.1797Z" fill="#F2C4F8"/>
<path opacity="0.5" fill-rule="evenodd" clip-rule="evenodd" d="M37.6167 51.2218C36.6988 55.3773 35.7642 59.6163 37.1828 63.6216C38.6014 67.627 40.7709 70.2472 42.8404 70.4641C44.9098 70.6811 47.9472 65.7912 47.8303 64.3726C47.7135 62.9541 44.4592 59.2658 44.2422 55.5776C44.0253 51.8893 48.0473 46.4487 47.8303 44.3793C47.6134 42.3265 39.1187 44.3793 37.6167 51.2218Z" fill="url(#paint13_linear_1_6266)"/>
<path opacity="0.5" fill-rule="evenodd" clip-rule="evenodd" d="M39.4528 34.2157C38.0843 32.7471 28.922 41.3252 22.5635 47.9674C16.2051 54.5929 9.89663 63.2879 9.34589 68.8286C8.79516 74.3693 13.3679 82.7472 21.629 90.1237C29.89 97.5169 51.3854 104.243 56.559 101.205C61.7325 98.1678 59.83 88.7051 55.6077 86.4354C51.4021 84.1491 37.7004 88.7552 31.2919 82.0129C24.8833 75.2705 27.7705 66.2251 28.5716 58.615C29.5562 49.3025 32.4768 41.442 35.1971 39.0555C37.9341 36.669 39.4528 34.2157 39.4528 34.2157Z" fill="url(#paint14_linear_1_6266)"/>
<path fill-rule="evenodd" clip-rule="evenodd" d="M11.365 62.9039C9.596 68.9119 9.37904 75.3372 13.084 80.2771C16.7889 85.217 19.576 81.5121 20.8777 69.4794C22.1795 57.4299 21.4285 49.2023 21.4285 49.2023C21.4285 49.2023 13.6013 55.3438 11.365 62.9039Z" fill="#FFFFF8"/>
<path fill-rule="evenodd" clip-rule="evenodd" d="M17.4068 83.7817C14.9034 86.1015 20.8781 90.691 21.846 88.488C22.814 86.2684 19.0256 82.2797 17.4068 83.7817Z" fill="#F5CEFA"/>
<path fill-rule="evenodd" clip-rule="evenodd" d="M10.781 101.956C10.5473 105.778 12.7169 110.117 19.3925 112.604C26.0681 115.107 31.2917 114.423 31.2917 114.423C31.2917 114.423 23.4813 112.871 19.1755 109.867C14.9031 106.863 10.781 101.956 10.781 101.956Z" fill="#F5CEFA"/>
<path fill-rule="evenodd" clip-rule="evenodd" d="M38.1677 51.8224C35.9648 48.9019 38.8353 44.9132 42.874 42.4599C46.9127 40.0067 47.3967 40.741 46.5289 42.8938C45.6611 45.03 44.3426 49.5694 42.4568 51.8224C40.5542 54.0921 39.4695 53.5414 38.1677 51.8224Z" fill="#FFFFF8"/>
<path fill-rule="evenodd" clip-rule="evenodd" d="M52.687 46.7491C51.8526 45.3138 53.5381 41.1416 55.8412 41.5254C58.1443 41.9093 57.5769 42.8272 56.5088 44.3459C55.691 45.4974 53.4714 48.1009 52.687 46.7491Z" fill="#FFFFF8"/>
<path fill-rule="evenodd" clip-rule="evenodd" d="M69.3758 53.892C68.5914 52.2732 75.0167 47.3166 75.8845 47.8339C76.7523 48.3513 76.1849 50.9714 74.6829 51.9561C73.1976 52.9407 69.6428 54.4594 69.3758 53.892Z" fill="#FFFFF8"/>
<defs>
<radialGradient id="paint0_radial_1_6266" cx="0" cy="0" r="1" gradientUnits="userSpaceOnUse" gradientTransform="translate(32.5258 51.604) scale(133.193 133.193)">
<stop offset="0.00558659" stop-color="#FF9AFF"/>
<stop offset="0.093" stop-color="#FB94FF"/>
<stop offset="0.2093" stop-color="#F183FF"/>
<stop offset="0.3418" stop-color="#E068FF"/>
<stop offset="0.4864" stop-color="#C841FF"/>
<stop offset="0.639" stop-color="#A910FF"/>
<stop offset="0.6844" stop-color="#9F00FF"/>
<stop offset="0.7432" stop-color="#9900F8"/>
<stop offset="0.8282" stop-color="#8700E5"/>
<stop offset="0.9287" stop-color="#6A00C6"/>
<stop offset="1" stop-color="#5200AB"/>
</radialGradient>
<radialGradient id="paint1_radial_1_6266" cx="0" cy="0" r="1" gradientUnits="userSpaceOnUse" gradientTransform="translate(32.5258 51.604) scale(133.193 133.193)">
<stop offset="0.00558659" stop-color="#FF9AFF"/>
<stop offset="0.093" stop-color="#FB94FF"/>
<stop offset="0.2093" stop-color="#F183FF"/>
<stop offset="0.3418" stop-color="#E068FF"/>
<stop offset="0.4864" stop-color="#C841FF"/>
<stop offset="0.639" stop-color="#A910FF"/>
<stop offset="0.6844" stop-color="#9F00FF"/>
<stop offset="0.7432" stop-color="#9900F8"/>
<stop offset="0.8282" stop-color="#8700E5"/>
<stop offset="0.9287" stop-color="#6A00C6"/>
<stop offset="1" stop-color="#5200AB"/>
</radialGradient>
<radialGradient id="paint2_radial_1_6266" cx="0" cy="0" r="1" gradientUnits="userSpaceOnUse" gradientTransform="translate(36.3028 43.8966) scale(130.928 130.928)">
<stop offset="0.00558659" stop-color="#FF9AFF"/>
<stop offset="0.093" stop-color="#FB94FF"/>
<stop offset="0.2093" stop-color="#F183FF"/>
<stop offset="0.3418" stop-color="#E068FF"/>
<stop offset="0.4864" stop-color="#C841FF"/>
<stop offset="0.639" stop-color="#A910FF"/>
<stop offset="0.6844" stop-color="#9F00FF"/>
<stop offset="0.7432" stop-color="#9900F8"/>
<stop offset="0.8282" stop-color="#8700E5"/>
<stop offset="0.9287" stop-color="#6A00C6"/>
<stop offset="1" stop-color="#5200AB"/>
</radialGradient>
<radialGradient id="paint3_radial_1_6266" cx="0" cy="0" r="1" gradientUnits="userSpaceOnUse" gradientTransform="translate(53.5204 30.0501) scale(29.2759 29.2759)">
<stop stop-color="white"/>
<stop offset="1" stop-color="#623964"/>
</radialGradient>
<radialGradient id="paint4_radial_1_6266" cx="0" cy="0" r="1" gradientUnits="userSpaceOnUse" gradientTransform="translate(58.1782 40.6327) scale(10.1848)">
<stop stop-color="white"/>
<stop offset="1" stop-color="#623964"/>
</radialGradient>
<radialGradient id="paint5_radial_1_6266" cx="0" cy="0" r="1" gradientUnits="userSpaceOnUse" gradientTransform="translate(51.9145 39.6899) scale(10.732 10.732)">
<stop stop-color="white"/>
<stop offset="1" stop-color="#623964"/>
</radialGradient>
<radialGradient id="paint6_radial_1_6266" cx="0" cy="0" r="1" gradientUnits="userSpaceOnUse" gradientTransform="translate(44.3237 29.354) scale(24.7904 24.7904)">
<stop stop-color="white"/>
<stop offset="1" stop-color="#623964"/>
</radialGradient>
<radialGradient id="paint7_radial_1_6266" cx="0" cy="0" r="1" gradientUnits="userSpaceOnUse" gradientTransform="translate(33.7273 19.7183) scale(42.0313 42.0313)">
<stop stop-color="white"/>
<stop offset="1" stop-color="#623964"/>
</radialGradient>
<radialGradient id="paint8_radial_1_6266" cx="0" cy="0" r="1" gradientUnits="userSpaceOnUse" gradientTransform="translate(49.3058 26.3756) scale(58.5654 58.5654)">
<stop stop-color="white"/>
<stop offset="1" stop-color="#623964"/>
</radialGradient>
<radialGradient id="paint9_radial_1_6266" cx="0" cy="0" r="1" gradientUnits="userSpaceOnUse" gradientTransform="translate(31.0441 26.8067) scale(98.9438 98.9438)">
<stop stop-color="white"/>
<stop offset="1" stop-color="#623964"/>
</radialGradient>
<radialGradient id="paint10_radial_1_6266" cx="0" cy="0" r="1" gradientUnits="userSpaceOnUse" gradientTransform="translate(60.7027 112.978) scale(77.982 77.982)">
<stop stop-color="#FFFF4A"/>
<stop offset="1" stop-color="#360038"/>
</radialGradient>
<radialGradient id="paint11_radial_1_6266" cx="0" cy="0" r="1" gradientUnits="userSpaceOnUse" gradientTransform="translate(29.9947 143.065) scale(8.41641 8.41641)">
<stop stop-color="#6D00C2"/>
<stop offset="0.3995" stop-color="#6600BC"/>
<stop offset="0.976" stop-color="#5300AC"/>
<stop offset="1" stop-color="#5200AB"/>
</radialGradient>
<radialGradient id="paint12_radial_1_6266" cx="0" cy="0" r="1" gradientUnits="userSpaceOnUse" gradientTransform="translate(166.113 94.1285) scale(8.79075 8.79074)">
<stop stop-color="#1F0081"/>
<stop offset="0.73" stop-color="#260087"/>
<stop offset="1" stop-color="#2A008B"/>
</radialGradient>
<linearGradient id="paint13_linear_1_6266" x1="36.4487" y1="57.045" x2="47.8342" y2="57.045" gradientUnits="userSpaceOnUse">
<stop stop-color="#BDFFE8"/>
<stop offset="0.2005" stop-color="#8BBBAA"/>
<stop offset="0.4155" stop-color="#5A796E"/>
<stop offset="0.6108" stop-color="#33453F"/>
<stop offset="0.7795" stop-color="#171F1D"/>
<stop offset="0.9148" stop-color="#060808"/>
<stop offset="1"/>
</linearGradient>
<linearGradient id="paint14_linear_1_6266" x1="9.31402" y1="68.0088" x2="59.6861" y2="68.0088" gradientUnits="userSpaceOnUse">
<stop stop-color="#BDFFE8"/>
<stop offset="0.2005" stop-color="#8BBBAA"/>
<stop offset="0.4155" stop-color="#5A796E"/>
<stop offset="0.6108" stop-color="#33453F"/>
<stop offset="0.7795" stop-color="#171F1D"/>
<stop offset="0.9148" stop-color="#060808"/>
<stop offset="1"/>
</linearGradient>
</defs>
</svg>
