<svg width="121" height="113" viewBox="0 0 121 113" fill="none" xmlns="http://www.w3.org/2000/svg">
<path d="M64.8219 9.03226C64.5019 9.95226 63.3119 10.1823 62.3319 10.2023C62.1519 10.2023 61.9619 10.2123 61.7819 10.2123C61.2219 10.2123 60.6519 10.2023 60.0919 10.1623C57.3519 10.0023 54.6419 9.43226 52.0719 8.47226C51.4619 8.24226 50.8519 7.98227 50.3719 7.54227C47.6019 5.00227 52.6419 3.57228 54.4819 3.67228C54.6619 3.68228 54.8319 3.69227 55.0119 3.70227C55.5319 3.74227 56.0519 3.80229 56.5619 3.87229C59.0619 4.23229 61.4219 5.04226 63.5319 6.59226C64.3319 7.18226 65.1419 8.10226 64.8219 9.03226Z" fill="#38778A"/>
<path d="M56.1519 9.17228C57.4319 9.61228 58.7519 9.94229 60.0919 10.1523C57.3519 9.99229 54.6419 9.42228 52.0719 8.46228C51.4619 8.23228 50.8519 7.97226 50.3719 7.53226C47.6019 4.99226 52.6419 3.56227 54.4819 3.66227C54.6619 3.67227 54.8319 3.68226 55.0119 3.69226C54.9719 3.70226 54.9319 3.70227 54.8919 3.70227C54.1919 3.74227 53.4919 3.80226 52.8219 4.00226C52.5619 4.08226 52.2919 4.20226 52.0419 4.34226C51.3719 4.73226 50.8719 5.35227 51.0919 6.20227C51.3019 7.00227 52.3019 7.42227 52.9719 7.79227C53.9819 8.37227 55.0619 8.80228 56.1519 9.17228Z" fill="#384769"/>
<path d="M64.8219 9.03226C64.5019 9.95226 63.3119 10.1823 62.3319 10.2023C62.1519 10.2023 61.9619 10.2123 61.7819 10.2123C61.9119 10.1923 62.0419 10.1723 62.1719 10.1423C62.8219 9.99227 63.4819 9.62227 63.6819 8.98227C63.8319 8.51227 63.6819 7.99225 63.4119 7.59225C63.1419 7.19225 62.7419 6.88226 62.3419 6.60226C61.8319 6.24226 61.3119 5.90225 60.7619 5.59225C59.8019 5.04225 58.7819 4.58226 57.7419 4.22226C57.4119 4.10226 56.9219 4.04228 56.5519 3.87228C59.0519 4.23228 61.4119 5.04225 63.5219 6.59225C64.3319 7.18225 65.1419 8.10226 64.8219 9.03226Z" fill="#29E1C2"/>
<path d="M111.812 52.9423C111.362 53.6423 110.582 54.4123 109.752 54.1023C109.562 54.0323 109.412 53.9223 109.292 53.7823C110.002 53.7123 110.612 53.4223 111.102 52.9023C111.662 52.3023 111.962 51.5423 112.192 50.7723C112.512 49.7023 112.902 48.6523 113.142 47.5723C113.582 45.6023 113.702 43.5723 113.502 41.5523C113.322 39.6623 112.992 37.6623 112.122 35.9123C111.812 35.2723 111.312 34.5423 110.772 34.0023C110.712 33.9423 110.652 33.8823 110.582 33.8223C110.132 33.4223 109.532 33.1423 108.932 33.2123C108.922 33.2123 108.922 33.2123 108.922 33.2123C110.162 32.3023 111.732 33.3623 112.542 34.4623C113.902 36.2923 114.512 38.5123 114.722 40.7023C115.142 44.9623 114.112 49.3123 111.812 52.9423Z" fill="#384769"/>
<path d="M118.992 75.1623C116.652 84.7623 110.032 92.8923 102.202 98.9223C86.9419 110.682 66.4119 114.862 47.6419 110.992C31.4119 107.652 13.1419 95.1323 5.63189 80.2023C4.32189 77.5923 3.25189 74.8723 2.41189 72.0723C-0.0681138 63.8223 -0.548114 54.9423 0.571886 46.3623C0.631886 45.9123 0.691887 45.4623 0.761887 45.0123C1.71189 38.6923 3.66189 32.3923 6.55189 26.6123C11.8319 16.0223 20.2319 7.19226 31.2719 3.28226C43.8319 -1.16774 57.6319 1.22227 70.7419 3.85227C71.1319 3.93227 71.5119 4.00228 71.8919 4.08228C78.9519 5.50228 86.3219 7.11228 92.9519 9.89228C98.8019 12.3423 104.072 15.7023 108.052 20.6423C109.352 22.2523 110.452 23.9623 111.412 25.7623C114.962 32.4223 116.452 40.2023 117.832 47.7123C119.522 56.8023 121.182 66.2023 118.992 75.1623Z" fill="#38778A"/>
<path d="M118.992 75.1623C116.652 84.7623 110.032 92.8923 102.202 98.9223C86.9419 110.682 66.4119 114.862 47.6419 110.992C31.4119 107.652 13.1419 95.1323 5.63189 80.2023C4.32189 77.5923 3.25189 74.8723 2.41189 72.0723C-0.0681138 63.8223 -0.548114 54.9423 0.571886 46.3623C1.87189 53.2123 5.45189 59.7023 9.43189 65.5423C12.5519 70.1223 16.0619 74.6023 20.7519 77.5623C26.4919 81.1823 33.1019 82.6223 39.6719 83.1523C47.2419 83.7523 54.3019 85.7723 61.6419 82.5023C65.9319 80.5923 69.3919 77.2323 73.4219 74.8323C78.1819 71.9923 83.6619 70.5223 88.3619 67.6023C93.7319 64.2623 97.7519 58.9623 99.8419 53.0223C100.002 52.5723 100.152 52.1123 100.282 51.6623C102.052 45.6223 101.342 39.9323 99.9819 33.8123C98.8919 28.8823 99.7719 23.5923 97.7119 19.0223C96.2919 15.8723 94.7519 12.8223 92.9519 9.90228C98.8019 12.3523 104.072 15.7123 108.052 20.6523C109.352 22.2623 110.452 23.9723 111.412 25.7723C114.962 32.4323 116.452 40.2123 117.832 47.7223C119.522 56.8023 121.182 66.2023 118.992 75.1623Z" fill="#384769"/>
<path d="M81.8219 37.2323C81.1319 39.3223 79.6019 41.0123 78.1119 42.6423C75.0519 45.9723 71.8619 49.4023 67.7219 51.2223C64.7319 52.5423 61.4119 52.9523 58.3819 54.1723C53.9919 55.9423 51.1919 59.6723 46.5319 60.9123C40.9719 62.4023 35.2219 62.5123 30.5719 58.5623C28.2819 56.6123 26.5619 53.9623 23.9619 52.4423C21.6519 51.0923 18.8919 50.7923 16.3419 49.9323C12.2419 48.5523 9.83188 44.6523 8.50189 40.7123C6.97189 36.2023 6.32188 31.3923 6.56188 26.6223C11.8419 16.0323 20.2419 7.20227 31.2819 3.29227C43.8419 -1.15773 57.6419 1.23228 70.7519 3.86228C73.7619 6.74228 76.2519 10.2423 78.0519 14.0623C80.4519 19.1723 81.3019 25.2623 82.0219 30.8323C82.2919 32.9623 82.4919 35.1823 81.8219 37.2323Z" fill="#00A89D"/>
<path d="M92.3819 14.8223C92.0419 15.2023 91.4319 15.1423 90.9219 15.0323C90.0619 14.8323 89.2219 14.5523 88.4019 14.2223C88.0419 14.0723 87.6819 13.9223 87.3319 13.7523C86.4619 13.3423 85.6219 12.8723 84.8019 12.3823C84.1419 11.9823 82.5019 10.9623 83.4619 10.1223C84.1719 9.5023 85.5319 9.52228 86.4219 9.64228C87.0719 9.73228 87.6719 9.95228 88.2319 10.2323C88.6119 10.4223 88.9719 10.6323 89.3419 10.8623C89.5419 10.9823 89.7419 11.1123 89.9419 11.2423C90.7019 11.7323 91.3919 12.3223 91.9819 12.9923C92.2119 13.2523 92.4219 13.5223 92.5319 13.8523C92.6419 14.1723 92.6119 14.5623 92.3819 14.8223Z" fill="#384769"/>
<path d="M118.992 75.1623C116.652 84.7623 110.032 92.8923 102.202 98.9223C86.9419 110.682 66.4119 114.862 47.6419 110.992C31.4119 107.652 13.1419 95.1323 5.63188 80.2023C4.32188 77.5923 3.25188 74.8723 2.41188 72.0723C4.82188 74.4323 7.07188 76.9923 9.45188 79.3623C17.2519 87.3123 25.6419 94.7523 36.6819 97.6523C43.2319 99.3723 49.0919 101.242 56.0219 100.652C62.8019 100.072 69.5019 97.9023 75.3319 94.3923C80.2819 91.4123 84.6319 87.4423 89.8719 84.9923C93.2419 83.4123 97.0319 82.6723 100.272 80.8623C103.302 79.1723 104.962 76.1323 106.232 73.0123C109.222 65.6523 111.162 57.8723 112.052 49.9723C112.952 41.9223 112.752 33.7523 111.422 25.7623C114.972 32.4223 116.462 40.2023 117.842 47.7123C119.522 56.8023 121.182 66.2023 118.992 75.1623Z" fill="#452E61"/>
<path d="M67.0919 51.9323L67.2819 51.9123C67.2319 51.9223 67.1819 51.9323 67.1319 51.9423C66.9519 51.9823 66.7819 51.9923 66.6019 51.9923L67.0919 51.9323Z" fill="#384769"/>
<path d="M85.2619 38.7023C84.7219 42.8423 82.4419 46.7523 79.1619 49.3123C76.6819 51.2523 73.6419 52.4123 70.3419 52.3223C69.2619 52.2923 68.1819 52.1623 67.1319 51.9323C67.1219 51.9323 67.1019 51.9323 67.0919 51.9223C66.0619 51.7023 65.0519 51.4023 64.0719 51.0223C63.9519 50.9823 63.8319 50.9323 63.7119 50.8823C60.1719 49.4323 57.8219 44.9423 57.5319 41.2523C57.2019 37.0223 59.1019 32.7523 62.2519 29.9223C65.4019 27.0823 69.7019 25.6523 73.9419 25.6823C75.1319 25.6923 76.4319 25.9323 77.7119 26.3723C80.7619 27.4223 83.6719 29.5923 84.6519 32.4123C85.3619 34.4723 85.5319 36.6223 85.2619 38.7023Z" fill="#38778A"/>
<path d="M77.7119 26.3823C74.8919 26.2723 72.0419 26.8123 69.4919 28.0223C65.7319 29.8023 62.6619 33.0523 61.2719 36.9723C59.8819 40.8923 60.2419 45.4323 62.3819 48.9923C62.8319 49.7523 63.3819 50.4723 64.0619 51.0223C63.9419 50.9823 63.8219 50.9323 63.7019 50.8823C60.1619 49.4323 57.8119 44.9423 57.5219 41.2523C57.1919 37.0223 59.0919 32.7523 62.2419 29.9223C65.3919 27.0823 69.6919 25.6523 73.9319 25.6823C75.1319 25.7023 76.4319 25.9423 77.7119 26.3823Z" fill="#384769"/>
<path d="M83.5119 44.5623C81.3719 48.3823 77.4019 51.1323 73.0719 51.7723C76.9419 50.3823 80.2519 47.4723 82.1319 43.8123C83.1019 41.9223 83.6819 39.8423 83.8619 37.7323C83.9519 36.6623 83.9419 35.5823 83.8219 34.5123C83.7219 33.6123 83.3219 32.6023 83.3519 31.7323C85.1519 31.9923 85.2819 35.8523 85.3119 37.1723C85.3719 39.7323 84.7619 42.3123 83.5119 44.5623Z" fill="#00A89D"/>
<path d="M45.4219 46.4823C45.3719 46.8523 45.2819 47.2023 45.1719 47.5523C44.8119 48.6823 44.1719 49.7223 43.4919 50.7023C42.8519 51.6223 42.0419 52.6022 40.9319 52.7222C39.8019 52.8522 38.7819 52.0623 37.9619 51.2723C37.3819 50.7123 36.8219 50.0423 36.3719 49.2923C35.3519 47.5923 34.9419 45.5423 36.3619 43.8523C37.6719 42.2823 41.5719 41.3923 43.3619 42.1723C44.9919 42.8823 45.6419 44.8123 45.4219 46.4823Z" fill="#38778A"/>
<path d="M45.4219 46.4823C45.3719 46.8523 45.2819 47.2023 45.1719 47.5523C45.1519 47.5723 45.1319 47.5923 45.1119 47.6123C45.5419 46.3323 44.9619 44.8123 43.8619 44.0223C42.7619 43.2323 41.2419 43.1323 39.9819 43.6423C38.7219 44.1423 37.7219 45.1922 37.1319 46.4122C36.7519 47.2022 36.5219 48.0523 36.4219 48.9223C36.4019 49.0623 36.3919 49.1823 36.3619 49.2923C35.3419 47.5923 34.9319 45.5423 36.3519 43.8523C37.6619 42.2823 41.5619 41.3923 43.3519 42.1723C44.9919 42.8823 45.6419 44.8123 45.4219 46.4823Z" fill="#384769"/>
<path d="M31.0619 10.7923C30.9819 11.1923 30.7919 11.6423 30.6119 11.9923C30.4219 12.3623 30.0619 12.7022 29.8019 13.0322C29.5119 13.3822 29.2319 13.7422 28.9519 14.0922C28.3819 14.8022 27.8119 15.5023 27.2419 16.2123C26.1219 17.6123 25.0119 19.0123 23.9319 20.4423C23.2519 21.3423 22.5019 22.0023 21.5219 22.5523C20.5419 23.0923 19.3919 23.3123 18.2919 23.1623C18.2219 23.1523 18.1419 23.1423 18.0719 23.1523C18.0019 23.0523 17.9419 22.9523 17.8819 22.8323C17.8619 22.7823 17.8319 22.7323 17.8119 22.6723C17.4419 21.7123 17.7019 20.6223 18.0519 19.6523C19.3319 16.1123 21.8219 13.0323 24.9719 10.9823C25.5119 10.6323 26.5219 10.0523 27.6319 9.60226C28.0719 9.42226 28.5219 9.26228 28.9719 9.15228C29.1319 9.14228 29.3019 9.14228 29.4619 9.15228C29.6519 9.16228 29.8519 9.18226 30.0419 9.23226C30.3619 9.31226 30.6619 9.45225 30.8619 9.72225C31.0919 10.0223 31.1319 10.4323 31.0619 10.7923Z" fill="#38778A"/>
<path d="M31.0619 10.7923C30.9819 11.1923 30.7919 11.6423 30.6119 11.9923C30.4219 12.3623 30.0619 12.7022 29.8019 13.0322C29.5119 13.3822 29.2319 13.7422 28.9519 14.0922C28.3819 14.8022 27.8119 15.5023 27.2419 16.2123C26.1219 17.6123 25.0119 19.0123 23.9319 20.4423C23.2519 21.3423 22.5019 22.0023 21.5219 22.5523C20.5419 23.0923 19.3919 23.3123 18.2919 23.1623C18.2219 23.1523 18.1419 23.1423 18.0719 23.1523C18.0019 23.0523 17.9419 22.9523 17.8819 22.8323C17.8319 22.4423 17.9019 21.9423 18.0419 21.4323C18.2719 20.5723 18.6719 19.7023 18.8219 19.3923C19.1619 18.7523 19.5219 18.1223 19.9219 17.5123C20.2119 17.0723 20.5119 16.6423 20.8219 16.2123C21.8019 14.9023 22.9019 13.7023 24.0819 12.5723C25.1919 11.5223 26.3519 10.4422 27.6319 9.59225L28.9719 9.14227C29.1319 9.13227 29.3019 9.13227 29.4619 9.14227C29.6519 9.15227 29.8519 9.17225 30.0419 9.22225C30.3619 9.30225 30.6619 9.44227 30.8619 9.71227C31.0919 10.0223 31.1319 10.4323 31.0619 10.7923Z" fill="#00A89D"/>
<path d="M31.5619 12.7523C29.6519 14.7623 28.0319 17.1123 26.3119 19.2823C25.7019 20.0523 25.0819 20.8423 24.3819 21.5623C23.6919 22.2623 22.9419 22.8923 22.0819 23.3623C21.0219 23.9423 19.3719 24.3023 18.3919 23.4923C18.2719 23.3923 18.1619 23.2823 18.0719 23.1523C18.1419 23.1423 18.2219 23.1523 18.2919 23.1623C19.4019 23.3123 20.5519 23.0923 21.5219 22.5523C22.5019 22.0123 23.2519 21.3523 23.9319 20.4423C25.0119 19.0123 26.1219 17.6123 27.2419 16.2123C27.8119 15.5023 28.3819 14.8023 28.9519 14.0923C29.2319 13.7423 29.5119 13.3823 29.8019 13.0323C30.0619 12.7023 30.4219 12.3623 30.6119 11.9923C30.7919 11.6423 30.9819 11.1923 31.0619 10.7923C31.1319 10.4223 31.0919 10.0123 30.8619 9.71228C30.6619 9.45228 30.3719 9.30226 30.0419 9.22226C29.8519 9.17226 29.6519 9.15227 29.4619 9.14227C29.3019 9.13227 29.1319 9.13227 28.9719 9.14227C30.5919 8.71227 32.1419 8.82227 32.6119 10.4523C32.9019 11.4523 32.1619 12.1223 31.5619 12.7523Z" fill="#29E1C2"/>
<path d="M111.812 52.9423C111.362 53.6423 110.582 54.4123 109.752 54.1023C109.562 54.0323 109.412 53.9223 109.292 53.7823C108.892 53.3023 108.882 52.5123 108.952 51.8623C109.172 49.8423 109.252 47.8123 109.172 45.7723C109.102 44.0323 109.012 42.2423 108.592 40.5223C108.342 39.4923 107.912 38.5123 107.812 37.4523C107.692 36.1823 107.702 34.3123 108.722 33.3623C108.792 33.3023 108.852 33.2423 108.922 33.2023C110.162 32.2923 111.732 33.3523 112.542 34.4523C113.902 36.2823 114.512 38.5023 114.722 40.6923C115.142 44.9623 114.112 49.3123 111.812 52.9423Z" fill="#452E61"/>
<path d="M107.652 85.5723C106.892 87.2423 105.862 88.7023 104.762 90.1723C102.872 92.7023 100.592 94.9523 98.0319 96.8023C95.2019 98.8523 92.0319 100.422 88.6719 101.372C87.2419 101.772 85.7319 102.162 84.2319 102.052C83.4619 102.002 81.8119 101.682 81.7919 100.862C84.4319 102.472 89.1919 100.302 91.6019 99.1323C93.4419 98.2423 95.1719 97.1423 96.7919 95.9023C99.8319 93.5723 102.462 90.7623 104.882 87.8023C106.202 86.1823 107.522 84.3723 108.102 82.4023C108.152 82.5423 108.182 82.7023 108.182 82.8823C108.222 83.8123 108.032 84.7323 107.652 85.5723Z" fill="#384769"/>
<path d="M18.8619 53.9523C18.8619 53.9823 18.8519 54.0123 18.8519 54.0523C18.7519 54.7323 18.5819 55.4223 18.1919 55.9923C17.5819 56.8923 16.6019 57.1023 15.5719 57.0423C14.2519 56.9623 12.8219 56.7523 11.5919 56.1723C11.2519 56.0123 10.9319 55.8323 10.6319 55.6023C10.6319 55.6023 10.6219 55.6023 10.6219 55.5922C10.4819 55.4922 10.3519 55.3923 10.2319 55.2723C9.80189 54.8823 9.45189 54.4123 9.15189 53.9223C8.93189 53.5523 8.76189 53.1323 8.53189 52.7623C8.51189 52.7123 8.49189 52.6623 8.48189 52.6223C8.47189 52.5923 8.46189 52.5623 8.45189 52.5323C7.55189 50.0123 7.46189 47.2023 7.06189 44.5823C6.72189 42.3923 8.50189 41.1623 10.7419 41.6823C12.4919 42.0823 13.8519 43.4523 14.9819 44.8523C15.5219 45.5223 16.0319 46.2123 16.5119 46.9223C17.2319 47.9923 17.8919 49.1023 18.4819 50.2523C18.6019 50.5023 18.7319 50.7523 18.8419 51.0023C18.8719 51.2123 18.9019 51.4223 18.9119 51.6423C18.9819 52.4023 18.9619 53.1823 18.8619 53.9523Z" fill="#384769"/>
<path d="M18.8619 53.9523C18.8619 53.9823 18.8519 54.0123 18.8519 54.0523C18.7519 54.7323 18.5819 55.4223 18.1919 55.9923C17.5819 56.8923 16.6019 57.1023 15.5719 57.0423C14.2519 56.9623 12.8219 56.7523 11.5919 56.1723C11.2619 55.9923 10.9419 55.8123 10.6319 55.6023C10.6319 55.6023 10.6219 55.6022 10.6219 55.5922C10.4819 55.4922 10.3519 55.3923 10.2319 55.2723C9.80189 54.8823 9.45189 54.4123 9.15189 53.9223C8.93189 53.5523 8.76189 53.1323 8.53189 52.7623C8.51189 52.7123 8.49189 52.6623 8.48189 52.6223C8.47189 52.5923 8.46189 52.5622 8.45189 52.5322C8.30189 51.6722 8.17189 50.8023 8.07189 49.9323C7.95189 48.8423 7.69189 47.8722 8.04189 46.7822C8.33189 45.8522 8.87189 45.0123 9.74189 44.5423C11.5219 43.5923 13.7719 44.6323 15.2119 45.7623C15.6619 46.1123 16.0919 46.5023 16.5019 46.9223C17.2219 47.9923 17.8819 49.1022 18.4719 50.2522C18.5919 50.5022 18.7219 50.7522 18.8319 51.0022C18.8619 51.2122 18.8919 51.4223 18.9019 51.6423C18.9819 52.4023 18.9619 53.1823 18.8619 53.9523Z" fill="#38778A"/>
<path d="M18.7619 57.1223C17.7119 58.3523 15.8919 58.6923 14.3219 58.3423C12.3719 57.9123 10.7619 56.5823 9.64189 54.9023C9.19189 54.2323 8.82189 53.5023 8.54189 52.7623C8.77189 53.1323 8.94189 53.5423 9.16189 53.9223C9.46189 54.4123 9.81189 54.8823 10.2419 55.2723C10.3719 55.3923 10.5019 55.4923 10.6319 55.5923L10.6419 55.6023C10.9419 55.8223 11.2619 56.0123 11.6019 56.1723C12.8319 56.7523 14.2619 56.9623 15.5819 57.0423C16.6119 57.1023 17.5819 56.8923 18.2019 55.9923C18.5919 55.4223 18.7619 54.7323 18.8619 54.0523C18.8619 54.0223 18.8719 53.9923 18.8719 53.9523C18.9719 53.1823 18.9919 52.4023 18.9219 51.6223C18.9019 51.4123 18.8819 51.2023 18.8519 50.9823C19.0219 51.3523 19.1819 51.7323 19.3119 52.1223C19.4819 52.6223 19.6119 53.1423 19.6819 53.6723C19.8119 54.9023 19.5619 56.2023 18.7619 57.1223Z" fill="#29E1C2"/>
<path d="M67.3919 67.4323C67.3619 67.6423 67.3319 67.8423 67.2919 68.0523C66.7119 70.8823 64.6119 73.5123 61.7319 74.2123C60.0319 74.6323 58.2519 74.6823 56.5119 74.5523C56.5019 74.5523 56.4819 74.5523 56.4719 74.5523C56.2019 74.5323 55.9319 74.5023 55.6619 74.4723C55.4219 74.4423 55.1919 74.4023 54.9519 74.3523C54.5219 74.2623 54.1019 74.1323 53.7119 73.9423C52.9519 73.5923 52.1819 73.2123 51.8819 72.3623C51.4719 71.2323 52.2319 69.9723 53.2219 69.2823C54.2119 68.6023 55.4119 68.2923 56.4819 67.7523C57.5719 67.2023 58.5219 66.4123 59.6019 65.8423C61.2919 64.9323 63.2719 64.5723 65.1619 64.8323C66.4219 65.0023 67.2419 65.5323 67.4019 66.5923C67.4319 66.8323 67.4319 67.1223 67.3919 67.4323Z" fill="#38778A"/>
<path d="M67.3919 66.5823C67.2719 66.5023 67.1519 66.4223 67.0319 66.3423C65.8419 65.5723 64.2319 65.8923 62.9819 66.5523C61.7319 67.2123 60.6419 68.1823 59.3419 68.7423C57.9019 69.3623 56.2319 69.4823 54.9519 70.3923C54.3919 70.7823 53.9219 71.3623 53.8519 72.0423C53.7819 72.7723 54.1919 73.4523 54.7419 73.8923C54.9419 74.0523 55.3319 74.2323 55.6619 74.4623C55.4219 74.4323 55.1919 74.3923 54.9519 74.3423C54.5219 74.2523 54.1019 74.1223 53.7119 73.9323C52.9519 73.5823 52.1819 73.2023 51.8819 72.3523C51.4719 71.2223 52.2319 69.9623 53.2219 69.2723C54.2119 68.5923 55.4119 68.2823 56.4819 67.7423C57.5719 67.1923 58.5219 66.4023 59.6019 65.8323C61.2919 64.9223 63.2719 64.5623 65.1619 64.8223C66.4019 64.9923 67.2319 65.5223 67.3919 66.5823Z" fill="#384769"/>
<path d="M67.2819 68.0523C66.7019 70.8823 64.6019 73.5123 61.7219 74.2123C60.0219 74.6323 58.2419 74.6823 56.5019 74.5523C56.4919 74.5523 56.4719 74.5523 56.4619 74.5523C57.5419 74.4523 58.6319 74.3123 59.6919 74.0523C60.0819 73.9523 60.4619 73.8423 60.8319 73.7123C61.4419 73.5023 62.0919 73.2623 62.6919 73.0023C63.3519 72.7123 63.9819 72.1123 64.5019 71.6223C65.5919 70.5723 66.4819 69.3423 67.2819 68.0523Z" fill="#00A89D"/>
<path d="M23.0319 86.8823C23.7119 88.3123 25.1219 89.3123 26.6419 89.7823C28.1619 90.2523 29.7819 90.2523 31.3619 90.1123C31.7019 89.5023 31.6919 88.7023 31.3419 88.1023C31.0319 87.5623 30.4919 87.2023 29.9719 86.8623C28.6819 86.0223 27.2419 84.7323 25.6319 84.7023C24.2119 84.6723 22.1319 85.0023 23.0319 86.8823Z" fill="#452E61"/>
<path d="M96.1819 68.6623C95.9519 69.1323 95.7319 69.6923 95.9719 70.1623C96.1419 70.5023 96.5019 70.6923 96.8619 70.8223C97.9919 71.2023 99.2519 71.0623 100.332 70.5723C101.412 70.0823 102.332 69.2723 103.082 68.3523C103.862 67.4023 104.492 66.2923 104.672 65.0823C104.982 63.0523 102.772 59.2923 100.482 61.2923C99.6919 61.9823 99.2119 63.3523 98.6619 64.2323C97.7619 65.6623 96.9219 67.1323 96.1819 68.6623Z" fill="#452E61"/>
<path d="M86.4319 9.63225C87.0819 9.72225 87.6819 9.94225 88.2419 10.2222C88.1719 10.2022 88.1019 10.1923 88.0319 10.1723C87.5319 10.0723 87.0219 10.0023 86.5219 9.95226C86.0319 9.90226 85.4619 10.0123 85.1319 10.4323C84.8519 10.7923 84.8919 11.3323 85.1119 11.7323C85.3119 12.1023 85.6119 12.4123 85.9519 12.7023C86.3019 13.0023 86.7019 13.2622 87.0419 13.5022C87.1519 13.5722 87.2519 13.6522 87.3519 13.7522C86.4819 13.3422 85.6419 12.8722 84.8219 12.3822C84.1619 11.9822 82.5219 10.9623 83.4819 10.1223C84.1919 9.49227 85.5519 9.51225 86.4319 9.63225Z" fill="#452E61"/>
<path d="M92.3819 14.8223C92.0419 15.2023 91.4319 15.1423 90.9219 15.0323C90.0619 14.8323 89.2219 14.5523 88.4019 14.2223H88.4119C88.8619 14.2523 89.2819 14.4223 89.7119 14.5323C89.9619 14.5923 90.2219 14.6323 90.4919 14.6223C90.7219 14.6223 90.9619 14.5923 91.1819 14.5523C91.6619 14.4423 91.7519 13.9923 91.6319 13.5723C91.4719 12.9623 90.9819 12.3523 90.5219 11.9223C90.1319 11.5623 89.7319 11.2123 89.3319 10.8623C89.5319 10.9823 89.7319 11.1123 89.9319 11.2423C90.6919 11.7323 91.3819 12.3223 91.9719 12.9923C92.2019 13.2523 92.4119 13.5223 92.5219 13.8523C92.6419 14.1723 92.6119 14.5623 92.3819 14.8223Z" fill="#00A89D"/>
<path d="M56.9219 109.402C57.9619 109.102 58.9919 108.702 59.8319 108.032C60.6719 107.352 61.3119 106.362 61.3419 105.282C59.0319 107.352 56.2019 109.032 53.1119 109.222C50.7019 109.372 46.2519 108.082 45.6519 105.322C44.7219 106.972 46.0919 108.092 47.4219 108.812C48.7519 109.532 50.2419 109.902 51.7519 110.002C53.4919 110.112 55.2519 109.882 56.9219 109.402Z" fill="#384769"/>
<path d="M23.6019 28.2323C22.7019 31.8523 25.9219 35.5022 29.5619 36.3122C36.1919 37.7722 45.7019 31.5222 50.2919 27.8122C52.4619 26.0622 54.6319 23.8523 54.8119 21.0723C54.9619 18.7323 53.6619 16.5522 52.2219 14.6922C50.6719 12.6822 48.7719 10.7423 46.3219 10.1023C43.6519 9.41225 40.7719 10.4223 38.5919 12.1023C35.4119 14.5523 33.5619 18.2923 30.5819 20.9523C28.1319 23.1523 24.4619 24.7523 23.6019 28.2323Z" fill="#29E1C2"/>
<path d="M59.0119 16.1923C60.2419 16.2923 61.5719 16.2922 62.5919 15.5922C63.9119 14.6722 64.2519 12.7223 63.5619 11.2623C62.6019 9.24226 58.5819 7.09225 57.0419 9.50225C55.6419 11.7122 56.1219 15.9623 59.0119 16.1923Z" fill="#29E1C2"/>
<path d="M24.8319 62.8923C22.4219 61.9423 21.4619 65.7523 23.8619 66.4223C26.1719 67.0623 27.1719 63.5423 24.8319 62.8923Z" fill="#00A89D"/>
<path d="M33.7819 65.6623C32.5619 65.6623 32.5619 67.5623 33.7819 67.5623C35.0019 67.5623 35.0019 65.6623 33.7819 65.6623Z" fill="#00A89D"/>
<path d="M82.8119 59.9023C81.4819 59.4823 79.8219 60.7523 80.3919 62.5423C80.9219 64.2223 82.8519 64.5323 83.9119 63.4723C84.8719 62.5123 84.8519 60.5523 82.8119 59.9023Z" fill="#00A89D"/>
<path d="M92.3819 49.5623C92.0019 49.1823 91.3519 49.1823 90.9719 49.5623C90.2019 50.3423 90.7719 51.4723 91.6719 51.4723C92.5819 51.4723 93.1619 50.3423 92.3819 49.5623Z" fill="#00A89D"/>
<path d="M87.3219 20.5623C87.0019 20.2623 86.6019 20.0823 86.1619 20.0823C84.6319 20.0823 84.0019 21.9723 85.0019 22.8923C86.7019 24.4523 88.8119 21.9223 87.3219 20.5623Z" fill="#00A89D"/>
<path d="M45.9019 92.6423C45.3219 92.6723 44.8519 93.0223 44.6819 93.5723C44.3519 94.6023 45.6319 95.6923 46.5819 94.9823C47.6619 94.3223 47.1019 92.5923 45.9019 92.6423Z" fill="#38778A"/>
<path d="M57.5519 92.9923C56.5819 92.1023 55.3819 92.3323 54.7219 92.9923C53.5119 94.1223 54.2719 96.4023 56.1319 96.4023C58.0219 96.4023 58.7619 94.0923 57.5519 92.9923Z" fill="#38778A"/>
<path d="M64.8919 85.1423C64.8919 85.8923 65.5019 86.4623 66.2119 86.4623C66.9119 86.4623 67.5219 85.8923 67.5319 85.1423C67.5119 83.3223 64.9019 83.3323 64.8919 85.1423Z" fill="#38778A"/>
<path d="M91.8619 77.5123C90.0619 77.5123 90.0619 80.3123 91.8619 80.3123C93.6619 80.3123 93.6619 77.5123 91.8619 77.5123Z" fill="#38778A"/>
<path d="M7.06188 67.4623C5.17188 67.4623 5.17188 70.3923 7.06188 70.3923C8.95188 70.3923 8.95188 67.4623 7.06188 67.4623Z" fill="#38778A"/>
<path d="M40.0219 75.3123C37.6919 75.3123 37.6819 78.9423 40.0219 78.9423C42.3519 78.9423 42.3519 75.3123 40.0219 75.3123Z" fill="#384769"/>
<path d="M92.4119 25.8323C91.8119 26.4323 91.9419 27.3623 92.4119 27.8023C93.4519 28.7523 94.8319 27.8723 94.7819 26.8223C94.7219 25.4623 93.2119 25.0323 92.4119 25.8323Z" fill="#384769"/>
<path d="M62.8219 58.0223C61.3719 58.0823 61.5519 60.2123 62.8219 60.1523C64.2719 60.0923 64.1019 57.9723 62.8219 58.0223Z" fill="#384769"/>
<path d="M12.9919 31.1623C12.9919 32.5923 15.1919 32.4023 15.1319 31.1623C15.0719 29.7923 12.9919 29.8523 12.9919 31.1623Z" fill="#29E1C2"/>
<path d="M49.9919 33.5123C48.4319 33.5123 48.4319 35.9323 49.9919 35.9323C51.5519 35.9423 51.5619 33.5123 49.9919 33.5123Z" fill="#29E1C2"/>
<path d="M25.4119 46.3923C23.6919 46.3923 23.6919 49.0623 25.4119 49.0623C27.1319 49.0623 27.1319 46.3923 25.4119 46.3923Z" fill="#29E1C2"/>
<path d="M50.8519 52.1623C50.4919 51.3623 48.9219 51.2723 48.6319 52.5723C48.3419 53.9123 49.8619 54.5923 50.6919 53.7723C51.0519 53.4023 51.1719 52.8823 50.8519 52.1623Z" fill="#29E1C2"/>
<path d="M73.6919 103.182C71.1119 103.182 71.1119 107.182 73.6919 107.182C76.2619 107.182 76.2719 103.182 73.6919 103.182Z" fill="#384769"/>
<path d="M111.642 70.9523C111.162 71.2123 110.842 71.8223 110.862 72.3123C110.882 72.4523 110.902 72.5923 110.922 72.7323C111.292 74.0823 113.272 74.3723 113.882 72.9223C114.522 71.6923 112.922 70.0723 111.642 70.9523Z" fill="#384769"/>
<path d="M114.712 59.6123C112.122 59.6123 112.122 63.6323 114.712 63.6323C117.292 63.6423 117.302 59.6123 114.712 59.6123Z" fill="#384769"/>
<path d="M90.1219 86.7123C88.5219 86.7123 88.5219 89.1923 90.1219 89.1923C91.7219 89.1923 91.7219 86.7123 90.1219 86.7123Z" fill="#384769"/>
<path d="M19.3119 92.2823C18.1919 92.2823 18.1819 94.0323 19.3119 94.0323C20.4319 94.0323 20.4319 92.2823 19.3119 92.2823Z" fill="#384769"/>
<path d="M36.5019 99.5123C34.4319 98.4123 32.7219 101.292 34.7119 102.582C35.2619 102.932 36.3419 102.982 37.0019 102.122C37.6419 101.422 37.5019 100.102 36.5019 99.5123Z" fill="#384769"/>
<path d="M77.8319 77.3923C75.5919 77.3923 75.5919 80.8723 77.8319 80.8723C80.0719 80.8723 80.0719 77.3923 77.8319 77.3923Z" fill="#452E61"/>
<path d="M105.222 24.5523C104.262 24.5523 103.512 25.3923 103.552 26.2223C103.602 27.4023 104.532 27.8923 105.222 27.8923C106.182 27.8923 106.932 27.0523 106.892 26.2223C106.842 25.0323 105.912 24.5523 105.222 24.5523Z" fill="#452E61"/>
</svg>
