<svg width="142" height="85" viewBox="0 0 142 85" fill="none" xmlns="http://www.w3.org/2000/svg">
<path d="M139.348 55.0693C135.798 61.4793 130.768 67.0593 124.758 71.2393C122.998 72.4693 121.058 73.5993 118.918 73.7393C116.398 73.8993 113.928 72.6493 111.418 72.8793C108.318 73.1693 105.908 75.5793 103.158 77.0393C100.478 78.4593 97.3581 78.8693 94.3781 78.3893C92.8881 78.1493 91.4381 77.6893 90.0881 77.0193C89.4981 76.7293 88.8281 76.4293 88.2881 76.0493C87.5081 75.5093 86.8281 74.7093 86.1281 74.0693C86.0381 73.9893 85.9481 73.9093 85.8481 73.8393C84.8181 72.5193 83.8581 71.1393 82.9181 69.7593C81.2581 67.3393 79.6281 64.8793 77.9781 62.4493C76.6681 60.5193 75.1281 58.4293 72.8381 57.9593C68.9481 57.1593 65.6981 61.4593 61.7281 61.6293C58.7281 61.7593 56.1181 59.5193 53.1481 59.1093C50.3781 58.7293 47.6681 59.9793 45.2281 61.3393C42.7881 62.7093 40.3381 64.2593 37.5681 64.5793C34.6581 64.9193 31.7481 63.8493 28.8181 63.9193C26.8281 63.9693 24.8681 64.5893 23.1681 65.6293C22.8181 65.8393 22.4781 66.0793 22.1581 66.3293C20.4481 67.6493 19.7481 69.2093 17.6381 69.8593C16.8081 70.1093 15.9881 70.3393 15.1581 70.5293C13.8081 70.3693 12.4381 70.0793 11.0381 69.5993C7.7381 68.4993 5.13812 66.6093 2.58812 64.3093C1.27812 63.1293 0.558104 61.8893 0.228104 60.4793C-0.0518956 59.2793 -0.0518907 57.9693 0.108109 56.4693C0.398109 53.7793 0.898109 51.1193 1.60811 48.5193C1.88811 47.4893 2.19811 46.4593 2.54811 45.4493C3.12811 43.7293 3.77812 41.6793 4.64812 39.8193C5.30812 38.4393 6.0881 37.1693 7.0681 36.2293C9.3981 34.0093 11.2281 32.2393 12.6381 29.2393C13.9381 26.4793 14.8281 23.5493 16.1981 20.8193C21.7881 9.61927 33.9481 2.02927 46.4581 1.89927C59.3681 1.76927 71.8381 8.91928 84.6381 7.23928C93.6381 6.05928 101.818 0.599281 110.888 0.409281C113.188 0.359281 115.468 0.669277 117.668 1.27928C120.188 1.96928 122.598 3.05927 124.838 4.44927C127.308 5.98927 129.568 7.89927 131.488 10.0693C136.678 15.9293 139.628 23.5293 140.898 31.2493C142.208 39.1493 141.688 47.4293 139.348 55.0693Z" fill="#38778A"/>
<path d="M139.348 55.0693C135.798 61.4793 130.768 67.0593 124.758 71.2393C122.998 72.4693 121.058 73.5993 118.918 73.7393C116.398 73.8993 113.928 72.6493 111.418 72.8793C108.318 73.1693 105.908 75.5793 103.158 77.0393C100.478 78.4593 97.3581 78.8693 94.3781 78.3893C92.8881 78.1493 91.4381 77.6893 90.0881 77.0193C89.4981 76.7293 88.8281 76.4293 88.2881 76.0493C87.5081 75.5093 86.8281 74.7093 86.1281 74.0693C86.0381 73.9893 85.9481 73.9093 85.8481 73.8393C84.8181 72.5193 83.8581 71.1393 82.9181 69.7593C81.2581 67.3393 79.6281 64.8793 77.9781 62.4493C76.6681 60.5193 75.1281 58.4293 72.8381 57.9593C68.9481 57.1593 65.6981 61.4593 61.7281 61.6293C58.7281 61.7593 56.1181 59.5193 53.1481 59.1093C50.3781 58.7293 47.6681 59.9793 45.2281 61.3393C42.7881 62.7093 40.3381 64.2593 37.5681 64.5793C34.6581 64.9193 31.7481 63.8493 28.8181 63.9193C26.8281 63.9693 24.8681 64.5893 23.1681 65.6293C22.8181 65.8393 22.4781 66.0793 22.1581 66.3293C20.4481 67.6493 19.7481 69.2093 17.6381 69.8593C16.8081 70.1093 15.9881 70.3393 15.1581 70.5293C13.8081 70.3693 12.4381 70.0793 11.0381 69.5993C7.7381 68.4993 5.13812 66.6093 2.58812 64.3093C1.27812 63.1293 0.558104 61.8893 0.228104 60.4793C-0.0518956 59.2793 -0.0518907 57.9693 0.108109 56.4693C0.398109 53.7793 0.898109 51.1193 1.60811 48.5193C2.41811 50.2993 3.60811 51.9093 5.07811 53.1993C6.71811 54.6393 9.3881 54.8193 11.4781 54.9193C13.4181 55.0193 15.4181 55.0193 17.2481 54.3393C21.0981 52.8993 21.4681 47.2993 25.5681 46.4693C27.9981 45.9793 30.2281 47.7493 32.3981 48.9593C35.1381 50.4793 38.2181 50.9993 41.3081 50.5593C42.5481 50.3793 43.5381 50.3793 44.6581 49.7993C46.0881 49.0593 47.5281 48.3393 49.0581 47.8193C51.1081 47.1193 53.3281 46.7693 55.4581 47.1393C56.8581 47.3893 58.1781 47.9293 59.5381 48.3293C60.8981 48.7293 62.3481 48.9893 63.7281 48.6393C65.1081 48.2893 66.3681 47.2193 66.5681 45.8193C66.8381 43.8993 65.1581 41.9693 65.8381 40.1593C66.2681 38.9993 67.5281 38.3893 68.6981 37.9993C71.4281 37.0893 74.8181 36.6193 77.6881 37.0493C78.8581 37.2293 80.0181 37.6393 80.9681 38.3693C81.8981 39.0893 82.5181 39.9993 83.5981 40.5693C84.7381 41.1693 85.9581 41.5893 87.2081 41.8593C89.3181 42.3193 91.5281 42.3393 93.6481 42.0193C98.3181 41.3193 102.608 39.1493 106.818 37.0193C109.008 35.9093 111.668 34.6293 113.238 32.5993C113.558 32.1793 113.838 31.7393 114.048 31.2493C115.178 28.6993 115.528 25.4793 117.938 23.7393C120.078 22.1893 123.148 21.6793 125.618 20.5093C127.598 19.5793 129.188 18.2293 129.618 15.5893C130.148 12.3093 128.548 8.75928 126.458 6.30928C125.948 5.69928 125.378 5.09928 124.868 4.47928C127.338 6.01928 129.598 7.92927 131.518 10.0993C136.708 15.9593 139.658 23.5593 140.928 31.2793C142.208 39.1493 141.688 47.4293 139.348 55.0693Z" fill="#384769"/>
<path d="M117.678 1.28928C117.598 3.14928 116.458 4.97928 114.728 5.67928C111.768 6.86928 108.268 4.65929 105.278 5.76929C103.218 6.52929 102.018 8.63928 100.428 10.1493C97.6081 12.8293 93.4281 13.6693 89.5681 13.2693C86.3681 12.9293 83.3881 11.8093 80.4081 10.6693C78.2281 9.83929 75.7781 9.57929 73.4981 8.85929C70.3081 7.84929 67.1781 7.13929 63.9081 6.55929C61.1981 6.07929 58.4981 5.96929 56.7081 8.54929C55.7981 9.85929 55.2281 11.6993 53.6881 12.0993C52.3681 12.4393 51.1081 11.5093 49.9281 10.8293C47.7081 9.56929 45.0282 9.13929 42.5182 9.62929C42.2582 9.67929 42.0081 9.73929 41.7581 9.80929C40.1481 10.2493 38.6381 11.0693 37.3981 12.1793C36.0881 13.3493 34.5681 14.4293 33.5081 15.8493C31.9781 17.8793 31.3082 20.5293 31.6382 23.0593V23.0693C31.6882 23.4793 31.7681 23.8893 31.8781 24.2993C32.3381 25.9893 33.1982 27.9393 32.1382 29.3393C31.4882 30.1893 30.3181 30.4593 29.2481 30.4393C28.1781 30.4193 27.1181 30.1593 26.0481 30.2193C23.4581 30.3593 21.3181 32.2593 19.6081 34.2193C17.8981 36.1793 16.2981 38.3693 13.9381 39.4693C11.0881 40.7993 7.78813 40.2493 4.64813 39.8193C5.30813 38.4393 6.08812 37.1693 7.06812 36.2293C9.39812 34.0093 11.2281 32.2393 12.6381 29.2393C13.9381 26.4793 14.8281 23.5493 16.1981 20.8193C21.7881 9.61928 33.9481 2.02928 46.4581 1.89928C59.3681 1.76928 71.8382 8.91929 84.6382 7.23929C93.6382 6.05929 101.818 0.599293 110.888 0.409293C113.188 0.379293 115.468 0.689282 117.678 1.28928Z" fill="#00A89D"/>
<path d="M76.4781 16.7593C73.3581 15.5193 70.3481 13.8193 67.0081 13.4293C63.6781 13.0393 59.7981 14.3993 58.6381 17.5593C57.3881 20.9493 59.6181 25.2093 57.5081 28.1293C56.6081 29.3693 54.9881 30.2593 54.8781 31.7893C54.7481 33.6093 57.0681 34.7593 58.8381 34.3293C60.6081 33.8993 61.9681 32.5193 63.4481 31.4393C66.9081 28.8893 71.4281 27.8393 75.6581 28.5993C77.1381 28.8693 78.6381 29.3393 80.1281 29.0993C81.4981 28.8793 82.6881 28.0693 83.8381 27.2793C85.8581 25.8893 87.8881 24.4893 89.9081 23.0993C90.7581 22.5193 91.6581 21.8493 91.9281 20.8593C92.8281 17.4893 87.9581 17.0393 85.8581 17.5193C82.4881 18.2793 79.7381 18.0593 76.4781 16.7593Z" fill="#384769"/>
<path d="M39.0082 36.5293C36.4482 36.2693 33.9681 35.4493 31.3981 35.3593C29.6481 35.2993 27.4682 35.1293 26.6382 37.0593C25.0482 40.7693 31.7282 43.0793 34.1882 44.1393C36.0982 44.9593 38.1981 45.6293 40.2281 45.2093C43.0781 44.6193 45.7781 41.5293 45.8981 38.5693C46.0681 34.6693 41.3282 36.7593 39.0082 36.5293Z" fill="#384769"/>
<path d="M139.348 55.0693C137.048 62.5993 132.978 69.5193 127.158 74.8293C122.498 79.0893 116.678 82.0993 110.528 83.6093C101.228 85.9093 91.1681 84.8093 83.1881 79.5493C82.6781 79.2193 82.1481 78.9093 81.5881 78.6193C79.0181 77.2893 76.0081 76.3793 73.4181 75.3893C66.3481 72.6993 59.0681 70.4693 51.6181 69.1193C45.6281 68.0393 39.4181 67.4693 33.3581 68.2993C27.0181 69.1693 21.3281 71.2593 15.1481 70.5093C15.9781 70.3193 16.8081 70.0893 17.6281 69.8393C19.7381 69.1993 20.4481 67.6293 22.1481 66.3093C22.4681 66.0593 22.8081 65.8293 23.1581 65.6093C24.8481 64.5693 26.8081 63.9493 28.8081 63.8993C31.7381 63.8293 34.6481 64.8993 37.5581 64.5593C40.3281 64.2393 42.7781 62.6893 45.2181 61.3193C47.6581 59.9493 50.3682 58.7093 53.1382 59.0893C56.1182 59.4993 58.7181 61.7493 61.7181 61.6093C65.6881 61.4293 68.9382 57.1393 72.8282 57.9393C75.1182 58.4093 76.6481 60.4993 77.9681 62.4293C79.6181 64.8593 81.2481 67.3193 82.9081 69.7393C83.8481 71.1193 84.8081 72.5093 85.8381 73.8193C85.9381 73.8893 86.0281 73.9693 86.1181 74.0493C86.8181 74.6893 87.4981 75.4893 88.2781 76.0293C88.8181 76.3993 89.4882 76.6993 90.0782 76.9993C91.4282 77.6693 92.8781 78.1293 94.3681 78.3693C97.3481 78.8493 100.468 78.4393 103.148 77.0193C105.898 75.5593 108.308 73.1493 111.408 72.8593C113.928 72.6293 116.388 73.8793 118.908 73.7193C121.048 73.5793 122.988 72.4493 124.748 71.2193C130.778 67.0593 135.798 61.4793 139.348 55.0693Z" fill="#452E61"/>
<path d="M130.058 23.6893C129.488 24.2593 129.028 25.0193 129.108 25.8193C129.178 26.6193 129.748 27.2593 130.238 27.8893C131.928 30.0793 132.878 32.8293 132.918 35.5993C135.598 33.9093 136.728 30.4593 136.508 27.2993C136.378 25.4493 135.928 22.2393 134.548 20.8493C133.718 20.0193 133.458 20.2693 132.788 20.9493C131.888 21.8593 130.978 22.7793 130.058 23.6893Z" fill="#452E61"/>
<path d="M110.428 12.0893C108.628 12.4893 106.798 13.0193 105.378 14.1893C102.688 16.3993 102.058 20.3293 99.6281 22.8193C98.6781 23.7793 97.2681 24.8893 96.0781 25.5093C95.3481 25.8893 94.5481 26.2193 93.9781 26.8093C93.3981 27.3993 93.0981 28.3693 93.5381 29.0693C94.2581 30.1993 95.4781 29.8193 96.4281 29.4093C97.7281 28.8393 99.0381 28.5993 100.468 28.5193C102.198 28.4293 104.018 28.5993 105.608 27.8993C108.158 26.7893 109.328 23.8693 111.338 21.9393C112.578 20.7493 114.138 19.9493 115.708 19.2493C117.278 18.5493 118.888 17.9193 120.338 16.9893C122.998 15.2993 125.478 11.6593 123.208 8.62928C121.028 5.71928 118.588 8.93928 116.488 10.1693C114.608 11.2793 112.498 11.6293 110.428 12.0893Z" fill="#00A89D"/>
<path d="M16.3181 47.3493C16.0381 48.5993 15.2581 49.8393 14.0281 50.1993C13.1081 50.4793 12.0681 50.1993 11.3381 49.5793C10.6081 48.9593 10.1781 48.0293 10.0581 47.0793C9.95814 46.2993 10.0781 45.4693 10.4981 44.8093C11.2281 43.6393 14.1381 41.2893 15.6581 41.8293C17.2881 42.3893 16.6081 46.0693 16.3181 47.3493Z" fill="#00A89D"/>
<path d="M86.0182 47.0993C86.2482 43.5593 87.6282 39.7993 90.0182 37.1393C94.5282 32.1493 101.558 29.8393 108.228 31.0793C111.608 31.7093 115.128 33.0093 117.508 35.5793C120.078 38.3593 120.778 41.7493 120.868 45.3993C120.898 46.8893 120.848 48.4393 120.108 49.7393C119.018 51.6693 116.708 52.5593 114.518 53.0493C111.818 53.6493 108.988 53.8793 106.508 55.0893C104.858 55.8893 103.458 57.0893 101.898 58.0593C100.348 59.0293 98.6381 59.7593 96.8681 60.2293C95.5681 60.5693 93.0481 61.3393 91.7881 60.6593C90.4581 59.9393 89.2982 58.3693 88.5082 57.1393C87.6182 55.7593 86.9681 54.2193 86.5481 52.6393C86.0781 50.8293 85.8982 48.9493 86.0182 47.0993Z" fill="#00A89D"/>
<path d="M121.368 53.7993C120.638 55.6493 119.588 57.4093 118.298 58.9993C115.098 62.9493 110.438 65.8193 105.738 66.4593C100.988 67.0993 95.9681 65.6193 92.3881 62.4793C91.6081 61.7993 90.8881 61.0393 90.2681 60.1993C90.2181 60.1393 90.1681 60.0793 90.1281 60.0093C86.9781 55.6593 86.8181 50.3393 88.5681 45.5693C90.6481 39.9093 95.4481 35.0393 101.198 33.4993C107.038 31.9393 113.638 33.6793 117.958 37.9093C120.358 40.2593 122.078 43.3793 122.418 46.7293C122.658 49.1393 122.258 51.5393 121.368 53.7993Z" fill="#384769"/>
<path d="M121.368 53.7993C121.048 52.0193 120.448 50.2993 119.468 48.7893C117.068 45.1193 112.558 43.1593 108.168 43.1293C104.928 43.1093 101.748 44.0393 98.8581 45.4493C97.6981 46.0093 96.6381 46.7293 95.6881 47.5593C94.3081 48.7593 93.1581 50.2193 92.2381 51.8493C90.8281 54.3693 90.0881 57.2993 90.2681 60.1893C90.2181 60.1293 90.1681 60.0693 90.1281 59.9993C86.9781 55.6493 86.8181 50.3293 88.5681 45.5593C90.6481 39.8993 95.4481 35.0293 101.198 33.4893C107.038 31.9293 113.638 33.6693 117.958 37.8993C120.358 40.2493 122.078 43.3693 122.418 46.7193C122.658 49.1393 122.258 51.5393 121.368 53.7993Z" fill="#452E61"/>
<path d="M118.308 58.9993C115.108 62.9493 110.448 65.8193 105.748 66.4593C100.998 67.0993 95.9781 65.6193 92.3981 62.4793C92.7981 62.7593 93.2181 62.9993 93.6781 63.2193C94.7681 63.7293 95.9381 64.0693 97.1181 64.3093C101.348 65.1693 105.798 64.9293 109.908 63.6093C112.958 62.6193 115.828 61.0493 118.308 58.9993Z" fill="#38778A"/>
<path d="M51.6381 17.2093C51.4081 16.7393 51.1281 16.2693 50.7881 15.8293C48.1981 12.4093 43.5082 10.5293 39.3281 11.7193C35.9581 12.6793 33.2081 15.5293 32.3481 18.9193C31.7481 21.3093 32.0481 23.6093 32.9781 25.5693C32.1481 24.5293 31.5681 23.3293 31.3581 21.9993C30.7981 18.6093 32.0281 14.9793 34.5381 12.6293C37.0481 10.2793 40.7481 9.28928 44.0981 10.0793C47.6181 10.9193 50.5881 13.7593 51.6381 17.2093Z" fill="#00A89D"/>
<path d="M51.6381 17.2093C51.4081 16.7393 51.1281 16.2693 50.7881 15.8293C48.1981 12.4093 43.5082 10.5293 39.3281 11.7193C35.9581 12.6793 33.2081 15.5293 32.3481 18.9193C31.7481 21.3093 32.0481 23.6093 32.9781 25.5693C32.1481 24.5293 31.5681 23.3293 31.3581 21.9993C30.7981 18.6093 32.0281 14.9793 34.5381 12.6293C37.0481 10.2793 40.7481 9.28928 44.0981 10.0793C47.6181 10.9193 50.5881 13.7593 51.6381 17.2093Z" fill="#00A89D"/>
<path d="M50.9381 26.0693C49.4681 28.5393 47.0481 30.4893 44.2981 31.0993C40.0881 32.0193 36.1181 30.2193 33.8981 27.1093C36.5381 29.2393 40.0681 30.2693 43.4381 29.8493C46.2681 29.4893 48.9481 28.1193 50.9381 26.0693Z" fill="#29E1C2"/>
<path d="M52.3282 22.3693C52.1082 23.6593 51.6281 24.9193 50.9381 26.0693C48.9481 28.1193 46.2681 29.4893 43.4281 29.8493C40.0581 30.2693 36.5282 29.2393 33.8882 27.1093C33.5582 26.6493 33.2682 26.1593 33.0182 25.6493C33.0182 25.6393 33.0181 25.6393 33.0281 25.6293C33.0781 25.4093 33.1181 25.1793 33.1681 24.9593C33.4881 23.3793 34.0481 21.8893 34.9881 20.5693C36.4781 18.4893 38.7481 16.9793 41.2481 16.4293C43.0881 16.0193 45.0481 16.1193 46.7881 16.8593C48.5181 17.5993 49.9381 18.9293 51.0581 20.4393C51.3481 20.8393 51.6282 21.2393 51.8882 21.6593C52.0382 21.8893 52.1882 22.1293 52.3282 22.3693Z" fill="#384769"/>
<path d="M43.4281 29.8493C46.2581 29.4893 48.9481 28.1193 50.9381 26.0693C49.4681 28.5393 47.0481 30.4893 44.2981 31.0993C40.0881 32.0193 36.1181 30.2193 33.8981 27.1093C36.5381 29.2493 40.0581 30.2693 43.4281 29.8493Z" fill="#29E1C2"/>
<path d="M52.3281 22.3693C52.1881 22.1293 52.0481 21.8893 51.8981 21.6593C51.6381 21.2393 51.3681 20.8293 51.0681 20.4393C49.9481 18.9293 48.5281 17.5993 46.7981 16.8593C45.0681 16.1193 43.0981 16.0193 41.2581 16.4293C38.7581 16.9893 36.4881 18.4893 34.9981 20.5693C34.0581 21.8893 33.4981 23.3793 33.1781 24.9593C33.1281 25.1893 33.0881 25.4093 33.0381 25.6293C33.0181 25.6093 33.0081 25.5893 32.9981 25.5793C32.0681 23.6193 31.7681 21.3093 32.3681 18.9293C33.2181 15.5293 35.9781 12.6893 39.3481 11.7293C43.5281 10.5393 48.2181 12.4193 50.8081 15.8393C51.1481 16.2793 51.4281 16.7493 51.6581 17.2193C51.6581 17.2193 51.6581 17.2193 51.6581 17.2293C52.4381 18.8493 52.6181 20.6393 52.3281 22.3693Z" fill="#452E61"/>
<path d="M64.4681 42.2593C64.5481 42.4093 64.6181 42.5593 64.6881 42.7093C63.5981 41.6093 61.7281 41.3893 60.4181 42.2093C59.6481 42.6893 59.1881 43.4493 58.9281 44.2993C58.8881 44.4393 58.8381 44.5893 58.7781 44.7293C58.7881 44.7493 58.7881 44.7693 58.8081 44.7993C58.7981 44.7893 58.7882 44.7693 58.7682 44.7593C58.2382 44.1193 57.9181 43.3093 57.9081 42.4893C57.8881 41.4093 58.4081 40.3193 59.3081 39.7093C60.1981 39.0993 61.4382 39.0093 62.3782 39.5393C63.2982 40.0593 63.8382 41.0493 64.3282 41.9793C64.3682 42.0693 64.4181 42.1593 64.4681 42.2593Z" fill="#00A89D"/>
<path d="M64.6881 42.7093C63.5881 41.6093 61.7281 41.3893 60.4081 42.2093C59.6381 42.6893 59.1781 43.4493 58.9181 44.2993C58.8781 44.4393 58.8282 44.5893 58.7682 44.7293C58.7682 44.7393 58.7582 44.7493 58.7582 44.7593C58.2282 44.1193 57.9081 43.3093 57.8981 42.4893C57.8781 41.4093 58.3981 40.3193 59.2981 39.7093C60.1881 39.0993 61.4281 39.0093 62.3681 39.5393C63.2881 40.0593 63.8282 41.0493 64.3182 41.9793C64.3682 42.0693 64.4081 42.1593 64.4581 42.2493C64.5481 42.3993 64.6281 42.5593 64.6881 42.7093Z" fill="#00A89D"/>
<path d="M64.9381 44.4393C64.9281 44.5093 64.9181 44.5693 64.8981 44.6293C64.4781 46.3893 62.2981 47.4193 60.6281 46.7393C59.7781 46.3993 59.1481 45.6593 58.8081 44.7993C58.7981 44.7793 58.7881 44.7593 58.7781 44.7293C58.8381 44.5793 58.8781 44.4393 58.9281 44.2993C59.1881 43.4493 59.6481 42.6893 60.4181 42.2093C61.7281 41.3893 63.5981 41.6093 64.6881 42.7093C64.6981 42.7193 64.6981 42.7293 64.7081 42.7493C64.7181 42.7693 64.7281 42.7893 64.7381 42.8193C64.9381 43.3493 65.0181 43.9093 64.9381 44.4393Z" fill="#384769"/>
<path d="M64.6982 42.7493C64.6882 42.7393 64.6882 42.7293 64.6782 42.7093C63.5882 41.6093 61.7181 41.3893 60.4081 42.2093C59.6381 42.6893 59.1781 43.4493 58.9181 44.2993C58.8781 44.4393 58.8282 44.5893 58.7682 44.7293C58.1582 43.1293 58.5081 41.1093 60.1681 40.3293C61.7681 39.5693 63.5881 40.7093 64.4581 42.2493C64.5381 42.3993 64.6182 42.5493 64.6782 42.7093C64.6982 42.7193 64.6982 42.7293 64.6982 42.7493Z" fill="#452E61"/>
<path d="M64.9381 44.4393C65.0181 43.9093 64.9381 43.3393 64.7281 42.8093C64.8281 43.0493 64.9081 43.2893 64.9581 43.5393C65.0081 43.8393 65.0081 44.1493 64.9381 44.4393Z" fill="#00A89D"/>
<path d="M33.0281 25.6493C33.0181 25.6193 32.9981 25.5993 32.9881 25.5693C32.9981 25.5893 33.0181 25.6093 33.0281 25.6193C33.0281 25.6393 33.0281 25.6493 33.0281 25.6493Z" fill="#452E61"/>
<path d="M33.0281 25.6293C33.0281 25.6393 33.0282 25.6493 33.0182 25.6493C33.0082 25.6193 32.9881 25.5993 32.9781 25.5693C32.9981 25.5893 33.0181 25.6093 33.0281 25.6293Z" fill="#384769"/>
<path d="M37.1182 54.0693C36.1582 52.8093 34.2382 52.5493 32.9982 53.5193C31.8882 54.3993 31.5281 56.0793 32.3581 57.2593C32.7281 57.7893 33.3281 58.1993 33.9681 58.3193C34.1581 58.3593 35.0581 58.3893 34.8481 57.9293C34.6581 57.4893 34.0882 57.4493 33.7582 57.0993C33.2982 56.6293 33.0981 55.9693 33.3581 55.3393C33.5981 54.7593 34.1481 54.3693 34.7781 54.4293C35.1281 54.4593 35.4681 54.6193 35.7081 54.8693C36.0281 55.2093 35.9382 55.2993 35.6282 55.5593C35.3382 55.7993 35.1982 56.2993 35.5682 56.5793C36.2182 57.0693 37.0281 56.7793 37.3981 56.0593C37.7481 55.4093 37.5382 54.6193 37.1182 54.0693Z" fill="#452E61"/>
<path d="M77.0682 43.8193C77.0382 43.6993 76.9982 43.5793 76.9482 43.4593C76.9082 43.2793 76.8281 43.1093 76.7281 42.9593C76.0981 41.7793 74.8981 40.8593 73.5281 40.8693C72.0681 40.8693 70.6581 41.9993 70.7181 43.5393C70.7881 45.2293 72.4481 46.2693 73.9781 45.5593C73.9781 45.5593 73.9781 45.5593 73.9781 45.5493C74.0381 45.5293 74.0981 45.4993 74.1581 45.4693C74.9481 45.0693 74.2681 43.7093 73.4581 44.0693C73.3981 44.0993 73.3281 44.1193 73.2781 44.1393C73.2381 43.9493 73.1981 43.7593 73.1581 43.5793C73.3481 43.3893 73.5781 43.3093 73.8381 43.3293C74.2381 43.2893 74.5681 43.3793 74.9281 43.5493C75.3381 43.7393 75.6081 44.0893 75.9781 44.3093C76.2381 45.3493 75.8582 46.4593 75.4982 47.5593C75.4682 47.6493 75.5781 47.7393 75.6681 47.6993C77.0481 47.0493 77.4382 45.1993 77.0682 43.8193Z" fill="#452E61"/>
<path d="M34.8882 10.6193C30.1282 12.9193 25.9481 17.0593 22.7081 21.1293C20.1481 24.3593 18.2381 28.1493 15.2081 30.9293C14.6981 31.3993 13.7581 31.7693 13.4381 31.1593C13.2481 30.7893 13.4881 30.3493 13.7181 29.9993C18.4181 23.0193 22.1381 15.0193 28.9981 9.72928C33.5081 6.24928 39.3881 3.54928 45.1882 4.00928C45.9882 4.06928 46.8881 4.25929 47.3081 4.93929C47.7781 5.70929 47.3582 6.76928 46.6382 7.30928C45.9182 7.84928 44.9881 7.99928 44.0981 8.13928C41.1481 8.60928 38.1682 9.13928 35.4482 10.3593C35.2582 10.4393 35.0682 10.5293 34.8882 10.6193Z" fill="#29E1C2"/>
<path d="M100.718 6.97927C102.698 5.74927 104.878 4.63928 107.208 4.68928C108.298 4.70928 109.408 4.97927 110.458 4.67927C111.498 4.36927 112.388 3.12927 111.808 2.20927C111.378 1.51927 110.428 1.42928 109.618 1.43928C104.318 1.50928 99.0681 3.08928 94.5281 5.82928C93.5281 6.42928 92.4581 7.24928 92.5981 8.55928C92.6981 9.50928 93.2981 10.0293 94.2181 10.0993C96.4781 10.2493 98.9281 8.08927 100.718 6.97927Z" fill="#29E1C2"/>
<path d="M52.2381 39.0193C51.9581 38.6493 51.5881 38.3693 51.1281 38.2793C50.6881 38.1893 50.1881 38.2993 49.8181 38.5493C49.4681 38.7893 49.1481 39.2293 49.0781 39.6593C49.0081 40.1093 49.0681 40.5893 49.3481 40.9693C49.6281 41.3393 49.9981 41.6193 50.4581 41.7093C50.8981 41.7993 51.3982 41.6893 51.7682 41.4393C52.1182 41.1993 52.4381 40.7593 52.5081 40.3293C52.5681 39.8793 52.5181 39.3893 52.2381 39.0193Z" fill="#00A89D"/>
<path d="M51.1681 31.8093C49.5581 31.4993 49.0681 33.9993 50.6781 34.3093C52.2981 34.6193 52.7881 32.1193 51.1681 31.8093Z" fill="#00A89D"/>
<path d="M97.1081 15.6993C95.4281 15.3793 94.9281 17.9793 96.5981 18.2993C98.2781 18.6293 98.7881 16.0293 97.1081 15.6993Z" fill="#00A89D"/>
<path d="M87.5781 31.6293C87.3181 31.2393 86.8681 30.9493 86.4081 30.8593C85.9181 30.7693 85.4481 30.8893 85.0381 31.1393C84.6881 31.3593 84.4381 31.7193 84.3181 32.1193C84.2781 32.2093 84.2481 32.3093 84.2381 32.4093C84.1581 32.8193 84.2481 33.3593 84.4981 33.6993C84.7581 34.0593 85.1481 34.3593 85.5981 34.4293C85.6281 34.4293 85.6581 34.4293 85.6781 34.4293C85.8481 34.4693 86.0181 34.4893 86.1981 34.4693C86.4381 34.4593 86.6681 34.3893 86.8681 34.2693C87.0881 34.1793 87.2781 34.0393 87.4281 33.8593C87.6481 33.6093 87.7881 33.3293 87.8481 32.9993C87.9281 32.5193 87.8581 32.0393 87.5781 31.6293Z" fill="#00A89D"/>
<path d="M127.308 32.6193C127.218 31.9093 126.728 31.2993 126.008 31.1593C125.968 31.1493 125.938 31.1493 125.898 31.1393C125.648 31.0893 125.438 31.0993 125.198 31.1493C124.988 31.1893 124.788 31.2693 124.608 31.3793C124.418 31.4593 124.238 31.5793 124.108 31.7493C123.888 32.0193 123.768 32.3193 123.738 32.6793C123.718 32.9993 123.788 33.3593 123.988 33.6293C124.188 33.8993 124.498 34.1793 124.838 34.2593C125.028 34.3393 125.238 34.3793 125.438 34.3893C125.588 34.4193 125.728 34.4093 125.868 34.3593C125.948 34.3493 126.028 34.3293 126.098 34.3093C126.138 34.2993 126.188 34.2893 126.228 34.2693C126.348 34.2093 126.478 34.1493 126.598 34.0793C126.778 33.9693 126.918 33.8193 127.028 33.6293C127.218 33.3493 127.348 32.9793 127.308 32.6193Z" fill="#38778A"/>
<path d="M132.838 45.1593C132.788 45.1593 132.748 45.1593 132.698 45.1593C132.558 45.1893 132.418 45.2193 132.278 45.2493C132.068 45.3193 131.888 45.4293 131.738 45.5793C131.468 45.8193 131.248 46.1393 131.198 46.5093C131.158 46.7993 131.178 47.0993 131.258 47.3793C131.328 47.5893 131.438 47.7693 131.588 47.9193C131.718 48.0993 131.888 48.2293 132.088 48.3193C132.138 48.3393 132.178 48.3493 132.218 48.3793C133.208 48.8793 134.438 48.2493 134.648 47.1793C134.848 46.1093 133.948 45.0593 132.838 45.1593Z" fill="#38778A"/>
<path d="M131.778 51.4293C130.238 51.1293 129.768 53.5293 131.308 53.8293C132.858 54.1293 133.328 51.7293 131.778 51.4293Z" fill="#38778A"/>
<path d="M92.2981 70.9393C90.8581 70.6593 90.4281 72.8993 91.8681 73.1693C93.2981 73.4493 93.7381 71.2193 92.2981 70.9393Z" fill="#38778A"/>
<path d="M61.3681 54.1193C60.2081 53.8893 59.8581 55.6993 61.0181 55.9193C62.1781 56.1493 62.5281 54.3393 61.3681 54.1193Z" fill="#38778A"/>
<path d="M56.6282 53.5993C55.2182 53.3293 54.7882 55.5193 56.1982 55.7893C57.6082 56.0693 58.0382 53.8793 56.6282 53.5993Z" fill="#38778A"/>
<path d="M8.43815 60.8493C8.41815 60.8293 8.39815 60.8093 8.37815 60.7893C8.06815 60.4693 7.51814 60.3993 7.11814 60.5493C6.69814 60.6993 6.37812 61.0693 6.28812 61.5093C6.19812 61.9493 6.35813 62.4093 6.69813 62.7093C7.01813 62.9893 7.54813 63.1293 7.95813 62.9493C7.98813 62.9393 8.00812 62.9293 8.03812 62.9193C8.43812 62.7393 8.74813 62.4493 8.82813 61.9993C8.91813 61.5493 8.74815 61.1593 8.43815 60.8493Z" fill="#38778A"/>
<path d="M20.0481 59.0693C19.7881 58.7193 19.4381 58.4593 18.9981 58.3793L18.8981 58.3593C18.4881 58.2793 18.0181 58.3793 17.6681 58.6093C17.3381 58.8393 17.0381 59.2493 16.9781 59.6593C16.9181 60.0793 16.9681 60.5393 17.2281 60.8893C17.4881 61.2393 17.8381 61.4993 18.2781 61.5793L18.3781 61.5993C18.7881 61.6793 19.2581 61.5793 19.6081 61.3493C19.9381 61.1193 20.2381 60.7093 20.2981 60.2993C20.3581 59.8793 20.3081 59.4193 20.0481 59.0693Z" fill="#38778A"/>
<path d="M85.8882 63.4193C83.2382 62.9093 82.4281 67.0293 85.0881 67.5393C87.7381 68.0593 88.5382 63.9393 85.8882 63.4193Z" fill="#38778A"/>
<path d="M102.308 70.7993C100.728 70.4893 100.248 72.9493 101.828 73.2593C103.408 73.5593 103.888 71.0993 102.308 70.7993Z" fill="#452E61"/>
<path d="M122.208 66.0893C121.898 65.6693 121.478 65.3693 120.958 65.2693C120.468 65.1693 119.908 65.2893 119.498 65.5693C119.098 65.8393 118.748 66.3293 118.678 66.8193C118.608 67.3193 118.668 67.8693 118.978 68.2793C119.288 68.6993 119.708 68.9993 120.228 69.0993C120.718 69.1993 121.278 69.0793 121.688 68.7993C122.088 68.5293 122.438 68.0393 122.508 67.5493C122.588 67.0593 122.518 66.5093 122.208 66.0893Z" fill="#452E61"/>
<path d="M124.568 60.5893C124.458 60.5693 124.358 60.5593 124.238 60.5493C123.948 60.5293 123.618 60.6393 123.438 60.8793C123.168 61.2193 123.148 61.6493 123.328 62.0293C123.388 62.2093 123.498 62.3593 123.638 62.4893C123.788 62.6193 123.958 62.6993 124.148 62.7393C124.528 62.8093 124.928 62.6793 125.178 62.3893C125.728 61.7593 125.378 60.7493 124.568 60.5893Z" fill="#452E61"/>
<path d="M46.3081 55.3493C46.2681 54.8693 46.0181 54.4593 45.6181 54.1993C45.2081 53.9293 44.7181 53.8493 44.2481 54.0093C43.7181 54.1993 43.3781 54.6393 43.2381 55.1693C43.2281 55.2193 43.2182 55.2693 43.1982 55.3093C43.1882 55.4393 43.1781 55.5693 43.1781 55.7093C43.2081 55.8293 43.2281 55.9593 43.2581 56.0893C43.3681 56.3893 43.5681 56.6393 43.8381 56.8193C44.0681 56.9693 44.2981 57.0493 44.5681 57.0593C44.9081 57.0793 45.1781 56.9893 45.4781 56.8193C45.5281 56.7893 45.5681 56.7693 45.6181 56.7393C46.0981 56.4893 46.3481 55.8593 46.3081 55.3493Z" fill="#452E61"/>
<path d="M77.5981 54.2693C77.6581 53.9793 77.5882 53.7193 77.4482 53.4893C77.2182 53.0393 76.7481 52.7493 76.2381 52.7893C75.7181 52.8293 75.1982 53.2593 75.1182 53.7893C75.0482 54.2893 75.2281 54.7693 75.6481 55.0493C76.1181 55.3693 76.7281 55.3093 77.1581 54.9493C77.3781 54.7793 77.5381 54.5593 77.5981 54.2693Z" fill="#452E61"/>
<path d="M52.5981 5.79928C52.5981 5.77928 52.5981 5.76928 52.5981 5.74928C52.5681 5.58928 52.5281 5.43928 52.4981 5.27928C52.4281 5.04928 52.2982 4.84927 52.1282 4.67927C51.8682 4.37927 51.5081 4.13928 51.0981 4.07928C50.7681 4.02928 50.4482 4.04927 50.1282 4.14927C49.8982 4.21927 49.6981 4.34928 49.5281 4.51928C49.3381 4.65928 49.1882 4.84927 49.0782 5.06927C49.0682 5.08927 49.0681 5.09927 49.0581 5.11927C48.9081 5.42928 48.8481 5.74928 48.8681 6.08928C48.8981 6.41928 48.9981 6.70929 49.1781 6.98929C49.4681 7.38929 49.8681 7.67928 50.3681 7.76928C50.8381 7.85928 51.3682 7.74929 51.7582 7.48929C52.0282 7.30929 52.2382 7.06928 52.3882 6.77928C52.5582 6.45928 52.6181 6.13928 52.5981 5.79928Z" fill="#29E1C2"/>
<path d="M89.0981 7.87928C87.3481 7.53928 86.8082 10.2693 88.5682 10.6093C90.3182 10.9493 90.8481 8.21928 89.0981 7.87928Z" fill="#29E1C2"/>
</svg>
