<svg width="157" height="81" viewBox="0 0 157 81" fill="none" xmlns="http://www.w3.org/2000/svg">
<path d="M156.636 28.854C156.556 33.664 154.326 38.2741 152.146 42.6241C151.686 43.5541 151.216 44.4741 150.746 45.4041C149.126 48.5941 147.456 51.774 145.616 54.824C142.946 59.234 139.906 63.3641 136.116 66.8441C129.336 73.0941 120.536 76.864 111.516 78.794C102.496 80.724 93.1956 80.9141 83.9656 80.7441C81.7756 80.7041 79.5856 80.6441 77.4056 80.5641C76.6756 80.5341 75.9456 80.514 75.2256 80.474C72.7756 80.374 70.3156 80.2441 67.8656 80.0841C57.8356 79.4541 47.8356 78.4041 37.8956 76.9341C35.9356 76.6441 33.9756 76.3441 32.0156 76.0241C21.1656 74.2441 -0.854391 73.664 0.0256095 57.544C0.0656095 56.724 0.175607 55.9241 0.335607 55.1241C0.705607 53.2241 1.38561 51.4041 2.27561 49.6541C3.88561 46.4541 6.18563 43.5141 8.54563 40.8041C15.6656 32.6341 23.9456 25.4041 33.0756 19.5841C33.4456 19.3441 33.8256 19.1041 34.2056 18.8741C36.0456 17.7341 37.9256 16.6441 39.8256 15.6241C40.6656 15.1741 41.5056 14.7341 42.3556 14.3141C46.8756 12.0441 51.5656 10.114 56.3856 8.57404C62.7056 6.55404 69.2056 5.20404 75.7656 4.19404C76.1756 4.12404 76.5956 4.06407 77.0056 4.00407C83.4856 3.05407 90.0356 2.42405 96.5556 1.79405C98.4156 1.61405 100.276 1.43407 102.146 1.28407C103.656 1.15407 105.166 1.04405 106.676 0.954049C112.906 0.584049 119.126 0.624044 125.226 1.82404C132.126 3.17404 138.726 6.02404 144.456 10.104C144.656 10.244 144.856 10.3841 145.056 10.5341C145.776 11.0641 146.496 11.6141 147.186 12.1841C149.826 14.3541 152.296 16.9241 154.046 19.8341C155.426 22.1341 156.366 24.644 156.576 27.324C156.636 27.844 156.646 28.354 156.636 28.854Z" fill="#38778A"/>
<path d="M25.9756 28.6241C27.4456 27.3141 29.3356 25.9641 31.2056 26.5641C32.9156 27.1141 33.7156 29.034 34.2156 30.744C34.6956 32.374 35.0956 34.024 35.4256 35.684C35.6156 36.634 35.7756 37.604 35.5856 38.554C35.3156 39.874 34.4056 40.954 33.5156 41.964C32.0756 43.614 30.6156 45.294 28.7356 46.424C26.5956 47.714 24.1056 48.174 21.6356 48.234C19.3456 48.294 16.0556 48.444 13.9056 47.574C8.24561 45.284 16.9256 37.754 18.7656 35.734C21.0556 33.254 23.4556 30.8741 25.9756 28.6241Z" fill="#00A89D"/>
<path d="M38.3056 33.224C38.3956 34.744 38.6556 36.2341 39.5956 37.1541C41.9156 39.4241 45.9756 38.574 48.6556 37.484C50.7456 36.634 52.6656 35.3841 54.5556 34.1541C55.6756 33.4241 57.0156 32.4241 57.4256 31.0641C57.8256 29.7141 56.5556 29.0741 55.4856 28.5841C53.7056 27.7641 51.4556 27.1041 49.8756 25.9341C48.8456 25.1741 47.7856 23.674 47.1356 22.604C46.6456 21.724 46.5756 20.6541 46.0656 19.7741C45.1356 18.1741 42.9556 17.684 41.1656 18.134C39.6556 18.524 36.9256 19.874 36.1256 21.264C34.9856 23.234 37.4256 25.114 37.9256 26.854C38.1756 27.714 37.9756 28.684 38.1156 29.574C38.2656 30.594 38.2256 31.924 38.3056 33.224Z" fill="#00A89D"/>
<path d="M78.9256 11.804C77.8456 10.994 76.8956 9.82403 75.9256 8.88403C74.7556 7.75403 72.8356 8.02403 71.3456 8.23403C69.5456 8.49403 67.7356 8.76404 65.9556 9.11404C64.0356 9.49404 62.2456 10.204 60.3556 10.674C56.9356 11.534 53.5156 12.604 50.9456 15.1241C50.3256 15.7341 49.7256 16.484 49.7456 17.354C49.7756 18.724 51.2356 19.554 52.0656 20.644C52.6156 21.364 52.9156 22.264 53.5556 22.904C54.4956 23.8341 55.9256 23.984 57.2456 24.014C59.6056 24.064 62.0856 23.894 64.2156 24.914C65.6956 25.624 66.9156 26.864 68.4856 27.324C71.6456 28.254 74.6156 25.954 77.4256 24.924C80.5656 23.784 83.8256 22.564 86.1356 20.154C87.4456 18.794 88.4156 16.734 87.5556 15.054C86.8156 13.604 85.0356 13.054 83.4156 12.854C82.0556 12.684 80.2556 12.734 79.0956 11.904C79.0456 11.884 78.9856 11.844 78.9256 11.804Z" fill="#00A89D"/>
<path d="M104.496 8.28405C103.386 10.124 103.196 12.354 103.036 14.494C102.886 16.554 102.866 18.964 104.446 20.294C105.466 21.144 106.876 21.304 108.196 21.414C110.836 21.654 113.476 21.884 116.116 22.124C118.256 22.314 120.726 22.264 122.516 20.854C123.576 20.024 124.206 18.744 124.646 17.464C125.086 16.184 125.376 14.854 125.956 13.624C126.506 12.454 127.306 11.384 127.556 10.124C127.946 8.19404 126.896 6.16404 125.286 5.02404C123.506 3.75404 121.246 3.61402 119.156 3.44402C116.496 3.23402 113.466 3.68404 110.896 4.31404C108.456 4.93404 105.856 6.03405 104.496 8.28405Z" fill="#00A89D"/>
<path d="M156.636 28.864C156.556 33.674 154.326 38.284 152.146 42.634C151.686 43.564 151.216 44.484 150.746 45.414C149.126 48.604 147.456 51.784 145.616 54.834C142.946 59.244 139.906 63.374 136.116 66.854C129.336 73.104 120.536 76.874 111.516 78.804C102.496 80.734 93.1956 80.9241 83.9656 80.7541C81.7756 80.7141 79.5856 80.654 77.4056 80.574C76.6756 80.544 75.9456 80.524 75.2256 80.484C72.7756 80.384 70.3156 80.2541 67.8656 80.0941C57.8356 79.4641 47.8356 78.414 37.8956 76.944C35.9356 76.654 33.9756 76.3541 32.0156 76.0341C21.1656 74.2541 -0.854391 73.674 0.0256095 57.554C0.0656095 56.734 0.175607 55.934 0.335607 55.134C0.705607 53.234 1.38561 51.414 2.27561 49.664C2.65561 52.514 3.54561 55.744 4.36561 57.944C5.35561 58.904 6.53563 59.5841 7.88563 59.6541C9.95563 59.7741 11.9356 58.434 13.9956 58.704C14.6156 58.784 15.2056 59.0041 15.7456 59.3141C15.9056 59.4041 16.0656 59.494 16.2256 59.604C16.6656 59.894 17.0856 60.224 17.4756 60.574C20.3656 63.084 22.8756 66.4041 26.5956 67.3441C27.0256 67.4541 27.4556 67.5241 27.8956 67.5641C32.7356 66.5941 37.4556 64.654 42.0056 62.634C42.1756 62.554 42.3556 62.4841 42.5256 62.4041C42.7256 62.3141 42.9156 62.224 43.1156 62.144C47.5456 60.164 52.0556 58.124 56.7056 56.864C57.2556 56.714 57.8156 56.574 58.3756 56.444C59.0856 56.284 59.7956 56.144 60.5056 56.024C60.9456 55.944 61.3856 55.884 61.8256 55.834C62.8756 55.694 63.9356 55.6141 65.0056 55.5941C69.5456 55.5041 74.0456 56.534 78.5856 56.744C83.1256 56.954 88.0056 56.204 91.3656 53.144C95.9056 49.014 96.4156 41.9441 100.286 37.1841C101.386 35.8341 102.706 34.744 104.176 33.894C104.536 33.684 104.896 33.4941 105.266 33.3141C105.596 33.1641 105.926 33.014 106.266 32.884C106.766 32.684 107.276 32.514 107.786 32.354H107.796C111.906 31.134 116.586 31.324 120.716 32.634C121.996 33.044 123.266 33.5441 124.516 34.0641C125.016 34.2741 125.516 34.484 126.006 34.694C126.006 34.694 126.006 34.694 126.016 34.694C129.766 36.284 133.516 37.8641 137.516 37.6241C138.726 37.5541 139.896 37.314 141.016 36.924C141.466 36.774 141.906 36.5941 142.326 36.4041C143.346 35.9441 144.306 35.364 145.216 34.704C147.816 32.804 149.946 30.154 151.406 27.274C152.596 24.914 153.416 22.414 154.016 19.854C155.396 22.154 156.336 24.6641 156.546 27.3441C156.636 27.8541 156.646 28.354 156.636 28.864Z" fill="#384769"/>
<path d="M156.636 28.854C156.556 33.664 154.326 38.2741 152.146 42.6241C151.686 43.5541 151.216 44.4741 150.746 45.4041C149.126 48.5941 147.456 51.774 145.616 54.824C142.946 59.234 139.906 63.3641 136.116 66.8441C129.336 73.0941 120.536 76.864 111.516 78.794C102.496 80.724 93.1956 80.914 83.9656 80.744C81.7756 80.704 79.5856 80.6441 77.4056 80.5641C76.6756 80.5341 75.9456 80.514 75.2256 80.474C72.7756 80.374 70.3156 80.244 67.8656 80.084C57.8356 79.454 47.8356 78.4041 37.8956 76.9341C35.9356 76.6441 33.9756 76.344 32.0156 76.024C21.1656 74.244 -0.854391 73.664 0.0256095 57.544C0.0656095 56.724 0.175607 55.9241 0.335607 55.1241C1.06561 57.4041 1.92563 59.644 3.04563 61.764C3.59563 62.784 4.2056 63.784 4.8956 64.734C5.4256 65.274 5.89561 65.924 6.55561 66.304C7.17561 66.664 7.90561 66.7441 8.61561 66.7841C9.37561 66.8241 10.1356 66.834 10.8956 66.794C11.3556 66.774 11.8056 66.7341 12.2556 66.6841C12.6256 66.6441 12.9856 66.5941 13.3456 66.5341C13.5756 66.4941 13.8056 66.454 14.0356 66.414C14.5656 66.314 15.0756 66.134 15.6156 66.244C16.1356 66.344 16.5656 66.664 16.9456 67.044C17.1956 67.294 17.4256 67.574 17.6456 67.834C17.6556 67.844 17.6656 67.8641 17.6756 67.8741C17.9756 68.2341 18.2856 68.574 18.6256 68.894C19.3256 69.594 20.1056 70.214 20.9656 70.694C22.2356 71.404 23.6856 71.824 25.1356 71.724C25.2156 71.714 25.2956 71.7141 25.3756 71.7141C26.0256 71.6441 26.6756 71.564 27.3156 71.484C34.0756 70.664 40.8456 69.834 47.6056 69.014C48.1356 68.944 48.6556 68.884 49.1856 68.824C49.5856 68.774 49.9856 68.724 50.3856 68.674C54.0856 68.224 57.9456 67.3941 61.6756 67.3141C61.7956 67.3141 61.9056 67.304 62.0256 67.304C62.4756 67.294 62.9356 67.3041 63.3856 67.3141C65.6756 67.3741 67.9956 67.614 70.3056 67.604C80.4056 67.554 91.5956 68.594 99.4956 62.304C102.676 59.774 105.096 56.164 108.836 54.574C111.416 53.474 114.176 53.494 116.996 53.774C117.506 53.824 118.016 53.884 118.526 53.954C120.376 54.184 122.226 54.4641 124.046 54.5641C131.106 54.9341 138.076 52.334 143.716 47.994C145.066 46.954 146.326 45.824 147.506 44.604L147.516 44.5941C147.716 44.3841 147.916 44.164 148.116 43.954C151.296 40.484 153.776 36.434 155.646 32.134C155.996 31.344 156.316 30.174 156.636 28.854Z" fill="#452E61"/>
<path d="M150.756 45.414C149.136 48.604 147.466 51.784 145.626 54.834C139.186 61.224 130.806 65.9841 121.756 66.7141C118.726 66.9641 115.616 66.7641 112.686 67.4341C112.186 67.5441 111.686 67.684 111.196 67.854L111.046 67.9041C107.376 69.2241 104.516 72.134 101.156 74.114C93.7856 78.454 84.5156 78.484 76.2356 79.304C76.1056 79.314 75.9756 79.3341 75.8356 79.3441C75.1756 79.4141 74.5156 79.474 73.8556 79.544C71.8556 79.734 69.8656 79.9241 67.8656 80.0941C57.8356 79.4641 47.8356 78.414 37.8956 76.944C40.3356 77.104 42.7756 77.3241 45.2056 77.5041C53.4556 78.1241 61.6356 77.524 69.8356 76.774C70.4256 76.724 71.0056 76.664 71.5956 76.614C72.7156 76.514 73.8356 76.404 74.9556 76.304C75.9656 76.204 76.9856 76.1141 77.9956 76.0041C84.8756 75.2841 91.8456 74.164 97.8656 70.584C100.716 68.884 103.256 66.674 106.266 65.294C108.756 64.144 111.426 63.6241 114.146 63.2841C114.626 63.2241 115.096 63.1741 115.576 63.1241C118.126 62.8541 120.716 62.674 123.226 62.234C131.356 60.804 138.806 56.574 145.006 51.114C147.046 49.334 148.946 47.424 150.756 45.414Z" fill="#384769"/>
<path d="M109.516 6.47404C108.106 6.89404 106.686 7.76405 106.016 8.88405C105.536 9.69405 105.496 10.5541 105.796 11.2441C106.176 12.1341 107.096 12.7641 108.236 12.9941C109.376 13.2341 110.736 13.0841 112.036 12.6541C113.376 12.2041 114.726 11.3841 115.356 10.3041C116.196 8.85406 115.536 7.06406 114.356 6.30406C113.266 5.62406 111.006 6.02404 109.516 6.47404Z" fill="#29E1C2"/>
<path d="M107.816 32.354C107.296 32.504 106.796 32.684 106.296 32.884C105.956 33.014 105.626 33.1641 105.296 33.3141C104.926 33.4941 104.556 33.684 104.206 33.894C102.886 33.654 101.736 33.1441 100.536 32.3141C99.2356 31.4141 97.5956 30.914 96.7556 29.494C96.5156 29.094 96.3556 28.684 96.2556 28.264C95.9756 28.534 95.6656 28.774 95.3356 29.014C92.0956 31.314 88.7356 33.4641 85.4456 35.6841C82.5356 37.6541 79.6856 39.444 76.3556 40.634C74.7356 41.214 72.9756 41.794 71.8056 43.134C70.6056 44.494 70.9656 46.144 70.6656 47.794C70.1156 50.844 67.5656 51.604 65.1556 52.864C63.7856 53.584 62.9256 54.774 61.8656 55.834C61.4256 55.884 60.9856 55.954 60.5456 56.024C59.8256 56.144 59.1156 56.284 58.4156 56.444C57.8556 56.574 57.3056 56.714 56.7456 56.864C56.9256 56.764 57.1156 56.654 57.2956 56.554C58.8556 55.654 60.1356 54.604 61.3256 53.264C62.4956 51.954 63.7556 51.124 65.3456 50.394C66.6156 49.804 68.0256 49.224 68.3156 47.694C68.6356 46.014 68.2656 44.374 69.1156 42.794C69.7456 41.614 70.6456 40.774 71.6756 40.114C70.3256 39.814 68.9856 39.244 68.1056 38.334C67.5956 37.804 67.5156 37.1941 67.7056 36.5041C68.0256 35.3241 68.4356 34.3841 68.2356 33.1241C67.9056 31.0341 66.4156 29.604 64.5856 28.7141C62.8956 27.8841 60.8156 27.124 58.9456 26.944C57.7856 26.824 56.9356 27.374 55.8256 27.474C55.0356 27.544 54.3156 27.154 53.6456 26.794C52.2956 26.064 50.8756 25.2141 50.0856 23.8441C49.7056 23.1841 49.7156 22.104 49.0256 21.794C48.5056 21.564 48.0456 21.584 47.6056 21.144C46.8156 20.364 46.7456 19.1541 46.5556 18.1241C46.3956 17.2541 46.1956 16.514 45.3056 16.164C44.3956 15.804 43.1956 15.8841 42.2456 15.8141C41.4556 15.7541 40.6556 15.704 39.8556 15.664C40.6956 15.214 41.5356 14.774 42.3856 14.354C42.7256 14.384 43.0756 14.414 43.4156 14.444C45.1156 14.574 46.8956 14.734 47.6356 16.494C48.0756 17.524 47.8656 18.994 48.4856 19.914C48.9056 20.524 49.7856 20.324 50.3256 20.794C50.8056 21.204 50.8756 21.7941 51.0456 22.3741C51.3356 23.3641 52.0156 24.0441 52.8356 24.6241C53.4356 25.0441 54.4956 25.844 55.2356 25.954C56.2656 26.104 57.3656 25.4541 58.4356 25.4641C59.2756 25.4741 60.0856 25.6541 60.8956 25.8741C64.0956 26.7441 67.8556 28.0141 69.2356 31.3441C69.8456 32.8141 69.9156 34.504 69.4356 36.024C69.2556 36.584 68.9256 37.064 69.3756 37.574C69.7256 37.974 70.3756 38.204 70.8456 38.414C71.6756 38.794 72.5456 39.0441 73.4356 39.2141C74.6056 38.694 75.8456 38.294 77.0156 37.834C80.6156 36.414 83.7756 33.924 86.9556 31.774C88.6156 30.654 90.2756 29.534 91.9356 28.414C93.4056 27.424 95.3556 26.564 95.5456 24.604C95.7256 22.804 95.1956 20.8641 94.9156 19.0941C94.6256 17.2541 94.3156 15.414 94.1056 13.554C92.7956 12.014 90.9856 10.984 88.9356 10.794C86.8856 10.594 84.8456 11.264 82.8156 10.694C81.0456 10.194 79.6456 8.93403 78.4356 7.60403C77.5056 6.58403 76.5556 5.44404 75.7856 4.23404C76.1956 4.16404 76.6156 4.10404 77.0256 4.04404C77.8956 5.20404 78.7656 6.36403 79.8256 7.38403C81.5556 9.06403 83.4356 9.74406 85.8356 9.56406C87.6756 9.42406 89.3956 9.28405 91.1756 9.87405C92.1956 10.2141 93.1356 10.754 93.9556 11.424C93.9156 8.91404 94.4556 6.43404 96.4956 4.70404C97.7856 3.60404 99.3956 2.80405 100.876 1.99405C101.306 1.76405 101.736 1.52405 102.166 1.30405C103.676 1.17405 105.186 1.06403 106.696 0.97403C105.896 1.29403 105.106 1.63406 104.326 2.00406C101.076 3.54406 96.5556 5.43404 96.0956 9.48404C95.8956 11.304 96.2556 13.1441 96.5756 14.9341C96.9156 16.8341 97.2356 18.7441 97.5556 20.6541C97.8456 22.3541 98.2156 24.124 97.7556 25.834C97.6356 26.304 97.4456 26.724 97.2056 27.104C97.4556 28.094 97.9056 29.004 98.7256 29.544C99.3856 29.974 100.166 30.214 100.856 30.614C101.646 31.074 102.366 31.6541 103.236 31.9641C104.696 32.5041 106.266 32.314 107.816 32.354Z" fill="#384769"/>
<path d="M61.8456 55.824C61.7556 55.914 61.6656 56.004 61.5856 56.084C60.7256 56.894 59.7456 57.564 58.7356 58.164C58.5856 58.264 58.4256 58.354 58.2656 58.444C57.9856 58.604 57.6956 58.764 57.4156 58.924C57.2056 59.044 56.9956 59.154 56.7756 59.274C56.0656 59.664 55.3556 60.0441 54.6656 60.4641C53.3456 61.2641 52.1156 62.174 51.1556 63.424C50.3056 64.534 48.5956 63.214 49.4356 62.104C51.3056 59.624 54.0856 58.334 56.7156 56.864C57.2656 56.714 57.8256 56.574 58.3856 56.444C59.0956 56.284 59.8056 56.144 60.5156 56.024C60.9656 55.944 61.4056 55.884 61.8456 55.824Z" fill="#384769"/>
<path d="M111.366 35.6241C110.066 33.8641 107.636 34.104 105.696 34.044C105.166 34.024 104.676 33.974 104.206 33.894C104.566 33.684 104.926 33.4941 105.296 33.3141C105.626 33.1641 105.956 33.014 106.296 32.884C106.796 32.684 107.306 32.514 107.816 32.354H107.826C108.286 32.364 108.746 32.394 109.206 32.484C110.636 32.744 111.916 33.334 112.816 34.514C113.516 35.444 112.066 36.5741 111.366 35.6241Z" fill="#384769"/>
<path d="M61.9656 53.7641C61.2456 54.5741 60.5356 54.9741 59.6056 55.5041C58.8756 55.9241 58.2756 56.414 57.8656 57.164C57.5656 57.724 57.4256 58.384 57.0656 58.914C56.7156 59.424 56.1956 59.7741 55.7156 60.1441C54.5856 61.0141 53.4656 61.8841 52.3356 62.7541C50.6956 64.0241 48.7556 65.3641 47.9456 67.3641C47.6956 67.9941 47.4056 68.8641 47.7456 69.5141C48.1556 70.2841 49.4556 70.8141 50.2156 71.1441C50.9156 71.4441 51.5656 70.4041 50.9056 69.9641C50.4656 69.6641 49.9856 69.4341 49.5356 69.1441C48.9556 68.7641 49.0256 68.6041 49.2956 67.9341C49.6656 67.0141 50.3956 66.254 51.1156 65.604C52.7756 64.104 54.6056 62.764 56.3456 61.354C56.9656 60.854 57.6156 60.3641 58.0556 59.6841C58.6456 58.7641 58.7056 57.6741 59.4856 56.8641C60.3856 55.9341 61.9756 55.3241 62.3656 54.0141C62.4556 53.7441 62.1556 53.5541 61.9656 53.7641Z" fill="#452E61"/>
<path d="M62.9156 65.9941C62.3956 65.0241 61.5156 65.144 60.5756 65.044C59.7856 64.964 59.1656 63.774 58.3856 63.334C58.1356 63.194 57.7456 63.134 57.5356 62.974C57.2456 62.744 57.3156 62.674 57.3656 62.194C57.4356 61.464 57.6856 60.7641 57.7356 60.0341C57.7756 59.4941 57.1056 59.364 56.8556 59.804C56.3856 60.624 55.8656 62.444 56.2056 63.354C56.3056 63.624 56.4556 63.7941 56.7056 63.9341C57.4356 64.3541 58.0256 64.444 58.5656 65.174C59.2056 66.044 59.4056 66.4341 60.5756 66.4341C61.1256 66.4341 61.4156 66.2741 61.8356 66.8441C62.0156 67.0941 62.0656 67.534 62.1656 67.824C62.3856 68.504 62.5756 69.134 62.9756 69.724C63.1456 69.964 63.5756 69.854 63.5956 69.554C63.6756 68.504 63.4356 66.9541 62.9156 65.9941Z" fill="#452E61"/>
<path d="M147.476 44.644C146.736 45.274 145.986 45.9341 145.086 46.3141C143.996 46.7741 142.806 46.684 141.666 46.614C139.506 46.474 137.356 46.304 135.206 46.074C130.916 45.614 126.616 44.914 122.516 43.524C120.706 42.914 118.276 42.324 117.346 40.484C116.626 39.064 116.216 37.694 114.846 36.734C113.346 35.674 111.476 35.0541 109.796 34.3141C108.336 33.6641 106.356 32.4741 104.696 32.8441C104.606 32.8641 104.596 32.974 104.676 33.024C105.666 33.564 106.796 33.8941 107.816 34.4041C108.756 34.8741 109.706 35.3441 110.646 35.8141C112.456 36.7041 114.596 37.4441 115.516 39.3741C116.246 40.9041 116.616 42.274 118.166 43.164C119.996 44.224 122.156 44.864 124.186 45.434C128.396 46.624 132.736 47.2341 137.096 47.6241C139.166 47.8141 141.306 48.1141 143.396 48.0341C145.386 47.9541 146.826 46.994 148.306 45.734C148.986 45.154 148.146 44.074 147.476 44.644Z" fill="#452E61"/>
<path d="M118.586 50.414C118.356 50.104 117.716 49.604 117.896 49.144C117.966 48.954 118.566 48.674 118.726 48.534C119.716 47.684 120.976 46.354 120.896 44.944C120.856 44.144 120.036 42.844 119.116 43.064C119.076 43.074 119.056 43.104 119.056 43.144C119.066 43.584 119.326 43.654 119.546 44.034C120.146 45.034 119.706 45.864 118.986 46.634C118.296 47.364 116.816 47.834 116.466 48.804C116.066 49.904 117.146 50.624 117.606 51.474C118.306 52.754 116.456 54.074 116.166 55.354C116.056 55.864 116.716 56.154 117.086 55.884C117.776 55.374 118.206 54.504 118.656 53.774C119.016 53.194 119.346 52.594 119.266 51.884C119.196 51.324 118.906 50.854 118.586 50.414Z" fill="#452E61"/>
<path d="M144.796 38.794C143.706 37.874 142.216 37.7341 141.056 36.9341C141.506 36.7841 141.946 36.604 142.366 36.414C143.416 36.924 144.566 37.114 145.486 37.894C146.046 38.354 145.356 39.264 144.796 38.794Z" fill="#384769"/>
<path d="M144.886 20.244C144.236 21.454 142.806 22.384 141.816 23.294C140.646 24.364 138.316 25.834 138.206 27.584C138.156 28.384 138.566 29.244 138.816 29.994C139.106 30.854 139.386 31.724 139.676 32.584C140.156 33.974 140.726 35.504 142.086 36.264C142.176 36.314 142.266 36.364 142.366 36.414C141.936 36.614 141.496 36.7841 141.056 36.9341C140.926 36.8441 140.796 36.7441 140.666 36.6241C139.626 35.6841 139.096 34.324 138.646 33.024C138.196 31.724 137.566 30.3241 137.276 28.9341C137.276 28.9341 137.276 28.934 137.276 28.924C136.396 31.084 133.556 32.7841 131.836 33.6841C130.346 34.4641 129.106 34.6541 127.456 34.6241C126.976 34.6141 126.516 34.6341 126.046 34.6841C125.546 34.4741 125.046 34.264 124.556 34.054C126.226 33.774 128.076 34.094 129.666 33.744C131.016 33.444 132.286 32.614 133.476 31.944C134.886 31.154 136.876 29.3541 137.126 27.5641C137.136 27.5041 137.136 27.444 137.146 27.384C137.146 27.374 137.146 27.3541 137.156 27.3441C137.296 26.3441 137.906 25.494 138.686 24.794C140.176 23.434 141.786 22.214 143.266 20.854C143.766 20.404 144.286 19.984 144.406 19.264C144.496 18.694 144.276 18.104 144.106 17.574C143.886 16.874 143.636 16.224 143.526 15.494C143.256 13.704 143.556 11.704 144.466 10.104C144.666 10.244 144.866 10.3841 145.066 10.5341C144.146 12.5841 143.926 14.7341 144.746 17.0941C145.116 18.1341 145.446 19.214 144.886 20.244Z" fill="#384769"/>
<path d="M126.046 34.704C125.516 34.764 124.996 34.8641 124.476 35.0341C123.806 35.2441 123.216 35.6041 122.536 35.7841C122.136 35.8841 121.976 35.3241 122.246 35.0941C122.936 34.5041 123.716 34.214 124.546 34.074C125.046 34.284 125.546 34.484 126.046 34.704Z" fill="#384769"/>
<path d="M16.2356 59.6241C16.1556 59.8041 16.0656 59.994 15.9856 60.164C15.8556 60.444 15.4556 60.264 15.5456 59.984C15.6156 59.764 15.6856 59.554 15.7556 59.334C15.9156 59.414 16.0756 59.5141 16.2356 59.6241Z" fill="#384769"/>
<path d="M43.1256 62.144C42.9256 62.234 42.7256 62.3241 42.5356 62.4041C42.3656 62.4841 42.1856 62.554 42.0156 62.634C41.8556 61.884 41.7556 61.104 41.6356 60.384C41.4456 59.244 41.1956 58.054 40.3856 57.174C39.4956 56.214 38.1856 55.794 37.2856 54.854C35.7256 53.224 35.7656 50.764 36.2656 48.704C36.6356 47.214 37.2256 45.794 37.4856 44.274C37.6656 43.214 37.4456 42.1841 37.3556 41.1541C36.2856 42.3841 34.8456 43.264 33.6156 44.324C32.0656 45.654 31.0656 47.544 29.2956 48.634C27.7356 49.604 25.8956 49.954 24.0956 50.144C23.0556 50.254 21.9356 50.2441 20.9556 50.6241C19.7256 51.0941 19.2756 52.144 18.8256 53.274C17.9856 55.394 17.1756 57.534 16.2156 59.614C16.0556 59.504 15.8956 59.404 15.7356 59.324C16.4856 56.984 17.3856 54.664 18.3356 52.414C19.0456 50.734 20.1456 49.874 21.9556 49.584C23.8956 49.274 25.8356 49.2841 27.6856 48.5341C29.8356 47.6641 30.8656 45.794 32.4356 44.234C33.7656 42.914 35.4256 41.974 36.6756 40.574C37.2456 39.934 37.6856 39.244 37.5056 38.364C37.4056 37.914 37.1256 37.514 36.9256 37.104C36.5756 36.374 36.3856 35.614 36.3556 34.804C36.2656 32.794 37.0556 30.704 36.3956 28.744C35.8756 27.174 34.6456 25.9641 33.8656 24.5341C32.9656 22.8941 33.2856 21.3241 33.0756 19.5941C33.4456 19.3541 33.8256 19.114 34.2056 18.884C34.3256 20.024 34.0656 21.184 34.2156 22.324C34.3656 23.444 34.9456 24.3841 35.5656 25.3141C36.4956 26.7041 37.4356 28.054 37.5656 29.774C37.7156 31.774 36.9056 33.8441 37.3856 35.8141C37.8256 37.6141 39.1356 38.664 37.8956 40.474C38.1456 41.544 38.3556 42.604 38.3056 43.7141C38.2356 45.1441 37.8156 46.484 37.4556 47.854C36.7656 50.474 36.5256 53.244 39.0756 54.894C40.9356 56.094 42.0756 57.114 42.5956 59.324C42.8156 60.284 42.9256 61.244 43.1256 62.144Z" fill="#384769"/>
<path d="M43.7456 65.864C42.7156 65.064 42.2756 63.884 42.0156 62.644C42.1856 62.564 42.3656 62.494 42.5356 62.414C42.7356 62.324 42.9256 62.2341 43.1256 62.1541C43.3556 63.2041 43.7256 64.204 44.5556 65.054C45.0256 65.534 44.2556 66.254 43.7456 65.864Z" fill="#384769"/>
<path d="M77.4056 80.584C76.6756 80.554 75.9456 80.534 75.2256 80.494C74.7756 80.174 74.3156 79.864 73.8556 79.554C73.5556 79.354 73.2556 79.154 72.9556 78.964C71.9756 78.334 70.5956 77.754 69.8456 76.794C69.7556 76.674 69.6656 76.554 69.5956 76.424C69.4756 76.214 69.6956 76.014 69.8956 76.024C70.4656 76.054 71.0456 76.304 71.5956 76.624C72.3356 77.054 73.0456 77.624 73.6756 78.014C74.3856 78.454 75.1256 78.884 75.8356 79.354C76.3656 79.714 76.8756 80.084 77.3456 80.514L77.4056 80.584Z" fill="#452E61"/>
<path d="M116.146 58.664C115.496 59.234 114.696 59.884 114.406 60.724C113.936 62.094 114.646 63.774 113.336 64.794C112.526 65.424 111.726 65.804 111.276 66.804C110.916 67.604 110.936 68.604 111.456 69.314C111.556 69.454 111.776 69.414 111.846 69.264C112.256 68.324 112.526 67.294 113.386 66.644C114.026 66.154 114.746 65.864 115.166 65.134C115.616 64.364 115.556 63.414 115.606 62.544C115.686 61.244 115.926 60.584 117.086 59.864C117.906 59.354 116.906 58.014 116.146 58.664Z" fill="#452E61"/>
<path d="M23.1656 40.694C23.9956 40.514 24.7156 40.034 25.4256 39.554C27.6056 38.084 36.5156 33.194 31.4356 29.764C28.1156 27.514 23.1556 33.154 21.7256 35.524C20.6656 37.264 19.4656 41.494 23.1656 40.694Z" fill="#29E1C2"/>
<path d="M57.2556 13.1741C56.2556 13.4841 55.2156 13.8141 54.4156 14.5341C53.6156 15.2541 53.1256 16.4741 53.5156 17.5141C53.8056 18.2741 54.5056 18.7841 55.2456 19.0041C55.9856 19.2241 56.7656 19.2041 57.5256 19.1741C59.1656 19.1241 60.8156 19.0641 62.4556 19.0141C63.3656 18.9841 64.2956 18.954 65.1356 18.604C67.2956 17.714 68.3356 15.0741 70.2556 13.6841C71.3556 12.8941 73.3256 12.5441 74.0856 11.3341C74.7456 10.2841 73.6656 9.41406 72.7556 9.18406C71.3656 8.82406 69.5956 9.67407 68.2556 10.0341C66.5356 10.4941 64.8156 10.9741 63.0956 11.4641C61.1356 12.0041 59.1956 12.5841 57.2556 13.1741Z" fill="#29E1C2"/>
<path d="M39.1856 21.274C38.3956 21.614 37.5156 22.154 37.4556 23.014C37.4256 23.494 37.6756 23.964 38.0256 24.304C38.3756 24.634 38.8156 24.864 39.2456 25.084C40.2656 25.604 41.3056 26.1241 42.4356 26.2841C43.5656 26.4441 44.8156 26.184 45.5856 25.334C46.4056 24.414 46.4756 22.964 45.9056 21.874C45.4256 20.954 44.2156 19.764 43.0856 19.854C41.8556 19.954 40.3056 20.794 39.1856 21.274Z" fill="#29E1C2"/>
<path d="M60.2456 41.774C59.0056 40.324 57.0956 42.184 58.1456 43.414C59.3456 44.824 61.3256 43.034 60.2456 41.774Z" fill="#00A89D"/>
<path d="M64.1356 35.384C61.8656 35.384 63.0756 38.704 64.7156 37.414C65.5956 36.734 65.0056 35.384 64.1356 35.384Z" fill="#00A89D"/>
<path d="M58.7856 35.2541C57.4256 35.2541 57.1756 37.3741 58.5556 37.3741C59.9056 37.3841 60.1556 35.2541 58.7856 35.2541Z" fill="#00A89D"/>
<path d="M13.4056 52.644C13.1956 52.674 12.6356 53.0041 12.6756 52.9641C12.5156 53.1041 12.4056 53.234 12.4356 53.204C11.5656 54.294 12.9056 55.344 12.4356 54.884C12.4856 54.934 12.6356 55.084 12.6856 55.134C12.6656 55.114 12.6456 55.094 12.6256 55.074C13.5656 55.914 15.0456 55.2841 15.0156 54.0041C15.0056 53.1841 14.2456 52.504 13.4056 52.644Z" fill="#00A89D"/>
<path d="M8.36561 49.8041C8.39561 51.1341 10.4956 51.154 10.4656 49.764C10.4356 48.384 8.33561 48.4841 8.36561 49.8041Z" fill="#00A89D"/>
<path d="M7.5956 54.174C6.2456 54.174 5.99559 56.2841 7.36559 56.2841C8.70559 56.2841 8.9656 54.174 7.5956 54.174Z" fill="#00A89D"/>
<path d="M117.816 26.044C117.836 27.054 119.366 26.984 119.346 26.014C119.326 25.034 117.796 25.044 117.816 26.044Z" fill="#00A89D"/>
<path d="M125.016 25.9041C123.716 25.9041 123.476 27.9341 124.796 27.9341C126.086 27.9241 126.326 25.9041 125.016 25.9041Z" fill="#00A89D"/>
<path d="M131.586 16.4541C130.916 15.7941 129.896 16.4041 129.846 17.0941C129.716 19.2041 133.026 17.8741 131.586 16.4541Z" fill="#00A89D"/>
<path d="M134.526 20.914C133.186 20.914 132.936 23.014 134.296 23.014C135.636 23.014 135.886 20.914 134.526 20.914Z" fill="#00A89D"/>
<path d="M129.806 20.604C128.066 20.604 127.746 23.324 129.506 23.324C131.246 23.324 131.576 20.604 129.806 20.604Z" fill="#00A89D"/>
<path d="M140.076 10.5041C138.716 10.5041 138.456 12.634 139.846 12.634C141.206 12.634 141.456 10.5041 140.076 10.5041Z" fill="#00A89D"/>
<path d="M87.7056 42.714C86.9956 41.824 85.8656 42.434 85.8256 43.174C85.7656 44.254 86.9456 44.754 87.6256 44.074C87.9756 43.714 88.0256 43.114 87.7056 42.714Z" fill="#00A89D"/>
<path d="M91.9156 38.3041C91.7456 37.2341 90.1556 37.1741 89.9756 38.3441C89.8656 39.0341 90.4456 39.494 90.9656 39.474C91.5056 39.464 92.0156 38.9941 91.9156 38.3041Z" fill="#00A89D"/>
<path d="M87.9856 37.454C86.6456 37.454 86.3956 39.554 87.7556 39.554C89.1056 39.544 89.3556 37.454 87.9856 37.454Z" fill="#00A89D"/>
<path d="M93.4256 32.544C92.7756 33.044 92.8156 33.9441 93.1956 34.4041C94.0756 35.4341 95.4856 34.714 95.5556 33.734C95.6356 32.494 94.3256 31.844 93.4256 32.544Z" fill="#00A89D"/>
<path d="M95.1156 36.804C93.8356 36.804 93.6056 38.794 94.8956 38.794C96.1656 38.804 96.4056 36.804 95.1156 36.804Z" fill="#00A89D"/>
<path d="M70.5556 62.1441C69.7756 60.9241 68.2056 62.654 69.5656 63.324C70.3556 63.714 71.0356 62.8941 70.5556 62.1441Z" fill="#38778A"/>
<path d="M76.1956 62.514C75.2356 62.514 75.2356 64.0041 76.1956 64.0041C77.1456 63.9941 77.1456 62.514 76.1956 62.514Z" fill="#38778A"/>
<path d="M73.3156 58.5041C71.7056 58.5041 71.8056 60.8741 73.3156 60.8741C74.9356 60.8741 74.8256 58.5041 73.3156 58.5041Z" fill="#38778A"/>
<path d="M37.3756 66.994C36.3256 66.994 36.3256 68.614 37.3756 68.614C38.4256 68.614 38.4256 66.994 37.3756 66.994Z" fill="#38778A"/>
<path d="M41.0456 64.6841C40.0856 64.6841 40.0856 66.1841 41.0456 66.1841C42.0056 66.1741 42.0056 64.6841 41.0456 64.6841Z" fill="#38778A"/>
<path d="M128.866 50.524C127.906 50.524 127.906 52.014 128.866 52.014C129.826 52.014 129.826 50.524 128.866 50.524Z" fill="#38778A"/>
<path d="M139.726 42.7141C139.106 43.0241 139.166 43.904 139.686 44.164C140.436 44.544 141.006 44.004 141.006 43.444C141.006 42.874 140.406 42.3741 139.726 42.7141Z" fill="#38778A"/>
<path d="M146.386 39.854C144.626 39.854 144.666 42.5041 146.386 42.5041C148.196 42.4941 148.076 39.854 146.386 39.854Z" fill="#38778A"/>
<path d="M151.686 34.444C151.586 35.574 153.456 35.504 153.366 34.444C153.266 33.234 151.786 33.274 151.686 34.444Z" fill="#38778A"/>
<path d="M149.356 35.0641C148.256 35.0641 148.246 36.7841 149.356 36.7841C150.466 36.7841 150.466 35.0641 149.356 35.0641Z" fill="#38778A"/>
<path d="M142.036 38.554C140.916 38.604 140.946 40.324 142.036 40.274C143.286 40.224 142.996 38.514 142.036 38.554Z" fill="#38778A"/>
<path d="M122.616 38.6741C123.046 39.4941 124.546 39.2541 124.506 38.2041C124.426 36.5741 121.856 37.2441 122.616 38.6741Z" fill="#38778A"/>
<path d="M94.3456 58.734C93.5656 60.074 95.8156 61.264 96.3556 59.584C96.7256 58.464 95.0356 57.564 94.3456 58.734Z" fill="#38778A"/>
<path d="M25.6956 59.984C24.5556 59.984 24.5556 61.764 25.6956 61.764C26.8356 61.764 26.8356 59.984 25.6956 59.984Z" fill="#384769"/>
<path d="M27.2356 65.134C27.3056 66.734 29.5556 66.514 29.4956 65.134C29.4256 63.534 27.1756 63.754 27.2356 65.134Z" fill="#384769"/>
<path d="M28.6656 60.7541C27.8656 60.7541 27.8656 61.994 28.6656 61.994C29.4656 61.994 29.4656 60.7541 28.6656 60.7541Z" fill="#384769"/>
<path d="M42.3556 42.434C42.0356 42.724 42.0756 43.224 42.3256 43.454C42.9356 44.004 43.6256 43.474 43.6056 42.954C43.5756 42.294 42.8556 41.984 42.3556 42.434Z" fill="#384769"/>
<path d="M41.6356 46.894C40.2056 46.894 40.1956 49.1241 41.6356 49.1241C43.0656 49.1141 43.0756 46.894 41.6356 46.894Z" fill="#384769"/>
<path d="M44.8056 44.634C43.8556 43.684 43.1656 45.984 44.5356 45.654C44.9956 45.544 45.1256 44.954 44.8056 44.634Z" fill="#384769"/>
<path d="M84.2156 52.324C83.6856 52.324 83.1656 52.8941 83.3756 53.4341C83.3856 53.4441 83.3856 53.464 83.3956 53.474C83.5256 53.814 83.8256 54.124 84.2256 54.104C84.6256 54.084 84.9156 53.844 85.0556 53.474C85.0656 53.464 85.0656 53.4441 85.0756 53.4341C85.2556 52.8941 84.7456 52.324 84.2156 52.324Z" fill="#384769"/>
<path d="M143.226 24.114C141.976 24.114 142.056 25.944 143.226 25.944C144.476 25.954 144.386 24.114 143.226 24.114Z" fill="#384769"/>
<path d="M86.6856 5.04404C85.5556 5.04404 85.5556 6.79404 86.6856 6.79404C87.8156 6.80404 87.8156 5.04404 86.6856 5.04404Z" fill="#384769"/>
<path d="M89.4256 6.53405C88.9456 6.62405 88.9456 7.40404 89.4256 7.49404C90.3456 7.66404 90.3456 6.36405 89.4256 6.53405Z" fill="#384769"/>
<path d="M90.9456 4.09406C89.8656 4.09406 89.8656 5.77405 90.9456 5.77405C92.0256 5.77405 92.0256 4.09406 90.9456 4.09406Z" fill="#384769"/>
<path d="M83.3156 26.454C82.2156 26.454 82.2156 28.164 83.3156 28.164C84.4156 28.164 84.4156 26.454 83.3156 26.454Z" fill="#384769"/>
<path d="M88.4656 20.9341C87.1356 20.9341 87.1356 23.0041 88.4656 23.0041C89.7956 22.9941 89.7956 20.9341 88.4656 20.9341Z" fill="#384769"/>
<path d="M54.6056 71.9341C53.3456 71.9341 53.4356 73.774 54.6056 73.774C55.8656 73.774 55.7856 71.9341 54.6056 71.9341Z" fill="#384769"/>
<path d="M62.8556 72.264C62.0556 72.744 62.1756 74.144 63.5256 74.204C64.0756 74.224 64.6056 73.704 64.5856 73.144C64.5356 72.244 63.5856 71.824 62.8556 72.264Z" fill="#384769"/>
<path d="M60.2556 73.454C59.2356 73.454 59.2356 75.0341 60.2556 75.0341C61.2656 75.0341 61.2656 73.454 60.2556 73.454Z" fill="#384769"/>
<path d="M90.8456 68.824C89.7456 68.824 89.7356 70.544 90.8456 70.544C91.9456 70.544 91.9556 68.824 90.8456 68.824Z" fill="#384769"/>
<path d="M115.086 57.824C114.366 57.114 113.396 58.384 114.266 58.894C114.886 59.254 115.716 58.444 115.086 57.824Z" fill="#384769"/>
<path d="M132.526 55.354C131.406 55.354 131.406 57.0941 132.526 57.0941C133.646 57.0941 133.646 55.354 132.526 55.354Z" fill="#384769"/>
<path d="M106.486 75.764C105.386 75.764 105.386 77.474 106.486 77.474C107.586 77.474 107.586 75.764 106.486 75.764Z" fill="#384769"/>
<path d="M114.826 70.4341C114.906 71.6941 116.496 71.6341 116.576 70.4341C116.646 69.2541 114.756 69.3241 114.826 70.4341Z" fill="#384769"/>
<path d="M114.616 73.5641C113.206 75.0741 116.226 76.4041 116.486 74.4941C116.626 73.4241 115.336 72.7941 114.616 73.5641Z" fill="#384769"/>
<path d="M121.616 70.354C120.946 71.064 121.726 72.1941 122.636 71.8041C123.976 71.2441 122.626 69.264 121.616 70.354Z" fill="#384769"/>
<path d="M92.2956 61.294C90.9656 61.024 90.9556 63.1041 92.2956 62.8341C93.1556 62.6641 93.0956 61.454 92.2956 61.294Z" fill="#452E61"/>
<path d="M104.316 39.6841C104.376 41.0641 106.326 40.8741 106.276 39.6841C106.216 38.3041 104.266 38.4941 104.316 39.6841Z" fill="#452E61"/>
<path d="M109.166 37.734C107.676 37.734 107.666 40.054 109.166 40.054C110.656 40.054 110.656 37.734 109.166 37.734Z" fill="#452E61"/>
<path d="M107.596 42.1841C107.286 41.3241 106.266 41.3941 105.976 42.1841C105.746 42.8041 106.296 43.3141 106.786 43.3141C107.276 43.3141 107.826 42.8041 107.596 42.1841Z" fill="#452E61"/>
<path d="M109.956 42.634C108.906 42.634 108.906 44.2541 109.956 44.2541C110.996 44.2641 111.006 42.634 109.956 42.634Z" fill="#452E61"/>
<path d="M13.7156 62.1841C12.7256 62.1841 12.7256 63.7141 13.7156 63.7141C14.7056 63.7241 14.7056 62.1841 13.7156 62.1841Z" fill="#452E61"/>
<path d="M10.6856 63.944C10.6256 64.824 12.0356 64.764 11.9856 63.944C11.9256 63.004 10.7456 63.024 10.6856 63.944Z" fill="#452E61"/>
<path d="M40.1256 26.804C38.9656 26.804 38.9556 28.614 40.1256 28.614C41.2956 28.614 41.2956 26.804 40.1256 26.804Z" fill="#29E1C2"/>
<path d="M43.9156 27.384C43.0156 27.384 43.0156 28.774 43.9156 28.774C44.8056 28.774 44.8156 27.384 43.9156 27.384Z" fill="#29E1C2"/>
<path d="M17.8456 40.074C16.8456 40.074 16.8456 41.6241 17.8456 41.6241C18.8456 41.6241 18.8556 40.074 17.8456 40.074Z" fill="#29E1C2"/>
<path d="M19.3356 41.414C18.8056 41.554 18.7656 42.3641 19.3656 42.5241C20.3156 42.7741 20.3456 41.154 19.3356 41.414Z" fill="#29E1C2"/>
<path d="M17.1756 42.514C16.5656 42.764 16.6356 43.414 17.1756 43.634C17.6056 43.814 17.9656 43.404 17.9656 43.074C17.9656 42.744 17.6056 42.344 17.1756 42.514Z" fill="#29E1C2"/>
<path d="M70.3656 15.384C70.4056 16.304 71.6956 16.174 71.6656 15.384C71.6256 14.464 70.3356 14.594 70.3656 15.384Z" fill="#29E1C2"/>
<path d="M74.4356 12.324C73.0756 12.324 73.0756 14.4341 74.4356 14.4341C75.7956 14.4341 75.7956 12.324 74.4356 12.324Z" fill="#29E1C2"/>
<path d="M117.506 5.15405C116.006 5.15405 116.006 7.48404 117.506 7.48404C119.006 7.48404 119.006 5.15405 117.506 5.15405Z" fill="#29E1C2"/>
<path d="M117.546 8.77405C117.256 9.45405 117.736 9.87405 118.176 9.87405C118.436 9.87405 118.676 9.73404 118.806 9.51404C119.316 8.64404 117.916 7.90405 117.546 8.77405Z" fill="#29E1C2"/>
<path d="M119.956 7.36404C119.996 8.20404 121.186 8.09404 121.156 7.36404C121.106 6.51404 119.916 6.63404 119.956 7.36404Z" fill="#29E1C2"/>
<path d="M72.1756 22.5941C71.7856 22.3741 71.2856 22.654 71.2856 23.104C71.2856 23.534 71.7556 23.854 72.2056 23.604C72.5556 23.394 72.6056 22.8341 72.1756 22.5941Z" fill="#38778A"/>
<path d="M78.1256 18.274C78.1956 19.874 80.4456 19.654 80.3856 18.274C80.3256 16.684 78.0656 16.894 78.1256 18.274Z" fill="#38778A"/>
<path d="M118.286 17.1841C117.036 17.1841 117.226 19.374 118.706 18.734C119.386 18.444 119.206 17.1841 118.286 17.1841Z" fill="#38778A"/>
<path d="M112.756 18.444C111.826 18.444 111.826 19.894 112.756 19.894C113.686 19.894 113.686 18.444 112.756 18.444Z" fill="#38778A"/>
<path d="M110.596 18.144C109.846 18.144 109.846 19.304 110.596 19.304C111.346 19.304 111.346 18.144 110.596 18.144Z" fill="#38778A"/>
<path d="M46.1256 32.714C46.2756 33.444 47.5156 33.384 47.5156 32.524C47.5156 31.504 45.8956 31.644 46.1256 32.714Z" fill="#38778A"/>
<path d="M45.6156 34.9841C44.5356 35.4841 45.4756 37.304 46.6256 36.634C47.6256 36.054 46.9556 34.3641 45.6156 34.9841Z" fill="#38778A"/>
<path d="M26.9056 43.834C25.7856 43.534 25.7856 45.434 26.9056 45.134C27.6156 44.954 27.5856 44.014 26.9056 43.834Z" fill="#38778A"/>
<path d="M30.8656 41.584C30.6456 41.264 30.1956 41.204 29.9256 41.614C29.6856 41.974 30.0056 42.454 30.4056 42.454C30.7756 42.444 31.1356 41.994 30.8656 41.584Z" fill="#38778A"/>
<path d="M54.0056 54.444C54.0756 56.034 56.3156 55.814 56.2556 54.444C56.1856 52.854 53.9356 53.064 54.0056 54.444Z" fill="#384769"/>
<path d="M56.4856 52.944C56.6256 53.664 57.6556 53.614 57.7856 52.944C58.0056 51.814 56.2556 51.824 56.4856 52.944Z" fill="#384769"/>
</svg>
