<svg width="65" height="65" viewBox="0 0 65 65" fill="none" xmlns="http://www.w3.org/2000/svg">
<rect y="0.854858" width="65" height="64" rx="8" fill="#212429" fill-opacity="0.5"/>
<path d="M32.5 32.8549C38.0228 32.8549 42.5 28.3777 42.5 22.8549C42.5 17.332 38.0228 12.8549 32.5 12.8549C26.9772 12.8549 22.5 17.332 22.5 22.8549C22.5 28.3777 26.9772 32.8549 32.5 32.8549Z" stroke="#F4B92E" stroke-width="2" stroke-linecap="round" stroke-linejoin="round"/>
<path d="M32.5 28.8549C35.8137 28.8549 38.5 26.1686 38.5 22.8549C38.5 19.5411 35.8137 16.8549 32.5 16.8549C29.1863 16.8549 26.5 19.5411 26.5 22.8549C26.5 26.1686 29.1863 28.8549 32.5 28.8549Z" stroke="#F4B92E" stroke-width="2" stroke-linecap="round" stroke-linejoin="round"/>
<path d="M32.5 24.8549C33.6046 24.8549 34.5 23.9594 34.5 22.8549C34.5 21.7503 33.6046 20.8549 32.5 20.8549C31.3954 20.8549 30.5 21.7503 30.5 22.8549C30.5 23.9594 31.3954 24.8549 32.5 24.8549Z" stroke="#F4B92E" stroke-width="2" stroke-linecap="round" stroke-linejoin="round"/>
<path d="M24.2907 46.4564V52.8549H23.1964V46.4564H24.2907ZM26.299 46.4564V47.3353H21.2057V46.4564H26.299ZM28.949 51.9012V49.6337C28.949 49.4637 28.9183 49.3173 28.8568 49.1942C28.7952 49.0712 28.7015 48.976 28.5755 48.9086C28.4525 48.8412 28.2972 48.8075 28.1097 48.8075C27.9368 48.8075 27.7874 48.8368 27.6614 48.8954C27.5355 48.954 27.4373 49.0331 27.367 49.1327C27.2967 49.2323 27.2615 49.3451 27.2615 49.4711H26.2069C26.2069 49.2836 26.2523 49.1019 26.3431 48.9261C26.4339 48.7504 26.5657 48.5936 26.7386 48.4559C26.9114 48.3182 27.118 48.2098 27.3582 48.1307C27.5985 48.0516 27.868 48.0121 28.1668 48.0121C28.5242 48.0121 28.8406 48.0721 29.116 48.1923C29.3944 48.3124 29.6126 48.494 29.7708 48.7372C29.932 48.9774 30.0125 49.2792 30.0125 49.6425V51.7562C30.0125 51.973 30.0272 52.1678 30.0565 52.3407C30.0887 52.5106 30.1341 52.6586 30.1927 52.7845V52.8549H29.1072C29.0574 52.7406 29.0179 52.5956 28.9886 52.4198C28.9622 52.2411 28.949 52.0682 28.949 51.9012ZM29.1029 49.9633L29.1116 50.618H28.3514C28.1551 50.618 27.9822 50.6371 27.8328 50.6752C27.6834 50.7103 27.5589 50.7631 27.4593 50.8334C27.3597 50.9037 27.285 50.9886 27.2352 51.0883C27.1854 51.1879 27.1605 51.3007 27.1605 51.4266C27.1605 51.5526 27.1898 51.6683 27.2484 51.7738C27.307 51.8763 27.3919 51.9569 27.5032 52.0155C27.6175 52.0741 27.7552 52.1034 27.9163 52.1034C28.1331 52.1034 28.3221 52.0594 28.4832 51.9716C28.6473 51.8807 28.7762 51.7709 28.8699 51.642C28.9637 51.5101 29.0135 51.3856 29.0194 51.2684L29.3621 51.7386C29.327 51.8588 29.2669 51.9877 29.182 52.1254C29.097 52.2631 28.9857 52.3949 28.848 52.5209C28.7132 52.6439 28.5506 52.745 28.3602 52.8241C28.1727 52.9032 27.9559 52.9427 27.7098 52.9427C27.3992 52.9427 27.1224 52.8812 26.8792 52.7582C26.6361 52.6322 26.4456 52.4637 26.3079 52.2528C26.1702 52.0389 26.1014 51.7972 26.1014 51.5277C26.1014 51.2758 26.1483 51.0531 26.242 50.8597C26.3387 50.6635 26.4793 50.4994 26.6639 50.3676C26.8514 50.2357 27.0799 50.1361 27.3494 50.0687C27.619 49.9984 27.9266 49.9633 28.2723 49.9633H29.1029ZM33.6074 51.5673C33.6074 51.4618 33.5811 51.3666 33.5283 51.2816C33.4756 51.1937 33.3745 51.1146 33.2251 51.0443C33.0786 50.974 32.8618 50.9095 32.5747 50.851C32.3228 50.7953 32.0913 50.7294 31.8804 50.6532C31.6724 50.5741 31.4937 50.4789 31.3442 50.3676C31.1948 50.2562 31.0791 50.1244 30.9971 49.972C30.915 49.8197 30.874 49.6439 30.874 49.4447C30.874 49.2513 30.9165 49.0682 31.0015 48.8954C31.0864 48.7225 31.208 48.5702 31.3662 48.4384C31.5244 48.3065 31.7163 48.2025 31.9419 48.1263C32.1704 48.0502 32.4253 48.0121 32.7065 48.0121C33.105 48.0121 33.4463 48.0795 33.7305 48.2142C34.0176 48.3461 34.2373 48.5262 34.3896 48.7548C34.542 48.9803 34.6182 49.2352 34.6182 49.5194H33.5591C33.5591 49.3934 33.5269 49.2762 33.4624 49.1678C33.4009 49.0565 33.3071 48.9672 33.1812 48.8998C33.0552 48.8295 32.897 48.7943 32.7065 48.7943C32.5249 48.7943 32.374 48.8236 32.2539 48.8822C32.1367 48.9379 32.0488 49.0111 31.9902 49.1019C31.9346 49.1927 31.9067 49.2924 31.9067 49.4008C31.9067 49.4799 31.9214 49.5516 31.9507 49.6161C31.9829 49.6776 32.0356 49.7347 32.1089 49.7875C32.1821 49.8373 32.2817 49.8842 32.4077 49.9281C32.5366 49.972 32.6978 50.0145 32.8911 50.0555C33.2544 50.1317 33.5664 50.2299 33.8271 50.35C34.0908 50.4672 34.293 50.6195 34.4336 50.807C34.5742 50.9916 34.6445 51.226 34.6445 51.5101C34.6445 51.7211 34.5991 51.9144 34.5083 52.0902C34.4204 52.2631 34.2915 52.4139 34.1216 52.5428C33.9517 52.6688 33.748 52.767 33.5107 52.8373C33.2764 52.9076 33.0127 52.9427 32.7197 52.9427C32.2891 52.9427 31.9243 52.8666 31.6255 52.7142C31.3267 52.559 31.0996 52.3612 30.9443 52.121C30.792 51.8778 30.7158 51.6259 30.7158 51.3651H31.7397C31.7515 51.5614 31.8057 51.7181 31.9023 51.8353C32.002 51.9496 32.125 52.0331 32.2715 52.0858C32.4209 52.1356 32.5747 52.1605 32.7329 52.1605C32.9233 52.1605 33.083 52.1356 33.2119 52.0858C33.3408 52.0331 33.439 51.9628 33.5063 51.8749C33.5737 51.7841 33.6074 51.6815 33.6074 51.5673ZM36.4596 46.1049V52.8549H35.3962V46.1049H36.4596ZM39.4128 48.1L37.3429 50.3939L36.2092 51.5541L35.9323 50.6576L36.7892 49.5985L38.134 48.1H39.4128ZM38.3625 52.8549L36.82 50.6224L37.488 49.8798L39.5886 52.8549H38.3625ZM42.5726 51.5673C42.5726 51.4618 42.5462 51.3666 42.4935 51.2816C42.4408 51.1937 42.3397 51.1146 42.1903 51.0443C42.0438 50.974 41.827 50.9095 41.5399 50.851C41.2879 50.7953 41.0565 50.7294 40.8456 50.6532C40.6376 50.5741 40.4588 50.4789 40.3094 50.3676C40.16 50.2562 40.0443 50.1244 39.9623 49.972C39.8802 49.8197 39.8392 49.6439 39.8392 49.4447C39.8392 49.2513 39.8817 49.0682 39.9667 48.8954C40.0516 48.7225 40.1732 48.5702 40.3314 48.4384C40.4896 48.3065 40.6815 48.2025 40.9071 48.1263C41.1356 48.0502 41.3905 48.0121 41.6717 48.0121C42.0702 48.0121 42.4115 48.0795 42.6957 48.2142C42.9828 48.3461 43.2025 48.5262 43.3548 48.7548C43.5072 48.9803 43.5834 49.2352 43.5834 49.5194H42.5243C42.5243 49.3934 42.4921 49.2762 42.4276 49.1678C42.3661 49.0565 42.2723 48.9672 42.1463 48.8998C42.0204 48.8295 41.8622 48.7943 41.6717 48.7943C41.4901 48.7943 41.3392 48.8236 41.2191 48.8822C41.1019 48.9379 41.014 49.0111 40.9554 49.1019C40.8998 49.1927 40.8719 49.2924 40.8719 49.4008C40.8719 49.4799 40.8866 49.5516 40.9159 49.6161C40.9481 49.6776 41.0008 49.7347 41.0741 49.7875C41.1473 49.8373 41.2469 49.8842 41.3729 49.9281C41.5018 49.972 41.6629 50.0145 41.8563 50.0555C42.2196 50.1317 42.5316 50.2299 42.7923 50.35C43.056 50.4672 43.2582 50.6195 43.3988 50.807C43.5394 50.9916 43.6097 51.226 43.6097 51.5101C43.6097 51.7211 43.5643 51.9144 43.4735 52.0902C43.3856 52.2631 43.2567 52.4139 43.0868 52.5428C42.9169 52.6688 42.7132 52.767 42.4759 52.8373C42.2416 52.9076 41.9779 52.9427 41.6849 52.9427C41.2543 52.9427 40.8895 52.8666 40.5907 52.7142C40.2919 52.559 40.0648 52.3612 39.9095 52.121C39.7572 51.8778 39.681 51.6259 39.681 51.3651H40.7049C40.7167 51.5614 40.7709 51.7181 40.8675 51.8353C40.9671 51.9496 41.0902 52.0331 41.2367 52.0858C41.3861 52.1356 41.5399 52.1605 41.6981 52.1605C41.8885 52.1605 42.0482 52.1356 42.1771 52.0858C42.306 52.0331 42.4042 51.9628 42.4715 51.8749C42.5389 51.7841 42.5726 51.6815 42.5726 51.5673Z" fill="white"/>
</svg>
