<svg width="340" height="176" viewBox="0 0 340 176" fill="none" xmlns="http://www.w3.org/2000/svg">
<g opacity="0.75">
<path d="M9.21167 162.83L296.434 162.83L330.804 135.753L330.804 11.4338L43.5668 11.4337L9.21168 38.4948L9.21167 162.83Z" fill="black"/>
</g>
<path d="M230.221 11.1118L317.671 11.1118L310.148 0.247516L237.745 0.24751L230.221 11.1118Z" fill="#00FFFF"/>
<path d="M9.21136 162.525L9.21153 38.8014L43.5666 11.7402L330.804 11.7403L330.804 135.464L296.433 162.525L9.21136 162.525ZM6.89752 164.839L9.21136 164.839L296.433 164.839L297.23 164.839L297.858 164.349L332.229 137.272L333.117 136.583L333.117 135.464L333.117 11.7403L333.117 9.42644L330.804 9.42644L43.5666 9.42641L42.7698 9.42641L42.1416 9.91677L7.78645 36.9932L6.89772 37.6828L6.89772 38.8167L6.89752 162.525L6.89752 164.839Z" fill="#00FFFF"/>
<path d="M22.7266 164.873L110.193 164.873L102.654 175.752L30.2658 175.752L22.7266 164.873Z" fill="#00FFFF"/>
<path d="M0.844482 95.0232L8.91992 95.0232L8.91992 59.5495L0.844486 59.5495L0.844482 95.0232Z" fill="#00FFFF"/>
<path d="M331.08 53.3586L339.155 53.3586L339.155 17.885L331.08 17.885L331.08 53.3586Z" fill="#00FFFF"/>
<path d="M335.815 137.919L298.18 167.585L192.954 167.585L192.954 169.899L298.977 169.899L338.128 139.053L338.128 127.637L335.815 127.637L335.815 137.919Z" fill="#00FFFF"/>
<path d="M4.18513 46.0339L4.18514 36.3802L41.8194 6.71408L147.061 6.71408L147.061 4.40025L41.0226 4.40024L1.87131 35.2463L1.87131 46.0339L4.18513 46.0339Z" fill="#00FFFF"/>
<path d="M80.8167 151.08L281.967 151.08C282.611 151.08 283.132 151.601 283.132 152.245C283.132 152.888 282.611 153.409 281.967 153.409L80.832 153.409C80.1884 153.409 79.6674 152.888 79.6674 152.245C79.6674 151.586 80.1884 151.08 80.8167 151.08Z" fill="#00FFFF"/>
<path d="M69.8143 148.368C67.6816 148.368 65.9528 150.097 65.9528 152.23C65.9528 154.362 67.6816 156.091 69.8143 156.091C71.9469 156.091 73.6758 154.362 73.6758 152.23C73.6758 150.097 71.9469 148.368 69.8143 148.368Z" fill="#00FFFF"/>
<path opacity="0.8" d="M58.0763 148.368C55.9436 148.368 54.2148 150.097 54.2148 152.23C54.2148 154.362 55.9436 156.091 58.0763 156.091C60.2089 156.091 61.9377 154.362 61.9377 152.23C61.9377 150.097 60.2089 148.368 58.0763 148.368Z" fill="#00FFFF"/>
<path opacity="0.6" d="M46.3387 148.368C44.2061 148.368 42.4772 150.097 42.4772 152.23C42.4772 154.362 44.2061 156.091 46.3387 156.091C48.4714 156.091 50.2002 154.362 50.2002 152.23C50.2002 150.097 48.4714 148.368 46.3387 148.368Z" fill="#00FFFF"/>
<path opacity="0.4" d="M34.6019 148.368C32.4692 148.368 30.7404 150.097 30.7404 152.23C30.7404 154.362 32.4692 156.091 34.6019 156.091C36.7345 156.091 38.4634 154.362 38.4634 152.23C38.4634 150.097 36.7345 148.368 34.6019 148.368Z" fill="#00FFFF"/>
</svg>
